<svg xmlns="http://www.w3.org/2000/svg" width="18" height="16" fill="none" viewBox="0 0 18 16"><path fill="#E47F40" d="M3.96714 11.9631H11.2236C11.3046 11.9635 11.385 11.948 11.46 11.9174C11.5351 11.8868 11.6034 11.8417 11.6609 11.7846L16.8722 6.57846C16.9959 6.45857 17.0942 6.31509 17.1614 6.15653C17.2286 5.99797 17.2632 5.82755 17.2632 5.65538C17.2632 5.48322 17.2286 5.3128 17.1614 5.15424C17.0942 4.99568 16.9959 4.8522 16.8722 4.73231L15.9236 3.80923C15.8036 3.68566 15.66 3.58743 15.5012 3.52034C15.3425 3.45326 15.1719 3.41869 14.9996 3.41869C14.8273 3.41869 14.6567 3.45326 14.498 3.52034C14.3392 3.58743 14.1956 3.68566 14.0756 3.80923L13.2625 4.62154V1.30462C13.2675 0.965588 13.1382 0.638315 12.9029 0.393995C12.6676 0.149675 12.3452 0.00807526 12.0059 6.82636e-09H1.28756C1.11693 -1.75553e-05 0.947992 0.0338516 0.790578 0.0996383C0.633163 0.165425 0.490409 0.261817 0.370615 0.383209C0.250822 0.504602 0.156379 0.648574 0.092777 0.806754C0.0291751 0.964935 -0.00231664 1.13417 0.000132647 1.30462V14.6954C-0.00231664 14.8658 0.0291751 15.0351 0.092777 15.1932C0.156379 15.3514 0.250822 15.4954 0.370615 15.6168C0.490409 15.7382 0.633163 15.8346 0.790578 15.9004C0.947992 15.9661 1.11693 16 1.28756 16H12.0059C12.3473 16 12.6748 15.8645 12.9162 15.6233C13.1577 15.3821 13.2933 15.055 13.2933 14.7138V12.9231C13.2933 12.7599 13.2284 12.6033 13.1129 12.4879C12.9974 12.3725 12.8407 12.3077 12.6773 12.3077C12.5139 12.3077 12.3572 12.3725 12.2417 12.4879C12.1262 12.6033 12.0613 12.7599 12.0613 12.9231V14.6954C12.0613 14.7101 12.0555 14.7242 12.0451 14.7345C12.0347 14.7449 12.0206 14.7508 12.0059 14.7508H1.28756C1.27286 14.7508 1.25876 14.7449 1.24836 14.7345C1.23796 14.7242 1.23212 14.7101 1.23212 14.6954V1.30462C1.22906 1.296 1.22817 1.28677 1.22955 1.27773C1.23092 1.2687 1.23452 1.26014 1.24001 1.25283C1.2455 1.24552 1.25271 1.23968 1.26101 1.23583C1.26931 1.23198 1.27843 1.23024 1.28756 1.23077H12.0059C12.0206 1.23077 12.0347 1.2366 12.0451 1.24699C12.0555 1.25738 12.0613 1.27147 12.0613 1.28615V5.83385L8.88894 9.00308C8.83184 9.06058 8.78668 9.12877 8.75602 9.20375C8.72537 9.27873 8.70983 9.35901 8.7103 9.44V10.72H3.96714C3.80377 10.72 3.64709 10.7848 3.53156 10.9002C3.41604 11.0156 3.35114 11.1722 3.35114 11.3354C3.35114 11.4986 3.41604 11.6551 3.53156 11.7705C3.64709 11.8859 3.80377 11.9508 3.96714 11.9508V11.9631ZM9.94228 9.71077L13.0962 6.56L13.127 6.52923L14.975 4.68308C14.9851 4.67399 14.9983 4.66897 15.0119 4.66897C15.0256 4.66897 15.0387 4.67399 15.0489 4.68308L16.016 5.63077V5.70462L10.9833 10.7323H9.94228V9.71077Z"/></svg>