<svg xmlns="http://www.w3.org/2000/svg" width="13" height="19" fill="none" viewBox="0 0 13 19"><path fill="#E47F40" d="M12.975 6.28884C12.975 9.76207 10.0704 14.1335 6.48749 14.1335C2.90455 14.1335 0 9.76207 0 6.28884C0 2.81561 2.90455 0 6.48749 0C10.0704 0 12.975 2.81561 12.975 6.28884Z"/><path fill="#E47F40" d="M3.94287 14.4814C3.94287 13.2657 4.92834 12.2803 6.14399 12.2803H6.83907C8.05471 12.2803 9.04018 13.2657 9.04018 14.4814C9.04018 15.697 8.05471 16.6825 6.83907 16.6825H6.14399C4.92834 16.6825 3.94287 15.697 3.94287 14.4814Z"/><path fill="#E47F40" d="M8.92929 15.1224C9.01147 14.363 9.25307 13.7415 9.5871 13.2216C10.4779 11.8352 10.71 9.90295 9.34871 8.97408C7.44004 7.67167 5.13882 9.70283 6.2903 11.7062C7.70865 14.1738 8.85089 15.8468 8.92929 15.1224Z"/><path fill="#E47F40" d="M4.26628 15.8309C4.16297 14.8805 3.77267 13.9236 3.2568 13.0703C2.36916 11.602 2.45007 9.25186 3.90904 8.34894C5.85572 7.14419 8.18814 9.2528 7.15649 11.2965C5.62653 14.3273 4.35201 16.6196 4.26628 15.8309Z"/><rect width="3.707" height=".927" x="4.629" y="16.914" fill="#E47F40" rx=".463"/><rect width="3.707" height=".927" x="4.629" y="18.073" fill="#E47F40" rx=".463"/><path stroke="#fff" d="M5.39355 14.1333V6.9133C5.39355 6.63518 5.0813 6.47142 4.85251 6.62955V6.62955C4.57421 6.82189 4.71032 7.25823 5.04862 7.25823H8.11202C8.45866 7.25823 8.59442 6.80837 8.30564 6.61661V6.61661C8.07299 6.46213 7.76199 6.62893 7.76199 6.9082V14.1333"/></svg>