<svg xmlns="http://www.w3.org/2000/svg" width="21" height="21" fill="none" viewBox="0 0 21 21"><path fill="#E47F40" d="M19.5398 1.64062H19.3594V1.46016C19.3594 1.24695 19.2747 1.04247 19.1239 0.891709C18.9732 0.740947 18.7687 0.65625 18.5555 0.65625H13.6008C13.3876 0.65625 13.1831 0.740947 13.0323 0.891709C12.8816 1.04247 12.7969 1.24695 12.7969 1.46016V1.65703L8.75438 3.02859C8.6875 3.04936 8.62903 3.09098 8.5875 3.14736C8.54597 3.20374 8.52357 3.27193 8.52357 3.34195C8.52357 3.41198 8.54597 3.48016 8.5875 3.53654C8.62903 3.59293 8.6875 3.63454 8.75438 3.65531L10.1719 4.06219V6.15234C10.1719 6.22154 10.1938 6.28894 10.2345 6.34493C10.2752 6.40092 10.3325 6.44261 10.3983 6.46406L12.6952 7.20234C12.7281 7.21256 12.7624 7.21808 12.7969 7.21875V7.72734C12.7969 7.94055 12.8816 8.14503 13.0323 8.29579C13.1831 8.44655 13.3876 8.53125 13.6008 8.53125H13.6763L13.5811 8.62969C13.381 8.56391 13.1716 8.53067 12.9609 8.53125C12.6875 8.52866 12.4167 8.58609 12.1679 8.69947C11.919 8.81286 11.698 8.97945 11.5205 9.1875H9.45C9.49008 9.08257 9.51226 8.97165 9.51562 8.85938V5.26641C9.51482 5.00406 9.41136 4.75244 9.22739 4.56541C9.04342 4.37837 8.79355 4.27077 8.53125 4.26562H2.64141C2.3788 4.26559 2.1267 4.36877 1.93948 4.55292C1.75227 4.73707 1.64493 4.98743 1.64062 5.25C1.37832 5.25514 1.12846 5.36274 0.944485 5.54978C0.760515 5.73682 0.657057 5.98843 0.65625 6.25078V9.84375C0.661393 10.1061 0.768995 10.3559 0.956032 10.5399C1.14307 10.7239 1.39468 10.8273 1.65703 10.8281H3.95391V18.0469C3.22219 18.0895 2.64141 18.5981 2.64141 19.2183C2.64141 19.8384 3.21891 20.3438 4.03922 20.3438H17.617C18.4373 20.3438 19.0312 19.8745 19.0312 19.2281C19.0312 18.5817 18.4505 18.0994 17.7188 18.0469V12.4392C18.072 12.389 18.3965 12.2169 18.6362 11.9526C18.8759 11.6884 19.0157 11.3486 19.0312 10.9922C19.0051 10.5751 18.8145 10.1854 18.5014 9.90861C18.1883 9.6318 17.7782 9.49048 17.3611 9.51562H19.5398C19.7531 9.51562 19.9575 9.43093 20.1083 9.28017C20.2591 9.12941 20.3438 8.92493 20.3438 8.71172V2.44453C20.3438 2.23132 20.2591 2.02685 20.1083 1.87608C19.9575 1.72532 19.7531 1.64062 19.5398 1.64062ZM13.6008 1.3125H18.5555C18.5946 1.3125 18.6322 1.32806 18.6599 1.35575C18.6876 1.38344 18.7031 1.421 18.7031 1.46016V1.64062H14.5852C14.4556 1.64192 14.3282 1.67452 14.214 1.73565C14.0997 1.79679 14.0019 1.88464 13.9289 1.99172L13.4531 1.82109V1.46016C13.4531 1.44077 13.4569 1.42157 13.4644 1.40365C13.4718 1.38574 13.4827 1.36946 13.4964 1.35575C13.5101 1.34204 13.5264 1.33116 13.5443 1.32374C13.5622 1.31632 13.5814 1.3125 13.6008 1.3125ZM12.8986 2.31656L15.75 3.35344L12.9052 4.17047L9.95203 3.31406L12.8986 2.31656ZM10.8281 5.90625V4.26562L12.7969 4.83984C12.8569 4.85734 12.9206 4.85734 12.9806 4.83984L14.7656 4.31813V5.90625L12.7969 6.5625L10.8281 5.90625ZM13.4531 7.72078V7.02516L13.7812 6.92016V7.875H13.6008C13.5814 7.875 13.5622 7.87118 13.5443 7.86376C13.5264 7.85634 13.5101 7.84546 13.4964 7.83175C13.4827 7.81804 13.4718 7.80176 13.4644 7.78385C13.4569 7.76593 13.4531 7.74673 13.4531 7.72734V7.72078ZM2.64141 4.92188H8.53125C8.57576 4.92182 8.61981 4.93082 8.66073 4.94832C8.70164 4.96583 8.73857 4.99148 8.76927 5.02371C8.79996 5.05593 8.82378 5.09407 8.83927 5.13579C8.85476 5.17752 8.8616 5.22196 8.85938 5.26641V8.85938C8.85538 8.94511 8.81953 9.02627 8.75884 9.08696C8.69815 9.14765 8.61699 9.18351 8.53125 9.1875V6.25078C8.53044 5.98843 8.42699 5.73682 8.24301 5.54978C8.05904 5.36274 7.80918 5.25514 7.54688 5.25H2.29688C2.30109 5.1615 2.33925 5.07802 2.40341 5.01692C2.46757 4.95581 2.5528 4.92177 2.64141 4.92188ZM1.3125 9.84375V6.25078C1.31027 6.20633 1.31712 6.16189 1.33261 6.12017C1.3481 6.07845 1.37191 6.04031 1.40261 6.00808C1.4333 5.97585 1.47023 5.95021 1.51115 5.9327C1.55207 5.91519 1.59612 5.90619 1.64062 5.90625H7.54688C7.59138 5.90619 7.63543 5.91519 7.67635 5.9327C7.71727 5.95021 7.7542 5.97585 7.78489 6.00808C7.81559 6.04031 7.8394 6.07845 7.85489 6.12017C7.87038 6.16189 7.87723 6.20633 7.875 6.25078V9.84375C7.875 9.93077 7.84043 10.0142 7.77889 10.0758C7.71736 10.1373 7.6339 10.1719 7.54688 10.1719H1.65703C1.61258 10.1741 1.56814 10.1673 1.52642 10.1518C1.4847 10.1363 1.44656 10.1125 1.41433 10.0818C1.3821 10.0511 1.35646 10.0141 1.33895 9.97323C1.32144 9.93231 1.31244 9.88826 1.3125 9.84375ZM18.375 19.2281C18.375 19.5267 17.9845 19.6875 17.617 19.6875H4.03922C3.67172 19.6875 3.28125 19.5267 3.28125 19.2281C3.28125 18.9295 3.62906 18.7031 4.03922 18.7031H17.617C18.0272 18.7031 18.375 18.9427 18.375 19.2281ZM17.3906 10.1719C17.6294 10.1526 17.8662 10.2277 18.0503 10.3811C18.2343 10.5345 18.3509 10.7538 18.375 10.9922C18.3509 11.2305 18.2343 11.4499 18.0503 11.6033C17.8662 11.7566 17.6294 11.8317 17.3906 11.8125H15.75V12.4688H16.0781V17.0625H8.85938V17.7188H16.4062C16.4933 17.7188 16.5767 17.6842 16.6383 17.6226C16.6998 17.5611 16.7344 17.4776 16.7344 17.3906V12.4688H17.0625V18.0469H4.59375V10.8281H4.92188V17.3906C4.92188 17.4776 4.95645 17.5611 5.01798 17.6226C5.07952 17.6842 5.16298 17.7188 5.25 17.7188H8.20312V17.0625H5.57812V10.8281H7.54688C7.80795 10.8281 8.05833 10.7244 8.24293 10.5398C8.42754 10.3552 8.53125 10.1048 8.53125 9.84375H10.4606C10.2736 9.97204 10.12 10.1432 10.0127 10.343C9.90538 10.5428 9.84745 10.7654 9.84375 10.9922C9.86665 11.4051 10.0521 11.7922 10.3595 12.0689C10.6669 12.3456 11.0713 12.4893 11.4844 12.4688H13.7812V13.8567C13.7812 13.9347 13.7969 14.0118 13.8273 14.0836C13.8577 14.1554 13.9022 14.2203 13.9583 14.2745C14.0143 14.3287 14.0807 14.3711 14.1534 14.3991C14.2262 14.4271 14.3038 14.4401 14.3817 14.4375H15.1495C15.2274 14.4401 15.3051 14.4271 15.3778 14.3991C15.4506 14.3711 15.517 14.3287 15.573 14.2745C15.629 14.2203 15.6736 14.1554 15.704 14.0836C15.7344 14.0118 15.75 13.9347 15.75 13.8567V11.5959H15.8386C15.9489 11.5982 16.0576 11.5683 16.1513 11.5101C16.2451 11.4519 16.32 11.3677 16.3669 11.2678C16.4148 11.1682 16.4325 11.0567 16.4179 10.9471C16.4034 10.8375 16.3571 10.7346 16.2848 10.6509L15.2283 9.40406C15.1717 9.34198 15.1028 9.29238 15.0259 9.25844C14.9491 9.2245 14.866 9.20698 14.782 9.20698C14.698 9.20698 14.615 9.2245 14.5381 9.25844C14.4613 9.29238 14.3924 9.34198 14.3358 9.40406L13.2792 10.6509C13.207 10.7346 13.1607 10.8375 13.1461 10.9471C13.1316 11.0567 13.1493 11.1682 13.1972 11.2678C13.2441 11.3677 13.319 11.4519 13.4127 11.5101C13.5065 11.5683 13.6151 11.5982 13.7255 11.5959H13.8141V11.8125H11.4844C11.2456 11.8317 11.0088 11.7566 10.8247 11.6033C10.6407 11.4499 10.5241 11.2305 10.5 10.9922C10.5241 10.7538 10.6407 10.5345 10.8247 10.3811C11.0088 10.2277 11.2456 10.1526 11.4844 10.1719C11.565 10.1873 11.6485 10.1719 11.7184 10.1288C11.7882 10.0857 11.8394 10.0179 11.8617 9.93891C11.8877 9.85271 11.9264 9.77087 11.9766 9.69609C12.0875 9.53851 12.2351 9.41021 12.4065 9.32219C12.578 9.23418 12.7682 9.18909 12.9609 9.19078C13.1629 9.18849 13.3623 9.23581 13.5417 9.32859C13.6151 9.36665 13.7001 9.37563 13.7798 9.35373C13.8595 9.33183 13.928 9.28067 13.9716 9.21047C14.0581 9.0703 14.1693 8.94691 14.2997 8.84625C14.5753 8.63796 14.9124 8.52716 15.2578 8.53125C15.5366 8.52347 15.812 8.59446 16.0522 8.73608C16.2925 8.87769 16.488 9.08419 16.6163 9.33187C16.6963 9.49049 16.7368 9.6661 16.7344 9.84375C16.7274 9.89444 16.7324 9.94606 16.7489 9.99449C16.7654 10.0429 16.793 10.0868 16.8295 10.1227C16.8694 10.162 16.9187 10.1905 16.9726 10.2055C17.0266 10.2204 17.0835 10.2213 17.138 10.208C17.2204 10.1857 17.3053 10.1736 17.3906 10.1719ZM13.8698 10.9397L14.7656 9.88313L15.6614 10.9397C15.5099 10.9439 15.366 11.0069 15.2601 11.1153C15.1542 11.2236 15.0945 11.3689 15.0938 11.5205V13.7812H14.4703V11.5205C14.4699 11.4426 14.454 11.3657 14.4234 11.2941C14.3928 11.2225 14.3483 11.1578 14.2923 11.1037C14.2364 11.0496 14.1702 11.0072 14.0976 10.979C14.0251 10.9509 13.9476 10.9375 13.8698 10.9397ZM19.6875 8.71172C19.6875 8.75088 19.6719 8.78844 19.6443 8.81613C19.6166 8.84382 19.579 8.85938 19.5398 8.85938H17.0986C16.9002 8.55284 16.6273 8.3017 16.3053 8.12953C15.9833 7.95735 15.6229 7.86977 15.2578 7.875H15.0938C14.8691 7.89069 14.648 7.93934 14.4375 8.01938V6.70688L15.1922 6.46406C15.2586 6.44318 15.3166 6.40173 15.3579 6.34569C15.3992 6.28966 15.4216 6.22195 15.4219 6.15234V4.12781L16.0781 3.9375V5.54531L15.75 7.15312L16.4062 7.28438L16.567 6.47391L17.115 7.38609L17.6794 7.05797L16.7344 5.48625V3.75047L16.8984 3.70453C16.9648 3.68511 17.0234 3.6452 17.0658 3.5905C17.1081 3.5358 17.1321 3.4691 17.1343 3.39995C17.1365 3.3308 17.1168 3.26272 17.0779 3.20546C17.0391 3.14819 16.9832 3.10466 16.9181 3.08109L14.7656 2.29688H19.5398C19.579 2.29688 19.6166 2.31243 19.6443 2.34012C19.6719 2.36781 19.6875 2.40537 19.6875 2.44453V8.71172Z"/><path fill="#E47F40" d="M15.4219 15.75H6.23438V16.4062H15.4219V15.75Z"/><path fill="#E47F40" d="M7.35984 14.0175L7.19249 15.0412C7.18518 15.101 7.19449 15.1617 7.21938 15.2166C7.24428 15.2715 7.28381 15.3184 7.33364 15.3523C7.38346 15.3862 7.44166 15.4057 7.50185 15.4087C7.56203 15.4117 7.62188 15.3981 7.67484 15.3693L8.53124 14.9067L9.38765 15.3825C9.43602 15.4086 9.49018 15.4221 9.54515 15.4218C9.61317 15.4224 9.67968 15.4017 9.73546 15.3628C9.78696 15.3267 9.82702 15.2766 9.85087 15.2185C9.87472 15.1603 9.88136 15.0965 9.86999 15.0347L9.70265 14.0109L10.4081 13.289C10.4492 13.2463 10.4779 13.1932 10.4911 13.1354C10.5044 13.0776 10.5018 13.0173 10.4836 12.9609C10.4643 12.9036 10.4296 12.8528 10.3833 12.814C10.337 12.7752 10.2808 12.75 10.2211 12.7411L9.25968 12.5934L8.82983 11.6747C8.80373 11.6174 8.7617 11.5688 8.70876 11.5347C8.65582 11.5007 8.59419 11.4826 8.53124 11.4826C8.46829 11.4826 8.40666 11.5007 8.35372 11.5347C8.30078 11.5688 8.25875 11.6174 8.23265 11.6747L7.8028 12.5934L6.8414 12.7411C6.78165 12.75 6.72552 12.7752 6.6792 12.814C6.63288 12.8528 6.59817 12.9036 6.5789 12.9609C6.56066 13.0173 6.55805 13.0776 6.57134 13.1354C6.58463 13.1932 6.61332 13.2463 6.65437 13.289L7.35984 14.0175ZM8.07515 13.2168C8.12805 13.2086 8.17812 13.1876 8.22102 13.1555C8.26392 13.1235 8.29832 13.0815 8.32124 13.0331L8.53124 12.5836L8.74124 13.0331C8.76416 13.0815 8.79857 13.1235 8.84146 13.1555C8.88436 13.1876 8.93444 13.2086 8.98733 13.2168L9.48936 13.2923L9.1153 13.6762C9.07948 13.713 9.0528 13.7577 9.03741 13.8068C9.02202 13.8558 9.01836 13.9077 9.02671 13.9584L9.11202 14.4801L8.68874 14.2472C8.63886 14.2184 8.58228 14.2032 8.52468 14.2032C8.46708 14.2032 8.4105 14.2184 8.36062 14.2472L7.93734 14.4801L8.02265 13.9584C8.031 13.9077 8.02734 13.8558 8.01195 13.8068C7.99656 13.7577 7.96988 13.713 7.93405 13.6762L7.55999 13.2923L8.07515 13.2168ZM6.08671 7.81919L3.78984 6.29012C3.74142 6.25879 3.68559 6.24078 3.62798 6.2379C3.57038 6.23502 3.51303 6.24737 3.46172 6.27372C3.4081 6.30073 3.36292 6.34194 3.3311 6.39285C3.29928 6.44376 3.28203 6.50243 3.28125 6.56247V9.51559C3.28135 9.57373 3.2969 9.63081 3.3263 9.68097C3.35571 9.73113 3.39791 9.77257 3.44859 9.80106C3.49763 9.82885 3.55301 9.84354 3.60937 9.84372C3.67081 9.84391 3.73106 9.82686 3.78328 9.7945L6.08015 8.37372C6.12697 8.34446 6.16565 8.30386 6.1926 8.25568C6.21956 8.2075 6.23393 8.1533 6.23437 8.09809C6.23518 8.04294 6.22208 7.98847 6.19627 7.93972C6.17047 7.89097 6.13278 7.84952 6.08671 7.81919ZM3.9375 8.92497V7.17606L5.29922 8.08169L3.9375 8.92497ZM7.10062 1.9195L6.93327 1.28622C6.84885 1.30684 6.7656 1.33204 6.6839 1.36169C6.53641 1.41388 6.39278 1.47637 6.25406 1.54872L6.56249 2.1295C6.66747 2.06735 6.77718 2.01359 6.89062 1.96872C6.95936 1.94735 7.02954 1.9309 7.10062 1.9195ZM4.59375 3.83575L5.25 3.93747C5.2793 3.74681 5.33221 3.56054 5.4075 3.38294L4.80047 3.13028C4.70377 3.35639 4.63438 3.59321 4.59375 3.83575ZM6.07687 2.45434L5.65031 1.96872C5.46511 2.12365 5.29881 2.29987 5.15484 2.49372L5.68312 2.8809C5.79858 2.72492 5.9306 2.58189 6.07687 2.45434ZM9.07593 1.4634L8.80358 2.06059C8.97928 2.13954 9.14459 2.23983 9.29577 2.35919L9.70265 1.84403C9.50935 1.69307 9.29901 1.56532 9.07593 1.4634ZM8.25234 1.8834L8.3803 1.22715C8.17595 1.18769 7.96828 1.16791 7.76015 1.16809H7.65515L7.67484 1.82434H7.76015C7.92578 1.82737 8.09069 1.84716 8.25234 1.8834Z"/></svg>