<svg xmlns="http://www.w3.org/2000/svg" width="25" height="21" fill="none" viewBox="0 0 25 21"><path stroke="#E47F40" d="M20.2407 10.5C20.2407 16.0287 15.8158 20.5 10.3704 20.5C4.92495 20.5 0.5 16.0287 0.5 10.5C0.5 4.97128 4.92495 0.5 10.3704 0.5C15.8158 0.5 20.2407 4.97128 20.2407 10.5Z"/><circle cx="10.381" cy="10.631" r="7.278" stroke="#E47F40"/><circle cx="10.373" cy="10.628" r="4.185" fill="#E47F40" stroke="#E47F40" stroke-width="2"/><g filter="url(#filter0_d)"><g filter="url(#filter1_d)"><line x1="10.45" x2="16.637" y1="10.916" y2="4.729" stroke="#E47F40"/><path fill="#E47F40" d="M15.2464 4.11896L18.3963 0.969044L18.0026 3.81272L14.8527 6.96264L15.2464 4.11896Z"/><path fill="#E47F40" d="M14.2839 6.39648L17.4339 3.24657L20.2775 2.85283L17.1276 6.00274L14.2839 6.39648Z"/></g></g><defs><filter id="filter0_d" width="18.181" height="18.301" x="6.096" y=".969" color-interpolation-filters="sRGB" filterUnits="userSpaceOnUse"><feFlood flood-opacity="0" result="BackgroundImageFix"/><feColorMatrix in="SourceAlpha" type="matrix" values="0 0 0 0 0 0 0 0 0 0 0 0 0 0 0 0 0 0 127 0"/><feOffset dy="4"/><feGaussianBlur stdDeviation="2"/><feColorMatrix type="matrix" values="0 0 0 0 0 0 0 0 0 0 0 0 0 0 0 0 0 0 0.25 0"/><feBlend in2="BackgroundImageFix" mode="normal" result="effect1_dropShadow"/><feBlend in="SourceGraphic" in2="effect1_dropShadow" mode="normal" result="shape"/></filter><filter id="filter1_d" width="18.181" height="18.301" x="6.096" y=".969" color-interpolation-filters="sRGB" filterUnits="userSpaceOnUse"><feFlood flood-opacity="0" result="BackgroundImageFix"/><feColorMatrix in="SourceAlpha" type="matrix" values="0 0 0 0 0 0 0 0 0 0 0 0 0 0 0 0 0 0 127 0"/><feOffset dy="4"/><feGaussianBlur stdDeviation="2"/><feColorMatrix type="matrix" values="0 0 0 0 0 0 0 0 0 0 0 0 0 0 0 0 0 0 0.25 0"/><feBlend in2="BackgroundImageFix" mode="normal" result="effect1_dropShadow"/><feBlend in="SourceGraphic" in2="effect1_dropShadow" mode="normal" result="shape"/></filter></defs></svg>