<svg width="25" height="21" viewBox="0 0 25 21" fill="none" xmlns="http://www.w3.org/2000/svg">
<path d="M20.2407 10.5C20.2407 16.0287 15.8158 20.5 10.3704 20.5C4.92495 20.5 0.5 16.0287 0.5 10.5C0.5 4.97128 4.92495 0.5 10.3704 0.5C15.8158 0.5 20.2407 4.97128 20.2407 10.5Z" stroke="#E47F40"/>
<circle cx="10.3813" cy="10.6308" r="7.27777" stroke="#E47F40"/>
<circle cx="10.3727" cy="10.6276" r="4.18518" fill="#E47F40" stroke="#E47F40" stroke-width="2"/>
<g filter="url(#filter0_d)">
<g filter="url(#filter1_d)">
<line x1="10.4497" y1="10.9161" x2="16.6367" y2="4.72907" stroke="#E47F40"/>
<path d="M15.2464 4.11896L18.3963 0.969044L18.0026 3.81272L14.8527 6.96264L15.2464 4.11896Z" fill="#E47F40"/>
<path d="M14.2839 6.39648L17.4339 3.24657L20.2775 2.85283L17.1276 6.00274L14.2839 6.39648Z" fill="#E47F40"/>
</g>
</g>
<defs>
<filter id="filter0_d" x="6.09619" y="0.968994" width="18.1813" height="18.3006" filterUnits="userSpaceOnUse" color-interpolation-filters="sRGB">
<feFlood flood-opacity="0" result="BackgroundImageFix"/>
<feColorMatrix in="SourceAlpha" type="matrix" values="0 0 0 0 0 0 0 0 0 0 0 0 0 0 0 0 0 0 127 0"/>
<feOffset dy="4"/>
<feGaussianBlur stdDeviation="2"/>
<feColorMatrix type="matrix" values="0 0 0 0 0 0 0 0 0 0 0 0 0 0 0 0 0 0 0.25 0"/>
<feBlend mode="normal" in2="BackgroundImageFix" result="effect1_dropShadow"/>
<feBlend mode="normal" in="SourceGraphic" in2="effect1_dropShadow" result="shape"/>
</filter>
<filter id="filter1_d" x="6.09619" y="0.968994" width="18.1813" height="18.3006" filterUnits="userSpaceOnUse" color-interpolation-filters="sRGB">
<feFlood flood-opacity="0" result="BackgroundImageFix"/>
<feColorMatrix in="SourceAlpha" type="matrix" values="0 0 0 0 0 0 0 0 0 0 0 0 0 0 0 0 0 0 127 0"/>
<feOffset dy="4"/>
<feGaussianBlur stdDeviation="2"/>
<feColorMatrix type="matrix" values="0 0 0 0 0 0 0 0 0 0 0 0 0 0 0 0 0 0 0.25 0"/>
<feBlend mode="normal" in2="BackgroundImageFix" result="effect1_dropShadow"/>
<feBlend mode="normal" in="SourceGraphic" in2="effect1_dropShadow" result="shape"/>
</filter>
</defs>
</svg>
