<svg xmlns="http://www.w3.org/2000/svg" width="800" height="800" fill="#EF8749" stroke="#EF8749" version="1.1" viewBox="0 0 24 24"><g id="SVGRepo_iconCarrier"><title>graduation-cap</title><path d="M21.080 12.84l-8.92-3.24c-0.4-0.16-0.88-0.2-1.16-0.2-0.32 0-0.76 0.040-1.16 0.2l-8.92 3.24c-0.84 0.32-0.92 0.88-0.92 1.12s0.080 0.8 0.92 1.12l0.4 0.12v3.32c0 0.48 0.36 0.84 0.84 0.84s0.84-0.36 0.84-0.84v-2.72l1.56 0.56v3.76c0 1.64 3.84 2.44 6.44 2.44s6.44-0.76 6.44-2.44v-3.72l3.64-1.32c0.84-0.28 0.92-0.88 0.92-1.12s-0.080-0.8-0.92-1.12zM15.8 19.92c-0.48 0.32-2.28 0.96-4.76 0.96s-4.32-0.64-4.76-0.96v-2.92l3.6 1.32c0.4 0.16 0.88 0.2 1.16 0.2s0.76-0.040 1.16-0.2l3.6-1.32v2.92zM11.6 16.72c-0.28 0.12-0.88 0.12-1.16 0l-7.64-2.76 7.6-2.76c0.28-0.12 0.88-0.12 1.16 0l7.64 2.76-7.6 2.76z"/></g></svg>