<svg width="290" height="294" viewBox="0 0 290 294" fill="none" xmlns="http://www.w3.org/2000/svg">
<g filter="url(#filter0_d)">
<rect x="19" y="19" width="238" height="242" rx="19" fill="white"/>
</g>
<path d="M111.642 201.952L111.044 204.032H115.386L114.788 201.952C114.511 201.051 114.242 200.123 113.982 199.17C113.739 198.217 113.497 197.272 113.254 196.336H113.15C112.907 197.289 112.665 198.243 112.422 199.196C112.179 200.132 111.919 201.051 111.642 201.952ZM105.948 211L111.486 193.996H115.022L120.56 211H117.388L116.062 206.398H110.342L109.016 211H105.948ZM127.622 211.312C126.478 211.312 125.369 211.095 124.294 210.662C123.237 210.229 122.301 209.613 121.486 208.816L123.254 206.762C123.861 207.334 124.554 207.802 125.334 208.166C126.114 208.513 126.894 208.686 127.674 208.686C128.645 208.686 129.381 208.487 129.884 208.088C130.387 207.689 130.638 207.161 130.638 206.502C130.638 206.155 130.569 205.861 130.43 205.618C130.309 205.375 130.127 205.167 129.884 204.994C129.659 204.803 129.381 204.63 129.052 204.474C128.74 204.318 128.393 204.162 128.012 204.006L125.672 202.992C125.256 202.819 124.84 202.602 124.424 202.342C124.025 202.082 123.661 201.77 123.332 201.406C123.003 201.042 122.734 200.617 122.526 200.132C122.335 199.647 122.24 199.092 122.24 198.468C122.24 197.792 122.379 197.168 122.656 196.596C122.951 196.007 123.349 195.495 123.852 195.062C124.355 194.629 124.953 194.291 125.646 194.048C126.357 193.805 127.128 193.684 127.96 193.684C128.948 193.684 129.901 193.883 130.82 194.282C131.739 194.663 132.527 195.183 133.186 195.842L131.652 197.766C131.097 197.315 130.525 196.96 129.936 196.7C129.347 196.44 128.688 196.31 127.96 196.31C127.145 196.31 126.495 196.492 126.01 196.856C125.525 197.203 125.282 197.688 125.282 198.312C125.282 198.641 125.351 198.927 125.49 199.17C125.646 199.395 125.845 199.603 126.088 199.794C126.348 199.967 126.643 200.132 126.972 200.288C127.301 200.427 127.639 200.565 127.986 200.704L130.3 201.666C130.803 201.874 131.262 202.117 131.678 202.394C132.094 202.671 132.449 202.992 132.744 203.356C133.056 203.72 133.299 204.145 133.472 204.63C133.645 205.098 133.732 205.644 133.732 206.268C133.732 206.961 133.593 207.611 133.316 208.218C133.039 208.825 132.631 209.362 132.094 209.83C131.574 210.281 130.933 210.645 130.17 210.922C129.425 211.182 128.575 211.312 127.622 211.312ZM136.824 211V193.996H140.23L143.246 202.316C143.437 202.853 143.619 203.408 143.792 203.98C143.965 204.535 144.147 205.089 144.338 205.644H144.442C144.633 205.089 144.806 204.535 144.962 203.98C145.135 203.408 145.317 202.853 145.508 202.316L148.446 193.996H151.878V211H149.096V203.226C149.096 202.827 149.105 202.394 149.122 201.926C149.157 201.458 149.191 200.99 149.226 200.522C149.261 200.037 149.304 199.569 149.356 199.118C149.408 198.65 149.451 198.217 149.486 197.818H149.382L148.004 201.77L145.222 209.414H143.428L140.62 201.77L139.268 197.818H139.164C139.199 198.217 139.233 198.65 139.268 199.118C139.32 199.569 139.363 200.037 139.398 200.522C139.45 200.99 139.485 201.458 139.502 201.926C139.537 202.394 139.554 202.827 139.554 203.226V211H136.824ZM156.197 211V193.996H166.441V196.544H159.213V200.886H165.323V203.434H159.213V208.452H166.701V211H156.197Z" fill="#696969"/>
<mask id="mask0" mask-type="alpha" maskUnits="userSpaceOnUse" x="63" y="104" width="71" height="31">
<path d="M63 104.659H133.851V134.432H63V104.659Z" fill="white"/>
</mask>
<g mask="url(#mask0)">
<path fill-rule="evenodd" clip-rule="evenodd" d="M89.1589 104.659C79.3896 104.659 70.3548 107.67 63 109.63C63.8922 110.254 64.7844 109.029 65.6766 109.656C71.9826 108.163 79.4285 107.296 87.4048 107.296C110.155 107.296 129.136 113.796 129.136 122.458C129.136 126.976 123.573 131.567 115.544 134.432C126.642 131.429 133.851 126.594 133.851 121.135C133.851 112.032 113.842 104.659 89.1589 104.659Z" fill="url(#paint0_linear)"/>
</g>
<path fill-rule="evenodd" clip-rule="evenodd" d="M73.6289 126.09H77.1127L90.4507 92.92L102.513 126.07C106.145 125.967 106.544 127.951 108.235 128.275L93.0472 87.3242H79.4288V88.2221C82.1928 88.8539 87.7948 89.331 87.7948 90.7034C87.7948 91.545 87.3541 92.604 86.9669 93.5531L73.6289 126.091V126.09Z" fill="url(#paint1_linear)"/>
<path fill-rule="evenodd" clip-rule="evenodd" d="M72.6718 144.035C72.781 144.264 72.8903 144.605 72.9097 144.773L72.9291 144.909L72.781 145.094C72.4642 145.503 71.8694 146.067 70.7709 146.111C70.374 146.12 69.9394 146.047 69.5813 145.854L69.3652 145.726L69.7318 145.085L69.8787 145.176C70.1773 145.352 70.4735 145.46 70.919 145.46C71.3657 145.46 71.8294 145.176 71.9896 144.996L72.1073 144.863L72.0782 144.729C72.0351 144.525 71.9613 144.33 71.8597 144.15C71.7429 143.946 71.6102 143.752 71.4628 143.571L71.2164 143.257C71.0185 143.002 70.8207 142.725 70.7211 142.519C70.6312 142.343 70.5646 142.154 70.5233 141.959L70.4929 141.806L70.5924 141.692C70.974 141.251 71.4639 140.931 72.0078 140.766C72.5056 140.613 73.0251 140.555 73.5421 140.594L73.7618 140.615L73.5433 141.274L73.2277 141.256C72.9629 141.238 72.6969 141.252 72.4351 141.298C72.08 141.36 71.7458 141.517 71.464 141.753L71.3341 141.868L71.3657 141.985C71.3948 142.128 71.4834 142.342 71.6024 142.519C71.7213 142.698 71.8403 142.83 72.0078 143.054L72.2554 143.376C72.4351 143.614 72.5929 143.847 72.6718 144.035Z" fill="url(#paint2_linear)"/>
<path fill-rule="evenodd" clip-rule="evenodd" d="M69.4598 145.7L69.614 145.789C69.9102 145.951 70.2938 146.039 70.7028 146.039L70.7684 146.038C71.5829 146.006 72.242 145.672 72.7264 145.046L72.8538 144.886L72.8405 144.784C72.7933 144.536 72.7149 144.295 72.6074 144.068V144.064C72.5406 143.907 72.4071 143.697 72.2008 143.422L71.9531 143.1C71.8961 143.024 71.8379 142.949 71.7783 142.876C71.6934 142.768 71.6181 142.674 71.5441 142.561C71.4293 142.391 71.345 142.2 71.2952 141.998L71.2552 141.842L71.4166 141.697C71.6715 141.469 72.0478 141.292 72.4229 141.226C72.8004 141.163 73.0298 141.171 73.2289 141.181L73.4923 141.198L73.6647 140.68L73.5348 140.667C73.0264 140.63 72.5156 140.687 72.026 140.836C71.419 141.008 70.9141 141.416 70.6422 141.74L70.5669 141.828L70.59 141.943C70.6179 142.097 70.6774 142.263 70.7817 142.486C70.8619 142.653 71.0221 142.892 71.2673 143.212L71.5149 143.524C71.68 143.735 71.8099 143.916 71.9179 144.113C72.015 144.279 72.0964 144.495 72.1449 144.714L72.1826 144.885L72.0369 145.045C71.8585 145.25 71.3693 145.532 70.9189 145.532C70.5074 145.532 70.1967 145.448 69.8446 145.239L69.7536 145.184L69.4598 145.7ZM70.7041 146.183C70.2744 146.183 69.8665 146.091 69.5497 145.919L69.2656 145.752L69.7063 144.985L69.9126 145.113C70.153 145.254 70.4419 145.387 70.9189 145.387C71.3231 145.387 71.7783 145.126 71.9374 144.945L72.0296 144.84L72.009 144.746C71.9676 144.549 71.8963 144.362 71.7978 144.189C71.6837 143.987 71.5534 143.796 71.4081 143.618L71.1617 143.304C70.908 142.976 70.7429 142.731 70.6567 142.552C70.5648 142.369 70.4967 142.174 70.454 141.972L70.4164 141.784L70.5378 141.642C70.9298 141.192 71.4316 140.865 71.9883 140.695C72.4957 140.542 73.0177 140.483 73.5457 140.521L73.8541 140.551L73.5894 141.35L73.2216 141.328C73.0213 141.321 72.8089 141.31 72.4447 141.37C72.1019 141.431 71.7791 141.582 71.5064 141.809L71.4105 141.894L71.4312 141.965C71.4554 142.089 71.5356 142.293 71.6569 142.477C71.7298 142.583 71.8014 142.675 71.8839 142.781C71.9386 142.848 71.9956 142.922 72.0612 143.009L72.3088 143.331C72.5261 143.618 72.6608 143.833 72.7337 144.004C72.8429 144.234 72.9558 144.583 72.9776 144.765L73.0019 144.93L72.832 145.141C72.3221 145.798 71.629 146.15 70.7708 146.183H70.7041ZM77.6777 145.371H79.6903L79.5119 145.98H76.7649L78.2216 141.075V140.629H80.9965L80.818 141.211H78.905L78.3806 142.95H80.3021L80.1237 143.528H78.2216L77.6777 145.371Z" fill="url(#paint3_linear)"/>
<path fill-rule="evenodd" clip-rule="evenodd" d="M76.86 145.907H79.4614L79.5973 145.445H77.5835L78.171 143.455H80.0756L80.2091 143.023H78.2875L78.8568 141.138H80.7699L80.9034 140.7H78.2924L78.29 141.097L76.86 145.906V145.907ZM79.5633 146.053H76.6719L76.6998 145.957L78.154 141.063V140.556H81.094L80.8719 141.282H78.9588L78.4781 142.876H80.3997L80.1775 143.601H78.2742L77.7716 145.298H79.7842L79.5633 146.053ZM85.3717 145.979H84.4856L85.8985 141.254H84.4285L84.6264 140.627H88.2559L88.058 141.254H86.6353L85.3729 145.534L85.3717 145.979Z" fill="url(#paint4_linear)"/>
<path fill-rule="evenodd" clip-rule="evenodd" d="M84.5833 145.906H85.3043L85.3068 145.511L86.5838 141.181H88.0089L88.1606 140.702H84.6768L84.525 141.181H85.9938L85.9647 141.277L84.5821 145.907L84.5833 145.906ZM85.4415 146.053H84.3927L84.4219 145.957L85.8045 141.327H84.332L84.5772 140.555H88.3536L88.1084 141.328H86.6869L85.4415 145.545V146.053ZM92.102 145.979H91.2159L92.6289 141.254H91.1564L91.3567 140.628H94.9862L94.7871 141.254H93.3657L92.102 145.534V145.979Z" fill="url(#paint5_linear)"/>
<path fill-rule="evenodd" clip-rule="evenodd" d="M91.3099 145.906H92.0321L92.0346 145.511L93.314 141.181H94.7366L94.8896 140.702H91.4045L91.2504 141.181H92.7228L91.3087 145.906H91.3099ZM92.1693 146.053H91.1205L92.5335 141.328H91.0586L91.3062 140.555H95.0814L94.8362 141.328H93.4159L92.1693 145.545V146.053ZM99.7621 140.629L98.2617 145.534V145.979H97.3586L98.8493 141.075V140.628L99.7621 140.629Z" fill="url(#paint6_linear)"/>
<path fill-rule="evenodd" clip-rule="evenodd" d="M97.4523 145.906H98.1903L98.1928 145.511L99.6664 140.702H98.9162L98.9138 141.097L97.4523 145.906ZM98.3287 146.053H97.2617L97.2921 145.957L98.7791 141.062V140.555H99.8582L98.3287 145.545V146.053ZM106.419 145.979L106.273 145.8C106.046 145.524 105.761 145.016 105.537 144.419C105.253 143.621 105.103 142.777 105.094 141.925V141.431L103.892 145.534V145.979H103.057L104.641 140.629H105.732V140.987C105.732 141.744 105.761 142.637 105.978 143.482C106.156 144.195 106.42 144.741 106.567 144.981L106.646 145.105L107.827 141.074V140.629H108.682L107.079 145.979H106.42H106.419Z" fill="url(#paint7_linear)"/>
<path fill-rule="evenodd" clip-rule="evenodd" d="M106.453 145.906H107.029L108.588 140.702H107.897L107.895 141.097L106.671 145.276L106.511 145.022C106.243 144.548 106.042 144.035 105.914 143.5C105.693 142.651 105.664 141.753 105.664 140.987V140.702H104.693L103.151 145.907H103.824L103.826 145.511L105.028 141.409L105.164 141.43V141.923C105.164 142.71 105.336 143.676 105.602 144.392C105.807 144.935 106.084 145.456 106.327 145.751L106.453 145.906ZM107.13 146.053H106.39L106.222 145.849C105.968 145.542 105.682 145.004 105.473 144.446C105.187 143.638 105.035 142.785 105.024 141.923V141.916L103.962 145.545V146.053H102.963L102.991 145.957L104.591 140.555H105.802V140.987C105.802 141.743 105.831 142.628 106.047 143.463C106.21 144.121 106.46 144.667 106.625 144.937L107.759 141.062V140.555H108.779L107.13 146.053ZM116.022 140.585L116.646 140.629L116.417 141.299L115.857 141.256C114.297 141.137 113.429 141.834 113.113 143.037C112.866 143.972 113.26 144.822 113.587 145.249L113.725 145.427L113.853 145.401C114.168 145.337 114.544 145.168 114.938 144.911C115.392 144.608 115.59 144.233 115.658 144.018L115.728 143.823H114.492L114.671 143.26H116.614L116.467 143.796C116.29 144.465 115.974 144.955 115.48 145.31C114.839 145.786 113.999 146.042 113.655 146.103L113.389 146.157L113.193 145.934C112.522 145.177 112.096 144.151 112.304 143.083C112.64 141.389 114.197 140.461 116.023 140.585" fill="url(#paint8_linear)"/>
<path fill-rule="evenodd" clip-rule="evenodd" d="M115.699 140.648C113.985 140.648 112.667 141.605 112.371 143.099C112.189 144.039 112.507 145.052 113.243 145.886L113.414 146.077L113.642 146.031C113.915 145.983 114.771 145.747 115.438 145.25C115.92 144.902 116.225 144.435 116.4 143.775L116.521 143.333H114.72L114.589 143.75H115.827L115.721 144.044C115.682 144.169 115.511 144.615 114.975 144.974C114.573 145.236 114.188 145.408 113.865 145.472L113.695 145.506L113.533 145.296C113.142 144.784 112.808 143.916 113.046 143.019C113.389 141.706 114.361 141.073 115.86 141.183L116.369 141.222L116.549 140.696L116.017 140.658C115.912 140.651 115.805 140.647 115.699 140.648ZM113.363 146.237L113.142 145.984C112.373 145.117 112.043 144.055 112.235 143.069C112.563 141.409 114.085 140.381 116.027 140.512L116.74 140.562L116.464 141.377L115.85 141.328C114.401 141.221 113.508 141.802 113.179 143.059C112.956 143.903 113.27 144.719 113.641 145.203L113.751 145.347L113.84 145.329C114.148 145.268 114.512 145.101 114.902 144.848C115.397 144.518 115.555 144.111 115.591 143.996L115.627 143.897H114.394L114.62 143.188H116.706L116.531 143.815C116.351 144.499 116.02 145.008 115.517 145.371C114.901 145.828 114.073 146.103 113.664 146.177L113.361 146.239L113.363 146.237ZM126.371 145.979H125.484L126.899 141.254H125.425L125.624 140.627H129.256L129.057 141.254H127.635L126.371 145.534V145.979Z" fill="url(#paint9_linear)"/>
<path fill-rule="evenodd" clip-rule="evenodd" d="M125.581 145.906H126.304L126.306 145.511L127.584 141.181H129.008L129.16 140.702H125.675L125.523 141.181H126.994L125.581 145.906ZM126.441 146.053H125.391L126.805 141.328H125.33L125.575 140.555H129.353L129.108 141.328H127.687L126.441 145.545V146.053ZM133.058 143.528L132.466 145.533V145.979H131.608L133.058 141.075V140.628H133.915L133.235 142.93H135.48L136.033 141.075V140.628H136.889L135.442 145.533V145.979H134.583L135.312 143.528H133.058Z" fill="url(#paint10_linear)"/>
<path fill-rule="evenodd" clip-rule="evenodd" d="M134.679 145.905H135.373L135.375 145.512L136.795 140.7H136.102L136.098 141.097L135.53 143.003H133.141L133.821 140.7H133.127L133.124 141.097L131.702 145.906H132.396L132.399 145.512L133.006 143.456H135.408L134.679 145.905ZM135.51 146.052H134.489L135.217 143.601H133.109L132.535 145.546V146.052H131.514L131.543 145.956L132.989 141.064V140.555H134.008L133.33 142.857H135.43L135.964 141.064V140.555H136.983L136.955 140.651L135.511 145.544V146.052H135.51ZM141.077 145.372H143.088L142.911 145.98H140.164L141.62 141.075V140.629H144.398L144.219 141.211H142.305L141.781 142.95H143.702L143.524 143.528H141.623L141.077 145.372Z" fill="url(#paint11_linear)"/>
<path fill-rule="evenodd" clip-rule="evenodd" d="M140.258 145.907H142.859L142.995 145.445H140.982L141.569 143.455H143.473L143.606 143.023H141.686L142.254 141.138H144.17L144.303 140.7H141.69L141.687 141.097L140.258 145.906V145.907ZM142.962 146.053H140.07L140.098 145.957L141.551 141.063V140.556H144.494L144.27 141.282H142.356L141.874 142.876H143.798L143.575 143.601H141.671L141.17 145.298H143.183L142.962 146.053ZM153.803 144.035C153.912 144.263 154.021 144.605 154.041 144.773L154.061 144.908L153.913 145.094C153.595 145.503 153.003 146.067 151.903 146.11C151.507 146.119 151.07 146.046 150.715 145.853L150.497 145.725L150.863 145.085L151.012 145.175C151.308 145.352 151.607 145.459 152.051 145.459C152.498 145.459 152.964 145.175 153.121 144.995L153.24 144.862L153.209 144.729C153.166 144.525 153.093 144.33 152.993 144.15C152.875 143.946 152.742 143.753 152.596 143.57L152.349 143.257C152.151 143.001 151.952 142.725 151.853 142.519C151.764 142.343 151.697 142.154 151.655 141.959L151.625 141.805L151.725 141.691C152.106 141.251 152.597 140.93 153.141 140.765C153.639 140.613 154.159 140.555 154.676 140.594L154.894 140.614L154.676 141.273L154.359 141.255C154.094 141.237 153.828 141.252 153.566 141.297C153.172 141.369 152.813 141.558 152.595 141.753L152.468 141.868L152.498 141.984C152.527 142.128 152.617 142.341 152.735 142.519C152.854 142.698 152.972 142.83 153.141 143.054L153.388 143.376C153.566 143.614 153.725 143.847 153.803 144.035Z" fill="url(#paint12_linear)"/>
<path fill-rule="evenodd" clip-rule="evenodd" d="M150.592 145.7L150.748 145.789C151.044 145.951 151.427 146.039 151.836 146.039L151.901 146.038C152.714 146.006 153.374 145.672 153.857 145.046L153.987 144.886L153.972 144.784C153.927 144.535 153.849 144.294 153.74 144.068L153.739 144.064C153.656 143.862 153.468 143.601 153.333 143.422L153.087 143.1C153.029 143.024 152.971 142.95 152.912 142.876C152.829 142.775 152.751 142.67 152.678 142.561C152.563 142.391 152.479 142.201 152.43 141.999L152.389 141.842L152.55 141.697C152.803 141.472 153.187 141.293 153.554 141.226C153.82 141.178 154.091 141.163 154.36 141.181L154.627 141.198L154.797 140.68L154.668 140.667C154.16 140.631 153.649 140.688 153.16 140.836C152.628 140.996 152.149 141.309 151.776 141.74L151.699 141.828L151.721 141.944C151.751 142.103 151.812 142.27 151.915 142.486C151.994 142.653 152.159 142.899 152.402 143.211L152.65 143.524C152.843 143.774 152.954 143.939 153.053 144.113C153.152 144.288 153.232 144.503 153.276 144.714L153.314 144.885L153.17 145.045C152.994 145.25 152.506 145.532 152.05 145.532C151.637 145.532 151.328 145.448 150.977 145.239L150.887 145.184L150.593 145.7H150.592ZM151.836 146.183C151.405 146.183 150.999 146.091 150.683 145.919L150.4 145.752L150.837 144.985L151.046 145.113C151.374 145.306 151.665 145.387 152.05 145.387C152.46 145.387 152.912 145.126 153.07 144.945L153.162 144.84L153.141 144.746C153.1 144.549 153.03 144.361 152.935 144.187C152.817 143.987 152.686 143.796 152.542 143.616L152.295 143.304C152.04 142.979 151.876 142.733 151.79 142.552C151.698 142.37 151.629 142.175 151.586 141.973L151.55 141.784L151.673 141.642C151.958 141.304 152.487 140.877 153.123 140.695C153.629 140.54 154.155 140.48 154.679 140.521L154.988 140.551L154.723 141.35L154.355 141.328C154.151 141.321 153.942 141.31 153.578 141.371C153.235 141.431 152.913 141.582 152.64 141.809L152.545 141.894L152.565 141.965C152.589 142.089 152.668 142.293 152.79 142.477C152.863 142.584 152.936 142.676 153.019 142.781C153.072 142.85 153.13 142.922 153.195 143.009L153.441 143.331C153.664 143.629 153.794 143.835 153.866 144.004C153.978 144.239 154.091 144.587 154.109 144.765L154.133 144.93L153.964 145.141C153.454 145.798 152.763 146.15 151.906 146.183H151.836ZM159.391 145.979H158.505L159.918 141.254H158.447L158.645 140.627H162.276L162.077 141.254H160.656L159.391 145.534V145.979Z" fill="url(#paint13_linear)"/>
<path fill-rule="evenodd" clip-rule="evenodd" d="M158.6 145.906H159.323L159.326 145.511L160.604 141.181H162.028L162.18 140.702H158.695L158.545 141.181H160.013L158.6 145.906ZM159.46 146.053H158.411L159.824 141.329H158.352L158.594 140.555H162.373L162.127 141.329H160.706L159.46 145.545V146.053ZM167.174 144.603H165.241L164.269 146.076L163.547 145.896L167.173 140.629H168.184L168.084 141.06C167.864 142.044 167.78 143.056 167.837 144.066C167.885 144.897 168.004 145.425 168.084 145.736L168.134 145.915L167.409 146.076L167.361 145.914C167.325 145.767 167.295 145.618 167.271 145.469C167.238 145.24 167.212 145.011 167.193 144.781L167.173 144.603H167.174ZM167.39 141.345L165.626 144.022H167.113V143.843C167.113 143.587 167.113 143.467 167.144 142.967C167.173 142.549 167.241 142.013 167.311 141.684L167.39 141.345Z" fill="url(#paint14_linear)"/>
<path fill-rule="evenodd" clip-rule="evenodd" d="M165.76 143.949H167.044V143.842C167.044 143.582 167.044 143.466 167.074 142.962C167.103 142.542 167.168 142.036 167.234 141.708L165.76 143.949ZM167.182 144.096H165.493L167.333 141.303L167.457 141.362L167.378 141.699C167.297 142.12 167.242 142.545 167.213 142.973C167.182 143.468 167.182 143.586 167.182 143.842V144.096ZM163.663 145.849L164.237 145.993L165.204 144.53H167.233L167.261 144.77C167.27 144.939 167.308 145.226 167.339 145.458C167.368 145.631 167.4 145.772 167.427 145.897L167.455 145.991L168.047 145.859L168.019 145.755C167.877 145.204 167.793 144.639 167.767 144.069C167.707 143.087 167.792 142.069 168.017 141.043L168.096 140.702H167.209L163.664 145.849H163.663ZM167.362 146.161L167.295 145.937C167.258 145.786 167.227 145.634 167.202 145.48C167.167 145.249 167.141 145.017 167.124 144.784L167.112 144.676H165.276L164.298 146.159L163.428 145.942L167.137 140.555H168.272L168.153 141.077C167.933 142.053 167.849 143.058 167.904 144.06C167.931 144.62 168.013 145.175 168.151 145.717L168.221 145.971L167.362 146.161ZM175.394 145.979L175.247 145.8C175.02 145.524 174.734 145.016 174.509 144.419C174.225 143.621 174.076 142.777 174.067 141.925V141.431L172.866 145.534V145.979H172.03L173.613 140.629H174.705V140.987C174.705 141.744 174.734 142.637 174.95 143.482C175.127 144.195 175.394 144.741 175.542 144.981L175.62 145.105L176.8 141.074V140.629H177.657L176.054 145.979H175.394Z" fill="url(#paint15_linear)"/>
<path fill-rule="evenodd" clip-rule="evenodd" d="M175.425 145.906H176.003L177.561 140.702H176.869L176.866 141.097L175.641 145.277L175.484 145.021C175.214 144.548 175.011 144.035 174.882 143.5C174.663 142.646 174.635 141.751 174.635 140.987V140.702H173.664L172.124 145.907H172.796L172.8 145.511L174.002 141.409L174.136 141.43V141.923C174.136 142.716 174.307 143.683 174.573 144.392C174.776 144.933 175.054 145.453 175.299 145.751L175.425 145.906ZM176.104 146.053H175.364L175.194 145.849C174.94 145.539 174.652 145.002 174.445 144.445C174.156 143.639 174.005 142.785 173.998 141.923V141.916L172.936 145.545V146.053H171.936L171.963 145.957L173.561 140.555H174.775V140.987C174.775 141.742 174.803 142.624 175.016 143.463C175.179 144.113 175.429 144.662 175.597 144.935L176.73 141.062V140.555H177.75L176.104 146.053ZM182.463 146.023L180.912 146.051L182.368 141.075V140.629H185.491L185.687 141.06C186.081 141.914 186.081 143.055 185.728 143.887C185.068 145.4 183.595 146.005 182.463 146.023ZM183.073 141.212L181.857 145.4H182.269C183.152 145.4 184.233 145.088 184.872 143.929C185.394 142.982 185.255 141.914 185.02 141.415L184.92 141.212H183.073Z" fill="url(#paint16_linear)"/>
<path fill-rule="evenodd" clip-rule="evenodd" d="M181.951 145.325H182.268C182.923 145.325 184.125 145.14 184.812 143.892C185.327 142.961 185.181 141.919 184.958 141.447L184.88 141.285H183.125L181.95 145.327L181.951 145.325ZM182.268 145.473H181.763L181.791 145.377L183.023 141.138H184.965L185.083 141.381C185.319 141.884 185.475 142.984 184.933 143.965C184.21 145.277 182.954 145.474 182.268 145.474V145.473ZM182.438 140.702L182.435 141.097L181.007 145.975L182.463 145.95C183.528 145.933 185.004 145.373 185.665 143.855C186.02 143.023 186.003 141.91 185.627 141.092L185.448 140.702H182.438ZM180.818 146.125L180.846 146.028L182.299 141.062V140.555H185.534L185.753 141.028C186.145 141.885 186.161 143.045 185.792 143.916C185.103 145.496 183.569 146.078 182.467 146.095L180.818 146.125ZM192.455 144.603H190.522L189.552 146.076L188.829 145.896L192.455 140.629H193.466L193.366 141.06C193.146 142.044 193.063 143.056 193.119 144.066C193.167 144.897 193.288 145.425 193.366 145.736L193.416 145.915L192.691 146.076L192.643 145.914C192.608 145.767 192.578 145.618 192.554 145.469C192.521 145.24 192.494 145.011 192.474 144.781L192.455 144.603ZM192.673 141.345L190.911 144.022H192.395V143.843C192.39 143.118 192.457 142.395 192.594 141.684L192.672 141.345H192.673Z" fill="url(#paint17_linear)"/>
<path fill-rule="evenodd" clip-rule="evenodd" d="M191.042 143.949H192.325V143.842C192.325 143.582 192.325 143.466 192.355 142.962C192.385 142.541 192.438 142.122 192.515 141.708L191.042 143.949ZM192.463 144.096H190.776L192.614 141.303L192.737 141.362L192.658 141.699C192.593 142.02 192.522 142.555 192.493 142.973C192.463 143.468 192.463 143.586 192.463 143.842V144.096ZM188.945 145.849L189.522 145.993L190.486 144.53H192.515L192.542 144.773C192.553 144.952 192.598 145.281 192.621 145.458C192.654 145.65 192.685 145.794 192.708 145.897L192.737 145.991L193.327 145.859L193.299 145.755C193.214 145.423 193.095 144.885 193.048 144.069C192.992 143.053 193.077 142.034 193.298 141.043L193.377 140.702H192.49L188.945 145.849ZM192.643 146.161L192.576 145.937C192.539 145.786 192.509 145.634 192.484 145.48C192.449 145.249 192.422 145.017 192.404 144.784L192.391 144.676H190.558L189.581 146.159L188.711 145.942L192.418 140.555H193.553L193.433 141.077C193.213 142.053 193.13 143.058 193.186 144.06C193.234 144.853 193.343 145.363 193.432 145.717L193.505 145.969L192.643 146.161ZM199.507 144.059L199.459 143.884H198.657L198.173 145.533V145.978H197.312L198.765 141.075V140.629H201.455L201.584 140.899C201.811 141.378 201.919 142.037 201.634 142.609C201.338 143.197 200.743 143.509 200.347 143.642L200.17 143.704L200.277 144.107C200.329 144.293 200.524 144.712 200.675 144.908C200.862 145.167 201.168 145.522 201.811 145.46L201.979 145.442L201.782 146.069L201.466 146.083C200.871 146.111 200.348 145.754 200.004 145.219C199.779 144.864 199.611 144.473 199.507 144.06V144.059ZM199.459 141.211L198.825 143.305H199.111C199.852 143.305 200.348 143.106 200.743 142.725C201.119 142.361 201.139 141.781 200.99 141.389L200.921 141.21H199.457L199.459 141.211Z" fill="url(#paint18_linear)"/>
<path fill-rule="evenodd" clip-rule="evenodd" d="M198.921 143.23H199.113C199.809 143.23 200.297 143.057 200.697 142.67C201.052 142.328 201.065 141.778 200.928 141.415L200.877 141.283H199.51L198.921 143.23ZM199.113 143.377H198.731L199.408 141.136H200.967L201.057 141.36C201.209 141.769 201.194 142.388 200.789 142.78C200.365 143.193 199.846 143.377 199.113 143.377ZM198.607 143.811H199.51L199.576 144.041C199.69 144.477 199.851 144.849 200.061 145.178C200.406 145.71 200.891 146.011 201.402 146.011L201.463 146.009L201.731 145.997L201.881 145.525L201.82 145.532C201.771 145.537 201.722 145.539 201.673 145.539C201.046 145.539 200.752 145.133 200.621 144.953C200.448 144.699 200.31 144.421 200.212 144.127L200.088 143.656L200.328 143.573C200.595 143.482 201.257 143.202 201.574 142.573C201.809 142.106 201.788 141.493 201.523 140.93L201.413 140.701H198.835L198.833 141.097L197.409 145.904H198.106L198.109 145.511L198.607 143.811ZM201.402 146.158C200.844 146.158 200.317 145.833 199.947 145.26C199.718 144.899 199.548 144.5 199.442 144.081L199.408 143.958H198.709L198.245 145.544V146.052H197.221L197.249 145.956L198.698 141.062V140.556H201.501L201.646 140.865C201.933 141.469 201.95 142.134 201.696 142.643C201.354 143.321 200.656 143.616 200.371 143.712L200.255 143.751L200.346 144.087C200.395 144.269 200.593 144.679 200.73 144.863C200.941 145.152 201.228 145.444 201.808 145.386L202.081 145.357L201.833 146.137L201.469 146.156H201.402V146.158ZM207.075 146.022L205.522 146.05L206.977 141.075V140.629H210.101L210.298 141.06C210.691 141.914 210.691 143.055 210.338 143.886C209.679 145.399 208.205 146.004 207.075 146.022ZM207.684 141.212L206.467 145.399H206.879C207.763 145.399 208.844 145.087 209.483 143.928C210.005 142.982 209.866 141.914 209.63 141.415L209.531 141.212H207.684Z" fill="url(#paint19_linear)"/>
<path fill-rule="evenodd" clip-rule="evenodd" d="M206.56 145.325H206.879C207.535 145.325 208.735 145.14 209.423 143.892C209.936 142.961 209.791 141.919 209.568 141.447L209.488 141.285H207.735L206.56 145.327V145.325ZM206.879 145.473H206.372L206.401 145.377L207.632 141.138H209.574L209.692 141.381C209.928 141.884 210.084 142.984 209.543 143.965C208.82 145.277 207.565 145.474 206.879 145.474V145.473ZM207.045 140.702L207.04 141.097L205.617 145.975L207.073 145.95C208.137 145.933 209.615 145.373 210.275 143.855C210.627 143.023 210.612 141.91 210.235 141.092L210.057 140.702H207.047H207.045ZM205.43 146.125L205.456 146.028L206.906 141.062V140.555H210.146L210.362 141.028C210.753 141.885 210.771 143.044 210.4 143.916C209.712 145.496 208.179 146.078 207.076 146.095L205.43 146.125Z" fill="url(#paint20_linear)"/>
<path fill-rule="evenodd" clip-rule="evenodd" d="M136.591 67.6117C133.317 69.4574 131.521 72.6524 132.538 74.6848C133.561 76.7184 137.396 76.8719 140.67 75.0275C143.942 73.1832 145.421 70.0419 144.4 68.0108C143.38 65.9771 139.87 65.7712 136.591 67.6117ZM140.443 74.9853C137.435 76.6762 133.621 76.4114 132.687 74.553C131.753 72.6908 133.736 69.575 136.739 67.8855C139.747 66.1933 143.226 66.1293 144.311 68.2845C145.247 70.1442 143.446 73.2945 140.443 74.9866" fill="url(#paint21_linear)"/>
<path fill-rule="evenodd" clip-rule="evenodd" d="M140.135 68.1784C129.262 72.7688 123.554 84.995 126.302 95.1671L126.573 94.9202C123.3 85.3237 130.117 72.8059 140.587 68.4227C152.322 63.5099 162.485 69.6211 165.831 79.7356L165.802 79.71C162.865 68.8268 151.402 63.4204 140.135 68.1784Z" fill="url(#paint22_linear)"/>
<path fill-rule="evenodd" clip-rule="evenodd" d="M149.208 79.0399C143.254 70.8413 136.122 66.6436 133.659 68.0569L133.127 68.369C135.499 67.0043 143.377 71.7136 149.109 79.6423C155.906 89.0546 159.163 100.2 158.184 103.761L157.782 104.755C157.896 104.591 158.005 104.404 158.089 104.183C159.638 100.196 156.11 88.543 149.21 79.0399" fill="url(#paint23_linear)"/>
<mask id="mask1" mask-type="alpha" maskUnits="userSpaceOnUse" x="134" y="64" width="18" height="45">
<path d="M134.812 64H151.949V108.24H134.812V64Z" fill="white"/>
</mask>
<g mask="url(#mask1)">
<path fill-rule="evenodd" clip-rule="evenodd" d="M151.948 108.078C144.82 108.385 137.296 99.5031 135.532 86.9687C134.323 75.8322 138.283 65.93 144.714 64.5154C145.049 64.4387 145.381 64.3965 145.719 64.3684L145.796 64C145.456 64.0307 145.12 64.0767 144.786 64.1496C138.13 65.6333 133.602 75.2925 135.1 86.7909C136.69 98.9544 144.211 108.637 151.761 108.035C151.937 108.023 151.798 108.226 151.618 108.24L151.948 108.078Z" fill="url(#paint24_linear)"/>
</g>
<path fill-rule="evenodd" clip-rule="evenodd" d="M156.54 75.2555C147.928 67.0876 135.216 67.1503 127.941 74.2502L128.268 74.3947C135.299 67.5775 148.151 67.8128 156.409 75.6993C165.333 84.5987 165.647 97.2035 158.193 104.516L158.202 104.481C165.995 96.8876 165.463 83.7226 156.539 75.2542" fill="url(#paint25_linear)"/>
<path fill-rule="evenodd" clip-rule="evenodd" d="M165.229 77.9977C165.239 78.1473 165.25 78.2995 165.254 78.4517C165.266 78.8226 166.013 81.8347 165.416 84.2892C164.375 89.381 160.834 94.0903 155.557 97.8328C148.454 102.866 140.061 104.949 133.839 102.373C131.708 101.75 129.894 100.257 128.591 98.682C128.29 98.3199 128.014 97.9352 127.766 97.5309C128.132 98.2664 128.571 99.0223 129.137 99.6694C134.37 105.627 146.334 104.944 155.822 98.2165C163.978 92.4353 167.669 84.0295 165.229 77.9977ZM124.748 84.71C124.775 84.7637 124.799 84.8161 124.828 84.8673C127.609 90.2776 136.706 90.6204 145.272 85.6027C153.923 80.5391 158.285 72.2536 155.602 66.6924L155.106 66.6284C157.637 71.8596 153.503 80.3434 145.307 85.1385C137.117 89.9386 127.701 89.78 125.177 84.5463L124.748 84.71Z" fill="url(#paint26_linear)"/>
<mask id="mask2" mask-type="alpha" maskUnits="userSpaceOnUse" x="65" y="154" width="148" height="5">
<path d="M65.6699 154.511H213V158.205H65.6699V154.511Z" fill="white"/>
</mask>
<g mask="url(#mask2)">
<path fill-rule="evenodd" clip-rule="evenodd" d="M65.6699 154.511H213L140.413 158.205L65.6699 154.511Z" fill="url(#paint27_linear)"/>
</g>
<path fill-rule="evenodd" clip-rule="evenodd" d="M143.673 94.5417C143.673 90.3017 139.486 90.1418 134.603 89.1889V88.2859H150.278L161.537 105.229H161.648L172.364 88.2859H179.073V126.194H174.248V91.0947H174.137L162.812 110.421L160.622 113.4L146.672 91.0934H146.559V126.192H143.674V94.5417H143.673ZM119.975 105.783C117.302 103.715 115.285 101.34 115.285 97.5128C115.285 93.1232 118.017 90.3132 122.034 90.3132C125.941 90.3132 129.512 92.2573 131.242 93.2678V88.2246C129.622 87.7922 126.612 87.0747 122.985 87.0747C115.563 87.0747 110.818 91.394 110.818 99.2434C110.818 100.923 111.057 102.382 111.464 103.688C114.521 104.266 117.376 104.968 119.975 105.783ZM204.837 123.826H198.98C195.023 123.826 194.538 123.826 194.538 120.578V108.803H204.07V105.94H194.536V94.1938C194.536 91.1689 194.75 90.4961 197.847 90.4961H203.53C208.033 90.4961 207.979 92.233 208.524 95.1454H210.205L209.932 88.3128H181.41V89.2631C186.126 89.9372 189.817 91.0026 189.817 94.1938V126.012H210.851L211.234 118.396C211.234 118.396 208.524 123.828 204.837 123.828" fill="url(#paint28_linear)"/>
<defs>
<filter id="filter0_d" x="0" y="0" width="290" height="294" filterUnits="userSpaceOnUse" color-interpolation-filters="sRGB">
<feFlood flood-opacity="0" result="BackgroundImageFix"/>
<feColorMatrix in="SourceAlpha" type="matrix" values="0 0 0 0 0 0 0 0 0 0 0 0 0 0 0 0 0 0 127 0"/>
<feOffset dx="7" dy="7"/>
<feGaussianBlur stdDeviation="13"/>
<feColorMatrix type="matrix" values="0 0 0 0 0.811765 0 0 0 0 0.811765 0 0 0 0 0.811765 0 0 0 0.36 0"/>
<feBlend mode="normal" in2="BackgroundImageFix" result="effect1_dropShadow"/>
<feBlend mode="normal" in="SourceGraphic" in2="effect1_dropShadow" result="shape"/>
</filter>
<linearGradient id="paint0_linear" x1="98.4255" y1="104.659" x2="98.4255" y2="134.432" gradientUnits="userSpaceOnUse">
<stop stop-color="#E47F40"/>
<stop offset="1" stop-color="#CD5A2F"/>
</linearGradient>
<linearGradient id="paint1_linear" x1="90.932" y1="87.3242" x2="90.932" y2="128.275" gradientUnits="userSpaceOnUse">
<stop stop-color="#E47F40"/>
<stop offset="1" stop-color="#CD5A2F"/>
</linearGradient>
<linearGradient id="paint2_linear" x1="71.5635" y1="140.583" x2="71.5635" y2="146.112" gradientUnits="userSpaceOnUse">
<stop stop-color="#E47F40"/>
<stop offset="1" stop-color="#CD5A2F"/>
</linearGradient>
<linearGradient id="paint3_linear" x1="75.131" y1="140.51" x2="75.131" y2="146.183" gradientUnits="userSpaceOnUse">
<stop stop-color="#E47F40"/>
<stop offset="1" stop-color="#CD5A2F"/>
</linearGradient>
<linearGradient id="paint4_linear" x1="82.4639" y1="140.556" x2="82.4639" y2="146.053" gradientUnits="userSpaceOnUse">
<stop stop-color="#E47F40"/>
<stop offset="1" stop-color="#CD5A2F"/>
</linearGradient>
<linearGradient id="paint5_linear" x1="89.6591" y1="140.555" x2="89.6591" y2="146.053" gradientUnits="userSpaceOnUse">
<stop stop-color="#E47F40"/>
<stop offset="1" stop-color="#CD5A2F"/>
</linearGradient>
<linearGradient id="paint6_linear" x1="95.4103" y1="140.555" x2="95.4103" y2="146.053" gradientUnits="userSpaceOnUse">
<stop stop-color="#E47F40"/>
<stop offset="1" stop-color="#CD5A2F"/>
</linearGradient>
<linearGradient id="paint7_linear" x1="102.972" y1="140.555" x2="102.972" y2="146.053" gradientUnits="userSpaceOnUse">
<stop stop-color="#E47F40"/>
<stop offset="1" stop-color="#CD5A2F"/>
</linearGradient>
<linearGradient id="paint8_linear" x1="109.804" y1="140.555" x2="109.804" y2="146.157" gradientUnits="userSpaceOnUse">
<stop stop-color="#E47F40"/>
<stop offset="1" stop-color="#CD5A2F"/>
</linearGradient>
<linearGradient id="paint9_linear" x1="120.719" y1="140.501" x2="120.719" y2="146.239" gradientUnits="userSpaceOnUse">
<stop stop-color="#E47F40"/>
<stop offset="1" stop-color="#CD5A2F"/>
</linearGradient>
<linearGradient id="paint10_linear" x1="131.109" y1="140.555" x2="131.109" y2="146.053" gradientUnits="userSpaceOnUse">
<stop stop-color="#E47F40"/>
<stop offset="1" stop-color="#CD5A2F"/>
</linearGradient>
<linearGradient id="paint11_linear" x1="137.956" y1="140.555" x2="137.956" y2="146.052" gradientUnits="userSpaceOnUse">
<stop stop-color="#E47F40"/>
<stop offset="1" stop-color="#CD5A2F"/>
</linearGradient>
<linearGradient id="paint12_linear" x1="147.482" y1="140.556" x2="147.482" y2="146.111" gradientUnits="userSpaceOnUse">
<stop stop-color="#E47F40"/>
<stop offset="1" stop-color="#CD5A2F"/>
</linearGradient>
<linearGradient id="paint13_linear" x1="156.338" y1="140.509" x2="156.338" y2="146.183" gradientUnits="userSpaceOnUse">
<stop stop-color="#E47F40"/>
<stop offset="1" stop-color="#CD5A2F"/>
</linearGradient>
<linearGradient id="paint14_linear" x1="163.268" y1="140.555" x2="163.268" y2="146.076" gradientUnits="userSpaceOnUse">
<stop stop-color="#E47F40"/>
<stop offset="1" stop-color="#CD5A2F"/>
</linearGradient>
<linearGradient id="paint15_linear" x1="170.542" y1="140.555" x2="170.542" y2="146.161" gradientUnits="userSpaceOnUse">
<stop stop-color="#E47F40"/>
<stop offset="1" stop-color="#CD5A2F"/>
</linearGradient>
<linearGradient id="paint16_linear" x1="178.962" y1="140.555" x2="178.962" y2="146.053" gradientUnits="userSpaceOnUse">
<stop stop-color="#E47F40"/>
<stop offset="1" stop-color="#CD5A2F"/>
</linearGradient>
<linearGradient id="paint17_linear" x1="187.142" y1="140.555" x2="187.142" y2="146.125" gradientUnits="userSpaceOnUse">
<stop stop-color="#E47F40"/>
<stop offset="1" stop-color="#CD5A2F"/>
</linearGradient>
<linearGradient id="paint18_linear" x1="195.345" y1="140.555" x2="195.345" y2="146.161" gradientUnits="userSpaceOnUse">
<stop stop-color="#E47F40"/>
<stop offset="1" stop-color="#CD5A2F"/>
</linearGradient>
<linearGradient id="paint19_linear" x1="203.909" y1="140.556" x2="203.909" y2="146.158" gradientUnits="userSpaceOnUse">
<stop stop-color="#E47F40"/>
<stop offset="1" stop-color="#CD5A2F"/>
</linearGradient>
<linearGradient id="paint20_linear" x1="208.048" y1="140.555" x2="208.048" y2="146.125" gradientUnits="userSpaceOnUse">
<stop stop-color="#E47F40"/>
<stop offset="1" stop-color="#CD5A2F"/>
</linearGradient>
<linearGradient id="paint21_linear" x1="138.487" y1="66.3496" x2="138.487" y2="76.3163" gradientUnits="userSpaceOnUse">
<stop stop-color="#E47F40"/>
<stop offset="1" stop-color="#CD5A2F"/>
</linearGradient>
<linearGradient id="paint22_linear" x1="145.724" y1="66.4424" x2="145.724" y2="95.1671" gradientUnits="userSpaceOnUse">
<stop stop-color="#E47F40"/>
<stop offset="1" stop-color="#CD5A2F"/>
</linearGradient>
<linearGradient id="paint23_linear" x1="145.788" y1="67.7866" x2="145.788" y2="104.755" gradientUnits="userSpaceOnUse">
<stop stop-color="#E47F40"/>
<stop offset="1" stop-color="#CD5A2F"/>
</linearGradient>
<linearGradient id="paint24_linear" x1="143.38" y1="64" x2="143.38" y2="108.24" gradientUnits="userSpaceOnUse">
<stop stop-color="#E47F40"/>
<stop offset="1" stop-color="#CD5A2F"/>
</linearGradient>
<linearGradient id="paint25_linear" x1="145.804" y1="69.022" x2="145.804" y2="104.516" gradientUnits="userSpaceOnUse">
<stop stop-color="#E47F40"/>
<stop offset="1" stop-color="#CD5A2F"/>
</linearGradient>
<linearGradient id="paint26_linear" x1="145.36" y1="66.6284" x2="145.36" y2="103.734" gradientUnits="userSpaceOnUse">
<stop stop-color="#E47F40"/>
<stop offset="1" stop-color="#CD5A2F"/>
</linearGradient>
<linearGradient id="paint27_linear" x1="139.335" y1="154.511" x2="139.335" y2="158.205" gradientUnits="userSpaceOnUse">
<stop stop-color="#E47F40"/>
<stop offset="1" stop-color="#CD5A2F"/>
</linearGradient>
<linearGradient id="paint28_linear" x1="161.026" y1="87.0747" x2="161.026" y2="126.194" gradientUnits="userSpaceOnUse">
<stop stop-color="#E47F40"/>
<stop offset="1" stop-color="#CD5A2F"/>
</linearGradient>
</defs>
</svg>
