<svg xmlns="http://www.w3.org/2000/svg" width="77" height="80" fill="none" viewBox="0 0 77 80"><g filter="url(#filter0_d)"><g clip-path="url(#clip0)"><path fill="url(#paint0_linear)" fill-rule="evenodd" d="M4 15.4476C4 11.5251 7.17659 8.34525 11.0951 8.34525H65.9049C69.8234 8.34525 73 11.5251 73 15.4476V27.2552H4V15.4476ZM18.0129 12.5179C18.0129 14.3321 16.5437 15.8027 14.7314 15.8027C12.919 15.8027 11.4499 14.3321 11.4499 12.5179C11.4499 10.7037 12.919 9.23304 14.7314 9.23304C16.5437 9.23304 18.0129 10.7037 18.0129 12.5179ZM62.446 15.8027C64.2584 15.8027 65.7275 14.3321 65.7275 12.5179C65.7275 10.7037 64.2584 9.23304 62.446 9.23304C60.6337 9.23304 59.1645 10.7037 59.1645 12.5179C59.1645 14.3321 60.6337 15.8027 62.446 15.8027Z" clip-rule="evenodd"/><path fill="#fff" d="M4 27.1665H73V64.8977C73 68.8202 69.8234 72 65.9049 72H11.0951C7.17659 72 4 68.8202 4 64.8977V27.1665Z"/><path fill="#303030" d="M64.5745 1.99753C64.5745 0.894326 63.6811 0 62.579 0C61.4769 0 60.5835 0.894326 60.5835 1.99753V12.2072C60.5835 13.3104 61.4769 14.2047 62.579 14.2047C63.6811 14.2047 64.5745 13.3104 64.5745 12.2072V1.99753Z"/><path fill="#303030" d="M64.5745 1.99753C64.5745 0.894326 63.6811 0 62.579 0C61.4769 0 60.5835 0.894326 60.5835 1.99753V12.2072C60.5835 13.3104 61.4769 14.2047 62.579 14.2047C63.6811 14.2047 64.5745 13.3104 64.5745 12.2072V1.99753Z"/><path fill="#303030" d="M16.6824 1.99753C16.6824 0.894326 15.789 0 14.6869 0C13.5848 0 12.6914 0.894326 12.6914 1.99753V12.2072C12.6914 13.3104 13.5848 14.2047 14.6869 14.2047C15.789 14.2047 16.6824 13.3104 16.6824 12.2072V1.99753Z"/><path fill="#303030" d="M16.6824 1.99753C16.6824 0.894326 15.789 0 14.6869 0C13.5848 0 12.6914 0.894326 12.6914 1.99753V12.2072C12.6914 13.3104 13.5848 14.2047 14.6869 14.2047C15.789 14.2047 16.6824 13.3104 16.6824 12.2072V1.99753Z"/></g></g><defs><filter id="filter0_d" width="77" height="80" x="0" y="0" color-interpolation-filters="sRGB" filterUnits="userSpaceOnUse"><feFlood flood-opacity="0" result="BackgroundImageFix"/><feColorMatrix in="SourceAlpha" type="matrix" values="0 0 0 0 0 0 0 0 0 0 0 0 0 0 0 0 0 0 127 0"/><feOffset dy="4"/><feGaussianBlur stdDeviation="2"/><feColorMatrix type="matrix" values="0 0 0 0 0 0 0 0 0 0 0 0 0 0 0 0 0 0 0.25 0"/><feBlend in2="BackgroundImageFix" mode="normal" result="effect1_dropShadow"/><feBlend in="SourceGraphic" in2="effect1_dropShadow" mode="normal" result="shape"/></filter><linearGradient id="paint0_linear" x1="38.5" x2="38.5" y1="8.345" y2="27.255" gradientUnits="userSpaceOnUse"><stop stop-color="#E47F40"/><stop offset=".701" stop-color="#F15C04"/></linearGradient><clipPath id="clip0"><rect width="69" height="72" x="4" fill="#fff"/></clipPath></defs></svg>