<svg xmlns="http://www.w3.org/2000/svg" width="8" height="11" fill="none" viewBox="0 0 8 11"><path fill="#7B7B7B" fill-rule="evenodd" d="M6.45448 5.9091L3.89473 10L1.5454 5.9091H1.57051C1.21164 5.39922 1.00001 4.77197 1.00001 4.09374C1.00001 2.38512 2.34316 1 4.00001 1C5.65686 1 7 2.38512 7 4.09374C7 4.77197 6.78837 5.39922 6.4295 5.9091H6.45448ZM4.04692 2.09092C3.19261 2.09092 2.50005 2.78348 2.50005 3.6378C2.50005 4.49211 3.19261 5.18467 4.04692 5.18467C4.90124 5.18467 5.59379 4.49211 5.59379 3.6378C5.59379 2.78348 4.90124 2.09092 4.04692 2.09092Z" clip-rule="evenodd"/><path fill="#7B7B7B" d="M3.89473 10L3.46114 10.249L3.87635 10.972L4.31859 10.2652L3.89473 10ZM6.45448 5.9091L6.87834 6.17432L7.35715 5.4091H6.45448V5.9091ZM1.5454 5.9091V5.4091H0.681673L1.11181 6.1581L1.5454 5.9091ZM1.57051 5.9091L1.57051 6.4091H2.53386L1.97939 5.62132L1.57051 5.9091ZM6.4295 5.9091L6.02062 5.62132L5.46615 6.4091H6.4295L6.4295 5.9091ZM4.31859 10.2652L6.87834 6.17432L6.03062 5.64388L3.47087 9.73478L4.31859 10.2652ZM1.11181 6.1581L3.46114 10.249L4.32832 9.751L1.97899 5.6601L1.11181 6.1581ZM1.57051 5.4091H1.5454L1.5454 6.4091L1.57051 6.4091L1.57051 5.4091ZM0.500013 4.09374C0.500013 4.87725 0.744776 5.60461 1.16164 6.19688L1.97939 5.62132C1.67851 5.19382 1.50001 4.66669 1.50001 4.09374H0.500013ZM4.00001 0.500001C2.05262 0.500001 0.500013 2.12359 0.500013 4.09374H1.50001C1.50001 2.64664 2.63369 1.5 4.00001 1.5L4.00001 0.500001ZM7.5 4.09374C7.5 2.12359 5.94739 0.500001 4.00001 0.500001L4.00001 1.5C5.36632 1.5 6.5 2.64664 6.5 4.09374H7.5ZM6.83838 6.19688C7.25524 5.60461 7.5 4.87725 7.5 4.09374H6.5C6.5 4.66669 6.32151 5.19382 6.02062 5.62132L6.83838 6.19688ZM6.45448 5.4091H6.4295L6.4295 6.4091H6.45448L6.45448 5.4091ZM3.00005 3.6378C3.00005 3.05962 3.46875 2.59092 4.04692 2.59092V1.59092C2.91647 1.59092 2.00005 2.50734 2.00005 3.6378H3.00005ZM4.04692 4.68467C3.46875 4.68467 3.00005 4.21597 3.00005 3.6378H2.00005C2.00005 4.76825 2.91647 5.68467 4.04692 5.68467V4.68467ZM5.09379 3.6378C5.09379 4.21597 4.62509 4.68467 4.04692 4.68467V5.68467C5.17738 5.68467 6.09379 4.76825 6.09379 3.6378H5.09379ZM4.04692 2.59092C4.62509 2.59092 5.09379 3.05962 5.09379 3.6378H6.09379C6.09379 2.50734 5.17738 1.59092 4.04692 1.59092V2.59092Z"/></svg>