<svg xmlns="http://www.w3.org/2000/svg" width="12" height="12" fill="none" viewBox="0 0 12 12"><path fill="#D8A08B" d="M6 3C6.06567 2.99998 6.13069 3.0129 6.19136 3.03803C6.25203 3.06315 6.30716 3.09998 6.35359 3.14641C6.40002 3.19284 6.43685 3.24797 6.46197 3.30864C6.4871 3.36931 6.50002 3.43433 6.5 3.5V5.71124L7.54883 6.31689C7.66362 6.38323 7.74737 6.49245 7.78167 6.62052C7.81596 6.74859 7.798 6.88504 7.73171 6.99987C7.66543 7.1147 7.55626 7.19851 7.42821 7.23287C7.30015 7.26723 7.16369 7.24933 7.04883 7.1831L5.75 6.4331C5.67413 6.38904 5.61113 6.32586 5.56727 6.24988C5.52341 6.17389 5.50021 6.08774 5.5 6V3.5C5.49998 3.43433 5.5129 3.36931 5.53803 3.30864C5.56315 3.24797 5.59998 3.19284 5.64641 3.14641C5.69284 3.09998 5.74797 3.06315 5.80864 3.03803C5.86931 3.0129 5.93433 2.99998 6 3Z"/><path fill="#7B7B7B" d="M1 6C1 6.98891 1.29324 7.95561 1.84265 8.77785C2.39206 9.6001 3.17295 10.241 4.08658 10.6194C5.00021 10.9978 6.00555 11.0969 6.97545 10.9039C7.94536 10.711 8.83627 10.2348 9.53554 9.53553C10.2348 8.83627 10.711 7.94536 10.9039 6.97545C11.0969 6.00555 10.9978 5.00021 10.6194 4.08658C10.241 3.17295 9.6001 2.39206 8.77785 1.84265C7.95561 1.29324 6.98891 1 6 1C5.34339 1 4.69321 1.12933 4.08658 1.3806C3.47996 1.63188 2.92876 2.00017 2.46447 2.46447C1.52678 3.40215 1 4.67392 1 6ZM5.5 3.5C5.5 3.36739 5.55268 3.24021 5.64645 3.14645C5.74022 3.05268 5.86739 3 6 3C6.13261 3 6.25979 3.05268 6.35355 3.14645C6.44732 3.24021 6.5 3.36739 6.5 3.5V5.71125L7.54883 6.3169C7.66363 6.38324 7.74738 6.49245 7.78167 6.62052C7.81597 6.74859 7.798 6.88504 7.73172 6.99987C7.66543 7.1147 7.55626 7.19851 7.42821 7.23287C7.30015 7.26723 7.16369 7.24933 7.04883 7.1831L5.75 6.4331C5.67413 6.38904 5.61113 6.32586 5.56727 6.24988C5.52341 6.17389 5.50021 6.08774 5.5 6V3.5Z"/></svg>