<svg xmlns="http://www.w3.org/2000/svg" width="156" height="175" fill="none" viewBox="0 0 156 175"><path stroke="#fff" stroke-width="12" d="M69.3252 74.3607C91.6001 91.1763 109.135 108.127 119.532 121.836C124.756 128.723 127.978 134.533 129.248 138.939C130.596 143.616 129.376 145.221 128.852 145.616C128.328 146.012 126.202 146.933 120.007 145.916C114.17 144.957 106.474 142.524 97.3504 138.581C79.1911 130.732 56.7373 117.495 34.4623 100.679C12.1873 83.8635 -5.34771 66.9128 -15.7449 53.2042C-20.9685 46.3168 -24.1908 40.5068 -25.4606 36.1005C-26.8083 31.4238 -25.5887 29.8192 -25.0644 29.4234C-24.5401 29.0276 -22.4146 28.1069 -16.2195 29.1243C-10.3826 30.0829 -2.68636 32.5154 6.43707 36.4588C24.5964 44.3077 47.0502 57.5451 69.3252 74.3607Z"/><path stroke="#fff" stroke-width="12" d="M69.3554 100.653C47.0748 117.462 24.6153 130.693 6.45142 138.539C-2.67431 142.48 -10.3725 144.912 -16.2109 145.87C-22.4075 146.887 -24.5335 145.967 -25.058 145.571C-25.5824 145.175 -26.8024 143.571 -25.4543 138.897C-24.1842 134.492 -20.9611 128.685 -15.7361 121.801C-5.33633 108.098 12.2031 91.1549 34.4837 74.3467C56.7643 57.5385 79.2238 44.307 97.3876 36.4615C106.513 32.5199 114.212 30.0884 120.05 29.1302C126.247 28.1133 128.373 29.0336 128.897 29.4292C129.421 29.8249 130.641 31.4287 129.293 36.1034C128.023 40.5078 124.8 46.3152 119.575 53.1995C109.175 66.9021 91.6359 83.8452 69.3554 100.653Z"/><path stroke="#fff" stroke-width="12" d="M77.6741 87.5C77.6741 111.158 74.2193 132.315 68.8199 147.343C66.111 154.883 63.026 160.561 59.9011 164.239C56.7549 167.943 54.1416 169 52.2374 169C50.3332 169 47.7199 167.943 44.5737 164.239C41.4488 160.561 38.3638 154.883 35.6549 147.343C30.2555 132.315 26.8007 111.158 26.8007 87.5C26.8007 63.8424 30.2555 42.6853 35.6549 27.6569C38.3638 20.117 41.4488 14.4394 44.5737 10.7606C47.7199 7.05675 50.3332 6.00003 52.2374 6.00003C54.1416 6.00003 56.7549 7.05675 59.9011 10.7606C63.026 14.4394 66.111 20.117 68.8199 27.6569C74.2193 42.6853 77.6741 63.8424 77.6741 87.5Z"/><ellipse cx="52.237" cy="87.5" fill="#fff" rx="13.377" ry="13.359"/></svg>