<svg xmlns="http://www.w3.org/2000/svg" width="199" height="238" fill="none" viewBox="0 0 199 238"><ellipse fill="#FF9350" rx="17.015" ry="17.009" transform="matrix(0.799037 -0.601282 0.602348 0.798234 116.451 107.342)"/><path stroke="#FF9350" stroke-linecap="round" stroke-width="6" d="M123.565 153.326L136.692 149.875C143.031 148.208 148.462 144.122 151.814 138.496L158.754 126.847"/><path stroke="#FF9350" stroke-linecap="round" stroke-width="6" d="M134.29 158.402L141.23 156.859C148.094 155.332 153.997 150.99 157.492 144.896L161.481 137.94"/><path stroke="#FF9350" stroke-width="11" d="M97.9036 151.833C85.2602 131.554 82.7179 109.696 83.421 92.6871C83.7716 84.2042 84.9273 77.0118 85.9906 71.9585C86.3255 70.3667 86.6506 68.9907 86.9372 67.8572C87.8544 67.8672 88.9274 67.8966 90.1421 67.9589C94.7222 68.1941 101.298 68.8963 109.119 70.776C124.745 74.531 145.334 82.9797 164.996 101.831C173.305 109.798 179.674 121.13 184.489 134.044C189.286 146.914 192.416 161.017 194.444 174.193C196.469 187.35 197.376 199.454 197.776 208.273C197.891 210.805 197.963 213.062 198.009 214.992C196.262 214.392 194.236 213.68 191.979 212.857C183.843 209.891 172.73 205.498 160.809 199.794C136.665 188.239 110.378 171.839 97.9036 151.833Z"/><path fill="#FF9350" d="M130.756 206.637L136.165 207.651L130.756 206.637ZM136.476 193.057L139.294 188.337L134.599 185.541L131.768 190.209L136.476 193.057ZM160.325 263.27L156.554 267.272L165.384 261.108L160.325 263.27ZM153.298 211.585L158.476 213.451L158.476 213.451L153.298 211.585ZM157.117 204.116L161.75 207.084L165.097 201.872L159.516 199.17L157.117 204.116ZM136.165 207.651C136.825 204.132 138.66 200.069 141.184 195.906L131.768 190.209C128.937 194.878 126.355 200.245 125.346 205.622L136.165 207.651ZM160.325 263.27C164.096 259.268 164.097 259.268 164.098 259.269C164.098 259.269 164.098 259.27 164.098 259.27C164.099 259.27 164.098 259.269 164.097 259.269C164.095 259.267 164.092 259.263 164.086 259.258C164.074 259.247 164.055 259.228 164.027 259.202C163.973 259.15 163.887 259.068 163.773 258.957C163.544 258.736 163.201 258.4 162.761 257.96C161.881 257.079 160.615 255.781 159.105 254.144C156.076 250.862 152.104 246.258 148.287 240.944C144.455 235.608 140.886 229.701 138.553 223.809C136.205 217.877 135.277 212.381 136.165 207.651L125.346 205.622C123.934 213.15 125.552 220.863 128.317 227.847C131.098 234.872 135.209 241.591 139.344 247.349C143.495 253.129 147.777 258.086 151.012 261.592C152.633 263.349 154.001 264.753 154.971 265.724C155.457 266.209 155.843 266.588 156.113 266.849C156.248 266.979 156.353 267.081 156.428 267.152C156.465 267.187 156.494 267.215 156.515 267.235C156.526 267.245 156.535 267.253 156.541 267.259C156.544 267.262 156.547 267.265 156.549 267.267C156.55 267.268 156.552 267.269 156.552 267.27C156.553 267.271 156.554 267.272 160.325 263.27ZM148.121 209.72C144.061 220.969 146.231 235.312 148.877 245.938C150.243 251.423 151.83 256.267 153.073 259.738C153.696 261.477 154.236 262.881 154.624 263.858C154.818 264.347 154.974 264.731 155.084 264.996C155.139 265.129 155.182 265.233 155.213 265.306C155.228 265.342 155.241 265.371 155.249 265.392C155.254 265.403 155.258 265.411 155.26 265.418C155.262 265.421 155.263 265.424 155.264 265.426C155.264 265.427 155.265 265.429 155.265 265.429C155.266 265.431 155.266 265.432 160.325 263.27C165.384 261.108 165.385 261.109 165.385 261.109C165.385 261.109 165.385 261.11 165.385 261.11C165.386 261.11 165.386 261.11 165.385 261.11C165.385 261.108 165.383 261.105 165.381 261.1C165.377 261.089 165.369 261.071 165.358 261.046C165.337 260.994 165.303 260.913 165.257 260.803C165.166 260.583 165.03 260.249 164.856 259.811C164.508 258.935 164.013 257.649 163.437 256.039C162.281 252.814 160.814 248.33 159.559 243.289C156.963 232.863 155.619 221.365 158.476 213.451L148.121 209.72ZM152.484 201.148C150.748 203.852 149.192 206.751 148.121 209.72L158.476 213.451C159.186 211.482 160.306 209.333 161.75 207.084L152.484 201.148ZM159.516 199.17C152.86 195.947 145.997 192.329 139.294 188.337L133.659 197.778C140.681 201.96 147.83 205.727 154.717 209.062L159.516 199.17Z"/><path fill="#FF9350" d="M199.986 174.047L194.544 174.867L195.429 180.708L201.198 179.409L199.986 174.047ZM205.029 173.283L205.397 178.767L205.397 178.767L205.029 173.283ZM252.843 194.275L249.367 198.535L257.735 191.758L252.843 194.275ZM206.479 150.28L205.964 155.752L206.479 150.28ZM195.468 151.15L194.334 145.771L188.749 146.943L190.128 152.475L195.468 151.15ZM201.198 179.409C202.704 179.07 204.111 178.853 205.397 178.767L204.66 167.799C202.696 167.93 200.716 168.247 198.773 168.685L201.198 179.409ZM205.397 178.767C213.802 178.207 224.501 182.666 233.82 188.031C238.327 190.626 242.239 193.27 245.025 195.268C246.416 196.265 247.518 197.095 248.265 197.67C248.638 197.958 248.923 198.181 249.109 198.329C249.203 198.403 249.271 198.458 249.315 198.493C249.336 198.51 249.352 198.522 249.361 198.53C249.365 198.533 249.368 198.535 249.369 198.536C249.369 198.537 249.37 198.537 249.369 198.537C249.369 198.537 249.369 198.536 249.369 198.536C249.368 198.536 249.367 198.535 252.843 194.275C256.318 190.014 256.318 190.013 256.317 190.013C256.316 190.012 256.315 190.011 256.314 190.01C256.312 190.009 256.31 190.007 256.307 190.005C256.301 190 256.294 189.994 256.285 189.987C256.267 189.973 256.243 189.953 256.212 189.928C256.15 189.879 256.063 189.808 255.95 189.719C255.724 189.54 255.398 189.285 254.981 188.963C254.147 188.322 252.945 187.416 251.442 186.339C248.444 184.189 244.218 181.331 239.315 178.508C229.816 173.039 216.607 167.002 204.66 167.799L205.397 178.767ZM252.843 194.275C257.735 191.758 257.734 191.756 257.733 191.755C257.733 191.754 257.732 191.753 257.731 191.752C257.73 191.749 257.728 191.745 257.726 191.742C257.722 191.734 257.717 191.723 257.71 191.71C257.696 191.684 257.678 191.648 257.654 191.603C257.606 191.512 257.538 191.383 257.449 191.217C257.272 190.886 257.015 190.411 256.681 189.811C256.014 188.612 255.04 186.912 253.795 184.872C251.312 180.8 247.72 175.323 243.301 169.745C238.898 164.189 233.564 158.391 227.568 153.785C221.607 149.206 214.628 145.526 206.993 144.807L205.964 155.752C210.762 156.204 215.796 158.609 220.859 162.498C225.888 166.361 230.59 171.415 234.67 176.565C238.734 181.693 242.071 186.776 244.395 190.588C245.555 192.489 246.455 194.061 247.06 195.149C247.363 195.693 247.591 196.115 247.742 196.395C247.817 196.535 247.872 196.64 247.907 196.707C247.925 196.74 247.937 196.764 247.944 196.779C247.948 196.786 247.951 196.79 247.952 196.792C247.952 196.794 247.952 196.794 247.952 196.794C247.952 196.794 247.952 196.793 247.952 196.793C247.952 196.792 247.951 196.791 252.843 194.275ZM206.993 144.807C202.83 144.415 198.452 144.906 194.334 145.771L196.602 156.528C200.093 155.796 203.287 155.5 205.964 155.752L206.993 144.807ZM190.128 152.475C192.003 160.003 193.442 167.591 194.544 174.867L205.427 173.227C204.284 165.678 202.783 157.745 200.809 149.824L190.128 152.475Z"/><mask id="path-7-inside-1" fill="#fff"><path fill-rule="evenodd" d="M153.771 191.899C153.567 198.869 154.79 206.194 158.825 212.666C171.406 232.844 217.937 239.155 217.937 239.155C217.937 239.155 223.589 193.328 206.41 176.858C201.386 172.041 195.903 168.851 190.541 166.766C193.324 189.396 192.98 206.972 192.98 206.972C192.98 206.972 175.393 201.722 153.771 191.899Z" clip-rule="evenodd"/></mask><path fill="#FF9350" d="M158.825 212.666L168.168 206.857L158.825 212.666ZM153.771 191.899L158.326 181.893L143.253 175.044L142.769 191.573L153.771 191.899ZM217.937 239.155L216.46 250.047L227.5 251.545L228.862 240.502L217.937 239.155ZM206.41 176.858L214.031 168.929L214.031 168.929L206.41 176.858ZM190.541 166.766L194.531 156.522L177.371 149.85L179.616 168.102L190.541 166.766ZM192.98 206.972L189.831 217.504L203.701 221.645L203.985 207.191L192.98 206.972ZM168.168 206.857C165.611 202.756 164.611 197.76 164.773 192.224L142.769 191.573C142.523 199.978 143.968 209.631 149.482 218.474L168.168 206.857ZM217.937 239.155C219.415 228.262 219.416 228.262 219.418 228.262C219.419 228.262 219.42 228.262 219.421 228.262C219.422 228.263 219.423 228.263 219.423 228.263C219.423 228.263 219.42 228.262 219.415 228.262C219.403 228.26 219.382 228.257 219.349 228.252C219.284 228.243 219.177 228.228 219.029 228.206C218.735 228.162 218.281 228.092 217.687 227.995C216.499 227.801 214.758 227.498 212.617 227.072C208.316 226.217 202.498 224.885 196.363 222.98C190.182 221.061 183.971 218.65 178.744 215.726C173.391 212.733 169.923 209.673 168.168 206.857L149.482 218.474C154.017 225.748 161.084 231.044 167.994 234.908C175.03 238.844 182.811 241.793 189.835 243.974C196.906 246.17 203.507 247.676 208.324 248.634C210.742 249.115 212.734 249.463 214.14 249.693C214.843 249.808 215.401 249.893 215.795 249.952C215.991 249.981 216.146 250.003 216.258 250.019C216.314 250.027 216.359 250.034 216.393 250.038C216.41 250.041 216.424 250.042 216.435 250.044C216.441 250.045 216.446 250.045 216.45 250.046C216.452 250.046 216.455 250.047 216.456 250.047C216.458 250.047 216.46 250.047 217.937 239.155ZM198.788 184.787C201.112 187.014 203.255 190.879 204.872 196.548C206.455 202.096 207.283 208.486 207.625 214.774C207.964 221.012 207.808 226.828 207.563 231.104C207.441 233.231 207.298 234.951 207.188 236.12C207.133 236.704 207.086 237.149 207.055 237.437C207.039 237.58 207.027 237.685 207.02 237.747C207.016 237.778 207.014 237.799 207.013 237.809C207.012 237.814 207.012 237.817 207.012 237.816C207.012 237.816 207.012 237.815 207.012 237.814C207.012 237.813 207.012 237.811 207.012 237.811C207.013 237.809 207.013 237.807 217.937 239.155C228.862 240.502 228.862 240.5 228.863 240.497C228.863 240.496 228.863 240.493 228.863 240.491C228.864 240.487 228.865 240.482 228.865 240.476C228.867 240.465 228.868 240.45 228.87 240.433C228.874 240.399 228.88 240.354 228.886 240.298C228.899 240.186 228.917 240.031 228.939 239.835C228.981 239.443 229.04 238.887 229.106 238.186C229.237 236.785 229.402 234.796 229.541 232.37C229.818 227.539 230.002 220.869 229.607 213.591C229.214 206.363 228.234 198.209 226.044 190.532C223.889 182.977 220.297 174.937 214.031 168.929L198.788 184.787ZM186.551 177.01C190.72 178.631 194.927 181.084 198.788 184.787L214.031 168.929C207.845 162.998 201.085 159.071 194.531 156.522L186.551 177.01ZM179.616 168.102C180.961 179.034 181.551 188.762 181.804 195.749C181.931 199.237 181.972 202.028 181.983 203.929C181.988 204.88 181.986 205.606 181.982 206.085C181.98 206.325 181.978 206.502 181.977 206.614C181.976 206.67 181.975 206.71 181.975 206.733C181.975 206.745 181.975 206.753 181.975 206.756C181.975 206.757 181.975 206.758 181.975 206.757C181.975 206.757 181.975 206.757 181.975 206.756C181.975 206.756 181.975 206.755 181.975 206.755C181.975 206.754 181.975 206.753 192.98 206.972C203.985 207.191 203.985 207.19 203.985 207.189C203.985 207.189 203.985 207.187 203.985 207.187C203.985 207.185 203.985 207.183 203.985 207.18C203.985 207.175 203.985 207.17 203.985 207.163C203.985 207.149 203.986 207.131 203.986 207.108C203.987 207.064 203.988 207.002 203.989 206.924C203.991 206.768 203.993 206.545 203.996 206.26C204 205.689 204.003 204.866 203.997 203.815C203.985 201.713 203.939 198.696 203.804 194.961C203.533 187.502 202.905 177.127 201.466 165.43L179.616 168.102ZM192.98 206.972C196.128 196.44 196.129 196.44 196.13 196.44C196.13 196.44 196.131 196.44 196.131 196.44C196.132 196.441 196.132 196.441 196.132 196.441C196.132 196.441 196.132 196.441 196.13 196.44C196.126 196.439 196.118 196.437 196.106 196.433C196.082 196.426 196.042 196.413 195.985 196.396C195.871 196.361 195.692 196.307 195.452 196.232C194.971 196.082 194.244 195.853 193.296 195.545C191.402 194.929 188.631 194.001 185.193 192.771C178.307 190.307 168.798 186.65 158.326 181.893L149.216 201.904C160.366 206.97 170.46 210.851 177.774 213.468C181.436 214.778 184.413 215.776 186.491 216.451C187.531 216.789 188.346 217.047 188.912 217.223C189.194 217.311 189.415 217.378 189.569 217.425C189.646 217.449 189.707 217.467 189.751 217.48C189.772 217.487 189.79 217.492 189.804 217.496C189.81 217.498 189.816 217.5 189.82 217.501C189.823 217.502 189.825 217.503 189.827 217.503C189.827 217.503 189.829 217.504 189.829 217.504C189.83 217.504 189.831 217.504 192.98 206.972Z" mask="url(#path-7-inside-1)"/></svg>