<svg xmlns="http://www.w3.org/2000/svg" width="294" height="294" fill="none" viewBox="0 0 294 294"><path stroke="#FF9811" stroke-linecap="round" stroke-linejoin="round" stroke-width="6" d="M173.231 58.9384C195.102 65.4472 213.769 79.8625 225.597 99.3778C237.424 118.893 241.566 142.112 237.215 164.513C232.865 186.914 220.333 206.894 202.061 220.564C183.789 234.233 161.083 240.614 138.365 238.463C115.647 236.312 94.5426 225.783 79.1605 208.927C63.7784 192.071 55.2197 170.094 55.1508 147.274C55.0819 124.455 63.5076 102.426 78.7876 85.4776C94.0676 68.5289 115.108 57.8732 137.813 55.585"/><path fill="#FF9811" d="M204.146 114.844L89.8535 271.031L160.689 142.406H96.3766L153.385 22.9688H194.729L139.834 114.844H204.146Z"/></svg>