<svg width="290" height="294" viewBox="0 0 290 294" fill="none" xmlns="http://www.w3.org/2000/svg">
<g filter="url(#filter0_d)">
<rect x="19" y="19" width="238" height="242" rx="19" fill="white"/>
</g>
<path d="M111.158 211V193.996H114.174V211H111.158ZM118.496 211V193.996H128.74V196.544H121.512V200.886H127.622V203.434H121.512V208.452H129V211H118.496ZM132.486 211V193.996H142.73V196.544H135.502V200.886H141.612V203.434H135.502V208.452H142.99V211H132.486ZM146.476 211V193.996H156.72V196.544H149.492V200.886H155.602V203.434H149.492V208.452H156.98V211H146.476Z" fill="#696969"/>
<g filter="url(#filter1_d)">
<g clip-path="url(#clip0)">
<path fill-rule="evenodd" clip-rule="evenodd" d="M108.713 130.939V96.7755H117.999V130.939H108.713Z" fill="url(#paint0_linear)"/>
<path fill-rule="evenodd" clip-rule="evenodd" d="M122.915 130.939V96.7755H149.133V103.388H132.746V110.551H147.494V117.163H132.746V124.327H149.133V130.939H122.915Z" fill="url(#paint1_linear)"/>
<path fill-rule="evenodd" clip-rule="evenodd" d="M154.048 130.939V96.7755H180.266V103.388H163.88V110.551H179.174V117.163H163.88V124.327H180.266V130.939H154.048Z" fill="url(#paint2_linear)"/>
<path fill-rule="evenodd" clip-rule="evenodd" d="M185.729 130.939V96.7755H211.4V103.388H195.014V110.551H210.308V117.163H195.014V124.327H211.4V130.939H185.729Z" fill="url(#paint3_linear)"/>
<path fill-rule="evenodd" clip-rule="evenodd" d="M82.4954 93.4694C84.134 95.1224 85.7726 97.3265 86.8651 98.9796L90.6885 102.837C94.512 106.143 97.7892 108.898 101.613 111.653C102.159 112.204 102.705 112.755 102.705 113.306C102.705 114.408 101.066 114.959 100.52 115.51C92.8734 121.02 86.3188 127.633 80.8568 135.347L80.3106 135.898C80.3106 135.898 79.7643 135.898 79.2181 135.898C78.6719 135.347 78.6719 134.796 78.1257 134.796C77.0333 132.592 75.3947 130.939 74.3023 129.286C73.2098 128.735 72.6636 127.633 72.1174 127.082C67.7478 122.122 62.8319 117.714 57.916 114.408C57.3698 113.857 56.8236 113.306 57.3698 112.755C57.3698 112.204 57.916 111.653 58.4622 111.653C65.0167 107.245 71.025 101.184 75.9409 95.1224L78.6719 90.7143C79.2181 90.7143 79.7643 90.1632 80.3106 90.7143C80.3106 90.7143 80.8568 90.7143 80.8568 91.2653L82.4954 93.4694ZM78.1257 96.7755C77.0333 97.8775 75.3947 98.9796 74.3023 100.082C73.7561 100.082 73.7561 100.633 73.7561 100.633C70.4788 103.388 67.2016 106.694 65.0167 110C63.9243 111.102 63.3781 111.653 62.8319 112.755C62.8319 113.857 62.8319 114.408 63.3781 114.408C65.5629 117.714 68.294 121.02 71.5712 123.775C73.7561 125.98 76.4871 128.735 79.2181 129.837C80.3106 130.388 81.403 129.837 81.9492 129.286C85.7726 126.531 89.5961 123.224 92.8734 119.367C93.9658 117.714 95.6044 116.061 96.6968 113.857C96.6968 112.755 96.6968 112.204 96.1506 111.653C93.4196 107.796 90.6885 104.49 86.8651 101.184C85.7726 100.082 84.134 98.9796 83.0416 97.8775C81.9492 96.7755 79.7643 95.6734 78.1257 96.7755Z" fill="url(#paint4_linear)"/>
<path fill-rule="evenodd" clip-rule="evenodd" d="M83.0412 98.9796C87.4109 102.837 91.7806 107.245 95.0578 112.204C95.604 112.755 96.1502 113.857 95.604 114.408C94.5116 115.51 93.4192 117.163 92.3268 118.265C89.5957 121.571 86.8647 124.327 83.5875 127.082C81.9488 127.633 80.8564 129.837 78.6716 128.735C74.3019 125.429 69.9322 121.02 66.1088 116.612C65.5626 116.061 64.4702 114.959 64.4702 113.857C63.9239 112.755 65.0164 111.653 65.5626 110.551C69.386 105.592 74.3019 101.184 78.6716 97.8775C80.3102 96.7755 81.9488 98.4286 83.0412 98.9796ZM79.764 100.633L79.2178 102.286L77.5792 108.347C77.5792 108.347 78.6716 108.347 79.2178 108.347L78.6716 115.51C79.2178 115.51 80.3102 115.51 80.8564 115.51V114.959V108.347H82.495C81.4026 105.592 80.8564 103.388 79.764 100.633ZM72.6633 110.551C71.5709 111.102 69.9322 111.653 69.9322 113.306C70.4784 114.408 71.0247 114.959 72.1171 115.51C75.9405 117.163 81.4026 117.163 86.3185 116.061C86.8647 115.51 88.5033 114.959 89.0495 113.306C89.0495 112.204 87.4109 111.653 86.8647 111.102C86.8647 111.102 87.4109 111.102 87.9571 111.102C86.3185 110.551 84.6799 110 83.5875 110C83.5875 110.551 84.1337 111.102 84.1337 111.653C84.6799 111.653 85.2261 111.653 85.2261 111.653C86.3185 111.653 87.4109 112.204 87.4109 113.306C87.4109 113.857 86.3185 114.408 85.7723 114.959C82.495 116.061 79.2178 116.061 75.3943 115.51C74.8481 114.959 73.2095 114.408 73.2095 113.306C73.7557 111.653 75.3943 111.653 77.0329 111.102C76.4867 110.551 75.3943 110 74.8481 109.449C74.3019 110 73.2095 110 72.6633 110.551ZM78.6716 117.163C78.6716 119.367 78.6716 122.122 78.1254 124.327C79.2178 124.327 80.3102 124.327 81.4026 124.327L80.8564 117.714V117.163C80.3102 117.163 79.764 117.163 78.6716 117.163Z" fill="url(#paint5_linear)"/>
<path fill-rule="evenodd" clip-rule="evenodd" d="M89.0498 132.041V131.49H89.596H90.1422C90.1422 132.041 90.1422 132.041 89.596 132.041H89.0498ZM89.0498 132.592H89.596L90.1422 133.694H90.6884L90.1422 132.592C90.1422 132.592 90.6884 132.041 90.6884 131.49C90.6884 130.939 90.1422 130.939 89.596 130.939H88.5035V133.694H89.0498V132.592ZM91.7808 132.041C91.7808 130.939 90.6884 129.837 89.596 129.837C88.5035 129.837 87.4111 130.939 87.4111 132.041C87.4111 133.694 88.5035 134.796 89.596 134.796C90.6884 134.796 91.7808 133.694 91.7808 132.041ZM91.2346 132.041C91.2346 133.143 90.6884 134.245 89.596 134.245C88.5035 134.245 87.9573 133.143 87.9573 132.041C87.9573 130.939 88.5035 130.388 89.596 130.388C90.6884 130.388 91.2346 130.939 91.2346 132.041Z" fill="url(#paint6_linear)"/>
</g>
</g>
<defs>
<filter id="filter0_d" x="0" y="0" width="290" height="294" filterUnits="userSpaceOnUse" color-interpolation-filters="sRGB">
<feFlood flood-opacity="0" result="BackgroundImageFix"/>
<feColorMatrix in="SourceAlpha" type="matrix" values="0 0 0 0 0 0 0 0 0 0 0 0 0 0 0 0 0 0 127 0"/>
<feOffset dx="7" dy="7"/>
<feGaussianBlur stdDeviation="13"/>
<feColorMatrix type="matrix" values="0 0 0 0 0.811765 0 0 0 0 0.811765 0 0 0 0 0.811765 0 0 0 0.36 0"/>
<feBlend mode="normal" in2="BackgroundImageFix" result="effect1_dropShadow"/>
<feBlend mode="normal" in="SourceGraphic" in2="effect1_dropShadow" result="shape"/>
</filter>
<filter id="filter1_d" x="36" y="70" width="217" height="106" filterUnits="userSpaceOnUse" color-interpolation-filters="sRGB">
<feFlood flood-opacity="0" result="BackgroundImageFix"/>
<feColorMatrix in="SourceAlpha" type="matrix" values="0 0 0 0 0 0 0 0 0 0 0 0 0 0 0 0 0 0 127 0"/>
<feOffset dx="7" dy="7"/>
<feGaussianBlur stdDeviation="13"/>
<feColorMatrix type="matrix" values="0 0 0 0 0.811765 0 0 0 0 0.811765 0 0 0 0 0.811765 0 0 0 0.36 0"/>
<feBlend mode="normal" in2="BackgroundImageFix" result="effect1_dropShadow"/>
<feBlend mode="normal" in="SourceGraphic" in2="effect1_dropShadow" result="shape"/>
</filter>
<linearGradient id="paint0_linear" x1="113.356" y1="96.7755" x2="113.356" y2="130.939" gradientUnits="userSpaceOnUse">
<stop stop-color="#E47F40"/>
<stop offset="1" stop-color="#CD5A2F"/>
</linearGradient>
<linearGradient id="paint1_linear" x1="136.024" y1="96.7755" x2="136.024" y2="130.939" gradientUnits="userSpaceOnUse">
<stop stop-color="#E47F40"/>
<stop offset="1" stop-color="#CD5A2F"/>
</linearGradient>
<linearGradient id="paint2_linear" x1="167.157" y1="96.7755" x2="167.157" y2="130.939" gradientUnits="userSpaceOnUse">
<stop stop-color="#E47F40"/>
<stop offset="1" stop-color="#CD5A2F"/>
</linearGradient>
<linearGradient id="paint3_linear" x1="198.564" y1="96.7755" x2="198.564" y2="130.939" gradientUnits="userSpaceOnUse">
<stop stop-color="#E47F40"/>
<stop offset="1" stop-color="#CD5A2F"/>
</linearGradient>
<linearGradient id="paint4_linear" x1="79.9243" y1="90.4694" x2="79.9243" y2="135.898" gradientUnits="userSpaceOnUse">
<stop stop-color="#E47F40"/>
<stop offset="1" stop-color="#CD5A2F"/>
</linearGradient>
<linearGradient id="paint5_linear" x1="80.0758" y1="97.5068" x2="80.0758" y2="129.039" gradientUnits="userSpaceOnUse">
<stop stop-color="#E47F40"/>
<stop offset="1" stop-color="#CD5A2F"/>
</linearGradient>
<linearGradient id="paint6_linear" x1="89.596" y1="129.837" x2="89.596" y2="134.796" gradientUnits="userSpaceOnUse">
<stop stop-color="#E47F40"/>
<stop offset="1" stop-color="#CD5A2F"/>
</linearGradient>
<clipPath id="clip0">
<rect x="55" y="89" width="165" height="54" fill="white"/>
</clipPath>
</defs>
</svg>
