<svg width="165" height="54" viewBox="0 0 165 54" fill="none" xmlns="http://www.w3.org/2000/svg">
<path fill-rule="evenodd" clip-rule="evenodd" d="M53.7134 41.9389V7.77563H62.9989V41.9389H53.7134Z" fill="url(#paint0_linear)"/>
<path fill-rule="evenodd" clip-rule="evenodd" d="M67.9146 41.9389V7.77563H94.1326V14.3879H77.7463V21.5511H92.4939V28.1634H77.7463V35.3266H94.1326V41.9389H67.9146Z" fill="url(#paint1_linear)"/>
<path fill-rule="evenodd" clip-rule="evenodd" d="M99.0483 41.9389V7.77563H125.266V14.3879H108.88V21.5511H124.174V28.1634H108.88V35.3266H125.266V41.9389H99.0483Z" fill="url(#paint2_linear)"/>
<path fill-rule="evenodd" clip-rule="evenodd" d="M130.729 41.9389V7.77563H156.4V14.3879H140.014V21.5511H155.308V28.1634H140.014V35.3266H156.4V41.9389H130.729Z" fill="url(#paint3_linear)"/>
<path fill-rule="evenodd" clip-rule="evenodd" d="M27.4954 4.46948C29.134 6.12254 30.7726 8.32662 31.8651 9.97969L35.6885 13.8368C39.512 17.143 42.7892 19.8981 46.6127 22.6532C47.1589 23.2042 47.7051 23.7552 47.7051 24.3062C47.7051 25.4083 46.0665 25.9593 45.5203 26.5103C37.8734 32.0205 31.3188 38.6327 25.8568 46.347L25.3106 46.8981C25.3106 46.8981 24.7643 46.8981 24.2181 46.8981C23.6719 46.347 23.6719 45.796 23.1257 45.796C22.0333 43.5919 20.3947 41.9389 19.3023 40.2858C18.2098 39.7348 17.6636 38.6327 17.1174 38.0817C12.7478 33.1225 7.83189 28.7144 2.91601 25.4083C2.3698 24.8572 1.82359 24.3062 2.3698 23.7552C2.3698 23.2042 2.91601 22.6532 3.46222 22.6532C10.0167 18.245 16.025 12.1838 20.9409 6.12254L23.6719 1.71438C24.2181 1.71438 24.7643 1.16336 25.3106 1.71438C25.3106 1.71438 25.8568 1.71438 25.8568 2.2654L27.4954 4.46948ZM23.1257 7.7756C22.0333 8.87765 20.3947 9.97969 19.3023 11.0817C18.7561 11.0817 18.7561 11.6327 18.7561 11.6327C15.4788 14.3878 12.2016 17.694 10.0167 21.0001C8.9243 22.1021 8.37809 22.6532 7.83189 23.7552C7.83189 24.8572 7.83189 25.4083 8.37809 25.4083C10.5629 28.7144 13.294 32.0205 16.5712 34.7756C18.7561 36.9797 21.4871 39.7348 24.2181 40.8368C25.3106 41.3878 26.403 40.8368 26.9492 40.2858C30.7726 37.5307 34.5961 34.2246 37.8734 30.3674C38.9658 28.7144 40.6044 27.0613 41.6968 24.8572C41.6968 23.7552 41.6968 23.2042 41.1506 22.6532C38.4196 18.796 35.6885 15.4899 31.8651 12.1838C30.7726 11.0817 29.134 9.97969 28.0416 8.87765C26.9492 7.7756 24.7643 6.67356 23.1257 7.7756Z" fill="url(#paint4_linear)"/>
<path fill-rule="evenodd" clip-rule="evenodd" d="M28.0412 9.97959C32.4109 13.8367 36.7806 18.2449 40.0578 23.2041C40.604 23.7551 41.1502 24.8571 40.604 25.4082C39.5116 26.5102 38.4192 28.1633 37.3268 29.2653C34.5957 32.5714 31.8647 35.3265 28.5875 38.0816C26.9488 38.6327 25.8564 40.8367 23.6716 39.7347C19.3019 36.4286 14.9322 32.0204 11.1088 27.6122C10.5626 27.0612 9.47015 25.9592 9.47015 24.8571C8.92395 23.7551 10.0164 22.6531 10.5626 21.551C14.386 16.5918 19.3019 12.1837 23.6716 8.87755C25.3102 7.77551 26.9488 9.42857 28.0412 9.97959ZM24.764 11.6326L24.2178 13.2857L22.5792 19.3469C22.5792 19.3469 23.6716 19.3469 24.2178 19.3469L23.6716 26.5102C24.2178 26.5102 25.3102 26.5102 25.8564 26.5102V25.9592V19.3469H27.495C26.4026 16.5918 25.8564 14.3878 24.764 11.6326ZM17.6633 21.551C16.5709 22.102 14.9322 22.6531 14.9322 24.3061C15.4784 25.4082 16.0247 25.9592 17.1171 26.5102C20.9405 28.1633 26.4026 28.1633 31.3185 27.0612C31.8647 26.5102 33.5033 25.9592 34.0495 24.3061C34.0495 23.2041 32.4109 22.6531 31.8647 22.102C31.8647 22.102 32.4109 22.102 32.9571 22.102C31.3185 21.551 29.6799 21 28.5875 21C28.5875 21.551 29.1337 22.102 29.1337 22.6531C29.6799 22.6531 30.2261 22.6531 30.2261 22.6531C31.3185 22.6531 32.4109 23.2041 32.4109 24.3061C32.4109 24.8571 31.3185 25.4082 30.7723 25.9592C27.495 27.0612 24.2178 27.0612 20.3943 26.5102C19.8481 25.9592 18.2095 25.4082 18.2095 24.3061C18.7557 22.6531 20.3943 22.6531 22.0329 22.102C21.4867 21.551 20.3943 21 19.8481 20.449C19.3019 21 18.2095 21 17.6633 21.551ZM23.6716 28.1633C23.6716 30.3673 23.6716 33.1224 23.1254 35.3265C24.2178 35.3265 25.3102 35.3265 26.4026 35.3265L25.8564 28.7143V28.1633C25.3102 28.1633 24.764 28.1633 23.6716 28.1633Z" fill="url(#paint5_linear)"/>
<path fill-rule="evenodd" clip-rule="evenodd" d="M34.0498 43.0407V42.4897H34.596H35.1422C35.1422 43.0407 35.1422 43.0407 34.596 43.0407H34.0498ZM34.0498 43.5918H34.596L35.1422 44.6938H35.6884L35.1422 43.5918C35.1422 43.5918 35.6884 43.0407 35.6884 42.4897C35.6884 41.9387 35.1422 41.9387 34.596 41.9387H33.5035V44.6938H34.0498V43.5918ZM36.7808 43.0407C36.7808 41.9387 35.6884 40.8367 34.596 40.8367C33.5035 40.8367 32.4111 41.9387 32.4111 43.0407C32.4111 44.6938 33.5035 45.7958 34.596 45.7958C35.6884 45.7958 36.7808 44.6938 36.7808 43.0407ZM36.2346 43.0407C36.2346 44.1428 35.6884 45.2448 34.596 45.2448C33.5035 45.2448 32.9573 44.1428 32.9573 43.0407C32.9573 41.9387 33.5035 41.3877 34.596 41.3877C35.6884 41.3877 36.2346 41.9387 36.2346 43.0407Z" fill="url(#paint6_linear)"/>
<defs>
<linearGradient id="paint0_linear" x1="58.3562" y1="7.77563" x2="58.3562" y2="41.9389" gradientUnits="userSpaceOnUse">
<stop stop-color="#E47F40"/>
<stop offset="1" stop-color="#CD5A2F"/>
</linearGradient>
<linearGradient id="paint1_linear" x1="81.0236" y1="7.77563" x2="81.0236" y2="41.9389" gradientUnits="userSpaceOnUse">
<stop stop-color="#E47F40"/>
<stop offset="1" stop-color="#CD5A2F"/>
</linearGradient>
<linearGradient id="paint2_linear" x1="112.157" y1="7.77563" x2="112.157" y2="41.9389" gradientUnits="userSpaceOnUse">
<stop stop-color="#E47F40"/>
<stop offset="1" stop-color="#CD5A2F"/>
</linearGradient>
<linearGradient id="paint3_linear" x1="143.564" y1="7.77563" x2="143.564" y2="41.9389" gradientUnits="userSpaceOnUse">
<stop stop-color="#E47F40"/>
<stop offset="1" stop-color="#CD5A2F"/>
</linearGradient>
<linearGradient id="paint4_linear" x1="24.9243" y1="1.46948" x2="24.9243" y2="46.8981" gradientUnits="userSpaceOnUse">
<stop stop-color="#E47F40"/>
<stop offset="1" stop-color="#CD5A2F"/>
</linearGradient>
<linearGradient id="paint5_linear" x1="25.0758" y1="8.50684" x2="25.0758" y2="40.039" gradientUnits="userSpaceOnUse">
<stop stop-color="#E47F40"/>
<stop offset="1" stop-color="#CD5A2F"/>
</linearGradient>
<linearGradient id="paint6_linear" x1="34.596" y1="40.8367" x2="34.596" y2="45.7958" gradientUnits="userSpaceOnUse">
<stop stop-color="#E47F40"/>
<stop offset="1" stop-color="#CD5A2F"/>
</linearGradient>
</defs>
</svg>
