<svg xmlns="http://www.w3.org/2000/svg" width="1440" height="614" fill="none" viewBox="0 0 1440 614"><mask id="mask0" width="1440" height="614" x="0" y="0" mask-type="alpha" maskUnits="userSpaceOnUse"><rect width="1440" height="614" fill="url(#paint0_linear)"/></mask><g mask="url(#mask0)"><rect width="1440" height="614" x="-2" y="0" fill="url(#paint1_linear)"/><path fill="#fff" fill-opacity=".17" fill-rule="evenodd" d="M1333.88 17.5987C1340.4 24.8359 1341.47 35.077 1337.34 43.2842L1393.08 105.183C1399.56 101.675 1406.99 99.684 1414.89 99.684C1424.63 99.684 1433.67 102.72 1441.11 107.899L1483.45 64.0482C1479 55.5242 1480.25 44.7629 1487.3 37.4656C1496.11 28.3419 1510.65 28.0882 1519.77 36.8988C1528.89 45.7094 1529.15 60.248 1520.34 69.3717C1513.3 76.6553 1502.62 78.286 1493.95 74.1648L1451.6 118.018C1457.39 125.701 1460.82 135.257 1460.82 145.615C1460.82 152.963 1459.09 159.908 1456.02 166.067L1519.86 221.559C1528.14 216.668 1538.95 217.352 1546.61 224.007C1556.18 232.328 1557.19 246.833 1548.87 256.406C1540.55 265.978 1526.05 266.992 1516.47 258.671C1508.83 252.028 1506.64 241.444 1510.31 232.575L1447.49 177.968C1441.26 184.239 1433.24 188.724 1424.26 190.587L1432.98 261.545C1442.4 263.45 1449.98 271.193 1451.22 281.262C1452.76 293.851 1443.81 305.309 1431.22 306.855C1418.63 308.4 1407.17 299.448 1405.63 286.859C1404.39 276.81 1409.85 267.481 1418.51 263.34L1409.66 191.251C1392.62 189.319 1378.41 178.069 1372.25 162.72L1325.69 170.929C1324.28 180.441 1316.95 188.414 1306.96 190.175C1294.47 192.378 1282.56 184.037 1280.35 171.547C1278.15 159.056 1286.49 147.145 1298.98 144.942C1308.95 143.184 1318.56 148.145 1323.14 156.572L1369.04 148.479C1368.98 147.532 1368.96 146.577 1368.96 145.615C1368.96 133.411 1373.71 122.319 1381.48 114.094L1326.98 53.567C1317.99 58.0082 1306.79 56.1522 1299.75 48.3323C1291.26 38.9067 1292.03 24.3858 1301.45 15.8989C1310.88 7.4121 1325.4 8.1731 1333.88 17.5987Z" clip-rule="evenodd"/><path fill="#fff" fill-opacity=".17" fill-rule="evenodd" d="M70.9984 -94.1941C80.0902 -90.7041 85.6879 -82.0623 85.7395 -72.8776L163.5 -43.0281C167.689 -49.0991 173.404 -54.2458 180.437 -57.8295C189.122 -62.2547 198.554 -63.6526 207.529 -62.4138L225.352 -120.71C217.517 -126.284 213.743 -136.439 216.709 -146.14C220.417 -158.269 233.256 -165.096 245.385 -161.388C257.515 -157.679 264.341 -144.841 260.633 -132.711C257.672 -123.028 248.893 -116.725 239.301 -116.463L221.477 -58.164C230.118 -53.944 237.512 -46.9854 242.214 -37.757C245.55 -31.2097 247.165 -24.238 247.228 -17.3573L329.299 3.10532C334.455 -5.01119 344.399 -9.31083 354.242 -6.85665C366.549 -3.78826 374.038 8.67566 370.969 20.9823C367.901 33.2889 355.437 40.778 343.13 37.7096C333.306 35.2601 326.552 26.8226 325.788 17.2575L245.026 -2.87876C242.328 5.53383 237.218 13.1711 230.062 18.9081L270.04 78.1767C279.303 75.5949 289.57 79.0532 295.243 87.4637C302.335 97.9787 299.561 112.252 289.046 119.345C278.531 126.437 264.257 123.663 257.165 113.148C251.503 104.754 252.129 93.9644 257.961 86.3452L217.347 26.1318C201.291 32.145 183.522 28.572 171.063 17.6943L133.309 46.1436C136.372 55.2589 133.456 65.6925 125.354 71.7976C115.224 79.4307 100.825 77.407 93.1921 67.2776C85.559 57.1482 87.5827 42.7489 97.7121 35.1158C105.799 29.0222 116.606 29.083 124.52 34.509L161.743 6.45944C161.261 5.64181 160.801 4.80423 160.365 3.94708C154.824 -6.92618 154.029 -18.9696 157.212 -29.8231L81.1751 -59.0112C75.1792 -50.9717 64.3622 -47.5431 54.5384 -51.3142C42.6974 -55.8595 36.7831 -69.1432 41.3284 -80.9842C45.8738 -92.8251 59.1575 -98.7394 70.9984 -94.1941Z" clip-rule="evenodd"/><path stroke="#fff" stroke-width="12" d="M69.2563 499.35C91.5057 516.158 109.02 533.101 119.405 546.803C124.623 553.687 127.841 559.494 129.11 563.898C130.456 568.572 129.237 570.174 128.715 570.568C128.194 570.962 126.074 571.882 119.886 570.865C114.057 569.907 106.37 567.476 97.2569 563.535C79.1188 555.689 56.6909 542.458 34.4414 525.65C12.192 508.842 -5.32273 491.899 -15.7078 478.197C-20.9253 471.313 -24.1436 465.506 -25.4118 461.102C-26.7579 456.428 -25.5391 454.826 -25.0176 454.432C-24.4962 454.038 -22.3758 453.118 -16.1883 454.135C-10.3589 455.093 -2.67199 457.524 6.44084 461.465C24.5789 469.311 47.0069 482.542 69.2563 499.35Z"/><path stroke="#fff" stroke-width="12" d="M69.2569 525.65C47.0075 542.458 24.5796 555.689 6.44151 563.535C-2.67131 567.476 -10.3582 569.907 -16.1877 570.865C-22.3751 571.882 -24.4955 570.962 -25.017 570.568C-25.5384 570.174 -26.7572 568.572 -25.4111 563.898C-24.1429 559.494 -20.9247 553.687 -15.7071 546.803C-5.32206 533.101 12.1927 516.158 34.4421 499.35C56.6915 482.542 79.1194 469.311 97.2575 461.465C106.37 457.524 114.057 455.093 119.887 454.135C126.074 453.118 128.195 454.039 128.716 454.432C129.237 454.826 130.456 456.428 129.11 461.102C127.842 465.506 124.624 471.313 119.406 478.197C109.021 491.899 91.5063 508.842 69.2569 525.65Z"/><path stroke="#fff" stroke-width="12" d="M77.5597 512.5C77.5597 536.158 74.1095 557.316 68.7173 572.346C66.012 579.886 62.9311 585.564 59.8106 589.243C56.6684 592.947 54.0613 594 52.1666 594C50.2718 594 47.6648 592.947 44.5225 589.243C41.402 585.564 38.3211 579.886 35.6158 572.346C30.2236 557.316 26.7734 536.158 26.7734 512.5C26.7734 488.842 30.2236 467.684 35.6158 452.654C38.3211 445.114 41.402 439.436 44.5225 435.757C47.6648 432.053 50.2718 431 52.1666 431C54.0613 431 56.6684 432.053 59.8106 435.757C62.9311 439.436 66.012 445.114 68.7173 452.654C74.1095 467.684 77.5597 488.842 77.5597 512.5Z"/><circle cx="52.167" cy="512.5" r="13.359" fill="#fff"/><circle cx="1357.57" cy="483.342" r="17" fill="#FF9350" transform="rotate(-37 1357.57 483.342)"/><path stroke="#FF9350" stroke-linecap="round" stroke-width="6" d="M1364.67 529.326L1377.77 525.878C1384.11 524.209 1389.54 520.118 1392.89 514.485L1399.81 502.847"/><path stroke="#FF9350" stroke-linecap="round" stroke-width="6" d="M1375.38 534.402L1382.3 532.861C1389.16 531.333 1395.07 526.985 1398.56 520.884L1402.54 513.94"/><path stroke="#FF9350" stroke-width="11" d="M1339.05 527.831C1326.42 507.553 1323.89 485.695 1324.59 468.687C1324.94 460.205 1326.09 453.012 1327.15 447.959C1327.49 446.369 1327.81 444.994 1328.1 443.861C1329.01 443.871 1330.08 443.9 1331.29 443.963C1335.87 444.198 1342.43 444.9 1350.25 446.78C1365.85 450.535 1386.41 458.983 1406.04 477.833C1414.34 485.8 1420.7 497.132 1425.51 510.045C1430.3 522.915 1433.42 537.018 1435.45 550.194C1437.47 563.351 1438.38 575.454 1438.78 584.274C1438.89 586.803 1438.96 589.058 1439.01 590.986C1437.27 590.387 1435.24 589.676 1432.99 588.853C1424.87 585.887 1413.77 581.495 1401.87 575.79C1377.75 564.236 1351.51 547.836 1339.05 527.831Z"/><path fill="#FF9350" d="M1371.85 582.637L1366.45 581.624L1371.85 582.637ZM1377.56 569.059L1380.38 564.335L1375.69 561.537L1372.86 566.21L1377.56 569.059ZM1401.38 639.27L1397.61 643.275L1406.44 637.105L1401.38 639.27ZM1394.36 587.586L1389.19 585.721L1389.19 585.721L1394.36 587.586ZM1398.18 580.117L1402.81 583.086L1406.15 577.871L1400.58 575.168L1398.18 580.117ZM1377.26 583.65C1377.92 580.132 1379.75 576.07 1382.27 571.907L1372.86 566.21C1370.03 570.879 1367.45 576.246 1366.45 581.624L1377.26 583.65ZM1401.38 639.27C1405.15 635.265 1405.15 635.265 1405.15 635.266C1405.15 635.266 1405.15 635.267 1405.15 635.267C1405.15 635.267 1405.15 635.266 1405.15 635.266C1405.15 635.264 1405.15 635.26 1405.14 635.255C1405.13 635.244 1405.11 635.225 1405.08 635.199C1405.03 635.147 1404.94 635.065 1404.83 634.954C1404.6 634.733 1404.26 634.397 1403.82 633.957C1402.94 633.076 1401.67 631.778 1400.17 630.141C1397.14 626.859 1393.17 622.255 1389.36 616.941C1385.54 611.605 1381.97 605.698 1379.64 599.806C1377.3 593.874 1376.37 588.379 1377.26 583.65L1366.45 581.624C1365.04 589.152 1366.65 596.865 1369.41 603.85C1372.19 610.875 1376.29 617.594 1380.42 623.352C1384.57 629.132 1388.85 634.089 1392.08 637.595C1393.7 639.352 1395.06 640.756 1396.03 641.727C1396.51 642.212 1396.9 642.591 1397.17 642.852C1397.3 642.982 1397.41 643.084 1397.48 643.155C1397.52 643.19 1397.55 643.218 1397.57 643.238C1397.58 643.248 1397.59 643.256 1397.6 643.262C1397.6 643.265 1397.6 643.268 1397.61 643.27C1397.61 643.271 1397.61 643.272 1397.61 643.273C1397.61 643.274 1397.61 643.275 1401.38 639.27ZM1389.19 585.721C1385.13 596.971 1387.3 611.315 1389.94 621.941C1391.31 627.426 1392.89 632.27 1394.13 635.741C1394.76 637.48 1395.3 638.884 1395.68 639.861C1395.88 640.35 1396.03 640.733 1396.14 640.999C1396.2 641.132 1396.24 641.236 1396.27 641.309C1396.29 641.345 1396.3 641.374 1396.31 641.395C1396.31 641.406 1396.32 641.414 1396.32 641.421C1396.32 641.424 1396.32 641.427 1396.32 641.429C1396.32 641.43 1396.32 641.432 1396.32 641.432C1396.32 641.433 1396.32 641.434 1401.38 639.27C1406.44 637.105 1406.44 637.106 1406.44 637.107C1406.44 637.107 1406.44 637.107 1406.44 637.107C1406.44 637.108 1406.44 637.107 1406.44 637.107C1406.44 637.106 1406.44 637.102 1406.43 637.097C1406.43 637.087 1406.42 637.069 1406.41 637.043C1406.39 636.992 1406.36 636.91 1406.31 636.8C1406.22 636.581 1406.08 636.246 1405.91 635.809C1405.56 634.933 1405.07 633.646 1404.49 632.037C1403.34 628.811 1401.87 624.327 1400.62 619.286C1398.03 608.861 1396.69 597.363 1399.54 589.45L1389.19 585.721ZM1393.55 577.149C1391.81 579.852 1390.26 582.752 1389.19 585.721L1399.54 589.45C1400.25 587.482 1401.36 585.334 1402.81 583.086L1393.55 577.149ZM1400.58 575.168C1393.93 571.945 1387.07 568.327 1380.38 564.335L1374.75 573.782C1381.76 577.964 1388.9 581.731 1395.78 585.066L1400.58 575.168Z"/><path fill="#FF9350" d="M1440.99 550.047L1435.55 550.869L1436.43 556.711L1442.2 555.412L1440.99 550.047ZM1446.02 549.283L1445.65 543.796L1445.65 543.796L1446.02 549.283ZM1493.77 570.275L1490.29 574.538L1498.66 567.755L1493.77 570.275ZM1447.47 526.28L1446.95 531.756L1446.95 531.756L1447.47 526.28ZM1436.48 527.149L1435.35 521.767L1429.76 522.94L1431.14 528.477L1436.48 527.149ZM1442.2 555.412C1443.7 555.073 1445.1 554.857 1446.39 554.771L1445.65 543.796C1443.69 543.926 1441.72 544.244 1439.78 544.681L1442.2 555.412ZM1446.39 554.771C1454.78 554.211 1465.46 558.669 1474.77 564.035C1479.27 566.629 1483.18 569.274 1485.96 571.272C1487.35 572.269 1488.45 573.099 1489.19 573.674C1489.57 573.961 1489.85 574.184 1490.04 574.332C1490.13 574.406 1490.2 574.461 1490.24 574.496C1490.26 574.514 1490.28 574.526 1490.29 574.533C1490.29 574.537 1490.3 574.539 1490.3 574.54C1490.3 574.54 1490.3 574.54 1490.3 574.54C1490.3 574.54 1490.3 574.54 1490.3 574.54C1490.3 574.539 1490.29 574.538 1493.77 570.275C1497.24 566.011 1497.24 566.011 1497.24 566.01C1497.24 566.009 1497.24 566.008 1497.24 566.008C1497.24 566.006 1497.23 566.004 1497.23 566.002C1497.23 565.997 1497.22 565.992 1497.21 565.984C1497.19 565.97 1497.17 565.95 1497.14 565.926C1497.08 565.876 1496.99 565.806 1496.88 565.716C1496.65 565.537 1496.33 565.282 1495.91 564.961C1495.08 564.319 1493.87 563.414 1492.37 562.336C1489.38 560.187 1485.16 557.328 1480.26 554.505C1470.78 549.036 1457.59 542.999 1445.65 543.796L1446.39 554.771ZM1493.77 570.275C1498.66 567.755 1498.66 567.754 1498.66 567.753C1498.66 567.752 1498.66 567.75 1498.65 567.749C1498.65 567.746 1498.65 567.743 1498.65 567.739C1498.65 567.731 1498.64 567.721 1498.63 567.708C1498.62 567.682 1498.6 567.646 1498.58 567.601C1498.53 567.51 1498.46 567.38 1498.37 567.215C1498.2 566.884 1497.94 566.409 1497.61 565.809C1496.94 564.61 1495.97 562.91 1494.72 560.869C1492.24 556.798 1488.66 551.321 1484.24 545.743C1479.85 540.186 1474.52 534.388 1468.53 529.783C1462.58 525.203 1455.61 521.523 1447.99 520.804L1446.95 531.756C1451.74 532.207 1456.77 534.612 1461.83 538.501C1466.85 542.364 1471.54 547.419 1475.62 552.568C1479.68 557.696 1483.01 562.779 1485.33 566.591C1486.49 568.492 1487.39 570.064 1487.99 571.152C1488.29 571.696 1488.52 572.118 1488.67 572.398C1488.75 572.538 1488.8 572.643 1488.84 572.71C1488.85 572.744 1488.87 572.768 1488.87 572.782C1488.88 572.789 1488.88 572.793 1488.88 572.796C1488.88 572.797 1488.88 572.797 1488.88 572.797C1488.88 572.797 1488.88 572.796 1488.88 572.796C1488.88 572.796 1488.88 572.795 1493.77 570.275ZM1447.99 520.804C1443.83 520.412 1439.46 520.903 1435.35 521.767L1437.61 532.532C1441.09 531.799 1444.28 531.504 1446.95 531.756L1447.99 520.804ZM1431.14 528.477C1433.01 536.005 1434.45 543.594 1435.55 550.869L1446.43 549.224C1445.29 541.675 1443.79 533.742 1441.81 525.821L1431.14 528.477Z"/><mask id="path-15-inside-1" fill="#fff"><path fill-rule="evenodd" d="M1394.84 567.899C1394.64 574.87 1395.86 582.194 1399.89 588.666C1412.45 608.844 1458.92 615.155 1458.92 615.155C1458.92 615.155 1464.56 569.328 1447.4 552.858C1442.39 548.041 1436.91 544.85 1431.56 542.765C1434.34 565.395 1433.99 582.972 1433.99 582.972C1433.99 582.972 1416.43 577.722 1394.84 567.899Z" clip-rule="evenodd"/></mask><path fill="#FF9350" d="M1399.89 588.666L1409.22 582.852L1409.22 582.852L1399.89 588.666ZM1394.84 567.899L1399.39 557.887L1384.33 551.032L1383.84 567.578L1394.84 567.899ZM1458.92 615.155L1457.44 626.054L1468.47 627.553L1469.83 616.499L1458.92 615.155ZM1447.4 552.858L1439.79 560.793L1439.79 560.793L1447.4 552.858ZM1431.56 542.765L1435.55 532.514L1418.39 525.837L1420.64 544.106L1431.56 542.765ZM1433.99 582.972L1430.84 593.511L1444.71 597.656L1444.99 583.187L1433.99 582.972ZM1409.22 582.852C1406.67 578.751 1405.67 573.756 1405.83 568.221L1383.84 567.578C1383.6 575.984 1385.04 585.637 1390.55 594.48L1409.22 582.852ZM1458.92 615.155C1460.4 604.255 1460.4 604.255 1460.4 604.255C1460.4 604.255 1460.4 604.255 1460.4 604.255C1460.4 604.256 1460.4 604.256 1460.4 604.256C1460.4 604.256 1460.4 604.255 1460.4 604.255C1460.39 604.253 1460.36 604.25 1460.33 604.245C1460.27 604.236 1460.16 604.221 1460.01 604.199C1459.72 604.155 1459.26 604.085 1458.67 603.988C1457.49 603.794 1455.75 603.491 1453.61 603.065C1449.31 602.21 1443.5 600.878 1437.38 598.973C1431.21 597.054 1425 594.643 1419.78 591.72C1414.44 588.726 1410.98 585.667 1409.22 582.852L1390.55 594.48C1395.08 601.754 1402.13 607.05 1409.03 610.915C1416.06 614.85 1423.83 617.8 1430.85 619.981C1437.91 622.176 1444.5 623.683 1449.31 624.641C1451.73 625.122 1453.71 625.47 1455.12 625.7C1455.82 625.815 1456.38 625.9 1456.77 625.959C1456.97 625.988 1457.12 626.01 1457.23 626.026C1457.29 626.034 1457.33 626.041 1457.37 626.045C1457.39 626.048 1457.4 626.049 1457.41 626.051C1457.42 626.052 1457.42 626.052 1457.43 626.053C1457.43 626.053 1457.43 626.054 1457.43 626.054C1457.43 626.054 1457.44 626.054 1458.92 615.155ZM1439.79 560.793C1442.11 563.02 1444.25 566.884 1445.86 572.553C1447.44 578.101 1448.27 584.491 1448.61 590.779C1448.95 597.016 1448.79 602.832 1448.55 607.107C1448.43 609.235 1448.28 610.955 1448.17 612.124C1448.12 612.708 1448.07 613.153 1448.04 613.44C1448.02 613.584 1448.01 613.688 1448.01 613.75C1448 613.782 1448 613.802 1448 613.812C1448 613.818 1448 613.82 1448 613.819C1448 613.819 1448 613.818 1448 613.817C1448 613.816 1448 613.814 1448 613.814C1448 613.812 1448 613.81 1458.92 615.155C1469.83 616.499 1469.83 616.497 1469.83 616.494C1469.83 616.493 1469.83 616.49 1469.84 616.488C1469.84 616.484 1469.84 616.479 1469.84 616.473C1469.84 616.461 1469.84 616.447 1469.84 616.43C1469.85 616.396 1469.85 616.351 1469.86 616.295C1469.87 616.183 1469.89 616.028 1469.91 615.832C1469.95 615.44 1470.01 614.884 1470.08 614.183C1470.21 612.781 1470.37 610.793 1470.51 608.366C1470.79 603.535 1470.97 596.865 1470.58 589.586C1470.18 582.359 1469.21 574.204 1467.02 566.527C1464.87 558.971 1461.28 550.931 1455.02 544.923L1439.79 560.793ZM1427.56 553.016C1431.73 554.637 1435.93 557.09 1439.79 560.793L1455.02 544.923C1448.84 538.991 1442.09 535.063 1435.55 532.514L1427.56 553.016ZM1420.64 544.106C1421.98 555.038 1422.57 564.766 1422.82 571.753C1422.95 575.241 1422.99 578.032 1423 579.933C1423.01 580.884 1423 581.61 1423 582.089C1423 582.329 1423 582.506 1423 582.618C1422.99 582.674 1422.99 582.714 1422.99 582.737C1422.99 582.749 1422.99 582.756 1422.99 582.76C1422.99 582.761 1422.99 582.762 1422.99 582.761C1422.99 582.761 1422.99 582.761 1422.99 582.76C1422.99 582.759 1422.99 582.759 1422.99 582.758C1422.99 582.758 1422.99 582.757 1433.99 582.972C1444.99 583.187 1444.99 583.186 1444.99 583.185C1444.99 583.185 1444.99 583.184 1444.99 583.183C1444.99 583.181 1444.99 583.179 1444.99 583.176C1444.99 583.171 1444.99 583.166 1444.99 583.159C1444.99 583.145 1444.99 583.127 1444.99 583.104C1444.99 583.06 1444.99 582.998 1444.99 582.92C1445 582.764 1445 582.541 1445 582.256C1445 581.685 1445.01 580.862 1445 579.811C1444.99 577.709 1444.94 574.692 1444.81 570.957C1444.54 563.498 1443.91 553.122 1442.47 541.424L1420.64 544.106ZM1433.99 582.972C1437.14 572.433 1437.14 572.433 1437.14 572.433C1437.14 572.433 1437.14 572.434 1437.14 572.434C1437.14 572.434 1437.15 572.434 1437.15 572.434C1437.15 572.434 1437.14 572.434 1437.14 572.433C1437.14 572.432 1437.13 572.43 1437.12 572.426C1437.1 572.419 1437.05 572.407 1437 572.389C1436.88 572.355 1436.71 572.3 1436.47 572.225C1435.99 572.075 1435.26 571.846 1434.31 571.538C1432.42 570.923 1429.65 569.994 1426.22 568.764C1419.35 566.301 1409.85 562.644 1399.39 557.887L1390.28 577.912C1401.42 582.977 1411.5 586.858 1418.8 589.475C1422.46 590.785 1425.43 591.783 1427.51 592.458C1428.54 592.796 1429.36 593.054 1429.92 593.229C1430.2 593.317 1430.42 593.385 1430.58 593.432C1430.66 593.455 1430.72 593.474 1430.76 593.487C1430.78 593.494 1430.8 593.499 1430.81 593.503C1430.82 593.505 1430.83 593.507 1430.83 593.508C1430.83 593.509 1430.83 593.509 1430.84 593.51C1430.84 593.51 1430.84 593.51 1430.84 593.511C1430.84 593.511 1430.84 593.511 1433.99 582.972Z" mask="url(#path-15-inside-1)"/></g><defs><linearGradient id="paint0_linear" x1="720" x2="720" y1="0" y2="614" gradientUnits="userSpaceOnUse"><stop offset=".112" stop-color="#363636"/><stop offset="1"/></linearGradient><linearGradient id="paint1_linear" x1="718" x2="718" y1="0" y2="614" gradientUnits="userSpaceOnUse"><stop offset=".112" stop-color="#363636"/><stop offset="1"/></linearGradient></defs></svg>