<svg xmlns="http://www.w3.org/2000/svg" width="188" height="186" fill="none" viewBox="0 0 188 186"><path fill="url(#paint0_linear)" d="M80.0257 185.318C39.4804 179.428 6.14174 146.32 0.689738 106.454C-0.187595 100.192 -0.187595 85.8083 0.689738 79.5463C5.76574 42.3463 35.0937 10.8503 72.6937 2.04632C82.4697 -0.247681 99.5151 -0.619681 109.98 1.11632C129.282 4.40232 146.202 13.1443 160.427 27.2803C174.088 40.7343 182.924 56.7923 186.559 74.7103C188.126 82.6463 188.126 103.354 186.559 111.29C182.924 129.208 174.088 145.266 160.427 158.72C146.327 172.732 129.282 181.598 110.419 184.822C102.774 186.062 87.1697 186.372 80.0257 185.318Z"/><path fill="url(#paint1_linear)" d="M79.712 147.87C73.7586 146.32 66.2386 142.972 60.9746 139.438C56.0866 136.214 48.1906 127.782 44.8693 122.264C31.5213 100.192 34.8426 71.92 52.9533 53.63C58.5933 47.926 61.7893 45.632 68.9333 42.098C76.6413 38.254 84.3493 36.58 93.9373 36.58C103.839 36.58 110.105 38.006 118.753 42.098C130.723 47.74 139.559 56.482 145.387 68.448C150.024 77.934 150.713 80.972 150.713 93C150.713 105.028 150.024 108.066 145.387 117.552C137.929 132.804 124.393 143.778 107.912 147.932C99.5773 150.04 88.0466 149.978 79.712 147.87Z"/><path fill="#FEFEFE" d="M87.1067 162.998V156.054L89.9267 156.364C91.4934 156.55 93.1853 157.046 93.6867 157.48C94.752 158.348 94.94 162.192 94 162.75C93.5613 162.998 93.4987 163.432 93.8747 163.866C94.2507 164.3 94.6267 165.788 94.752 167.276C94.94 169.818 94.8773 169.942 93.3733 169.756C92.0573 169.57 91.8067 169.198 91.6187 167.276C91.3054 163.928 89.6134 164.052 89.6134 167.4C89.6134 169.446 89.4254 169.88 88.36 169.88C87.1694 169.88 87.1067 169.446 87.1067 162.998ZM91.3054 159.526C90.3027 158.534 90.24 158.596 90.24 160.58C90.24 162.564 90.3027 162.626 91.3054 161.634C92.308 160.642 92.308 160.518 91.3054 159.526Z"/><path fill="#FEFEFE" d="M98.3865 165.416C97.6345 162.936 96.8199 160.084 96.4439 159.092C96.0052 157.728 96.0679 157.108 96.6319 156.736C98.3239 155.744 98.9505 156.364 99.7025 159.65C100.141 161.51 100.705 163.06 101.019 163.06C101.269 163.06 101.52 161.572 101.52 159.712C101.52 156.426 101.583 156.364 103.588 156.054C104.653 155.868 106.157 155.62 106.784 155.496C107.849 155.31 108.225 156.116 109.541 161.448C110.857 166.532 110.983 167.648 110.231 168.082C108.664 169.074 108.163 168.33 106.784 162.812C106.032 159.836 105.28 157.232 105.092 157.046C104.779 156.736 104.591 157.79 103.588 165.85C103.149 169.26 102.961 169.57 101.395 169.756C99.8279 169.942 99.6399 169.694 98.3865 165.416Z"/><path fill="#FEFEFE" d="M79.2732 168.702C77.0799 168.268 77.1425 168.578 78.2079 162.13C79.3985 155.124 79.4612 154.938 81.0279 155.248C85.6652 156.178 85.8532 156.302 85.8532 157.542C85.8532 158.658 85.6025 158.844 84.0359 158.534C82.7199 158.286 82.0932 158.41 81.8425 159.092C81.2785 160.456 81.2785 160.456 83.2839 160.89C84.7252 161.2 85.0385 161.51 84.7879 162.502C84.5372 163.432 83.9732 163.68 82.7825 163.556C81.5292 163.432 81.0905 163.68 80.9652 164.734C80.8399 165.726 81.1532 166.098 82.2185 166.284C83.1585 166.408 83.7225 166.966 83.8479 167.896C84.0985 169.384 83.1585 169.508 79.2732 168.702Z"/><path fill="#FEFEFE" d="M69.4346 166.098C68.6826 165.726 68.3066 164.734 68.3066 163.308C68.3066 161.386 68.4946 161.138 69.748 161.324C70.7506 161.448 71.064 161.882 70.9386 162.936C70.8133 163.866 71.064 164.3 71.6906 164.3C73.0693 164.3 72.944 162.812 71.3146 160.084C70.124 157.976 70.0613 157.542 70.876 155.93C72.192 153.264 73.6333 152.644 75.7013 153.76C76.892 154.442 77.456 155.31 77.5813 156.736C77.832 159.402 76.0146 159.278 74.9493 156.612C74.636 155.744 74.3226 155.62 73.8213 156.116C73.32 156.612 73.508 157.356 74.5106 158.906C76.0773 161.448 76.2026 163.494 74.824 165.416C73.8213 166.904 71.3146 167.214 69.4346 166.098Z"/><path fill="#FEFEFE" d="M114.555 166.16C113.301 165.416 110.92 159.402 110.92 156.922C110.92 153.202 116.059 151.652 118.127 154.752C119.004 156.116 119.067 156.488 118.377 156.922C117.061 157.728 116.121 157.604 115.683 156.55C115.119 155 114.053 155.496 114.053 157.356C114.116 159.588 116.372 164.486 117.187 163.99C117.5 163.804 117.813 162.936 117.813 162.13C117.813 160.518 119.631 159.526 120.445 160.704C122.639 164.114 118.189 168.206 114.555 166.16Z"/><path fill="#FEFEFE" d="M121.636 158.038C118.565 152.706 118.44 152.334 119.505 151.528C121.824 149.854 124.08 149.172 124.895 149.978C125.459 150.598 125.271 151.032 123.955 152.086C121.824 153.76 122.388 155.62 124.644 154.38C125.709 153.822 126.273 153.822 126.963 154.442C128.216 155.434 128.091 155.93 126.273 156.736C124.895 157.356 124.769 157.666 125.333 158.72C125.96 159.836 126.148 159.898 127.715 159.092C129.344 158.286 129.532 158.286 130.221 159.34C130.848 160.332 130.597 160.704 128.153 162.068C126.649 162.936 125.271 163.68 125.145 163.68C124.957 163.68 123.391 161.138 121.636 158.038Z"/><path fill="#FEFEFE" d="M58.4681 161.448C56.9641 160.58 55.7734 159.774 55.7734 159.588C55.7734 159.464 57.2148 156.798 58.9694 153.76C61.7894 148.8 62.2281 148.242 63.3561 148.8C63.9828 149.172 64.5468 149.544 64.5468 149.668C64.5468 149.854 63.4188 151.962 61.9774 154.38C59.4081 158.906 59.4081 159.34 61.7268 160.146C62.1028 160.27 62.1028 160.828 61.7268 161.696L61.1001 163.06L58.4681 161.448Z"/><path fill="#FEFEFE" d="M51.888 157.852C51.1986 157.356 51.0106 156.798 51.4493 156.178C52.264 154.938 52.1386 154.566 50.948 154.132C50.384 153.884 49.6946 154.008 49.5066 154.442C49.0053 155.186 46.3733 154.628 46.3733 153.822C46.3733 153.512 48.504 151.28 51.136 148.862C55.648 144.584 55.9613 144.398 57.2146 145.266C58.844 146.382 58.844 146.382 55.9613 152.83C53.392 158.72 53.2666 158.844 51.888 157.852ZM54.52 149.854C54.52 149.482 53.956 149.73 53.2666 150.35C52.5773 150.97 52.2013 151.714 52.452 152.086C52.828 152.706 54.52 150.908 54.52 149.854Z"/><path fill="#FEFEFE" d="M135.673 155C134.733 154.008 134.671 153.636 135.36 152.83C135.924 152.148 136.363 152.024 136.864 152.52C137.741 153.388 139.308 153.326 138.995 152.396C138.807 151.962 137.303 151.404 135.611 151.156C130.785 150.474 128.529 146.382 131.725 144.212C133.48 142.972 134.796 142.972 136.363 144.15C137.553 145.08 137.553 145.08 136.363 146.01C135.485 146.63 134.921 146.754 134.357 146.258C133.856 145.886 133.48 145.824 133.229 146.258C132.791 146.94 134.921 148.304 136.175 148.118C140.687 147.56 143.695 152.892 140.248 155.248C138.368 156.55 137.052 156.488 135.673 155Z"/><path fill="#FEFEFE" d="M42.6132 151.032C41.9866 150.226 42.1119 149.668 43.1772 147.87C44.9946 144.77 44.8066 144.522 42.4252 146.816C40.5452 148.614 40.2319 148.738 39.4799 147.87C38.7906 147.064 39.2919 146.258 42.9892 142.352C45.3706 139.872 47.6266 137.764 48.0026 137.702C48.3786 137.702 49.0679 138.012 49.4439 138.508C50.0706 139.19 49.9452 139.996 48.8172 142.104L47.5012 144.77L49.6319 142.724C51.5746 140.926 51.8879 140.802 52.6399 141.67C53.3292 142.476 52.7652 143.282 49.1306 147.064C46.8119 149.544 44.5559 151.652 44.1799 151.776C43.7412 151.9 43.0519 151.528 42.6132 151.032Z"/><path fill="#FEFEFE" d="M79.712 147.87C73.7586 146.32 66.2386 142.972 60.9746 139.438C56.0866 136.214 48.1906 127.782 44.8693 122.264C31.5213 100.192 34.8426 71.92 52.9533 53.63C58.5933 47.926 61.7893 45.632 68.9333 42.098C76.6413 38.254 84.3493 36.58 93.9373 36.58C103.839 36.58 110.105 38.006 118.753 42.098C130.723 47.74 139.559 56.482 145.387 68.448C150.024 77.934 150.713 80.972 150.713 93C150.713 105.028 150.024 108.066 145.387 117.552C137.929 132.804 124.393 143.778 107.912 147.932C99.5773 150.04 88.0466 149.978 79.712 147.87ZM90.8666 135.284C90.8666 128.154 90.7413 127.162 89.6133 126.17C88.9866 125.612 88.1093 124.124 87.6706 122.946C86.9186 120.528 87.608 118.048 89.676 116.188C90.5533 115.382 90.8666 114.266 90.8666 111.6C90.8666 108.066 90.8666 108.066 88.36 106.95L85.7906 105.834L83.7226 107.818C82.0933 109.368 81.5293 110.484 81.2786 112.654C80.9026 116.374 78.772 118.42 75.012 118.854C72.4426 119.164 71.6906 119.722 66.364 125.054L60.4733 130.882L62.98 133.052C68.9333 138.074 81.2786 142.91 88.8613 143.158L90.8666 143.22V135.284ZM109.667 140.988C114.931 139.252 121.323 135.966 124.895 133.114L127.339 131.254L121.197 125.178C115.557 119.598 114.805 119.04 112.675 119.04C109.165 119.04 106.283 116.312 106.22 112.902C106.157 110.856 105.719 109.926 103.964 108.19L101.771 106.02L99.1386 107.074C96.5066 108.19 96.5066 108.19 96.5066 111.538C96.5066 114.266 96.7573 115.01 98.0106 116.002C100.329 117.8 101.144 120.9 100.016 123.628C99.5146 124.806 98.512 126.17 97.8226 126.604C96.5693 127.348 96.5066 127.968 96.5066 135.408V143.406L100.705 142.972C103.024 142.724 107.035 141.856 109.667 140.988ZM68.3066 112.344C68.3066 108.5 70.876 106.02 74.6986 106.02C77.0173 106.02 77.7693 105.648 79.524 103.912C81.6546 101.742 81.6546 101.742 80.652 99.386C79.712 97.03 79.712 97.03 75.8893 96.844C72.3173 96.658 71.816 96.844 69.8106 98.58C68.3693 99.82 66.9906 100.44 65.612 100.44C63.4813 100.44 59.5333 98.394 59.5333 97.34C59.5333 96.968 56.4626 96.72 51.3866 96.72H43.24V98.456C43.24 104.408 48.128 116.622 53.1413 123.194L56.0866 127.038L62.228 121.024C68.056 115.258 68.3066 114.948 68.3066 112.344ZM136.613 120.466C140.123 115.258 142.567 109.43 143.82 103.416C145.387 96.1 146.139 96.72 135.485 96.72H126.273L124.581 98.518C123.641 99.51 122.075 100.44 121.135 100.626C118.941 100.998 115.62 99.696 114.555 98.022C113.928 97.03 113.113 96.72 111.108 96.72C108.601 96.72 108.413 96.844 107.285 99.386L106.095 101.99L108.225 104.222C109.917 105.958 110.732 106.392 112.111 106.144C115.996 105.586 120.445 110.174 119.317 113.584C119.004 114.576 120.132 116.064 125.083 120.962C132.227 128.03 131.6 128.092 136.613 120.466ZM59.972 90.21C60.4733 88.846 63.4813 87.42 65.7373 87.42C66.928 87.42 68.432 88.102 69.748 89.28C71.628 90.892 72.38 91.14 75.6386 91.14H79.3986L80.4013 88.536L81.4666 85.932L79.5866 84.01C78.0826 82.522 77.268 82.088 75.8893 82.336C72.004 82.894 67.7426 78.492 68.62 74.834C68.9333 73.718 67.7426 72.23 62.1653 66.712L55.272 60.016L52.7653 63.302C47.8146 69.812 43.24 81.84 43.24 88.474V91.14H51.3866C58.1546 91.14 59.6586 90.954 59.972 90.21ZM115.307 89.652C116.059 88.784 117.5 87.916 118.44 87.73C120.508 87.296 124.581 88.784 125.083 90.21C125.396 91.016 126.963 91.14 135.109 91.14H144.76V88.846C144.76 85.374 142.504 76.818 140.436 72.292C138.619 68.262 134.044 61.194 132.791 60.388C132.415 60.14 129.595 62.434 126.211 65.782C121.135 70.804 120.32 71.858 120.32 73.656C120.32 76.136 118.879 79.112 117.249 79.98C116.56 80.29 114.931 80.6 113.615 80.6C111.609 80.6 110.732 81.034 108.789 83.018C106.596 85.25 106.408 85.622 107.035 87.234C107.348 88.164 107.849 89.466 108.037 90.086C108.601 91.822 113.427 91.512 115.307 89.652ZM86.7933 81.282C86.9813 80.972 87.984 80.538 88.9866 80.29C90.6786 79.918 90.8666 79.67 90.8666 77.314C90.8666 75.392 90.428 74.338 89.1746 72.974C87.796 71.61 87.42 70.618 87.42 68.51C87.42 66.402 87.796 65.41 89.1746 64.046L90.8666 62.248V52.452V42.594L87.044 43.028C77.7066 44.082 68.432 48.36 59.596 55.614C59.408 55.738 62.3533 58.9 66.1133 62.62C72.2546 68.758 73.1946 69.44 75.2 69.44C76.4533 69.44 78.0826 69.874 78.8346 70.432C80.7146 71.734 82.2813 74.896 81.8426 76.508C81.592 77.438 82.0933 78.368 83.472 79.794C85.6026 81.964 86.1666 82.212 86.7933 81.282ZM107.16 74.276C107.16 70.804 109.917 67.952 113.364 67.952C115.808 67.89 116.309 67.518 122.075 61.814L128.153 55.738L125.647 53.506C119.944 48.608 108.664 43.834 100.768 43.028L96.5066 42.594V52.328V62.124L98.3866 63.984C99.8906 65.472 100.267 66.34 100.267 68.634C100.267 70.928 99.9533 71.734 98.3866 73.16C96.9453 74.462 96.5066 75.454 96.5066 77.128C96.5066 79.05 96.7573 79.484 98.2613 79.98C99.2013 80.352 100.392 80.848 100.893 81.158C101.583 81.592 102.523 81.034 104.528 79.174C106.721 77.066 107.16 76.198 107.16 74.276Z"/><path fill="#FEFEFE" d="M140.436 146.072C136.864 142.29 136.425 140.492 138.681 138.384C140.436 136.772 141.501 136.71 143.381 138.012C144.509 138.756 144.697 139.19 144.071 139.872C143.632 140.368 142.817 140.616 141.877 140.368C140.812 140.12 140.373 140.244 140.373 140.802C140.373 141.856 145.011 146.94 145.951 146.94C146.891 146.94 146.828 145.514 145.888 144.584C145.324 144.026 145.387 143.592 146.264 142.724C147.267 141.732 147.392 141.732 148.583 143.158C150.087 145.018 150.087 146.63 148.52 148.18C146.264 150.412 144.071 149.792 140.436 146.072Z"/><path fill="#FEFEFE" d="M33.9654 142.414C31.3334 139.624 32.4614 137.144 38.0387 133.424C40.5454 131.688 42.8641 131.688 44.4934 133.424C46.0601 135.098 46.0601 136.4 44.4934 138.446C42.9267 140.368 37.7254 143.84 36.3467 143.84C35.7827 143.84 34.7174 143.22 33.9654 142.414ZM39.3547 138.942C42.3001 136.772 42.9894 135.904 42.1747 135.098C41.4227 134.354 34.9054 139.252 35.4067 140.12C35.9707 141.05 36.5974 140.864 39.3547 138.942Z"/><path fill="#FEFEFE" d="M148.019 139.314C142.817 135.408 142.316 134.726 143.569 133.486C144.133 132.928 144.823 133.176 146.389 134.354C148.269 135.78 148.52 135.78 148.896 134.85C149.209 134.168 148.771 133.362 147.643 132.432C146.452 131.564 146.076 130.758 146.327 130.014C146.577 129.456 147.016 128.96 147.392 128.96C147.831 128.96 155.1 134.292 157.607 136.524C157.983 136.834 157.795 137.392 157.168 138.012C156.228 138.942 155.977 138.88 153.909 137.33C151.967 135.842 151.591 135.78 151.277 136.71C150.964 137.392 151.465 138.26 152.781 139.376C154.536 140.864 154.661 141.174 153.909 142.104C153.157 143.096 152.656 142.91 148.019 139.314Z"/><path fill="#FEFEFE" d="M28.576 134.788C28.0747 133.424 28.2 133.3 34.216 129.642C38.6027 126.914 39.2294 126.666 39.9187 127.534C40.984 128.836 40.796 129.022 35.532 132.308C29.6414 135.904 29.0774 136.09 28.576 134.788Z"/><path fill="#FEFEFE" d="M153.408 130.758L148.019 127.72L149.585 124.93C151.215 122.016 151.465 121.83 152.781 122.698C153.471 123.07 153.471 123.504 152.844 124.868C152.155 126.294 152.217 126.666 152.969 127.1C153.596 127.534 154.035 127.224 154.661 126.108C155.351 124.868 155.664 124.744 156.667 125.24C157.732 125.798 157.795 126.108 157.168 127.472C156.541 128.774 156.604 129.146 157.356 129.642C158.672 130.448 158.86 130.386 159.8 128.65C160.74 126.914 161.241 126.728 162.244 127.968C162.745 128.588 162.62 129.394 161.492 131.316C160.74 132.742 159.863 133.92 159.487 133.858C159.173 133.858 156.416 132.494 153.408 130.758Z"/><path fill="#FEFEFE" d="M24.8787 128.526C23.7507 127.472 24.816 126.294 28.8894 124.248C32.524 122.45 33.276 121.83 33.0254 120.838C32.8374 120.094 33.088 119.412 33.84 119.04C34.7174 118.544 35.2187 118.978 36.5974 121.458C37.4747 123.132 38.2267 124.744 38.2267 125.116C38.2267 126.294 36.2214 126.542 35.4067 125.488C34.7174 124.496 34.2787 124.62 30.5187 126.666C26.32 129.022 25.568 129.27 24.8787 128.526Z"/><path fill="#FEFEFE" d="M157.92 123.132C152.468 121.024 151.591 120.156 153.095 118.172C153.847 117.18 154.285 117.118 156.855 117.676C158.484 117.986 159.8 118.048 159.8 117.862C159.8 117.614 158.672 116.808 157.293 116.002C154.599 114.514 154.599 114.514 155.163 112.406C155.664 110.546 156.165 110.608 162.683 113.088C168.385 115.258 168.949 115.692 168.009 117.118C167.571 117.8 166.944 117.676 164.563 116.684C160.991 115.072 160.74 115.816 164.187 117.738C168.197 119.97 167.445 121.954 162.996 120.962C159.675 120.218 159.675 121.086 162.933 122.14C164.688 122.698 165.44 123.318 165.315 123.938C165.001 125.488 163.623 125.364 157.92 123.132Z"/><path fill="#FEFEFE" d="M22.1212 122.388C21.8706 121.768 22.1839 121.024 22.8106 120.59C24.1892 119.598 23.4372 117.614 21.8706 118.11C21.1186 118.358 20.4919 118.048 20.0532 117.18C19.6772 116.436 19.4266 115.754 19.5519 115.692C19.6772 115.568 22.6852 115.01 26.2572 114.39C33.0252 113.274 33.7772 113.398 33.8399 115.94C33.8399 116.746 24.1266 123.38 22.9359 123.38C22.6852 123.38 22.3719 122.946 22.1212 122.388ZM28.1999 117.49C29.3279 116.87 29.4532 116.622 28.7012 116.56C27.2599 116.56 25.6932 117.242 25.6932 117.862C25.6932 118.606 26.3826 118.544 28.1999 117.49Z"/><path fill="#FEFEFE" d="M18.7999 112.84C18.7999 112.53 18.6119 111.91 18.4239 111.352C18.1733 110.732 18.7373 110.112 19.9906 109.43C22.5599 108.128 22.4973 107.198 19.9279 107.942C17.6719 108.562 17.7346 108.562 17.4213 107.012C17.2333 106.02 18.0479 105.648 23.4373 104.408C26.8839 103.602 29.8919 103.106 30.2053 103.292C31.4586 104.098 30.5813 106.082 28.5133 107.074C26.0693 108.19 25.5053 109.492 27.7613 108.748C30.1426 107.942 31.5839 108.128 31.8346 109.244C32.0853 110.422 31.8346 110.484 24.3146 112.158C21.2439 112.778 18.7999 113.088 18.7999 112.84Z"/><path fill="#FEFEFE" d="M163.873 110.918C161.116 110.298 158.296 109.616 157.544 109.43C156.353 109.182 156.291 108.934 156.917 106.02C157.419 103.416 157.732 102.92 158.923 102.92C160.176 102.92 160.301 103.168 159.988 105.152C159.675 107.136 159.737 107.384 160.803 107.136C161.492 107.012 162.056 106.33 162.181 105.524C162.369 104.47 162.745 104.16 163.748 104.284C164.751 104.408 165.064 104.904 165.127 106.33C165.127 108.872 166.944 109.182 167.821 106.702C168.323 105.276 168.761 104.966 169.827 105.214C170.579 105.4 171.017 105.896 170.829 106.392C170.641 106.826 170.328 108.19 170.077 109.368C169.889 110.608 169.513 111.724 169.263 111.848C169.075 111.972 166.631 111.538 163.873 110.918Z"/><path fill="#FEFEFE" d="M156.98 76.384C157.231 75.454 157.419 74.71 157.481 74.648C157.544 74.648 159.424 74.09 161.555 73.47C165.503 72.354 165.565 72.292 165.189 70.432C164.939 69.378 164.563 68.324 164.249 68.014C163.936 67.704 161.743 68.324 159.236 69.378L154.787 71.238V69.688C154.787 68.386 155.413 67.89 158.86 66.34C162.871 64.542 162.933 64.48 162.244 62.806C161.367 60.512 157.419 53.444 156.729 53.072C156.479 52.886 154.348 54.002 152.092 55.552L147.893 58.28V56.544C147.893 55.056 148.52 54.374 151.34 52.452C155.539 49.724 155.601 49.91 148.52 42.656L143.507 37.51L140.185 41.044C138.368 43.028 136.739 44.64 136.488 44.64C136.3 44.64 135.987 44.02 135.799 43.276C135.485 42.284 136.112 41.106 138.243 38.688L141 35.464L139.371 34.162C138.431 33.418 137.428 32.86 137.115 32.86C136.801 32.86 135.36 34.72 133.919 36.952C131.537 40.61 131.224 40.92 130.472 39.866C130.033 39.246 129.845 38.13 130.033 37.386C130.284 36.394 130.096 35.96 129.469 35.96C128.968 35.96 127.715 35.216 126.649 34.348C125.145 33.108 124.707 32.24 124.707 30.442C124.707 28.21 124.769 28.148 126.9 28.396C129.595 28.706 129.783 27.714 127.213 26.66C125.521 25.978 124.143 23.87 124.895 23.188C125.647 22.444 138.431 29.76 142.065 32.984C142.817 33.666 143.695 34.038 144.071 33.79C144.948 33.294 144.948 31.31 144.133 29.76C143.82 29.14 143.695 28.148 143.883 27.59C144.196 26.784 144.447 26.784 145.199 27.404C145.951 28.024 146.076 29.016 145.763 31.806L145.387 35.464L150.087 40.424C157.92 48.67 163.56 57.908 167.257 68.572C169.451 74.896 169.639 76.384 168.26 77.5C167.508 78.12 167.32 77.934 166.944 76.632C166.756 75.764 166.38 75.02 166.129 75.02C165.879 75.02 163.623 75.702 161.116 76.57L156.541 78.12L156.98 76.384ZM133.48 32.302C134.357 30.628 134.357 30.504 132.289 29.512C130.597 28.644 130.472 28.644 130.159 29.76C129.908 30.69 129.281 31 127.715 31L125.647 31.062L127.151 32.24C129.093 33.852 132.603 33.914 133.48 32.302Z"/><path fill="#FEFEFE" d="M18.4867 76.136C19.9907 70.804 22.372 64.108 24.1893 60.202C27.072 53.94 33.652 44.33 37.5373 40.61C39.292 38.936 40.7333 37.324 40.7333 37.138C40.7333 36.89 39.856 36.518 38.7907 36.27C37.2867 35.898 36.5347 36.146 35.532 37.138C34.2787 38.316 34.2787 38.44 35.344 39.618C36.7227 41.106 35.72 41.788 33.9653 40.548C32.2733 39.432 32.2107 37.138 33.7147 35.774C35.0307 34.596 38.1013 34.41 40.2947 35.402C41.6733 36.022 42.3 35.712 46.3107 32.736C48.7547 30.876 52.5147 28.334 54.5827 27.156C57.904 25.172 58.656 24.986 59.972 25.606L61.476 26.288L59.8467 27.156L58.2173 27.962L60.4107 31.992C61.664 34.224 62.6667 36.27 62.6667 36.58C62.6667 37.51 59.6587 37.324 59.3453 36.456C59.1573 35.836 58.7813 35.898 57.904 36.704C55.5853 38.688 53.3293 39.184 51.0107 38.068L48.88 37.076L50.1333 35.34C50.8227 34.348 51.136 33.418 50.8853 33.232C50.3213 32.922 44.4933 37.014 44.4933 37.758C44.4933 37.944 46.06 39.68 48.0653 41.664L51.5747 45.198L49.82 45.632C48.1907 46.004 47.6893 45.756 45.0573 42.904L42.112 39.742L40.3573 41.664C39.1667 42.904 38.7907 43.648 39.3547 43.834C40.3573 44.206 40.2947 46.5 39.1667 49.166C38.4147 50.964 38.4147 51.46 39.104 52.018C40.2947 53.01 43.052 50.716 43.5533 48.36C43.8667 47.058 44.3053 46.5 45.2453 46.5C46.4987 46.5 46.5613 47.43 45.4333 50.344C45.1827 50.964 45.8093 51.088 48.316 50.902C50.572 50.778 51.3867 50.902 51.136 51.398C50.8853 51.77 50.0707 52.08 49.3187 52.08C47.188 52.08 46.436 52.824 45.872 55.49C45.5587 57.164 44.9947 58.032 44.2427 58.156C43.24 58.404 43.1773 58.094 43.5533 55.18L43.992 51.894L42.5507 52.948C41.736 53.506 40.6707 53.94 40.1067 53.94C39.6053 53.94 38.6653 54.808 38.1013 55.8C37.5373 56.792 36.0333 58.094 34.8427 58.714C32.9 59.582 32.3987 59.644 30.8947 58.9C29.892 58.404 28.952 57.908 28.7013 57.784C28.4507 57.66 27.824 58.404 27.26 59.458L26.32 61.38L31.0827 63.736C35.72 66.03 35.7827 66.092 34.2787 66.898C32.9 67.642 32.2733 67.518 29.14 66.092C27.1347 65.224 25.4427 64.48 25.2547 64.48C25.004 64.48 23.1867 68.51 23.1867 69.068C23.1867 69.192 24.064 69.626 25.1293 69.998C26.1947 70.37 27.1973 71.238 27.3853 71.92C27.7613 73.408 27.8867 73.408 30.1427 72.106C32.2107 70.866 33.464 71.61 31.6467 72.974C29.14 74.772 24.5027 76.88 24.1267 76.26C23.9387 75.95 23.9387 74.958 24.1893 74.09C24.5027 72.788 24.3773 72.54 23.312 72.54C22.372 72.54 21.9333 73.098 21.62 74.4C21.3693 75.454 20.68 76.57 20.0533 76.88C18.2987 77.81 18.048 77.624 18.4867 76.136ZM36.3467 54.436C36.3467 53.382 36.2213 53.382 34.1533 54.374C31.584 55.614 31.4587 55.986 33.4013 56.854C34.968 57.598 36.3467 56.482 36.3467 54.436ZM34.3413 53.072C35.7827 52.576 36.3467 52.018 36.3467 51.026C36.3467 50.282 36.66 48.918 37.0987 48.05C37.4747 47.182 37.6 46.314 37.412 46.128C36.7853 45.446 35.156 47.058 32.3987 51.088C30.5813 53.754 30.2053 54.622 31.0827 54.25C31.7093 54.002 33.2133 53.444 34.3413 53.072ZM55.46 35.65C57.2147 33.976 57.4027 32.426 56.212 30.752C55.3973 29.636 55.272 29.636 53.7053 30.69C52.264 31.62 52.1387 31.868 52.9533 32.674C53.768 33.48 53.768 33.79 52.9533 35.402C52.076 37.014 52.076 37.2 52.9533 37.2C53.5173 37.2 54.6453 36.518 55.46 35.65Z"/><path fill="#FEFEFE" d="M157.732 63.24C157.105 62.186 156.04 61.38 155.351 61.38C154.536 61.38 154.16 60.946 154.16 59.892C154.16 58.218 155.789 56.544 156.604 57.412C157.857 58.652 160.928 64.418 160.615 64.728C159.8 65.534 158.735 65.038 157.732 63.24Z"/><path fill="#FEFEFE" d="M144.196 49.848C142.754 48.05 142.566 46.19 143.506 43.772C144.446 41.292 145.136 41.85 145.136 45.074C145.073 47.368 145.324 48.05 146.138 48.236C146.89 48.36 147.329 47.926 147.642 46.872C148.144 44.702 148.708 44.826 151.089 47.802C152.53 49.662 152.906 50.468 152.342 51.026C151.841 51.522 151.277 51.336 150.212 50.344C148.833 49.042 148.77 49.042 148.018 50.22C146.953 51.894 145.7 51.77 144.196 49.848Z"/><path fill="#FEFEFE" d="M107.599 29.946C106.721 28.954 106.721 28.396 107.473 24.8C108.413 20.398 108.163 19.84 105.155 19.84C103.525 19.84 103.463 19.964 103.024 24.8C102.836 27.528 102.397 29.76 102.147 29.76C101.457 29.76 99.6401 27.59 99.6401 26.722C99.6401 26.226 99.3268 26.164 98.4494 26.66C96.5694 27.59 94.9401 27.404 93.1228 25.978C90.8668 24.242 91.1174 21.762 93.6241 20.522C95.1281 19.84 95.7548 19.84 97.8228 20.646C100.141 21.576 100.267 21.514 100.267 20.398C100.267 19.344 99.7654 19.22 93.9374 19.22H87.6708L88.1094 24.18C88.2974 26.908 88.2974 29.14 88.1094 29.14C86.7308 29.14 85.2268 27.652 85.2268 26.412C85.2268 25.048 85.0388 24.924 82.5948 25.234C77.6441 25.792 77.0174 26.598 80.2761 28.272C81.6548 28.954 82.0308 29.45 81.5921 29.884C81.1534 30.318 80.2134 30.132 78.5214 29.14C73.6961 26.226 72.3174 24.18 75.2628 24.18C76.0148 24.18 76.4534 23.746 76.4534 23.064C76.4534 21.39 75.9521 21.142 73.8214 21.762C71.9414 22.258 70.1868 21.638 70.1868 20.398C70.1868 20.026 75.8894 18.6 83.9108 16.988C85.3521 16.678 85.3521 16.678 84.2241 15.376C83.5348 14.694 82.4068 13.888 81.6548 13.578C80.8401 13.268 80.2134 12.648 80.2134 12.09C80.2134 10.044 83.2841 11.532 85.1641 14.446L86.4174 16.492L94.7521 16.616C105.468 16.74 113.364 18.228 114.116 20.336C114.617 21.576 114.492 21.7 112.925 21.576C111.296 21.39 111.233 21.576 110.293 25.854C109.792 28.272 109.165 30.442 108.977 30.628C108.789 30.814 108.163 30.504 107.599 29.946ZM97.5094 24.49C100.079 23.436 99.8281 22.32 96.9454 22.32C94.3761 22.32 93.0601 23.188 93.5614 24.428C94.0628 25.668 94.6894 25.668 97.5094 24.49ZM83.8481 22.816C84.2868 22.382 84.6001 21.514 84.6001 20.894C84.6001 19.84 84.2868 19.716 82.0308 20.026C78.9601 20.398 78.8974 20.46 79.3988 22.196C79.7748 23.746 82.5321 24.118 83.8481 22.816Z"/><defs><linearGradient id="paint0_linear" x1="93.883" x2="93.883" y1=".031" y2="185.957" gradientUnits="userSpaceOnUse"><stop stop-color="#E47F40"/><stop offset="1" stop-color="#CD5A2F"/></linearGradient><linearGradient id="paint1_linear" x1="93.721" x2="93.721" y1="36.58" y2="149.482" gradientUnits="userSpaceOnUse"><stop stop-color="#E47F40"/><stop offset="1" stop-color="#CD5A2F"/></linearGradient></defs></svg>