<svg width="290" height="294" viewBox="0 0 290 294" fill="none" xmlns="http://www.w3.org/2000/svg">
<g filter="url(#filter0_d)">
<rect x="19" y="19" width="238" height="242" rx="19" fill="white"/>
</g>
<path d="M117.158 206V188.996H120.252L125.556 198.564L127.298 202.178H127.402C127.333 201.294 127.246 200.349 127.142 199.344C127.055 198.321 127.012 197.333 127.012 196.38V188.996H129.898V206H126.804L121.5 196.432L119.758 192.818H119.654C119.723 193.719 119.801 194.664 119.888 195.652C119.992 196.64 120.044 197.611 120.044 198.564V206H117.158ZM139.187 206.312C138.043 206.312 136.933 206.095 135.859 205.662C134.801 205.229 133.865 204.613 133.051 203.816L134.819 201.762C135.425 202.334 136.119 202.802 136.899 203.166C137.679 203.513 138.459 203.686 139.239 203.686C140.209 203.686 140.946 203.487 141.449 203.088C141.951 202.689 142.203 202.161 142.203 201.502C142.203 201.155 142.133 200.861 141.995 200.618C141.873 200.375 141.691 200.167 141.449 199.994C141.223 199.803 140.946 199.63 140.617 199.474C140.305 199.318 139.958 199.162 139.577 199.006L137.237 197.992C136.821 197.819 136.405 197.602 135.989 197.342C135.59 197.082 135.226 196.77 134.897 196.406C134.567 196.042 134.299 195.617 134.091 195.132C133.9 194.647 133.805 194.092 133.805 193.468C133.805 192.792 133.943 192.168 134.221 191.596C134.515 191.007 134.914 190.495 135.417 190.062C135.919 189.629 136.517 189.291 137.211 189.048C137.921 188.805 138.693 188.684 139.525 188.684C140.513 188.684 141.466 188.883 142.385 189.282C143.303 189.663 144.092 190.183 144.751 190.842L143.217 192.766C142.662 192.315 142.09 191.96 141.501 191.7C140.911 191.44 140.253 191.31 139.525 191.31C138.71 191.31 138.06 191.492 137.575 191.856C137.089 192.203 136.847 192.688 136.847 193.312C136.847 193.641 136.916 193.927 137.055 194.17C137.211 194.395 137.41 194.603 137.653 194.794C137.913 194.967 138.207 195.132 138.537 195.288C138.866 195.427 139.204 195.565 139.551 195.704L141.865 196.666C142.367 196.874 142.827 197.117 143.243 197.394C143.659 197.671 144.014 197.992 144.309 198.356C144.621 198.72 144.863 199.145 145.037 199.63C145.21 200.098 145.297 200.644 145.297 201.268C145.297 201.961 145.158 202.611 144.881 203.218C144.603 203.825 144.196 204.362 143.659 204.83C143.139 205.281 142.497 205.645 141.735 205.922C140.989 206.182 140.14 206.312 139.187 206.312ZM152.948 206.312C151.804 206.312 150.695 206.095 149.62 205.662C148.563 205.229 147.627 204.613 146.812 203.816L148.58 201.762C149.187 202.334 149.88 202.802 150.66 203.166C151.44 203.513 152.22 203.686 153 203.686C153.971 203.686 154.708 203.487 155.21 203.088C155.713 202.689 155.964 202.161 155.964 201.502C155.964 201.155 155.895 200.861 155.756 200.618C155.635 200.375 155.453 200.167 155.21 199.994C154.985 199.803 154.708 199.63 154.378 199.474C154.066 199.318 153.72 199.162 153.338 199.006L150.998 197.992C150.582 197.819 150.166 197.602 149.75 197.342C149.352 197.082 148.988 196.77 148.658 196.406C148.329 196.042 148.06 195.617 147.852 195.132C147.662 194.647 147.566 194.092 147.566 193.468C147.566 192.792 147.705 192.168 147.982 191.596C148.277 191.007 148.676 190.495 149.178 190.062C149.681 189.629 150.279 189.291 150.972 189.048C151.683 188.805 152.454 188.684 153.286 188.684C154.274 188.684 155.228 188.883 156.146 189.282C157.065 189.663 157.854 190.183 158.512 190.842L156.978 192.766C156.424 192.315 155.852 191.96 155.262 191.7C154.673 191.44 154.014 191.31 153.286 191.31C152.472 191.31 151.822 191.492 151.336 191.856C150.851 192.203 150.608 192.688 150.608 193.312C150.608 193.641 150.678 193.927 150.816 194.17C150.972 194.395 151.172 194.603 151.414 194.794C151.674 194.967 151.969 195.132 152.298 195.288C152.628 195.427 152.966 195.565 153.312 195.704L155.626 196.666C156.129 196.874 156.588 197.117 157.004 197.394C157.42 197.671 157.776 197.992 158.07 198.356C158.382 198.72 158.625 199.145 158.798 199.63C158.972 200.098 159.058 200.644 159.058 201.268C159.058 201.961 158.92 202.611 158.642 203.218C158.365 203.825 157.958 204.362 157.42 204.83C156.9 205.281 156.259 205.645 155.496 205.922C154.751 206.182 153.902 206.312 152.948 206.312Z" fill="#696969"/>
<path d="M129.08 165.56C103.2 161.76 81.9195 140.4 78.4395 114.68C77.8795 110.64 77.8795 101.36 78.4395 97.3199C81.6795 73.3199 100.4 52.9999 124.4 47.3199C130.64 45.8399 141.52 45.5999 148.2 46.7199C160.52 48.8399 171.32 54.4799 180.4 63.5999C189.12 72.2799 194.76 82.6399 197.08 94.1999C198.08 99.3199 198.08 112.68 197.08 117.8C194.76 129.36 189.12 139.72 180.4 148.4C171.4 157.44 160.52 163.16 148.48 165.24C143.6 166.04 133.64 166.24 129.08 165.56Z" fill="url(#paint0_linear)"/>
<path d="M128.88 141.4C125.08 140.4 120.28 138.24 116.92 135.96C113.8 133.88 108.76 128.44 106.64 124.88C98.1199 110.64 100.24 92.4001 111.8 80.6001C115.4 76.9201 117.44 75.4401 122 73.1601C126.92 70.6801 131.84 69.6001 137.96 69.6001C144.28 69.6001 148.28 70.5201 153.8 73.1601C161.44 76.8001 167.08 82.4401 170.8 90.1601C173.76 96.2801 174.2 98.2401 174.2 106C174.2 113.76 173.76 115.72 170.8 121.84C166.04 131.68 157.4 138.76 146.88 141.44C141.56 142.8 134.2 142.76 128.88 141.4Z" fill="url(#paint1_linear)"/>
<path d="M133.602 151.16V146.68L135.402 146.88C136.402 147 137.482 147.32 137.802 147.6C138.482 148.16 138.602 150.64 138.002 151C137.722 151.16 137.682 151.44 137.922 151.72C138.162 152 138.402 152.96 138.482 153.92C138.602 155.56 138.562 155.64 137.602 155.52C136.762 155.4 136.602 155.16 136.482 153.92C136.282 151.76 135.202 151.84 135.202 154C135.202 155.32 135.082 155.6 134.402 155.6C133.642 155.6 133.602 155.32 133.602 151.16ZM136.282 148.92C135.642 148.28 135.602 148.32 135.602 149.6C135.602 150.88 135.642 150.92 136.282 150.28C136.922 149.64 136.922 149.56 136.282 148.92Z" fill="#FEFEFE"/>
<path d="M140.801 152.72C140.321 151.12 139.801 149.28 139.561 148.64C139.281 147.76 139.321 147.36 139.681 147.12C140.761 146.48 141.161 146.88 141.641 149C141.921 150.2 142.281 151.2 142.481 151.2C142.641 151.2 142.801 150.24 142.801 149.04C142.801 146.92 142.841 146.88 144.121 146.68C144.801 146.56 145.761 146.4 146.161 146.32C146.841 146.2 147.081 146.72 147.921 150.16C148.761 153.44 148.841 154.16 148.361 154.44C147.361 155.08 147.041 154.6 146.161 151.04C145.681 149.12 145.201 147.44 145.081 147.32C144.881 147.12 144.761 147.8 144.121 153C143.841 155.2 143.721 155.4 142.721 155.52C141.721 155.64 141.601 155.48 140.801 152.72Z" fill="#FEFEFE"/>
<path d="M128.602 154.84C127.202 154.56 127.242 154.76 127.922 150.6C128.682 146.08 128.722 145.96 129.722 146.16C132.682 146.76 132.802 146.84 132.802 147.64C132.802 148.36 132.642 148.48 131.642 148.28C130.802 148.12 130.402 148.2 130.242 148.64C129.882 149.52 129.882 149.52 131.162 149.8C132.082 150 132.282 150.2 132.122 150.84C131.962 151.44 131.602 151.6 130.842 151.52C130.042 151.44 129.762 151.6 129.682 152.28C129.602 152.92 129.802 153.16 130.482 153.28C131.082 153.36 131.442 153.72 131.522 154.32C131.682 155.28 131.082 155.36 128.602 154.84Z" fill="#FEFEFE"/>
<path d="M122.322 153.16C121.842 152.92 121.602 152.28 121.602 151.36C121.602 150.12 121.722 149.96 122.522 150.08C123.162 150.16 123.362 150.44 123.282 151.12C123.202 151.72 123.362 152 123.762 152C124.642 152 124.562 151.04 123.522 149.28C122.762 147.92 122.722 147.64 123.242 146.6C124.082 144.88 125.002 144.48 126.322 145.2C127.082 145.64 127.442 146.2 127.522 147.12C127.682 148.84 126.522 148.76 125.842 147.04C125.642 146.48 125.442 146.4 125.122 146.72C124.802 147.04 124.922 147.52 125.562 148.52C126.562 150.16 126.642 151.48 125.762 152.72C125.122 153.68 123.522 153.88 122.322 153.16Z" fill="#FEFEFE"/>
<path d="M151.121 153.2C150.321 152.72 148.801 148.84 148.801 147.24C148.801 144.84 152.081 143.84 153.401 145.84C153.961 146.72 154.001 146.96 153.561 147.24C152.721 147.76 152.121 147.68 151.841 147C151.481 146 150.801 146.32 150.801 147.52C150.841 148.96 152.281 152.12 152.801 151.8C153.001 151.68 153.201 151.12 153.201 150.6C153.201 149.56 154.361 148.92 154.881 149.68C156.281 151.88 153.441 154.52 151.121 153.2Z" fill="#FEFEFE"/>
<path d="M155.641 147.96C153.681 144.52 153.601 144.28 154.281 143.76C155.761 142.68 157.201 142.24 157.721 142.76C158.081 143.16 157.961 143.44 157.121 144.12C155.761 145.2 156.121 146.4 157.561 145.6C158.241 145.24 158.601 145.24 159.041 145.64C159.841 146.28 159.761 146.6 158.601 147.12C157.721 147.52 157.641 147.72 158.001 148.4C158.401 149.12 158.521 149.16 159.521 148.64C160.561 148.12 160.681 148.12 161.121 148.8C161.521 149.44 161.361 149.68 159.801 150.56C158.841 151.12 157.961 151.6 157.881 151.6C157.761 151.6 156.761 149.96 155.641 147.96Z" fill="#FEFEFE"/>
<path d="M115.322 150.16C114.362 149.6 113.602 149.08 113.602 148.96C113.602 148.88 114.522 147.16 115.642 145.2C117.442 142 117.722 141.64 118.442 142C118.842 142.24 119.202 142.48 119.202 142.56C119.202 142.68 118.482 144.04 117.562 145.6C115.922 148.52 115.922 148.8 117.402 149.32C117.642 149.4 117.642 149.76 117.402 150.32L117.002 151.2L115.322 150.16Z" fill="#FEFEFE"/>
<path d="M111.122 147.84C110.682 147.52 110.562 147.16 110.842 146.76C111.362 145.96 111.282 145.72 110.522 145.44C110.162 145.28 109.722 145.36 109.602 145.64C109.282 146.12 107.602 145.76 107.602 145.24C107.602 145.04 108.962 143.6 110.642 142.04C113.522 139.28 113.722 139.16 114.522 139.72C115.562 140.44 115.562 140.44 113.722 144.6C112.082 148.4 112.002 148.48 111.122 147.84ZM112.802 142.68C112.802 142.44 112.442 142.6 112.002 143C111.562 143.4 111.322 143.88 111.482 144.12C111.722 144.52 112.802 143.36 112.802 142.68Z" fill="#FEFEFE"/>
<path d="M164.601 146C164.001 145.36 163.961 145.12 164.401 144.6C164.761 144.16 165.041 144.08 165.361 144.4C165.921 144.96 166.921 144.92 166.721 144.32C166.601 144.04 165.641 143.68 164.561 143.52C161.48 143.08 160.04 140.44 162.08 139.04C163.201 138.24 164.041 138.24 165.041 139C165.801 139.6 165.801 139.6 165.041 140.2C164.481 140.6 164.121 140.68 163.761 140.36C163.441 140.12 163.201 140.08 163.041 140.36C162.761 140.8 164.121 141.68 164.921 141.56C167.801 141.2 169.721 144.64 167.521 146.16C166.321 147 165.481 146.96 164.601 146Z" fill="#FEFEFE"/>
<path d="M105.201 143.44C104.801 142.92 104.881 142.56 105.561 141.4C106.721 139.4 106.601 139.24 105.081 140.72C103.881 141.88 103.681 141.96 103.201 141.4C102.761 140.88 103.081 140.36 105.441 137.84C106.961 136.24 108.401 134.88 108.641 134.84C108.881 134.84 109.321 135.04 109.561 135.36C109.961 135.8 109.881 136.32 109.161 137.68L108.321 139.4L109.681 138.08C110.921 136.92 111.121 136.84 111.601 137.4C112.041 137.92 111.681 138.44 109.361 140.88C107.881 142.48 106.441 143.84 106.201 143.92C105.921 144 105.481 143.76 105.201 143.44Z" fill="#FEFEFE"/>
<path d="M128.88 141.4C125.08 140.4 120.28 138.24 116.92 135.96C113.8 133.88 108.76 128.44 106.64 124.88C98.1199 110.64 100.24 92.3996 111.8 80.5996C115.4 76.9196 117.44 75.4396 122 73.1596C126.92 70.6796 131.84 69.5996 137.96 69.5996C144.28 69.5996 148.28 70.5196 153.8 73.1596C161.44 76.7996 167.08 82.4396 170.8 90.1596C173.76 96.2796 174.2 98.2396 174.2 106C174.2 113.76 173.76 115.72 170.8 121.84C166.04 131.68 157.4 138.76 146.88 141.44C141.56 142.8 134.2 142.76 128.88 141.4ZM136 133.28C136 128.68 135.92 128.04 135.2 127.4C134.8 127.04 134.24 126.08 133.96 125.32C133.48 123.76 133.92 122.16 135.24 120.96C135.8 120.44 136 119.72 136 118C136 115.72 136 115.72 134.4 115L132.76 114.28L131.44 115.56C130.4 116.56 130.04 117.28 129.88 118.68C129.64 121.08 128.28 122.4 125.88 122.68C124.24 122.88 123.76 123.24 120.36 126.68L116.6 130.44L118.2 131.84C122 135.08 129.88 138.2 134.72 138.36L136 138.4V133.28ZM148 136.96C151.36 135.84 155.44 133.72 157.72 131.88L159.28 130.68L155.36 126.76C151.76 123.16 151.28 122.8 149.92 122.8C147.68 122.8 145.84 121.04 145.8 118.84C145.76 117.52 145.48 116.92 144.36 115.8L142.96 114.4L141.28 115.08C139.6 115.8 139.6 115.8 139.6 117.96C139.6 119.72 139.76 120.2 140.56 120.84C142.04 122 142.56 124 141.84 125.76C141.52 126.52 140.88 127.4 140.44 127.68C139.64 128.16 139.6 128.56 139.6 133.36V138.52L142.28 138.24C143.76 138.08 146.32 137.52 148 136.96ZM121.6 118.48C121.6 116 123.24 114.4 125.68 114.4C127.16 114.4 127.64 114.16 128.76 113.04C130.12 111.64 130.12 111.64 129.48 110.12C128.88 108.6 128.88 108.6 126.44 108.48C124.16 108.36 123.84 108.48 122.56 109.6C121.64 110.4 120.76 110.8 119.88 110.8C118.52 110.8 116 109.48 116 108.8C116 108.56 114.04 108.4 110.8 108.4H105.6V109.52C105.6 113.36 108.72 121.24 111.92 125.48L113.8 127.96L117.72 124.08C121.44 120.36 121.6 120.16 121.6 118.48ZM165.2 123.72C167.44 120.36 169 116.6 169.8 112.72C170.8 108 171.28 108.4 164.48 108.4H158.6L157.52 109.56C156.92 110.2 155.92 110.8 155.32 110.92C153.92 111.16 151.8 110.32 151.12 109.24C150.72 108.6 150.2 108.4 148.92 108.4C147.32 108.4 147.2 108.48 146.48 110.12L145.72 111.8L147.08 113.24C148.16 114.36 148.68 114.64 149.56 114.48C152.04 114.12 154.88 117.08 154.16 119.28C153.96 119.92 154.68 120.88 157.84 124.04C162.4 128.6 162 128.64 165.2 123.72ZM116.28 104.2C116.6 103.32 118.52 102.4 119.96 102.4C120.72 102.4 121.68 102.84 122.52 103.6C123.72 104.64 124.2 104.8 126.28 104.8H128.68L129.32 103.12L130 101.44L128.8 100.2C127.84 99.2396 127.32 98.9596 126.44 99.1196C123.96 99.4796 121.24 96.6396 121.8 94.2796C122 93.5596 121.24 92.5996 117.68 89.0396L113.28 84.7196L111.68 86.8396C108.52 91.0396 105.6 98.7996 105.6 103.08V104.8H110.8C115.12 104.8 116.08 104.68 116.28 104.2ZM151.6 103.84C152.08 103.28 153 102.72 153.6 102.6C154.92 102.32 157.52 103.28 157.84 104.2C158.04 104.72 159.04 104.8 164.24 104.8H170.4V103.32C170.4 101.08 168.96 95.5596 167.64 92.6396C166.48 90.0396 163.56 85.4796 162.76 84.9596C162.52 84.7996 160.72 86.2796 158.56 88.4396C155.32 91.6796 154.8 92.3596 154.8 93.5196C154.8 95.1196 153.88 97.0396 152.84 97.5996C152.4 97.7996 151.36 97.9996 150.52 97.9996C149.24 97.9996 148.68 98.2796 147.44 99.5596C146.04 101 145.92 101.24 146.32 102.28C146.52 102.88 146.84 103.72 146.96 104.12C147.32 105.24 150.4 105.04 151.6 103.84ZM133.4 98.4396C133.52 98.2396 134.16 97.9596 134.8 97.7996C135.88 97.5596 136 97.3996 136 95.8796C136 94.6396 135.72 93.9596 134.92 93.0796C134.04 92.1996 133.8 91.5596 133.8 90.1996C133.8 88.8396 134.04 88.1996 134.92 87.3196L136 86.1596V79.8396V73.4796L133.56 73.7596C127.6 74.4396 121.68 77.1996 116.04 81.8796C115.92 81.9596 117.8 83.9996 120.2 86.3996C124.12 90.3596 124.72 90.7996 126 90.7996C126.8 90.7996 127.84 91.0796 128.32 91.4396C129.52 92.2796 130.52 94.3196 130.24 95.3596C130.08 95.9596 130.4 96.5596 131.28 97.4796C132.64 98.8796 133 99.0396 133.4 98.4396ZM146.4 93.9196C146.4 91.6796 148.16 89.8396 150.36 89.8396C151.92 89.7996 152.24 89.5596 155.92 85.8796L159.8 81.9596L158.2 80.5196C154.56 77.3596 147.36 74.2796 142.32 73.7596L139.6 73.4796V79.7596V86.0796L140.8 87.2796C141.76 88.2396 142 88.7996 142 90.2796C142 91.7596 141.8 92.2796 140.8 93.1996C139.88 94.0396 139.6 94.6796 139.6 95.7596C139.6 96.9996 139.76 97.2796 140.72 97.5996C141.32 97.8396 142.08 98.1596 142.4 98.3596C142.84 98.6396 143.44 98.2796 144.72 97.0796C146.12 95.7196 146.4 95.1596 146.4 93.9196Z" fill="#FEFEFE"/>
<path d="M167.641 140.24C165.361 137.8 165.081 136.64 166.521 135.28C167.641 134.24 168.321 134.2 169.521 135.04C170.241 135.52 170.361 135.8 169.961 136.24C169.681 136.56 169.161 136.72 168.561 136.56C167.881 136.4 167.601 136.48 167.601 136.84C167.601 137.52 170.561 140.8 171.161 140.8C171.761 140.8 171.721 139.88 171.121 139.28C170.761 138.92 170.801 138.64 171.361 138.08C172.001 137.44 172.081 137.44 172.841 138.36C173.801 139.56 173.801 140.6 172.801 141.6C171.361 143.04 169.961 142.64 167.641 140.24Z" fill="#FEFEFE"/>
<path d="M99.6804 137.88C98.0004 136.08 98.7204 134.48 102.28 132.08C103.88 130.96 105.36 130.96 106.4 132.08C107.4 133.16 107.4 134 106.4 135.32C105.4 136.56 102.08 138.8 101.2 138.8C100.84 138.8 100.16 138.4 99.6804 137.88ZM103.12 135.64C105 134.24 105.44 133.68 104.92 133.16C104.44 132.68 100.28 135.84 100.6 136.4C100.96 137 101.36 136.88 103.12 135.64Z" fill="#FEFEFE"/>
<path d="M172.481 135.88C169.161 133.36 168.841 132.92 169.641 132.12C170.001 131.76 170.441 131.92 171.441 132.68C172.641 133.6 172.801 133.6 173.041 133C173.241 132.56 172.961 132.04 172.241 131.44C171.481 130.88 171.241 130.36 171.401 129.88C171.561 129.52 171.841 129.2 172.081 129.2C172.361 129.2 177.001 132.64 178.601 134.08C178.841 134.28 178.721 134.64 178.321 135.04C177.721 135.64 177.561 135.6 176.241 134.6C175.001 133.64 174.761 133.6 174.561 134.2C174.361 134.64 174.681 135.2 175.521 135.92C176.641 136.88 176.721 137.08 176.241 137.68C175.761 138.32 175.441 138.2 172.481 135.88Z" fill="#FEFEFE"/>
<path d="M96.2406 132.96C95.9206 132.08 96.0006 132 99.8406 129.64C102.641 127.88 103.041 127.72 103.481 128.28C104.161 129.12 104.041 129.24 100.681 131.36C96.9206 133.68 96.5606 133.8 96.2406 132.96Z" fill="#FEFEFE"/>
<path d="M175.92 130.36L172.48 128.4L173.48 126.6C174.52 124.72 174.68 124.6 175.52 125.16C175.96 125.4 175.96 125.68 175.56 126.56C175.12 127.48 175.16 127.72 175.64 128C176.04 128.28 176.32 128.08 176.72 127.36C177.16 126.56 177.36 126.48 178 126.8C178.68 127.16 178.72 127.36 178.32 128.24C177.92 129.08 177.96 129.32 178.44 129.64C179.28 130.16 179.4 130.12 180 129C180.6 127.88 180.92 127.76 181.56 128.56C181.88 128.96 181.8 129.48 181.08 130.72C180.6 131.64 180.04 132.4 179.8 132.36C179.6 132.36 177.84 131.48 175.92 130.36Z" fill="#FEFEFE"/>
<path d="M93.8808 128.92C93.1608 128.24 93.8408 127.48 96.4408 126.16C98.7608 125 99.2408 124.6 99.0808 123.96C98.9608 123.48 99.1208 123.04 99.6008 122.8C100.161 122.48 100.481 122.76 101.361 124.36C101.921 125.44 102.401 126.48 102.401 126.72C102.401 127.48 101.121 127.64 100.601 126.96C100.161 126.32 99.8808 126.4 97.4808 127.72C94.8008 129.24 94.3208 129.4 93.8808 128.92Z" fill="#FEFEFE"/>
<path d="M178.801 125.44C175.321 124.08 174.761 123.52 175.721 122.24C176.201 121.6 176.481 121.56 178.121 121.92C179.161 122.12 180.001 122.16 180.001 122.04C180.001 121.88 179.281 121.36 178.401 120.84C176.681 119.88 176.681 119.88 177.041 118.52C177.361 117.32 177.681 117.36 181.841 118.96C185.481 120.36 185.841 120.64 185.241 121.56C184.961 122 184.561 121.92 183.041 121.28C180.761 120.24 180.601 120.72 182.801 121.96C185.361 123.4 184.881 124.68 182.041 124.04C179.921 123.56 179.921 124.12 182.001 124.8C183.121 125.16 183.601 125.56 183.521 125.96C183.321 126.96 182.441 126.88 178.801 125.44Z" fill="#FEFEFE"/>
<path d="M92.1217 124.96C91.9617 124.56 92.1617 124.08 92.5617 123.8C93.4417 123.16 92.9617 121.88 91.9617 122.2C91.4817 122.36 91.0817 122.16 90.8017 121.6C90.5617 121.12 90.4017 120.68 90.4817 120.64C90.5617 120.56 92.4817 120.2 94.7617 119.8C99.0817 119.08 99.5617 119.16 99.6017 120.8C99.6017 121.32 93.4017 125.6 92.6417 125.6C92.4817 125.6 92.2817 125.32 92.1217 124.96ZM96.0017 121.8C96.7217 121.4 96.8017 121.24 96.3217 121.2C95.4017 121.2 94.4017 121.64 94.4017 122.04C94.4017 122.52 94.8417 122.48 96.0017 121.8Z" fill="#FEFEFE"/>
<path d="M90.0008 118.8C90.0008 118.6 89.8808 118.2 89.7608 117.84C89.6008 117.44 89.9608 117.04 90.7608 116.6C92.4008 115.76 92.3608 115.16 90.7208 115.64C89.2808 116.04 89.3208 116.04 89.1208 115.04C89.0008 114.4 89.5208 114.16 92.9608 113.36C95.1608 112.84 97.0808 112.52 97.2808 112.64C98.0808 113.16 97.5208 114.44 96.2008 115.08C94.6408 115.8 94.2808 116.64 95.7208 116.16C97.2408 115.64 98.1608 115.76 98.3208 116.48C98.4808 117.24 98.3208 117.28 93.5208 118.36C91.5608 118.76 90.0008 118.96 90.0008 118.8Z" fill="#FEFEFE"/>
<path d="M182.601 117.56C180.841 117.16 179.041 116.72 178.561 116.6C177.801 116.44 177.761 116.28 178.161 114.4C178.481 112.72 178.681 112.4 179.441 112.4C180.241 112.4 180.321 112.56 180.121 113.84C179.921 115.12 179.961 115.28 180.641 115.12C181.081 115.04 181.441 114.6 181.521 114.08C181.641 113.4 181.881 113.2 182.521 113.28C183.161 113.36 183.361 113.68 183.401 114.6C183.401 116.24 184.561 116.44 185.121 114.84C185.441 113.92 185.721 113.72 186.401 113.88C186.881 114 187.161 114.32 187.041 114.64C186.921 114.92 186.721 115.8 186.561 116.56C186.441 117.36 186.201 118.08 186.041 118.16C185.921 118.24 184.361 117.96 182.601 117.56Z" fill="#FEFEFE"/>
<path d="M178.2 95.2798C178.36 94.6798 178.48 94.1998 178.52 94.1598C178.56 94.1598 179.76 93.7998 181.12 93.3998C183.64 92.6798 183.68 92.6398 183.44 91.4398C183.28 90.7598 183.04 90.0798 182.84 89.8798C182.64 89.6798 181.24 90.0798 179.64 90.7598L176.8 91.9598V90.9598C176.8 90.1198 177.2 89.7998 179.4 88.7998C181.96 87.6398 182 87.5998 181.56 86.5198C181 85.0398 178.48 80.4798 178.04 80.2398C177.88 80.1198 176.52 80.8398 175.08 81.8398L172.4 83.5998V82.4798C172.4 81.5198 172.8 81.0798 174.6 79.8398C177.28 78.0798 177.32 78.1998 172.8 73.5198L169.6 70.1998L167.48 72.4798C166.32 73.7598 165.28 74.7998 165.12 74.7998C165 74.7998 164.8 74.3998 164.68 73.9198C164.48 73.2798 164.88 72.5198 166.24 70.9598L168 68.8798L166.96 68.0398C166.36 67.5598 165.72 67.1998 165.52 67.1998C165.32 67.1998 164.4 68.3998 163.48 69.8398C161.96 72.1998 161.76 72.3998 161.28 71.7198C161 71.3198 160.88 70.5998 161 70.1198C161.16 69.4798 161.04 69.1998 160.64 69.1998C160.32 69.1998 159.52 68.7198 158.84 68.1598C157.88 67.3598 157.6 66.7998 157.6 65.6398C157.6 64.1998 157.64 64.1598 159 64.3198C160.72 64.5198 160.84 63.8798 159.2 63.1998C158.12 62.7598 157.24 61.3998 157.72 60.9598C158.2 60.4798 166.36 65.1998 168.68 67.2798C169.16 67.7198 169.72 67.9598 169.96 67.7998C170.52 67.4798 170.52 66.1998 170 65.1998C169.8 64.7998 169.72 64.1598 169.84 63.7998C170.04 63.2798 170.2 63.2798 170.68 63.6798C171.16 64.0798 171.24 64.7198 171.04 66.5198L170.8 68.8798L173.8 72.0798C178.8 77.3998 182.4 83.3598 184.76 90.2398C186.16 94.3198 186.28 95.2798 185.4 95.9998C184.92 96.3998 184.8 96.2798 184.56 95.4398C184.44 94.8798 184.2 94.3998 184.04 94.3998C183.88 94.3998 182.44 94.8398 180.84 95.3998L177.92 96.3998L178.2 95.2798ZM163.2 66.8398C163.76 65.7598 163.76 65.6798 162.44 65.0398C161.36 64.4798 161.28 64.4798 161.08 65.1998C160.92 65.7998 160.52 65.9998 159.52 65.9998L158.2 66.0398L159.16 66.7998C160.4 67.8398 162.64 67.8798 163.2 66.8398Z" fill="#FEFEFE"/>
<path d="M89.8001 95.1197C90.7601 91.6797 92.2801 87.3597 93.4401 84.8397C95.2801 80.7997 99.4801 74.5997 101.96 72.1997C103.08 71.1197 104 70.0797 104 69.9597C104 69.7997 103.44 69.5597 102.76 69.3997C101.8 69.1597 101.32 69.3197 100.68 69.9597C99.8801 70.7197 99.8801 70.7997 100.56 71.5597C101.44 72.5197 100.8 72.9597 99.6801 72.1597C98.6001 71.4397 98.5601 69.9597 99.5201 69.0797C100.36 68.3197 102.32 68.1997 103.72 68.8397C104.6 69.2397 105 69.0397 107.56 67.1197C109.12 65.9197 111.52 64.2797 112.84 63.5197C114.96 62.2397 115.44 62.1197 116.28 62.5197L117.24 62.9597L116.2 63.5197L115.16 64.0397L116.56 66.6397C117.36 68.0797 118 69.3997 118 69.5997C118 70.1997 116.08 70.0797 115.88 69.5197C115.76 69.1197 115.52 69.1597 114.96 69.6797C113.48 70.9597 112.04 71.2797 110.56 70.5597L109.2 69.9197L110 68.7997C110.44 68.1597 110.64 67.5597 110.48 67.4397C110.12 67.2397 106.4 69.8797 106.4 70.3597C106.4 70.4797 107.4 71.5997 108.68 72.8797L110.92 75.1597L109.8 75.4397C108.76 75.6797 108.44 75.5197 106.76 73.6797L104.88 71.6397L103.76 72.8797C103 73.6797 102.76 74.1597 103.12 74.2797C103.76 74.5197 103.72 75.9997 103 77.7197C102.52 78.8797 102.52 79.1997 102.96 79.5597C103.72 80.1997 105.48 78.7197 105.8 77.1997C106 76.3597 106.28 75.9997 106.88 75.9997C107.68 75.9997 107.72 76.5997 107 78.4797C106.84 78.8797 107.24 78.9597 108.84 78.8397C110.28 78.7597 110.8 78.8397 110.64 79.1597C110.48 79.3997 109.96 79.5997 109.48 79.5997C108.12 79.5997 107.64 80.0797 107.28 81.7997C107.08 82.8797 106.72 83.4397 106.24 83.5197C105.6 83.6797 105.56 83.4797 105.8 81.5997L106.08 79.4797L105.16 80.1597C104.64 80.5197 103.96 80.7997 103.6 80.7997C103.28 80.7997 102.68 81.3597 102.32 81.9997C101.96 82.6397 101 83.4797 100.24 83.8797C99.0001 84.4397 98.6801 84.4797 97.7201 83.9997C97.0801 83.6797 96.4801 83.3597 96.3201 83.2797C96.1601 83.1997 95.7601 83.6797 95.4001 84.3597L94.8001 85.5997L97.8401 87.1197C100.8 88.5997 100.84 88.6397 99.8801 89.1597C99.0001 89.6397 98.6001 89.5597 96.6001 88.6397C95.3201 88.0797 94.2401 87.5997 94.1201 87.5997C93.9601 87.5997 92.8001 90.1997 92.8001 90.5597C92.8001 90.6397 93.3601 90.9197 94.0401 91.1597C94.7201 91.3997 95.3601 91.9597 95.4801 92.3997C95.7201 93.3597 95.8001 93.3597 97.2401 92.5197C98.5601 91.7197 99.3601 92.1997 98.2001 93.0797C96.6001 94.2397 93.6401 95.5997 93.4001 95.1997C93.2801 94.9997 93.2801 94.3597 93.4401 93.7997C93.6401 92.9597 93.5601 92.7997 92.8801 92.7997C92.2801 92.7997 92.0001 93.1597 91.8001 93.9997C91.6401 94.6797 91.2001 95.3997 90.8001 95.5997C89.6801 96.1997 89.5201 96.0797 89.8001 95.1197ZM101.2 81.1197C101.2 80.4397 101.12 80.4397 99.8001 81.0797C98.1601 81.8797 98.0801 82.1197 99.3201 82.6797C100.32 83.1597 101.2 82.4397 101.2 81.1197ZM99.9201 80.2397C100.84 79.9197 101.2 79.5597 101.2 78.9197C101.2 78.4397 101.4 77.5597 101.68 76.9997C101.92 76.4397 102 75.8797 101.88 75.7597C101.48 75.3197 100.44 76.3597 98.6801 78.9597C97.5201 80.6797 97.2801 81.2397 97.8401 80.9997C98.2401 80.8397 99.2001 80.4797 99.9201 80.2397ZM113.4 68.9997C114.52 67.9197 114.64 66.9197 113.88 65.8397C113.36 65.1197 113.28 65.1197 112.28 65.7997C111.36 66.3997 111.28 66.5597 111.8 67.0797C112.32 67.5997 112.32 67.7997 111.8 68.8397C111.24 69.8797 111.24 69.9997 111.8 69.9997C112.16 69.9997 112.88 69.5597 113.4 68.9997Z" fill="#FEFEFE"/>
<path d="M178.68 86.8001C178.28 86.1201 177.6 85.6001 177.16 85.6001C176.64 85.6001 176.4 85.3201 176.4 84.6401C176.4 83.5601 177.44 82.4801 177.96 83.0401C178.76 83.8401 180.72 87.5601 180.52 87.7601C180 88.2801 179.32 87.9601 178.68 86.8001Z" fill="#FEFEFE"/>
<path d="M170.04 78.1597C169.12 76.9997 169 75.7997 169.6 74.2397C170.2 72.6397 170.64 72.9997 170.64 75.0797C170.6 76.5597 170.76 76.9997 171.28 77.1197C171.76 77.1997 172.04 76.9197 172.24 76.2397C172.56 74.8397 172.92 74.9197 174.44 76.8397C175.36 78.0397 175.6 78.5597 175.24 78.9197C174.92 79.2397 174.56 79.1197 173.88 78.4797C173 77.6397 172.96 77.6397 172.48 78.3997C171.8 79.4797 171 79.3997 170.04 78.1597Z" fill="#FEFEFE"/>
<path d="M146.681 65.3198C146.121 64.6798 146.121 64.3198 146.601 61.9998C147.201 59.1598 147.041 58.7998 145.121 58.7998C144.081 58.7998 144.041 58.8798 143.761 61.9998C143.641 63.7598 143.361 65.1998 143.201 65.1998C142.761 65.1998 141.601 63.7998 141.601 63.2398C141.601 62.9198 141.401 62.8798 140.841 63.1998C139.641 63.7998 138.601 63.6798 137.441 62.7598C136.001 61.6398 136.161 60.0398 137.761 59.2398C138.721 58.7998 139.121 58.7998 140.441 59.3198C141.921 59.9198 142.001 59.8798 142.001 59.1598C142.001 58.4798 141.681 58.3998 137.961 58.3998H133.961L134.241 61.5998C134.361 63.3598 134.361 64.7998 134.241 64.7998C133.361 64.7998 132.401 63.8398 132.401 63.0398C132.401 62.1598 132.281 62.0798 130.721 62.2798C127.561 62.6398 127.161 63.1598 129.241 64.2398C130.121 64.6798 130.361 64.9998 130.081 65.2798C129.801 65.5598 129.201 65.4398 128.121 64.7998C125.041 62.9198 124.161 61.5998 126.041 61.5998C126.521 61.5998 126.801 61.3198 126.801 60.8798C126.801 59.7998 126.481 59.6398 125.121 60.0398C123.921 60.3598 122.801 59.9598 122.801 59.1598C122.801 58.9198 126.441 57.9998 131.561 56.9598C132.481 56.7598 132.481 56.7598 131.761 55.9198C131.321 55.4798 130.601 54.9598 130.121 54.7598C129.601 54.5598 129.201 54.1598 129.201 53.7998C129.201 52.4798 131.161 53.4398 132.361 55.3198L133.161 56.6398L138.481 56.7198C145.321 56.7998 150.361 57.7598 150.841 59.1198C151.161 59.9198 151.081 59.9998 150.081 59.9198C149.041 59.7998 149.001 59.9198 148.401 62.6798C148.081 64.2398 147.681 65.6398 147.561 65.7598C147.441 65.8798 147.041 65.6798 146.681 65.3198ZM140.241 61.7998C141.881 61.1198 141.721 60.3998 139.881 60.3998C138.241 60.3998 137.401 60.9598 137.721 61.7598C138.041 62.5598 138.441 62.5598 140.241 61.7998ZM131.521 60.7198C131.801 60.4398 132.001 59.8798 132.001 59.4798C132.001 58.7998 131.801 58.7198 130.361 58.9198C128.401 59.1598 128.361 59.1998 128.681 60.3198C128.921 61.3198 130.681 61.5598 131.521 60.7198Z" fill="#FEFEFE"/>
<defs>
<filter id="filter0_d" x="0" y="0" width="290" height="294" filterUnits="userSpaceOnUse" color-interpolation-filters="sRGB">
<feFlood flood-opacity="0" result="BackgroundImageFix"/>
<feColorMatrix in="SourceAlpha" type="matrix" values="0 0 0 0 0 0 0 0 0 0 0 0 0 0 0 0 0 0 127 0"/>
<feOffset dx="7" dy="7"/>
<feGaussianBlur stdDeviation="13"/>
<feColorMatrix type="matrix" values="0 0 0 0 0.811765 0 0 0 0 0.811765 0 0 0 0 0.811765 0 0 0 0.36 0"/>
<feBlend mode="normal" in2="BackgroundImageFix" result="effect1_dropShadow"/>
<feBlend mode="normal" in="SourceGraphic" in2="effect1_dropShadow" result="shape"/>
</filter>
<linearGradient id="paint0_linear" x1="137.925" y1="46.0195" x2="137.925" y2="165.972" gradientUnits="userSpaceOnUse">
<stop stop-color="#E47F40"/>
<stop offset="1" stop-color="#CD5A2F"/>
</linearGradient>
<linearGradient id="paint1_linear" x1="137.822" y1="69.6001" x2="137.822" y2="142.44" gradientUnits="userSpaceOnUse">
<stop stop-color="#E47F40"/>
<stop offset="1" stop-color="#CD5A2F"/>
</linearGradient>
</defs>
</svg>
