<svg xmlns="http://www.w3.org/2000/svg" width="309" height="308" fill="none" viewBox="0 0 309 308"><path fill="#E47F40" d="M302.082 256.669H295.667V96.2501C295.667 91.1454 293.639 86.2489 290.027 82.6376C286.418 79.0282 281.521 77.0001 276.417 77.0001H218.667C215.122 77.0001 212.249 79.8725 212.249 83.4175C212.249 86.9602 215.122 89.8327 218.667 89.8327H276.417C278.118 89.8327 279.749 90.5094 280.954 91.7126C282.157 92.9157 282.832 94.5485 282.832 96.2501V256.669H263.582C263.573 247.503 258.677 239.038 250.738 234.46C242.797 229.882 233.02 229.884 225.082 234.467C217.343 230.112 207.927 229.968 200.057 234.082C196.411 229.57 191.345 226.425 185.684 225.162C183.856 219.412 179.439 214.851 173.749 212.843V205.334C173.749 201.791 170.877 198.919 167.332 198.919C163.789 198.919 160.917 201.791 160.917 205.334V218.169C160.917 219.87 161.591 221.501 162.795 222.706C164 223.909 165.63 224.584 167.332 224.584C169.034 224.584 170.666 225.261 171.87 226.464C173.073 227.667 173.749 229.3 173.749 231.001C173.749 232.703 174.426 234.336 175.629 235.539C176.832 236.742 178.465 237.419 180.167 237.419C182.777 237.423 185.325 238.225 187.469 239.713C189.613 241.204 191.25 243.314 192.166 245.759C192.92 247.882 194.731 249.452 196.937 249.899C199.146 250.346 201.425 249.603 202.944 247.942C205.228 245.514 208.367 244.068 211.695 243.914C215.025 243.757 218.284 244.902 220.783 247.108C223.225 249.313 226.94 249.313 229.381 247.108C231.858 244.902 235.091 243.742 238.404 243.868C241.715 243.993 244.852 245.396 247.152 247.783C249.453 250.17 250.742 253.354 250.749 256.669H186.58C181.897 256.669 181.19 259.492 176.186 269.501H132.81L128.126 260.196C125.688 255.319 126.841 256.669 58.2485 256.669C58.255 253.354 59.5441 250.17 61.8451 247.783C64.146 245.396 67.2827 243.993 70.5933 243.868C73.9062 243.742 77.1395 244.902 79.6167 247.108C82.0573 249.312 85.7717 249.312 88.2148 247.108C90.7134 244.902 93.9727 243.757 97.3024 243.913C100.63 244.068 103.769 245.514 106.053 247.942C107.572 249.603 109.851 250.346 112.06 249.899C114.266 249.452 116.078 247.882 116.832 245.759C117.747 243.314 119.384 241.204 121.528 239.713C123.672 238.225 126.22 237.423 128.831 237.419C130.532 237.419 132.165 236.742 133.368 235.539C134.571 234.336 135.248 232.703 135.248 231.001C135.248 227.459 138.12 224.584 141.665 224.584C143.367 224.584 144.998 223.909 146.203 222.706C147.406 221.501 148.081 219.87 148.081 218.169V205.334C148.081 201.791 145.208 198.919 141.665 198.919C138.121 198.919 135.248 201.791 135.248 205.334V212.843C129.559 214.851 125.142 219.412 123.314 225.161C117.652 226.425 112.586 229.57 108.94 234.082C101.07 229.968 91.6539 230.112 83.9155 234.467C75.9767 229.884 66.1994 229.882 58.2591 234.46C50.3204 239.038 45.4242 247.503 45.4154 256.668H26.1654V96.25C26.1654 92.7072 29.0379 89.8326 32.5806 89.8326H90.3307C93.8756 89.8326 96.748 86.9601 96.748 83.4174C96.748 79.8725 93.8756 77 90.3307 77H32.5806C27.476 77 22.5795 79.0281 18.9704 82.6375C15.3588 86.249 13.3306 91.1455 13.3306 96.25V256.668H6.91545C3.37053 256.668 0.498047 259.541 0.498047 263.084V275.918C0.498047 284.426 3.87753 292.588 9.89535 298.604C15.9113 304.621 24.0727 308.001 32.5806 308.001H276.418C284.926 308.001 293.088 304.622 299.103 298.604C305.12 292.588 308.5 284.426 308.5 275.918V263.084C308.5 261.382 307.824 259.751 306.62 258.546C305.417 257.343 303.784 256.668 302.083 256.668L302.082 256.669ZM295.664 275.919H295.667C295.667 281.023 293.639 285.92 290.027 289.529C286.418 293.14 281.521 295.169 276.417 295.169H32.5797C27.475 295.169 22.5785 293.14 18.9694 289.529C15.3578 285.92 13.3297 281.023 13.3297 275.919V269.501H118.435C123.632 279.833 124.081 282.334 128.829 282.334C184.142 282.334 183.497 283.616 185.869 278.804L190.555 269.501H295.66L295.664 275.919Z"/><path fill="#E47F40" d="M83.918 141.168V186.086V186.084C83.918 187.785 84.5926 189.418 85.7957 190.621C87.001 191.824 88.6316 192.501 90.3332 192.501C93.9276 192.501 93.0274 192.501 118.63 166.834H122.418V186.084C122.418 187.785 123.092 189.418 124.296 190.621C125.501 191.824 127.132 192.501 128.833 192.501H180.168C181.869 192.501 183.5 191.824 184.705 190.621C185.909 189.418 186.583 187.785 186.583 186.084V166.834C191.845 166.834 186.583 163.239 214.111 190.64C215.957 192.46 218.715 192.993 221.107 191.987C226.433 189.807 225.086 189.484 225.086 141.169C225.086 122.432 211.804 115.181 199.418 105.876V78.348C199.395 63.0982 195.603 48.0892 188.384 34.6571C181.163 21.2228 170.737 9.7823 158.031 1.34805C155.889 -0.0613281 153.113 -0.0613281 150.971 1.34805C138.265 9.78285 127.838 21.2234 120.617 34.6571C113.399 48.0892 109.606 63.0982 109.583 78.348V105.876C96.7508 115.501 83.9182 122.687 83.9182 141.169L83.918 141.168ZM109.585 121.918V157.787L96.7528 170.619C96.7506 132.313 94.2477 133.404 109.583 121.918H109.585ZM173.754 179.668H135.252V166.834H173.752L173.754 179.668ZM212.254 170.621L199.421 157.789L199.419 121.918C214.177 133.02 212.252 130.901 212.252 170.619L212.254 170.621ZM154.504 14.2454C159.705 18.1878 164.423 22.7341 168.557 27.7847C164.335 30.3994 159.469 31.783 154.504 31.783C149.538 31.783 144.673 30.3994 140.451 27.7847C144.584 22.7338 149.303 18.1878 154.504 14.2454ZM133.2 38.5015C139.514 42.6952 146.924 44.9315 154.504 44.9315C162.083 44.9315 169.494 42.695 175.808 38.5015C189.923 63.0128 186.586 77.0015 186.586 154.001H122.423C122.423 76.6165 119.214 62.817 133.202 38.5015H133.2Z"/><path fill="#E47F40" d="M154.5 96.25C159.605 96.25 164.501 94.2219 168.112 90.6125C171.722 87.001 173.75 82.1046 173.75 77C173.75 71.8955 171.722 66.9988 168.112 63.3875C164.501 59.7781 159.605 57.75 154.5 57.75C149.395 57.75 144.499 59.7781 140.888 63.3875C137.278 66.999 135.25 71.8955 135.25 77C135.25 82.1046 137.278 87.0012 140.888 90.6125C144.499 94.2219 149.395 96.25 154.5 96.25ZM154.5 70.5826C158.043 70.5826 160.917 73.4572 160.917 77C160.917 80.5428 158.043 83.4174 154.5 83.4174C150.957 83.4174 148.083 80.5428 148.083 77C148.083 73.4572 150.957 70.5826 154.5 70.5826Z"/></svg>