<svg xmlns="http://www.w3.org/2000/svg" fill="none" viewBox="0 0 286 122"><path fill="url(#paint0_linear)" d="M271.784 107.563C246.194 98.21 191.001 94.9567 158.554 100.853C118.748 108.377 29.6035 104.92 8.86428 95.3633C3.17773 92.72 5.51925 89.2633 11.373 91.5C21.9099 95.77 56.0292 99.8367 82.7894 99.8367C103.194 99.8367 121.257 98.4133 146.847 94.7533C166.415 91.9067 188.66 89.4667 196.186 89.4667C209.566 89.4667 247.867 95.3633 260.41 99.43C263.923 100.447 269.944 102.48 273.958 103.7C277.805 104.92 280.982 106.75 280.982 107.767C280.982 110.207 278.641 110.003 271.784 107.563Z"/><path fill="url(#paint1_linear)" d="M117.745 83.7733C115.571 80.52 111.222 77.2667 106.874 75.8433C96.3368 72.3867 91.6537 65.4733 90.6502 52.0533C89.145 30.2967 96.6713 18.3 111.724 18.3C126.609 18.3 133.801 28.06 133.801 47.7833C133.801 60.39 131.961 66.2867 126.442 71.5733L122.93 75.03L127.613 80.7233C133.467 88.2467 133.299 89.4667 126.777 89.2633C122.763 89.2633 120.254 87.6367 117.745 83.7733ZM120.588 63.2367C126.275 57.7467 126.442 38.8367 120.923 32.33C116.909 27.45 108.379 26.6367 104.365 30.5C98.0093 37.0067 98.3438 60.1867 105.034 64.8633C109.55 68.1167 116.407 67.5067 120.588 63.2367Z"/><path fill="url(#paint2_linear)" d="M26.7602 51.85V28.4667H20.0702C14.0491 28.4667 13.3801 28.06 13.3801 23.3833V18.3H31.7778H50.1754V23.3833C50.1754 28.06 49.5064 28.4667 42.6491 28.4667H35.1228V51.85V75.2333H30.9415H26.7602V51.85Z"/><path fill="url(#paint3_linear)" d="M55.193 46.7667V18.3H69.4094C83.4585 18.3 83.6257 18.3 83.6257 23.3833C83.6257 28.2633 83.124 28.4667 73.5907 28.4667H63.5556V35.5833V42.7H72.7544C80.7825 42.7 81.9532 43.1067 81.9532 46.7667C81.9532 50.4267 80.7825 50.8333 72.7544 50.8333H63.5556V58.9667V67.1H73.5907C82.455 67.1 83.6257 67.5067 83.6257 71.1667C83.6257 74.8267 82.455 75.2333 69.4094 75.2333H55.193V46.7667Z"/><path fill="url(#paint4_linear)" d="M142.164 46.7667V18.3H146.345H150.526V46.7667V75.2333H146.345H142.164V46.7667Z"/><path fill="url(#paint5_linear)" d="M162.234 46.7667V18.3H171.265C187.991 18.3 194.012 23.3833 194.012 37.21C194.012 47.9867 189.496 53.2733 179.294 54.4933L170.596 55.51V65.27C170.596 74.6233 170.262 75.2333 166.415 75.2333H162.234V46.7667ZM183.809 41.6833C185.816 39.4467 185.816 37.82 184.311 33.55C182.806 29.4833 181.133 28.4667 176.45 28.4667C170.596 28.4667 170.596 28.4667 170.596 37.82V47.3767L175.949 45.9533C178.959 45.14 182.471 43.31 183.809 41.6833Z"/><path fill="url(#paint6_linear)" d="M217.427 46.7667V18.3H221.608H225.79V46.7667V75.2333H221.608H217.427V46.7667Z"/><path fill="url(#paint7_linear)" d="M237.497 46.7667V18.3H241.678H245.86V46.7667V75.2333H241.678H237.497V46.7667Z"/><path fill="url(#paint8_linear)" d="M257.567 46.7667V18.3H261.749H265.93V46.7667V75.2333H261.749H257.567V46.7667Z"/><defs><linearGradient id="paint0_linear" x1="143.294" x2="143.294" y1="89.467" y2="109.498" gradientUnits="userSpaceOnUse"><stop stop-color="#E47F40"/><stop offset="1" stop-color="#CD5A2F"/></linearGradient><linearGradient id="paint1_linear" x1="112.131" x2="112.131" y1="18.3" y2="89.284" gradientUnits="userSpaceOnUse"><stop stop-color="#E47F40"/><stop offset="1" stop-color="#CD5A2F"/></linearGradient><linearGradient id="paint2_linear" x1="31.778" x2="31.778" y1="18.3" y2="75.233" gradientUnits="userSpaceOnUse"><stop stop-color="#E47F40"/><stop offset="1" stop-color="#CD5A2F"/></linearGradient><linearGradient id="paint3_linear" x1="69.409" x2="69.409" y1="18.3" y2="75.233" gradientUnits="userSpaceOnUse"><stop stop-color="#E47F40"/><stop offset="1" stop-color="#CD5A2F"/></linearGradient><linearGradient id="paint4_linear" x1="146.345" x2="146.345" y1="18.3" y2="75.233" gradientUnits="userSpaceOnUse"><stop stop-color="#E47F40"/><stop offset="1" stop-color="#CD5A2F"/></linearGradient><linearGradient id="paint5_linear" x1="178.123" x2="178.123" y1="18.3" y2="75.233" gradientUnits="userSpaceOnUse"><stop stop-color="#E47F40"/><stop offset="1" stop-color="#CD5A2F"/></linearGradient><linearGradient id="paint6_linear" x1="221.608" x2="221.608" y1="18.3" y2="75.233" gradientUnits="userSpaceOnUse"><stop stop-color="#E47F40"/><stop offset="1" stop-color="#CD5A2F"/></linearGradient><linearGradient id="paint7_linear" x1="241.678" x2="241.678" y1="18.3" y2="75.233" gradientUnits="userSpaceOnUse"><stop stop-color="#E47F40"/><stop offset="1" stop-color="#CD5A2F"/></linearGradient><linearGradient id="paint8_linear" x1="261.749" x2="261.749" y1="18.3" y2="75.233" gradientUnits="userSpaceOnUse"><stop stop-color="#E47F40"/><stop offset="1" stop-color="#CD5A2F"/></linearGradient></defs></svg>