<svg width="290" height="294" viewBox="0 0 290 294" fill="none" xmlns="http://www.w3.org/2000/svg">
<g filter="url(#filter0_d)">
<rect x="19" y="19" width="238" height="242" rx="19" fill="white"/>
</g>
<path d="M112.59 213V198.544H107.676V195.996H120.52V198.544H115.606V213H112.59ZM123.351 213V195.996H133.595V198.544H126.367V202.886H132.477V205.434H126.367V210.452H133.855V213H123.351ZM143.946 210.842C144.622 210.842 145.228 210.695 145.766 210.4C146.303 210.105 146.762 209.681 147.144 209.126C147.525 208.571 147.82 207.895 148.028 207.098C148.236 206.301 148.34 205.408 148.34 204.42C148.34 202.513 147.941 201.023 147.144 199.948C146.364 198.856 145.298 198.31 143.946 198.31C142.594 198.31 141.519 198.856 140.722 199.948C139.942 201.023 139.552 202.513 139.552 204.42C139.552 205.408 139.656 206.301 139.864 207.098C140.072 207.895 140.366 208.571 140.748 209.126C141.129 209.681 141.588 210.105 142.126 210.4C142.663 210.695 143.27 210.842 143.946 210.842ZM149.354 217.524C147.655 217.524 146.234 217.117 145.09 216.302C143.946 215.487 143.096 214.447 142.542 213.182C141.623 213.026 140.791 212.714 140.046 212.246C139.3 211.761 138.659 211.145 138.122 210.4C137.584 209.655 137.168 208.779 136.874 207.774C136.596 206.769 136.458 205.651 136.458 204.42C136.458 203.051 136.64 201.829 137.004 200.754C137.368 199.662 137.879 198.743 138.538 197.998C139.196 197.253 139.985 196.681 140.904 196.282C141.822 195.883 142.836 195.684 143.946 195.684C145.055 195.684 146.069 195.883 146.988 196.282C147.906 196.681 148.695 197.253 149.354 197.998C150.03 198.743 150.55 199.662 150.914 200.754C151.278 201.829 151.46 203.051 151.46 204.42C151.46 205.599 151.321 206.682 151.044 207.67C150.784 208.641 150.402 209.499 149.9 210.244C149.397 210.989 148.79 211.605 148.08 212.09C147.386 212.575 146.606 212.913 145.74 213.104C146.138 213.78 146.684 214.274 147.378 214.586C148.088 214.898 148.86 215.054 149.692 215.054C150.073 215.054 150.411 215.028 150.706 214.976C151.018 214.941 151.295 214.881 151.538 214.794L152.084 217.03C151.789 217.169 151.408 217.281 150.94 217.368C150.472 217.472 149.943 217.524 149.354 217.524ZM154.861 213V195.996H157.877V213H154.861ZM162.199 213V195.996H167.555C168.491 195.996 169.358 196.083 170.155 196.256C170.97 196.429 171.672 196.724 172.261 197.14C172.85 197.556 173.31 198.102 173.639 198.778C173.968 199.437 174.133 200.26 174.133 201.248C174.133 202.184 173.968 202.999 173.639 203.692C173.31 204.385 172.85 204.966 172.261 205.434C171.689 205.885 171.004 206.223 170.207 206.448C169.427 206.656 168.578 206.76 167.659 206.76H165.215V213H162.199ZM165.215 204.342H167.425C169.921 204.342 171.169 203.311 171.169 201.248C171.169 200.173 170.84 199.437 170.181 199.038C169.54 198.622 168.586 198.414 167.321 198.414H165.215V204.342Z" fill="#696969"/>
<path d="M226.704 145.717C209.972 140.35 173.885 138.483 152.669 141.867C126.643 146.184 68.3554 144.2 54.7952 138.717C51.0771 137.2 52.6081 135.217 56.4356 136.5C63.325 138.95 85.6338 141.284 103.131 141.284C116.472 141.284 128.283 140.467 145.014 138.367C157.809 136.733 172.354 135.333 177.275 135.333C186.023 135.333 211.066 138.717 219.268 141.05C221.564 141.634 225.501 142.8 228.126 143.5C230.641 144.2 232.719 145.25 232.719 145.834C232.719 147.234 231.188 147.117 226.704 145.717Z" fill="url(#paint0_linear)"/>
<path d="M125.986 132.067C124.564 130.2 121.721 128.333 118.878 127.517C111.988 125.533 108.926 121.567 108.27 113.867C107.286 101.383 112.207 94.5 122.049 94.5C131.782 94.5 136.484 100.1 136.484 111.417C136.484 118.65 135.281 122.033 131.672 125.067L129.376 127.05L132.438 130.317C136.265 134.633 136.156 135.333 131.891 135.217C129.267 135.217 127.626 134.283 125.986 132.067ZM127.845 120.283C131.563 117.133 131.672 106.283 128.064 102.55C125.439 99.75 119.862 99.2833 117.237 101.5C113.082 105.233 113.3 118.533 117.675 121.217C120.627 123.083 125.111 122.733 127.845 120.283Z" fill="url(#paint1_linear)"/>
<path d="M66.4966 113.75V100.333H62.1223C58.1855 100.333 57.748 100.1 57.748 97.4167V94.5H69.7773H81.8065V97.4167C81.8065 100.1 81.3691 100.333 76.8855 100.333H71.9644V113.75V127.167H69.2305H66.4966V113.75Z" fill="url(#paint2_linear)"/>
<path d="M85.0879 110.833V94.5H94.3832C103.569 94.5 103.678 94.5 103.678 97.4167C103.678 100.217 103.35 100.333 97.1171 100.333H90.5557V104.417V108.5H96.5703C101.819 108.5 102.585 108.733 102.585 110.833C102.585 112.933 101.819 113.167 96.5703 113.167H90.5557V117.833V122.5H97.1171C102.913 122.5 103.678 122.733 103.678 124.833C103.678 126.933 102.913 127.167 94.3832 127.167H85.0879V110.833Z" fill="url(#paint3_linear)"/>
<path d="M141.953 110.833V94.5H144.687H147.421V110.833V127.167H144.687H141.953V110.833Z" fill="url(#paint4_linear)"/>
<path d="M155.076 110.833V94.5H160.981C171.917 94.5 175.854 97.4167 175.854 105.35C175.854 111.533 172.901 114.567 166.231 115.267L160.544 115.85V121.45C160.544 126.817 160.325 127.167 157.81 127.167H155.076V110.833ZM169.183 107.917C170.495 106.633 170.495 105.7 169.511 103.25C168.527 100.917 167.433 100.333 164.371 100.333C160.544 100.333 160.544 100.333 160.544 105.7V111.183L164.043 110.367C166.012 109.9 168.308 108.85 169.183 107.917Z" fill="url(#paint5_linear)"/>
<path d="M191.164 110.833V94.5H193.898H196.632V110.833V127.167H193.898H191.164V110.833Z" fill="url(#paint6_linear)"/>
<path d="M204.285 110.833V94.5H207.019H209.753V110.833V127.167H207.019H204.285V110.833Z" fill="url(#paint7_linear)"/>
<path d="M217.408 110.833V94.5H220.142H222.876V110.833V127.167H220.142H217.408V110.833Z" fill="url(#paint8_linear)"/>
<defs>
<filter id="filter0_d" x="0" y="0" width="290" height="294" filterUnits="userSpaceOnUse" color-interpolation-filters="sRGB">
<feFlood flood-opacity="0" result="BackgroundImageFix"/>
<feColorMatrix in="SourceAlpha" type="matrix" values="0 0 0 0 0 0 0 0 0 0 0 0 0 0 0 0 0 0 127 0"/>
<feOffset dx="7" dy="7"/>
<feGaussianBlur stdDeviation="13"/>
<feColorMatrix type="matrix" values="0 0 0 0 0.811765 0 0 0 0 0.811765 0 0 0 0 0.811765 0 0 0 0.36 0"/>
<feBlend mode="normal" in2="BackgroundImageFix" result="effect1_dropShadow"/>
<feBlend mode="normal" in="SourceGraphic" in2="effect1_dropShadow" result="shape"/>
</filter>
<linearGradient id="paint0_linear" x1="142.691" y1="135.333" x2="142.691" y2="146.827" gradientUnits="userSpaceOnUse">
<stop stop-color="#E47F40"/>
<stop offset="1" stop-color="#CD5A2F"/>
</linearGradient>
<linearGradient id="paint1_linear" x1="122.315" y1="94.5" x2="122.315" y2="135.228" gradientUnits="userSpaceOnUse">
<stop stop-color="#E47F40"/>
<stop offset="1" stop-color="#CD5A2F"/>
</linearGradient>
<linearGradient id="paint2_linear" x1="69.7773" y1="94.5" x2="69.7773" y2="127.167" gradientUnits="userSpaceOnUse">
<stop stop-color="#E47F40"/>
<stop offset="1" stop-color="#CD5A2F"/>
</linearGradient>
<linearGradient id="paint3_linear" x1="94.3832" y1="94.5" x2="94.3832" y2="127.167" gradientUnits="userSpaceOnUse">
<stop stop-color="#E47F40"/>
<stop offset="1" stop-color="#CD5A2F"/>
</linearGradient>
<linearGradient id="paint4_linear" x1="144.687" y1="94.5" x2="144.687" y2="127.167" gradientUnits="userSpaceOnUse">
<stop stop-color="#E47F40"/>
<stop offset="1" stop-color="#CD5A2F"/>
</linearGradient>
<linearGradient id="paint5_linear" x1="165.465" y1="94.5" x2="165.465" y2="127.167" gradientUnits="userSpaceOnUse">
<stop stop-color="#E47F40"/>
<stop offset="1" stop-color="#CD5A2F"/>
</linearGradient>
<linearGradient id="paint6_linear" x1="193.898" y1="94.5" x2="193.898" y2="127.167" gradientUnits="userSpaceOnUse">
<stop stop-color="#E47F40"/>
<stop offset="1" stop-color="#CD5A2F"/>
</linearGradient>
<linearGradient id="paint7_linear" x1="207.019" y1="94.5" x2="207.019" y2="127.167" gradientUnits="userSpaceOnUse">
<stop stop-color="#E47F40"/>
<stop offset="1" stop-color="#CD5A2F"/>
</linearGradient>
<linearGradient id="paint8_linear" x1="220.142" y1="94.5" x2="220.142" y2="127.167" gradientUnits="userSpaceOnUse">
<stop stop-color="#E47F40"/>
<stop offset="1" stop-color="#CD5A2F"/>
</linearGradient>
</defs>
</svg>
