<svg xmlns="http://www.w3.org/2000/svg" width="334" height="124" fill="none" viewBox="0 0 334 124"><path fill="#fff" fill-opacity=".17" fill-rule="evenodd" d="M32.0947 -94.1941C41.1989 -90.7041 46.8043 -82.0627 46.8563 -72.8781L124.725 -43.0285C128.92 -49.0993 134.643 -54.2459 141.686 -57.8294C150.383 -62.2549 159.828 -63.6527 168.816 -62.4137L186.664 -120.709C178.817 -126.283 175.038 -136.439 178.008 -146.14C181.722 -158.269 194.578 -165.096 206.724 -161.388C218.87 -157.679 225.706 -144.841 221.993 -132.711C219.029 -123.029 210.237 -116.725 200.632 -116.463L182.784 -58.1635C191.436 -53.9434 198.839 -46.985 203.548 -37.757C206.889 -31.2096 208.506 -24.2379 208.569 -17.3572L290.756 3.10587C295.92 -5.01101 305.877 -9.31088 315.734 -6.85665C328.058 -3.78827 335.558 8.67566 332.485 20.9823C329.412 33.2889 316.931 40.778 304.607 37.7096C294.769 35.2601 288.006 26.823 287.241 17.2581L206.364 -2.87873C203.662 5.53452 198.544 13.1723 191.378 18.9095L231.41 78.1773C240.687 75.5943 250.97 79.0525 256.651 87.4637C263.753 97.9787 260.975 112.252 250.445 119.345C239.916 126.437 225.622 123.663 218.52 113.148C212.851 104.754 213.477 93.9661 219.316 86.347L178.644 26.1326C162.568 32.1444 144.776 28.5719 132.3 17.696L94.4953 46.1444C97.5618 55.2595 94.6413 65.6927 86.5285 71.7976C76.385 79.4307 61.9657 77.407 54.3221 67.2776C46.6784 57.1482 48.7049 42.7489 58.8484 35.1158C66.9464 29.022 77.7695 29.083 85.6946 34.5094L122.967 6.46156C122.484 5.64327 122.023 4.80499 121.585 3.94709C116.037 -6.92631 115.241 -18.9699 118.429 -29.8236L42.2858 -59.0116C36.2816 -50.9718 25.4495 -47.5431 15.6118 -51.3142C3.75438 -55.8595 -2.16812 -69.1432 2.38352 -80.9841C6.93515 -92.8251 20.2373 -98.7394 32.0947 -94.1941Z" clip-rule="evenodd"/></svg>