<svg xmlns="http://www.w3.org/2000/svg" width="161" height="298" fill="none" viewBox="0 0 161 298"><path fill="#fff" fill-opacity=".17" fill-rule="evenodd" d="M54.7361 7.59868C61.2615 14.8357 62.3273 25.0766 58.1981 33.2837L114.009 95.1824C120.507 91.675 127.945 89.6839 135.85 89.6839C145.611 89.6839 154.662 92.7205 162.107 97.8994L204.512 54.0486C200.055 45.5246 201.305 34.763 208.362 27.4656C217.185 18.3419 231.744 18.0882 240.88 26.8988C250.016 35.7094 250.27 50.248 241.447 59.3717C234.404 66.6552 223.705 68.2859 215.028 64.165L172.62 108.019C178.411 115.701 181.844 125.258 181.844 135.615C181.844 142.964 180.115 149.911 177.042 156.071L240.964 211.561C249.255 206.668 260.084 207.351 267.752 214.007C277.337 222.328 278.353 236.833 270.02 246.406C261.688 255.978 247.162 256.992 237.576 248.671C229.925 242.029 227.734 231.446 231.399 222.578L168.494 167.971C162.262 174.24 154.232 178.724 145.241 180.587L153.966 251.545C163.404 253.45 170.993 261.193 172.231 271.262C173.779 283.851 164.814 295.309 152.208 296.855C139.601 298.4 128.127 289.448 126.579 276.859C125.343 266.81 130.807 257.48 139.475 253.339L130.612 181.251C113.552 179.319 99.3225 168.069 93.1508 152.721L46.5324 160.929C45.121 170.441 37.7755 178.414 27.7713 180.175C15.2633 182.378 3.33559 174.037 1.13008 161.547C-1.07543 149.056 7.27643 137.145 19.7845 134.942C29.7699 133.184 39.3855 138.145 43.98 146.573L89.9432 138.479C89.8848 137.532 89.8551 136.577 89.8551 135.615C89.8551 123.411 94.6212 112.319 102.396 104.093L47.8218 43.5668C38.8169 48.0082 27.6067 46.1523 20.5556 38.3323C12.057 28.9067 12.8191 14.3858 22.2578 5.89892C31.6965 -2.58792 46.2375 -1.82691 54.7361 7.59868Z" clip-rule="evenodd"/></svg>