<svg xmlns="http://www.w3.org/2000/svg" width="247" height="247" fill="none" viewBox="0 0 247 247"><g filter="url(#filter0_d)"><rect width="237" height="237" fill="#fff"/></g><path fill="url(#paint0_linear)" d="M49.0156 187.898H41.8242L40.457 192H36.0957L43.5059 172.094H47.3066L54.7578 192H50.3965L49.0156 187.898ZM42.9316 184.576H47.9082L45.4062 177.125L42.9316 184.576ZM59.3379 177.207L59.4609 178.916C60.5182 177.594 61.9355 176.934 63.7129 176.934C65.2806 176.934 66.4473 177.394 67.2129 178.314C67.9785 179.235 68.3704 180.611 68.3887 182.443V192H64.4375V182.539C64.4375 181.701 64.2552 181.094 63.8906 180.721C63.526 180.338 62.9199 180.146 62.0723 180.146C60.9603 180.146 60.1263 180.62 59.5703 181.568V192H55.6191V177.207H59.3379ZM76.127 173.57V177.207H78.6562V180.105H76.127V187.488C76.127 188.035 76.2318 188.427 76.4414 188.664C76.651 188.901 77.0521 189.02 77.6445 189.02C78.082 189.02 78.4694 188.988 78.8066 188.924V191.918C78.0319 192.155 77.2344 192.273 76.4141 192.273C73.6432 192.273 72.2305 190.874 72.1758 188.076V180.105H70.0156V177.207H72.1758V173.57H76.127ZM85.0273 192H81.0625V177.207H85.0273V192ZM80.8301 173.379C80.8301 172.786 81.026 172.299 81.418 171.916C81.819 171.533 82.3613 171.342 83.0449 171.342C83.7194 171.342 84.2572 171.533 84.6582 171.916C85.0592 172.299 85.2598 172.786 85.2598 173.379C85.2598 173.98 85.0547 174.473 84.6445 174.855C84.2435 175.238 83.7103 175.43 83.0449 175.43C82.3796 175.43 81.8418 175.238 81.4316 174.855C81.0306 174.473 80.8301 173.98 80.8301 173.379ZM95.9785 185.068H88.2812V181.883H95.9785V185.068ZM106.779 184.713H103.512V192H99.4102V172.094H106.807C109.158 172.094 110.972 172.618 112.248 173.666C113.524 174.714 114.162 176.195 114.162 178.109C114.162 179.467 113.866 180.602 113.273 181.514C112.69 182.416 111.801 183.136 110.607 183.674L114.914 191.809V192H110.512L106.779 184.713ZM103.512 181.391H106.82C107.85 181.391 108.648 181.131 109.213 180.611C109.778 180.083 110.061 179.358 110.061 178.438C110.061 177.499 109.792 176.76 109.254 176.223C108.725 175.685 107.91 175.416 106.807 175.416H103.512V181.391ZM125.605 192C125.423 191.645 125.291 191.202 125.209 190.674C124.252 191.74 123.008 192.273 121.477 192.273C120.027 192.273 118.824 191.854 117.867 191.016C116.919 190.177 116.445 189.12 116.445 187.844C116.445 186.276 117.024 185.073 118.182 184.234C119.348 183.396 121.03 182.972 123.227 182.963H125.045V182.115C125.045 181.432 124.867 180.885 124.512 180.475C124.165 180.064 123.614 179.859 122.857 179.859C122.192 179.859 121.668 180.019 121.285 180.338C120.911 180.657 120.725 181.094 120.725 181.65H116.773C116.773 180.794 117.038 180.001 117.566 179.271C118.095 178.542 118.842 177.973 119.809 177.562C120.775 177.143 121.859 176.934 123.062 176.934C124.885 176.934 126.33 177.394 127.396 178.314C128.472 179.226 129.01 180.511 129.01 182.17V188.582C129.019 189.986 129.215 191.048 129.598 191.768V192H125.605ZM122.338 189.252C122.921 189.252 123.459 189.124 123.951 188.869C124.443 188.605 124.808 188.254 125.045 187.816V185.273H123.568C121.59 185.273 120.538 185.957 120.41 187.324L120.396 187.557C120.396 188.049 120.57 188.454 120.916 188.773C121.262 189.092 121.736 189.252 122.338 189.252ZM131.471 184.494C131.471 182.225 132.008 180.397 133.084 179.012C134.169 177.626 135.627 176.934 137.459 176.934C139.081 176.934 140.344 177.49 141.246 178.602L141.41 177.207H144.992V191.508C144.992 192.802 144.696 193.928 144.104 194.885C143.52 195.842 142.695 196.571 141.629 197.072C140.562 197.574 139.314 197.824 137.883 197.824C136.798 197.824 135.741 197.605 134.711 197.168C133.681 196.74 132.902 196.184 132.373 195.5L134.123 193.094C135.107 194.197 136.301 194.748 137.705 194.748C138.753 194.748 139.569 194.465 140.152 193.9C140.736 193.344 141.027 192.551 141.027 191.521V190.729C140.116 191.758 138.917 192.273 137.432 192.273C135.654 192.273 134.214 191.581 133.111 190.195C132.018 188.801 131.471 186.955 131.471 184.658V184.494ZM135.422 184.781C135.422 186.121 135.691 187.174 136.229 187.939C136.766 188.696 137.505 189.074 138.443 189.074C139.646 189.074 140.508 188.623 141.027 187.721V181.5C140.499 180.598 139.646 180.146 138.471 180.146C137.523 180.146 136.775 180.534 136.229 181.309C135.691 182.083 135.422 183.241 135.422 184.781ZM147.467 184.494C147.467 182.225 148.005 180.397 149.08 179.012C150.165 177.626 151.623 176.934 153.455 176.934C155.077 176.934 156.34 177.49 157.242 178.602L157.406 177.207H160.988V191.508C160.988 192.802 160.692 193.928 160.1 194.885C159.516 195.842 158.691 196.571 157.625 197.072C156.559 197.574 155.31 197.824 153.879 197.824C152.794 197.824 151.737 197.605 150.707 197.168C149.677 196.74 148.898 196.184 148.369 195.5L150.119 193.094C151.104 194.197 152.298 194.748 153.701 194.748C154.749 194.748 155.565 194.465 156.148 193.9C156.732 193.344 157.023 192.551 157.023 191.521V190.729C156.112 191.758 154.913 192.273 153.428 192.273C151.65 192.273 150.21 191.581 149.107 190.195C148.014 188.801 147.467 186.955 147.467 184.658V184.494ZM151.418 184.781C151.418 186.121 151.687 187.174 152.225 187.939C152.762 188.696 153.501 189.074 154.439 189.074C155.643 189.074 156.504 188.623 157.023 187.721V181.5C156.495 180.598 155.643 180.146 154.467 180.146C153.519 180.146 152.771 180.534 152.225 181.309C151.687 182.083 151.418 183.241 151.418 184.781ZM168.207 192H164.242V177.207H168.207V192ZM164.01 173.379C164.01 172.786 164.206 172.299 164.598 171.916C164.999 171.533 165.541 171.342 166.225 171.342C166.899 171.342 167.437 171.533 167.838 171.916C168.239 172.299 168.439 172.786 168.439 173.379C168.439 173.98 168.234 174.473 167.824 174.855C167.423 175.238 166.89 175.43 166.225 175.43C165.559 175.43 165.021 175.238 164.611 174.855C164.21 174.473 164.01 173.98 164.01 173.379ZM175.111 177.207L175.234 178.916C176.292 177.594 177.709 176.934 179.486 176.934C181.054 176.934 182.221 177.394 182.986 178.314C183.752 179.235 184.144 180.611 184.162 182.443V192H180.211V182.539C180.211 181.701 180.029 181.094 179.664 180.721C179.299 180.338 178.693 180.146 177.846 180.146C176.734 180.146 175.9 180.62 175.344 181.568V192H171.393V177.207H175.111ZM186.596 184.494C186.596 182.225 187.133 180.397 188.209 179.012C189.294 177.626 190.752 176.934 192.584 176.934C194.206 176.934 195.469 177.49 196.371 178.602L196.535 177.207H200.117V191.508C200.117 192.802 199.821 193.928 199.229 194.885C198.645 195.842 197.82 196.571 196.754 197.072C195.688 197.574 194.439 197.824 193.008 197.824C191.923 197.824 190.866 197.605 189.836 197.168C188.806 196.74 188.027 196.184 187.498 195.5L189.248 193.094C190.232 194.197 191.426 194.748 192.83 194.748C193.878 194.748 194.694 194.465 195.277 193.9C195.861 193.344 196.152 192.551 196.152 191.521V190.729C195.241 191.758 194.042 192.273 192.557 192.273C190.779 192.273 189.339 191.581 188.236 190.195C187.143 188.801 186.596 186.955 186.596 184.658V184.494ZM190.547 184.781C190.547 186.121 190.816 187.174 191.354 187.939C191.891 188.696 192.63 189.074 193.568 189.074C194.771 189.074 195.633 188.623 196.152 187.721V181.5C195.624 180.598 194.771 180.146 193.596 180.146C192.648 180.146 191.9 180.534 191.354 181.309C190.816 182.083 190.547 183.241 190.547 184.781Z"/><ellipse cx="141.112" cy="56.833" fill="url(#paint1_linear)" rx="15.974" ry="16.833"/><mask id="mask0" width="44" height="75" x="130" y="66" mask-type="alpha" maskUnits="userSpaceOnUse"><rect width="43.224" height="74.067" x="130.775" y="66.933" fill="url(#paint2_linear)"/></mask><g mask="url(#mask0)"><ellipse cx="152.387" cy="127.533" fill="url(#paint3_linear)" rx="21.612" ry="58.917"/></g><ellipse cx="89.431" cy="69.458" fill="url(#paint4_linear)" rx="13.155" ry="12.625" transform="rotate(-180 89.4313 69.4584)"/><mask id="mask1" width="38" height="61" x="65" y="80" mask-type="alpha" maskUnits="userSpaceOnUse"><rect width="37.586" height="60.6" x="102.586" y="141" fill="url(#paint5_linear)" transform="rotate(-180 102.586 141)"/></mask><g mask="url(#mask1)"><ellipse cx="84.734" cy="134.267" fill="url(#paint6_linear)" rx="17.853" ry="53.867" transform="rotate(-180 84.734 134.267)"/></g><defs><filter id="filter0_d" width="247" height="247" x="0" y="0" color-interpolation-filters="sRGB" filterUnits="userSpaceOnUse"><feFlood flood-opacity="0" result="BackgroundImageFix"/><feColorMatrix in="SourceAlpha" type="matrix" values="0 0 0 0 0 0 0 0 0 0 0 0 0 0 0 0 0 0 127 0"/><feOffset dx="10" dy="10"/><feColorMatrix type="matrix" values="0 0 0 0 0.708333 0 0 0 0 0.619792 0 0 0 0 0.619792 0 0 0 0.25 0"/><feBlend in2="BackgroundImageFix" mode="normal" result="effect1_dropShadow"/><feBlend in="SourceGraphic" in2="effect1_dropShadow" mode="normal" result="shape"/></filter><linearGradient id="paint0_linear" x1="119" x2="119" y1="166" y2="199" gradientUnits="userSpaceOnUse"><stop stop-color="#E47F40"/><stop offset="1" stop-color="#CD5A2F"/></linearGradient><linearGradient id="paint1_linear" x1="155.207" x2="125.138" y1="56.833" y2="56.833" gradientUnits="userSpaceOnUse"><stop stop-color="#E47F40"/><stop offset=".416" stop-color="#F15C04"/></linearGradient><linearGradient id="paint2_linear" x1="130.775" x2="173.999" y1="105.244" y2="105.244" gradientUnits="userSpaceOnUse"><stop stop-color="#8A8686"/><stop offset=".964" stop-color="#585656" stop-opacity=".224"/><stop offset="1" stop-color="#C4C4C4" stop-opacity=".24"/></linearGradient><linearGradient id="paint3_linear" x1="174" x2="130.78" y1="120.8" y2="119.751" gradientUnits="userSpaceOnUse"><stop stop-color="#E47F40"/><stop offset=".181" stop-color="#F15C04"/></linearGradient><linearGradient id="paint4_linear" x1="101.039" x2="76.276" y1="69.458" y2="69.458" gradientUnits="userSpaceOnUse"><stop stop-color="#E47F40"/><stop offset=".416" stop-color="#F15C04"/></linearGradient><linearGradient id="paint5_linear" x1="102.586" x2="140.173" y1="172.345" y2="172.345" gradientUnits="userSpaceOnUse"><stop stop-color="#8A8686"/><stop offset=".964" stop-color="#585656" stop-opacity=".224"/><stop offset="1" stop-color="#C4C4C4" stop-opacity=".24"/></linearGradient><linearGradient id="paint6_linear" x1="102.587" x2="66.881" y1="128.11" y2="127.327" gradientUnits="userSpaceOnUse"><stop stop-color="#E47F40"/><stop offset=".181" stop-color="#F15C04"/></linearGradient></defs></svg>