<svg xmlns="http://www.w3.org/2000/svg" width="471" height="452" fill="none" viewBox="0 0 471 452"><path fill="#F2F2F2" d="M339.159 57.8072C366.665 82.502 384.666 116.957 413.565 166.481C442.599 216.005 482.636 280.592 467.452 319.097C452.269 357.602 381.597 370.013 314.868 395.264C248.139 420.514 185.315 458.458 127.522 451.061C69.7295 443.664 16.9671 390.939 3.69705 332.626C-9.70749 274.172 16.2581 210.142 34.9621 151.828C53.5316 93.5209 64.8396 40.9063 97.3638 17.085C129.888 -6.73635 183.641 -1.61782 229.154 8.2833C274.661 18.3066 311.653 33.1186 339.159 57.8072Z"/><path fill="#FF9350" d="M128.338 192.82H332.426L351.48 363.214C353.004 376.844 342.337 388.77 328.623 388.77H122.38C108.143 388.77 97.3256 375.967 99.7025 361.93L128.338 192.82Z"/><path fill="#FF9350" d="M128.964 150.443C128.964 131.666 144.186 116.443 162.964 116.443H297.8C316.578 116.443 331.8 131.666 331.8 150.443V184.055H128.964V150.443Z"/><rect width="32.554" height="41.319" x="164.022" y="85.141" fill="#FF9350" rx="4"/><rect width="32.554" height="41.319" x="266.692" y="85.141" fill="#FF9350" rx="4"/><rect width="31.058" height="24.798" x="216.105" y="104.67" stroke="#FF9350" stroke-width="4" rx="5"/><path fill="#FF9350" stroke="#E37B3A" stroke-width="5" d="M165.27 291.97C165.27 288.38 168.18 285.47 171.77 285.47H288.994C292.584 285.47 295.494 288.38 295.494 291.97V341.582C295.494 345.172 292.584 348.082 288.994 348.082H171.77C168.18 348.082 165.27 345.172 165.27 341.582V291.97Z"/><path fill="#FF9350" stroke="#E37B3A" stroke-width="5" d="M165.27 291.97C165.27 288.38 168.18 285.47 171.77 285.47H288.994C292.584 285.47 295.494 288.38 295.494 291.97V306.763H165.27V291.97Z"/><path fill="#E37B3A" d="M214.105 192.82H234.138V218.122C234.138 221.436 231.452 224.122 228.138 224.122H220.105C216.791 224.122 214.105 221.436 214.105 218.122V192.82Z"/><path stroke="#E37B3A" stroke-linecap="round" stroke-width="4" d="M179.673 306.759V319.28"/></svg>