<svg xmlns="http://www.w3.org/2000/svg" width="332" height="324" fill="none" viewBox="0 0 332 324"><path fill="#F2F2F2" d="M284.198 77.0572C316.74 121.594 337.44 172.096 329.469 219.539C321.499 266.983 284.858 311.434 244.028 321.198C203.198 330.962 158.111 306.025 108.702 284.326C59.2931 262.627 5.76019 244.31 0.446556 216.309C-4.86708 188.308 38.3029 150.635 73.3703 105.456C108.438 60.2762 135.528 7.75567 171.289 0.81162C207.051 -6.13243 251.602 32.5199 284.198 77.0572Z"/><path fill="#E37B3A" fill-rule="evenodd" d="M297.2 151.988C304.533 147.754 304.533 137.169 297.2 132.935L233.695 96.2707C226.361 92.0368 217.195 97.3292 217.195 105.797V120.653H144.594C137.414 120.653 131.594 126.473 131.594 133.653V151.271C131.594 158.45 137.414 164.271 144.594 164.271H217.195V179.126C217.195 187.594 226.361 192.886 233.695 188.652L297.2 151.988Z" clip-rule="evenodd"/><path fill="#FF9350" fill-rule="evenodd" d="M44.4995 203.239C37.1662 199.005 37.1662 188.421 44.4995 184.187L108.004 147.522C115.338 143.288 124.504 148.581 124.504 157.048V171.904H197.105C204.285 171.904 210.105 177.724 210.105 184.904V202.522C210.105 209.702 204.285 215.522 197.105 215.522H124.504V230.378C124.504 238.845 115.338 244.138 108.004 239.904L44.4995 203.239Z" clip-rule="evenodd"/></svg>