<svg xmlns="http://www.w3.org/2000/svg" width="247" height="247" fill="none" viewBox="0 0 247 247"><g filter="url(#filter0_d)"><rect width="237" height="237" fill="#fff"/></g><path fill="url(#paint0_linear)" d="M77.9512 192H74V176.77L69.2832 178.232V175.02L77.5273 172.066H77.9512V192ZM92.6074 187.912C92.6074 187.429 92.3659 187.051 91.8828 186.777C91.4089 186.495 90.6432 186.244 89.5859 186.025C86.0677 185.287 84.3086 183.792 84.3086 181.541C84.3086 180.229 84.8509 179.135 85.9355 178.26C87.0293 177.376 88.4557 176.934 90.2148 176.934C92.0924 176.934 93.5918 177.376 94.7129 178.26C95.8431 179.144 96.4082 180.292 96.4082 181.705H92.457C92.457 181.14 92.2747 180.675 91.9102 180.311C91.5456 179.937 90.9759 179.75 90.2012 179.75C89.5358 179.75 89.0208 179.9 88.6562 180.201C88.2917 180.502 88.1094 180.885 88.1094 181.35C88.1094 181.787 88.3145 182.143 88.7246 182.416C89.1439 182.68 89.8457 182.913 90.8301 183.113C91.8145 183.305 92.6439 183.523 93.3184 183.77C95.4056 184.535 96.4492 185.861 96.4492 187.748C96.4492 189.097 95.8704 190.191 94.7129 191.029C93.5553 191.859 92.0605 192.273 90.2285 192.273C88.9889 192.273 87.8861 192.055 86.9199 191.617C85.9629 191.171 85.2109 190.564 84.6641 189.799C84.1172 189.024 83.8438 188.19 83.8438 187.297H87.5898C87.6263 187.999 87.8861 188.536 88.3691 188.91C88.8522 189.284 89.4993 189.471 90.3105 189.471C91.0671 189.471 91.6367 189.329 92.0195 189.047C92.4115 188.755 92.6074 188.377 92.6074 187.912ZM103.736 173.57V177.207H106.266V180.105H103.736V187.488C103.736 188.035 103.841 188.427 104.051 188.664C104.26 188.901 104.661 189.02 105.254 189.02C105.691 189.02 106.079 188.988 106.416 188.924V191.918C105.641 192.155 104.844 192.273 104.023 192.273C101.253 192.273 99.8398 190.874 99.7852 188.076V180.105H97.625V177.207H99.7852V173.57H103.736ZM122.562 181.062L126.705 172.094H131.189L124.654 184.781V192H120.484V184.781L113.949 172.094H118.447L122.562 181.062ZM138.654 192.273C136.485 192.273 134.717 191.608 133.35 190.277C131.992 188.947 131.312 187.174 131.312 184.959V184.576C131.312 183.09 131.6 181.764 132.174 180.598C132.748 179.422 133.559 178.52 134.607 177.891C135.665 177.253 136.868 176.934 138.217 176.934C140.24 176.934 141.831 177.572 142.988 178.848C144.155 180.124 144.738 181.933 144.738 184.275V185.889H135.318C135.446 186.855 135.829 187.63 136.467 188.213C137.114 188.796 137.93 189.088 138.914 189.088C140.436 189.088 141.626 188.536 142.482 187.434L144.424 189.607C143.831 190.446 143.029 191.102 142.018 191.576C141.006 192.041 139.885 192.273 138.654 192.273ZM138.203 180.133C137.419 180.133 136.781 180.397 136.289 180.926C135.806 181.454 135.496 182.211 135.359 183.195H140.855V182.881C140.837 182.006 140.6 181.331 140.145 180.857C139.689 180.374 139.042 180.133 138.203 180.133ZM155.566 192C155.384 191.645 155.252 191.202 155.17 190.674C154.213 191.74 152.969 192.273 151.438 192.273C149.988 192.273 148.785 191.854 147.828 191.016C146.88 190.177 146.406 189.12 146.406 187.844C146.406 186.276 146.985 185.073 148.143 184.234C149.309 183.396 150.991 182.972 153.188 182.963H155.006V182.115C155.006 181.432 154.828 180.885 154.473 180.475C154.126 180.064 153.575 179.859 152.818 179.859C152.153 179.859 151.629 180.019 151.246 180.338C150.872 180.657 150.686 181.094 150.686 181.65H146.734C146.734 180.794 146.999 180.001 147.527 179.271C148.056 178.542 148.803 177.973 149.77 177.562C150.736 177.143 151.82 176.934 153.023 176.934C154.846 176.934 156.291 177.394 157.357 178.314C158.433 179.226 158.971 180.511 158.971 182.17V188.582C158.98 189.986 159.176 191.048 159.559 191.768V192H155.566ZM152.299 189.252C152.882 189.252 153.42 189.124 153.912 188.869C154.404 188.605 154.769 188.254 155.006 187.816V185.273H153.529C151.551 185.273 150.499 185.957 150.371 187.324L150.357 187.557C150.357 188.049 150.531 188.454 150.877 188.773C151.223 189.092 151.697 189.252 152.299 189.252ZM170.318 180.912C169.781 180.839 169.307 180.803 168.896 180.803C167.402 180.803 166.422 181.309 165.957 182.32V192H162.006V177.207H165.738L165.848 178.971C166.641 177.613 167.739 176.934 169.143 176.934C169.58 176.934 169.99 176.993 170.373 177.111L170.318 180.912Z"/><path fill="url(#paint1_linear)" fill-opacity=".77" d="M173 135L79.7149 138.913L76 150.217L169.285 155L173 135Z"/><circle cx="101" cy="64" r="7" fill="#F37023"/><ellipse cx="97.5" cy="110.5" fill="#F37023" rx="2.5" ry="34.5"/><ellipse cx="103" cy="110.5" fill="#F37023" rx="3" ry="34.5"/><mask id="mask0" width="17" height="40" x="92" y="70" mask-type="alpha" maskUnits="userSpaceOnUse"><rect width="17" height="39.1" x="92" y="70.2" fill="url(#paint2_linear)"/></mask><g mask="url(#mask0)"><ellipse cx="100.5" cy="99.1" fill="url(#paint3_linear)" rx="8.5" ry="28.9"/></g><defs><filter id="filter0_d" width="247" height="247" x="0" y="0" color-interpolation-filters="sRGB" filterUnits="userSpaceOnUse"><feFlood flood-opacity="0" result="BackgroundImageFix"/><feColorMatrix in="SourceAlpha" type="matrix" values="0 0 0 0 0 0 0 0 0 0 0 0 0 0 0 0 0 0 127 0"/><feOffset dx="10" dy="10"/><feColorMatrix type="matrix" values="0 0 0 0 0.708333 0 0 0 0 0.619792 0 0 0 0 0.619792 0 0 0 0.25 0"/><feBlend in2="BackgroundImageFix" mode="normal" result="effect1_dropShadow"/><feBlend in="SourceGraphic" in2="effect1_dropShadow" mode="normal" result="shape"/></filter><linearGradient id="paint0_linear" x1="119" x2="119" y1="166" y2="199" gradientUnits="userSpaceOnUse"><stop stop-color="#E47F40"/><stop offset="1" stop-color="#CD5A2F"/></linearGradient><linearGradient id="paint1_linear" x1="124.5" x2="124.5" y1="135" y2="155" gradientUnits="userSpaceOnUse"><stop stop-color="#E47F40"/><stop offset=".701" stop-color="#F15C04"/></linearGradient><linearGradient id="paint2_linear" x1="100.5" x2="100.5" y1="70.2" y2="109.3" gradientUnits="userSpaceOnUse"><stop stop-color="#E47F40"/><stop offset=".701" stop-color="#F15C04"/></linearGradient><linearGradient id="paint3_linear" x1="100.5" x2="100.5" y1="70.2" y2="128" gradientUnits="userSpaceOnUse"><stop stop-color="#E47F40"/><stop offset=".701" stop-color="#F15C04"/></linearGradient></defs></svg>