<svg xmlns="http://www.w3.org/2000/svg" width="341" height="328" fill="none" viewBox="0 0 341 328"><path fill="#F2F2F2" d="M245.662 41.8714C265.585 59.7585 278.624 84.7155 299.557 120.587C320.587 156.459 349.586 203.24 338.589 231.131C327.591 259.021 276.402 268.011 228.068 286.301C179.734 304.59 134.229 332.074 92.3681 326.716C50.507 321.358 12.2898 283.168 2.67788 240.93C-7.0314 198.591 11.7762 152.211 25.324 109.973C38.7744 67.7398 46.9651 29.6296 70.5233 12.3751C94.0815 -4.87933 133.016 -1.17183 165.982 5.99983C198.944 13.26 225.739 23.9887 245.662 41.8714Z"/><rect width="88.692" height="13.043" x="221.242" y="222.353" fill="#F08949" transform="rotate(-35 221.242 222.353)"/><rect width="7.826" height="13.043" fill="#C56C35" transform="matrix(-0.819152 0.573576 0.573576 0.819152 227.651 217.865)"/><path fill="#C56C35" d="M308.318 169.342L293.894 171.481L301.375 182.166L308.318 169.342Z"/><rect width="88.692" height="13.043" x="221" y="252.958" fill="#F08949" transform="rotate(-35 221 252.958)"/><rect width="7.826" height="13.043" fill="#C56C35" transform="matrix(-0.819152 0.573576 0.573576 0.819152 227.411 248.469)"/><path fill="#C56C35" d="M308.077 199.947L293.652 202.086L301.133 212.77L308.077 199.947Z"/><path fill="#FF9350" d="M92.23 181.103V145.058L153.088 170.653L211.671 145.058V181.41C211.671 184.684 210.208 187.79 207.479 189.598C199.269 195.036 179.538 205.916 153.088 205.916C126.65 205.916 105.647 195.047 96.79 189.606C93.8515 187.801 92.23 184.551 92.23 181.103Z"/><path fill="#FF9350" d="M150.153 70.4283C151.664 69.7796 153.375 69.7796 154.887 70.4283L252.292 112.244C257.136 114.323 257.136 121.191 252.292 123.271L154.887 165.086C153.375 165.735 151.664 165.735 150.153 165.086L52.7473 123.271C47.9032 121.191 47.9032 114.323 52.7473 112.244L150.153 70.4283Z"/><path fill="#FF9350" d="M53.5582 166.672V119.464H58.1083V166.672L62.6988 178.148C63.2243 179.462 62.2568 180.891 60.8419 180.891H50.3668C48.9227 180.891 47.9546 179.407 48.5362 178.085L53.5582 166.672Z"/></svg>