<svg xmlns="http://www.w3.org/2000/svg" width="446" height="409" fill="none" viewBox="0 0 446 409"><path fill="#F2F2F2" d="M321.148 52.3079C347.194 74.6534 364.239 105.831 391.604 150.644C419.096 195.456 457.006 253.898 442.629 288.74C428.252 323.582 361.333 334.813 298.148 357.661C234.962 380.51 175.474 414.843 120.751 408.15C66.0266 401.457 16.0661 353.748 3.50072 300.982C-9.19199 248.089 15.3947 190.15 33.1055 137.384C50.6889 84.624 61.3964 37.0148 92.1934 15.4596C122.99 -6.0955 173.889 -1.46391 216.985 7.49529C260.075 16.565 295.103 29.9679 321.148 52.3079Z"/><path fill="#FF9350" d="M299.104 137.511C299.104 191.918 255.676 260.393 202.105 260.393C148.533 260.393 105.105 191.918 105.105 137.511C105.105 83.105 148.533 39 202.105 39C255.676 39 299.104 83.105 299.104 137.511Z"/><path fill="#FF9350" d="M163.998 237.358C163.998 234.044 166.684 231.358 169.998 231.358H234.212C237.525 231.358 240.212 234.044 240.212 237.358V294.317C240.212 297.63 237.525 300.317 234.212 300.317H169.998C166.684 300.317 163.998 297.63 163.998 294.317V237.358Z"/><path fill="#FF9350" d="M239.665 276.322C241.951 253.795 252.597 238.977 264.98 228.056C275.586 218.702 276.573 201.931 265.138 193.61L203.917 149.058C187.263 136.939 165.928 154.612 175.129 173.039C206.16 235.193 238.058 292.159 239.665 276.322Z"/><path fill="#FF9350" d="M164 282C161.64 259.257 151.338 239.772 139.126 225.348C129.748 214.272 129.587 195.787 141.598 187.642L204.144 145.23C220.973 133.818 241.761 151.718 232.68 169.912C200.161 235.068 165.669 298.088 164 282Z"/><rect width="55.428" height="14.518" x="174.391" y="303.946" fill="#FF9350" rx="7.259"/><rect width="55.428" height="14.518" x="174.391" y="322.093" fill="#FF9350" rx="7.259"/><path stroke="#fff" stroke-width="2" d="M185.688 260.393V140.911C185.688 139.279 183.838 138.334 182.515 139.291L168.997 149.079C167.427 150.216 168.231 152.699 170.17 152.699H237.299C239.257 152.699 240.049 150.176 238.441 149.057L224.243 139.18C222.917 138.257 221.101 139.206 221.101 140.822V260.393"/></svg>