<svg xmlns="http://www.w3.org/2000/svg" width="400" height="384" fill="none" viewBox="0 0 400 384"><path fill="#F2F2F2" d="M288.134 49.1106C311.502 70.0902 326.795 99.362 351.347 141.435C376.013 183.509 410.026 238.379 397.127 271.091C384.228 303.803 324.188 314.348 267.498 335.799C210.808 357.251 157.436 389.486 108.337 383.202C59.2391 376.918 14.4145 332.125 3.14085 282.585C-8.24706 232.925 13.8121 178.527 29.7022 128.987C45.4781 79.4514 55.0849 34.7523 82.716 14.5147C110.347 -5.72292 156.013 -1.37443 194.679 7.03714C233.34 15.5525 264.767 28.1361 288.134 49.1106Z"/><path fill="#FF9350" d="M55.2197 192C55.2197 216.699 62.5441 240.845 76.2666 261.382C89.9891 281.919 109.493 297.926 132.313 307.378C155.133 316.83 180.243 319.303 204.468 314.485C228.693 309.666 250.946 297.772 268.411 280.306C285.877 262.841 297.771 240.589 302.589 216.363C307.408 192.138 304.935 167.028 295.483 144.208C286.031 121.389 270.024 101.884 249.487 88.1617C228.949 74.4392 204.804 67.1148 180.104 67.1148C163.704 67.1148 147.465 70.3451 132.313 76.6211C117.161 82.8972 103.394 92.0961 91.7976 103.693C68.3772 127.113 55.2197 158.878 55.2197 192ZM167.616 129.557C167.616 126.245 168.932 123.069 171.274 120.727C173.616 118.384 176.792 117.069 180.104 117.069C183.417 117.069 186.593 118.384 188.935 120.727C191.277 123.069 192.593 126.245 192.593 129.557V184.787L218.789 199.915C221.657 201.572 223.748 204.299 224.605 207.498C225.462 210.697 225.013 214.105 223.357 216.973C221.702 219.841 218.975 221.935 215.777 222.793C212.578 223.651 209.17 223.204 206.301 221.55L173.86 202.817C171.965 201.716 170.392 200.139 169.296 198.241C168.201 196.343 167.621 194.191 167.616 192V129.557Z"/></svg>