<svg xmlns="http://www.w3.org/2000/svg" width="44" height="44" fill="none" viewBox="0 0 44 44"><path fill="#fff" d="M22 0C9.85156 0 0 9.85156 0 22C0 34.1484 9.85156 44 22 44C34.1484 44 44 34.1484 44 22C44 9.85156 34.1484 0 22 0ZM18 8H35L33.9805 8.87891C33.9805 8.92188 34 8.96094 34 9V14.2773C34.6016 14.6211 35 15.2617 35 16V22C35 23.1016 34.1016 24 33 24C31.8984 24 31 23.1016 31 22V16C31 15.2617 31.3984 14.6211 32 14.2773V10.5703L28.4102 13.6484C28.7617 14.3516 29 15.1992 29 16.2383C29 18.9609 27.4805 20.3086 25.9727 21.5078C25.5 21.9883 24.9492 22.5117 24.9492 23.3203C24.9492 24.1211 25.5 24.5703 25.9023 24.8906L27.1914 25.918C28.7813 27.2812 30.2227 28.5312 30.2227 31.0586C30.2227 34.5117 26.9297 38 20.7305 38C15.5 38 12.9805 35.4688 12.9805 32.75C12.9805 31.4297 13.6289 29.5586 15.7617 28.2695C17.9883 26.8789 21.0195 26.6914 22.6523 26.582C22.1406 25.9219 21.5625 25.2305 21.5625 24.082C21.5625 23.4688 21.75 23.1016 21.9297 22.6523C21.5312 22.6914 21.1289 22.7305 20.7695 22.7305C16.9688 22.7305 14.8008 19.8516 14.7812 17H8L18 8ZM21.2695 11.2383C20.3398 11.2383 19.3281 11.7109 18.75 12.4609C18.1406 13.2227 17.9492 14.2109 17.9492 15.1602C17.9492 17.6211 19.3711 21.6992 22.4609 21.6992C23.3711 21.6992 24.3398 21.2617 24.918 20.668C25.7383 19.8203 25.8203 18.6484 25.8203 18C25.8203 15.3516 24.2695 11.2383 21.2695 11.2383ZM23.0391 27.6094C22.7188 27.6094 20.7695 27.6797 19.2578 28.1992C18.4609 28.5 16.1602 29.3711 16.1602 31.9805C16.1602 34.5898 18.6406 36.4609 22.5 36.4609C25.9688 36.4609 27.8008 34.7617 27.8008 32.4883C27.8008 30.6211 26.6211 29.6289 23.8789 27.6484C23.5898 27.6094 23.4102 27.6094 23.0391 27.6094Z"/></svg>