<svg xmlns="http://www.w3.org/2000/svg" xmlns:xlink="http://www.w3.org/1999/xlink" width="288" height="288" viewBox="0 0 50 50"><g id="surface53264"><path style="stroke:none;fill-rule:nonzero;fill:#fff;fill-opacity:1" d="M 25 3 C 12.851562 3 3 12.851562 3 25 C 3 37.148438 12.851562 47 25 47 C 37.148438 47 47 37.148438 47 25 C 47 12.851562 37.148438 3 25 3 Z M 21 11 L 38 11 L 36.980469 11.878906 C 36.980469 11.921875 37 11.960938 37 12 L 37 17.277344 C 37.601562 17.621094 38 18.261719 38 19 L 38 25 C 38 26.101562 37.101562 27 36 27 C 34.898438 27 34 26.101562 34 25 L 34 19 C 34 18.261719 34.398438 17.621094 35 17.277344 L 35 13.570312 L 31.410156 16.648438 C 31.761719 17.351562 32 18.199219 32 19.238281 C 32 21.960938 30.480469 23.308594 28.972656 24.507812 C 28.5 24.988281 27.949219 25.511719 27.949219 26.320312 C 27.949219 27.121094 28.5 27.570312 28.902344 27.890625 L 30.191406 28.917969 C 31.78125 30.28125 33.222656 31.53125 33.222656 34.058594 C 33.222656 37.511719 29.929688 41 23.730469 41 C 18.5 41 15.980469 38.46875 15.980469 35.75 C 15.980469 34.429688 16.628906 32.558594 18.761719 31.269531 C 20.988281 29.878906 24.019531 29.691406 25.652344 29.582031 C 25.140625 28.921875 24.5625 28.230469 24.5625 27.082031 C 24.5625 26.46875 24.75 26.101562 24.929688 25.652344 C 24.53125 25.691406 24.128906 25.730469 23.769531 25.730469 C 19.96875 25.730469 17.800781 22.851562 17.78125 20 L 11 20 Z M 24.269531 14.238281 C 23.339844 14.238281 22.328125 14.710938 21.75 15.460938 C 21.140625 16.222656 20.949219 17.210938 20.949219 18.160156 C 20.949219 20.621094 22.371094 24.699219 25.460938 24.699219 C 26.371094 24.699219 27.339844 24.261719 27.917969 23.667969 C 28.738281 22.820312 28.820312 21.648438 28.820312 21 C 28.820312 18.351562 27.269531 14.238281 24.269531 14.238281 Z M 26.039062 30.609375 C 25.71875 30.609375 23.769531 30.679688 22.257812 31.199219 C 21.460938 31.5 19.160156 32.371094 19.160156 34.980469 C 19.160156 37.589844 21.640625 39.460938 25.5 39.460938 C 28.96875 39.460938 30.800781 37.761719 30.800781 35.488281 C 30.800781 33.621094 29.621094 32.628906 26.878906 30.648438 C 26.589844 30.609375 26.410156 30.609375 26.039062 30.609375 Z M 26.039062 30.609375"/></g></svg>