<svg xmlns="http://www.w3.org/2000/svg" width="300" height="285" fill="none" viewBox="0 0 53 69"><path fill="#E47F40" d="M52.0437 58.3051L34.4264 26.9392V8.39563C35.3191 8.06593 36.0746 7.40248 36.558 6.52384C37.0414 5.64521 37.2212 4.60866 37.0651 3.59945C36.909 2.59023 36.4274 1.67413 35.7062 1.01486C34.985 0.355596 34.0712 -0.00386524 33.1282 0.000720907H19.8821C18.9344 -0.0180788 18.0117 0.331351 17.2806 0.98595C16.5494 1.64055 16.058 2.5572 15.8949 3.57048C15.7318 4.58377 15.9079 5.62694 16.3912 6.51174C16.8746 7.39654 17.6335 8.0647 18.531 8.39563V26.9392L0.94012 58.3051C0.342865 59.3744 0.0186525 60.5969 0.000781039 61.8471C-0.0170905 63.0973 0.272024 64.3301 0.838429 65.419C1.40483 66.5078 2.22811 67.4134 3.22371 68.0427C4.2193 68.6721 5.35132 69.0025 6.5035 69H46.5069C47.6608 69.0005 48.794 68.6671 49.7897 68.0342C50.7854 67.4013 51.6076 66.4918 52.1717 65.3994C52.7358 64.3069 53.0213 63.071 52.9988 61.819C52.9763 60.567 52.6466 59.3441 52.0437 58.2764V58.3051ZM23.8295 27.3417V8.62563H29.1279V27.3129C29.1289 28.1043 29.3305 28.8801 29.7107 29.5554L32.36 34.5004H20.4914L23.1407 29.5554C23.5536 28.9003 23.7919 28.1343 23.8295 27.3417Z"/></svg>