<svg xmlns="http://www.w3.org/2000/svg" width="288" height="288" fill="none" viewBox="0 0 288 288"><g clip-path="url(#clip0)"><path fill="#fff" d="M144 0.000244141C64.4703 0.000244141 0 64.4706 0 144C0 223.529 64.4703 288 144 288C223.529 288 288 223.529 288 144C287.999 64.4706 223.528 0.000244141 144 0.000244141ZM105.58 213.617H73.9637V111.473H105.58V213.617ZM89.6213 98.0965C79.2957 98.0965 70.925 89.6575 70.925 79.2491C70.925 68.8396 79.2969 60.4012 89.6213 60.4012C99.9458 60.4012 108.317 68.8396 108.317 79.2491C108.317 89.658 99.9464 98.0965 89.6213 98.0965ZM224.063 213.617H192.6V160C192.6 145.294 187.014 137.086 175.386 137.086C162.731 137.086 156.119 145.635 156.119 160V213.617H125.796V111.473H156.119V125.23C156.119 125.23 165.241 108.357 186.9 108.357C208.559 108.357 224.064 121.582 224.064 148.941L224.063 213.617Z"/></g><defs><clipPath id="clip0"><rect width="288" height="288" fill="#fff"/></clipPath></defs></svg>