<svg xmlns="http://www.w3.org/2000/svg" width="471" height="452" fill="none" viewBox="0 0 471 452"><path fill="#F2F2F2" d="M339.159 57.8072C366.665 82.502 384.666 116.957 413.565 166.481C442.599 216.005 482.636 280.592 467.452 319.097C452.269 357.602 381.597 370.013 314.868 395.264C248.139 420.514 185.315 458.458 127.522 451.061C69.7295 443.664 16.9671 390.939 3.69705 332.626C-9.70749 274.172 16.2581 210.142 34.9621 151.828C53.5316 93.5209 64.8396 40.9063 97.3638 17.085C129.888 -6.73635 183.641 -1.61782 229.154 8.2833C274.661 18.3066 311.653 33.1186 339.159 57.8072Z"/><path fill="#7C7C7C" fill-rule="evenodd" d="M232.117 152.488L224.137 165.241L216.813 152.488H216.892C215.773 150.898 215.113 148.943 215.113 146.828C215.113 141.502 219.3 137.183 224.466 137.183C229.631 137.183 233.818 141.502 233.818 146.828C233.818 148.943 233.159 150.898 232.04 152.488H232.117ZM224.611 140.584C221.948 140.584 219.789 142.743 219.789 145.407C219.789 148.07 221.948 150.229 224.611 150.229C227.275 150.229 229.434 148.07 229.434 145.407C229.434 142.743 227.275 140.584 224.611 140.584Z" clip-rule="evenodd"/><path stroke="#fff" stroke-width="10" d="M136.133 181.375L144.557 172.001L181.531 178.218M136.133 181.375L130.516 172.001L118.347 165.908L81.8412 159.815M136.133 181.375L131.417 219.81M336.917 204.343L355.17 133.567M336.917 204.343L226.93 185.851M336.917 204.343L327.322 259.182M317.728 314.022L254.544 311.217M317.728 314.022L327.322 259.182M317.728 314.022L339.257 316.834L343.001 290.117H355.17L359.382 269.963M81.8412 159.815L77.6289 204.343L112.263 210.436L131.417 219.81M81.8412 159.815L87.9255 80.133M131.417 219.81L116.007 345.426L118.347 350.582L203.061 314.022L222.718 309.803L254.544 311.217M181.531 178.218L191.828 119.036H214.761L217.57 97.4754M181.531 178.218L226.93 185.851M226.93 185.851L214.761 285.43M254.544 311.217L262.5 254.964M327.322 259.182L359.382 269.963M359.382 269.963L364.531 215.123L370.615 181.375"/><path fill="#FFB283" d="M219.113 192.649L144.064 185.182L133.809 286.453L209.324 292.986L219.113 192.649Z"/><path fill="#FFB283" d="M161.312 103.979L164.109 87.6454L188.814 92.3123L186.017 109.113L161.312 103.979Z"/><path fill="#FFB283" d="M204.197 132.914H192.543L186.017 170.715L198.137 173.049L204.197 132.914Z"/></svg>