<svg xmlns="http://www.w3.org/2000/svg" width="444" height="424" fill="none" viewBox="0 0 444 424"><path fill="#F2F2F2" d="M319.707 54.2262C345.636 77.3913 362.605 109.712 389.847 156.168C417.216 202.624 454.956 263.21 440.643 299.33C426.331 335.449 359.712 347.092 296.81 370.778C233.908 394.465 174.687 430.058 120.209 423.119C65.7304 416.18 15.994 366.722 3.48502 312.021C-9.15075 257.188 15.3256 197.124 32.9569 142.423C50.4615 87.7276 61.1209 38.3723 91.7798 16.0266C122.439 -6.31905 173.108 -1.5176 216.011 7.77017C258.908 17.1725 293.779 31.067 319.707 54.2262Z"/><path stroke="#FF9350" stroke-width="17" d="M336.859 210.124C336.859 281.647 279.33 339.518 208.5 339.518C137.67 339.518 80.1416 281.647 80.1416 210.124C80.1416 138.601 137.67 80.7301 208.5 80.7301C279.33 80.7301 336.859 138.601 336.859 210.124Z"/><path stroke="#FF9350" stroke-width="17" d="M302.643 211.826C302.643 263.505 260.533 305.47 208.499 305.47C156.466 305.47 114.355 263.505 114.355 211.826C114.355 160.147 156.466 118.183 208.499 118.183C260.533 118.183 302.643 160.147 302.643 211.826Z"/><path fill="#FF9350" stroke="#FF9350" stroke-width="6" d="M273.929 211.826C273.929 247.764 244.649 276.922 208.5 276.922C172.35 276.922 143.07 247.764 143.07 211.826C143.07 175.889 172.35 146.731 208.5 146.731C244.649 146.731 273.929 175.889 273.929 211.826Z"/><g filter="url(#filter0_d)"><line x2="115.19" y1="-7" y2="-7" stroke="#FF9350" stroke-width="14" transform="matrix(0.708832 -0.705377 0.708832 0.705377 214.151 220.251)"/><path fill="#FF9350" d="M272.795 127.009C272.855 126.579 273.055 126.179 273.364 125.872L310.235 89.1806C311.594 87.8279 313.902 88.9701 313.638 90.865L309.353 121.66C309.294 122.091 309.094 122.49 308.785 122.797L271.914 159.489C270.555 160.842 268.247 159.699 268.51 157.805L272.795 127.009Z"/><path fill="#FF9350" d="M266.112 155.42C264.207 155.683 263.06 153.386 264.419 152.033L301.29 115.342C301.599 115.034 302 114.836 302.433 114.776L333.379 110.512C335.283 110.25 336.431 112.547 335.072 113.899L298.2 150.591C297.892 150.898 297.49 151.097 297.058 151.156L266.112 155.42Z"/></g><defs><filter id="filter0_d" width="139.438" height="139.661" x="200.228" y="88.59" color-interpolation-filters="sRGB" filterUnits="userSpaceOnUse"><feFlood flood-opacity="0" result="BackgroundImageFix"/><feColorMatrix in="SourceAlpha" type="matrix" values="0 0 0 0 0 0 0 0 0 0 0 0 0 0 0 0 0 0 127 0"/><feOffset dy="4"/><feGaussianBlur stdDeviation="2"/><feColorMatrix type="matrix" values="0 0 0 0 0 0 0 0 0 0 0 0 0 0 0 0 0 0 0.25 0"/><feBlend in2="BackgroundImageFix" mode="normal" result="effect1_dropShadow"/><feBlend in="SourceGraphic" in2="effect1_dropShadow" mode="normal" result="shape"/></filter></defs></svg>