<svg xmlns="http://www.w3.org/2000/svg" width="128" height="128" fill="none" viewBox="0 0 128 128"><g clip-path="url(#clip0_3333_3993)"><path fill="#88271A" d="M52.0001 0.463854C-14.6643 12.2432 -17.2166 110.4 48.0001 126.625C56.5008 128.74 67.3427 129.066 76.0001 127.536C142.664 115.757 145.217 17.5997 80.0001 1.37512C71.4994 -0.73969 60.6576 -1.06589 52.0001 0.463854Z"/><path fill="#D7E9A4" d="M37 23V24H41L37 23Z"/><path fill="#BFDC70" d="M41 23L42 24L41 23ZM35 24L36 25L35 24Z"/><path fill="#FDFEFB" d="M36.6033 25.0324C32.501 28.169 37.1471 34.8433 41.682 31.9568C46.5325 28.8694 40.9516 21.7076 36.6033 25.0324Z"/><path fill="#D7E9A4" d="M42 24L43 25L42 24ZM43 25L44 26L43 25ZM34 26V31H35L34 26ZM44.3333 27.6667L44.6667 28.3333L44.3333 27.6667Z"/><path fill="#BFDC70" d="M44 29L45 30L44 29Z"/><path fill="#D7E9A4" d="M43 31L44 32L43 31ZM36 32L37 33L36 32ZM42 32L43 33L42 32Z"/><path fill="#BFDC70" d="M37 33L38 34L37 33Z"/><path fill="#D7E9A4" d="M38 33V34H41L38 33Z"/><path fill="#BFDC70" d="M35 39L36 40L35 39Z"/><path fill="#D7E9A4" d="M35 92.9999H36V39.9999H43C34.5609 36.4972 35 45.1425 35 50.9999V92.9999Z"/><path fill="#BFDC70" d="M54 39L55 40L54 39Z"/><path fill="#D7E9A4" d="M54.0001 93.0001H55.0001V40.0001H79.0001C74.938 38.2956 58.0449 36.7942 55.0279 40.6035C52.5767 43.6984 54.0001 51.2688 54.0001 55.0001V93.0001Z"/><path fill="#BFDC70" d="M79.6667 39.3333L80.3333 39.6666L79.6667 39.3333Z"/><path fill="#FDFEFB" d="M36 40V93H43V40H36Z"/><path fill="#BFDC70" d="M43 40V93H44V57L43 40Z"/><path fill="#FDFEFB" d="M55 40.0001V93.0001C66.9445 93.0001 81.4284 95.2608 91.9853 88.4407C107.901 78.159 107.059 51.5714 90 42.8357C79.9252 37.6765 65.9827 40.0001 55 40.0001Z"/><path fill="#D7E9A4" d="M83.6667 40.3333L84.3333 40.6666L83.6667 40.3333ZM87 41L88 42L87 41ZM89 42L90 43L89 42ZM91 43L92 44L91 43Z"/><path fill="#BFDC70" d="M93 44L94 45L93 44ZM94 45L95 46L94 45Z"/><path fill="#D7E9A4" d="M62 46V47H78L62 46ZM95 46L96 47L95 46Z"/><path fill="#BFDC70" d="M62 47V86H63C63 74.8277 66.3111 57.274 62 47Z"/><path fill="#88271A" d="M63 47.0001V86.0001C70.8257 86.0001 80.2108 87.0819 86.9961 82.3473C97.4779 75.0334 98.3189 57.0729 86.9853 50.0055C80.0698 45.6931 70.7632 47.0001 63 47.0001Z"/><path fill="#BFDC70" d="M80 47L81 48L80 47Z"/><path fill="#D7E9A4" d="M81 47L82 48L81 47ZM96 47L97 48L96 47ZM84 48L85 49L84 48Z"/><path fill="#BFDC70" d="M97 48L98 49L97 48Z"/><path fill="#D7E9A4" d="M86 49L87 50L86 49Z"/><path fill="#BFDC70" d="M98 49L99 50L98 49Z"/><path fill="#D7E9A4" d="M89 51L90 52L89 51ZM99 51L100 52L99 51ZM90 52L91 53L90 52Z"/><path fill="#BFDC70" d="M100 52L101 53L100 52Z"/><path fill="#D7E9A4" d="M91 53L92 54L91 53Z"/><path fill="#BFDC70" d="M101 54L102 55L101 54ZM92 55L93 56L92 55Z"/><path fill="#D7E9A4" d="M101 55L102 56L101 55ZM93 56L94 57L93 56ZM102 57L103 58L102 57ZM94 58L95 59L94 58Z"/><path fill="#BFDC70" d="M94 59L95 60L94 59ZM103 60L104 61L103 60Z"/><path fill="#D7E9A4" d="M103 61V66H104L103 61ZM95.3333 62.6667L95.6667 63.3333L95.3333 62.6667Z"/><path fill="#BFDC70" d="M95 64V68H96L95 64Z"/><path fill="#D7E9A4" d="M103 67V71H104L103 67ZM95.3333 68.6667L95.6667 69.3333L95.3333 68.6667Z"/><path fill="#BFDC70" d="M103.333 71.6667L103.667 72.3333L103.333 71.6667ZM94 72L95 73L94 72Z"/><path fill="#D7E9A4" d="M94 73L95 74L94 73ZM102 74L103 75L102 74ZM93 75L94 76L93 75Z"/><path fill="#BFDC70" d="M102 75L103 76L102 75Z"/><path fill="#D7E9A4" d="M92 77L93 78L92 77ZM101 77L102 78L101 77ZM91 78L92 79L91 78Z"/><path fill="#BFDC70" d="M90 79L91 80L90 79Z"/><path fill="#D7E9A4" d="M100 79L101 80L100 79Z"/><path fill="#BFDC70" d="M89 80L90 81L89 80ZM88 81L89 82L88 81ZM99 81L100 82L99 81Z"/><path fill="#D7E9A4" d="M87 82L88 83L87 82ZM98 82L99 83L98 82Z"/><path fill="#BFDC70" d="M85 83L86 84L85 83Z"/><path fill="#D7E9A4" d="M97 83L98 84L97 83ZM83 84L84 85L83 84Z"/><path fill="#BFDC70" d="M78.6667 85.3333L79.3333 85.6667L78.6667 85.3333Z"/><path fill="#D7E9A4" d="M80 85L81 86L80 85ZM94 86L95 87L94 86ZM93 87L94 88L93 87Z"/><path fill="#BFDC70" d="M92 88L93 89L92 88Z"/><path fill="#D7E9A4" d="M90 89L91 90L90 89ZM88 90L89 91L88 90ZM85 91L86 92L85 91Z"/><path fill="#BFDC70" d="M86 91L87 92L86 91Z"/><path fill="#D7E9A4" d="M81.6667 92.3333L82.3333 92.6667L81.6667 92.3333Z"/><path fill="#BFDC70" d="M83 92L84 93L83 92ZM35 93V94H43L35 93ZM54 93V94H78L54 93Z"/></g><defs><clipPath id="clip0_3333_3993"><rect width="128" height="128" fill="#fff"/></clipPath></defs></svg>