<svg xmlns="http://www.w3.org/2000/svg" xmlns:svgjs="http://svgjs.com/svgjs" xmlns:xlink="http://www.w3.org/1999/xlink" id="SvgjsSvg1018" width="288" height="288" version="1.1"><g id="SvgjsG1020" transform="matrix(1,0,0,1,0,0)"><svg xmlns="http://www.w3.org/2000/svg" width="288" height="288" viewBox="0 0 32 32"><path fill="#fff" d="M16 0C7.164 0 0 7.164 0 16s7.164 16 16 16 16-7.164 16-16S24.836 0 16 0zm8.44 10.857c-.074.124-.454.559-.86.956-.688.683-.725.757-.725 1.329 0 .881-.417 2.72-.835 3.725-.774 1.888-2.432 3.838-4.091 4.82-2.334 1.378-5.442 1.727-8.059.919-.872-.274-2.371-.969-2.371-1.093 0-.038.454-.087 1.008-.1a6.876 6.876 0 0 0 3.292-.919l.663-.398-.762-.26c-1.081-.373-2.051-1.23-2.297-2.037-.074-.261-.049-.274.638-.274l.712-.012-.602-.286c-.713-.361-1.364-.968-1.683-1.59-.233-.447-.528-1.577-.442-1.664.025-.037.283.038.577.137.847.311.958.236.467-.286-.921-.944-1.204-2.347-.762-3.676l.209-.596.811.807c1.659 1.627 3.612 2.596 5.847 2.881l.614.074-.037-.609c-.11-1.577.86-3.018 2.396-3.577.565-.199 1.524-.223 2.15-.05.246.074.712.323 1.044.546l.602.41.663-.212c.369-.111.86-.298 1.081-.422.209-.112.393-.174.393-.137 0 .211-.455.932-.835 1.329-.517.559-.369.609.675.236.629-.207.642-.207.519.029z" class="color000 svgShape"/></svg></g></svg>