<svg xmlns="http://www.w3.org/2000/svg" width="600" height="600" fill="none" viewBox="0 0 600 600"><circle cx="300" cy="300" r="300" fill="#88271A"/><g clip-path="url(#clip0_3333_3988)"><path fill="#fff" d="M304.403 101.703L305.391 102.661L304.403 101.703ZM297.488 106.491L302.427 103.618L297.488 106.491Z"/><path fill="#fff" d="M297.488 109.364H298.476C301.805 103.191 309.412 103.479 311.966 110.36C315.026 118.606 314.508 133.505 312.327 141.922C310.462 149.119 302.497 151.826 298.476 144.795C297.512 149.296 303.265 151.909 307.352 150.49C311.979 148.883 313.621 144.356 314.11 140.007C315.037 131.774 316.596 117.072 313.285 109.379C310.002 101.753 299.991 101.121 297.488 109.364Z"/><path fill="#fff" d="M306.379 102.661V103.618L310.33 104.576V103.618L306.379 102.661Z"/><path fill="#fff" d="M304.407 104.455C300.349 104.656 298.198 107.667 297.674 111.283C296.301 120.767 296.284 133.384 297.674 142.866C298.256 146.828 301.007 149.734 305.391 149.388C310.232 149.006 311.973 145.036 312.706 140.964C314.107 133.186 317.321 103.816 304.407 104.455Z"/><path fill="#fff" d="M310.33 104.576L311.318 105.534L310.33 104.576Z"/><path fill="#88271A" d="M304.407 106.411C295 107.177 297.529 135.202 298.622 141.918C299.146 145.139 301.659 148.33 305.387 147.991C309.184 147.646 310.964 144.237 311.26 140.963C312.056 132.15 312.598 120.978 311.172 112.241C310.634 108.949 308.122 106.109 304.407 106.411Z"/><path fill="#fff" d="M311.318 105.533L312.306 106.491L311.318 105.533ZM312.635 107.129L312.965 107.768L312.635 107.129ZM296.5 107.449V146.71H297.488L296.504 119.897L296.5 107.449ZM313.294 108.406V145.752H314.282C316.648 137.989 318.39 114.927 313.294 108.406Z"/><path fill="#fff" d="M296.5 113.194V142.879H297.488L296.5 113.194Z"/><path fill="#fff" d="M97.9392 131.388V132.346H101.891L97.9392 131.388ZM93.9878 135.219L96.9514 132.346L93.9878 135.219Z"/><path fill="#fff" d="M97.9393 140.964V140.007C92.9567 133.314 106.873 133.314 101.891 140.007C106.625 140.116 105.672 134.275 101.833 132.942C95.7191 130.821 92.4885 137.864 97.9393 140.964Z"/><path fill="#fff" d="M102.879 132.346L105.842 135.219L102.879 132.346Z"/><path fill="#fff" d="M98.1001 134.343C93.4739 136.612 97.4802 141.86 101.664 140.211C106.408 138.343 102.238 132.314 98.1001 134.343Z"/><path fill="#fff" d="M457.522 136.176C447.288 131.708 451.982 145.723 457.522 136.176V136.176Z"/><path fill="#88271A" d="M96.9514 136.176C98.5871 140.138 101.243 140.138 102.879 136.176H96.9514Z"/><path fill="#fff" d="M450.607 136.176L452.582 140.007H453.57L455.546 136.176H450.607Z"/><path fill="#fff" d="M93 136.176L93.9879 137.134L93 136.176ZM106.171 136.815L106.501 137.453L106.171 136.815Z"/><path fill="#fff" d="M451.595 136.176L452.583 138.092H453.57L454.558 136.176H451.595Z"/><path fill="#fff" d="M94.3171 138.73L94.6464 139.368L94.3171 138.73ZM104.854 139.049L105.842 140.007L104.854 139.049ZM94.9757 140.007L95.9636 140.964L94.9757 140.007ZM103.866 140.007L104.854 140.964L103.866 140.007ZM96.9514 140.964V141.922H102.879L96.9514 140.964ZM312.635 146.391L312.965 147.029L312.635 146.391ZM297.488 147.667L298.476 148.625L297.488 147.667ZM311.318 147.667L312.306 148.625L311.318 147.667ZM298.476 148.625L299.464 149.583L298.476 148.625ZM310.33 148.625L311.318 149.583L310.33 148.625ZM300.451 149.583L303.415 151.498V150.54L300.451 149.583ZM308.354 149.583L306.379 150.54V151.498L308.354 149.583ZM426.898 162.989H425.91C422.995 167.733 418.83 171.451 414.778 175.293C411.965 177.959 409.008 180.475 406.152 183.097C401.216 187.63 386.36 191.307 389.173 179.268C390.237 174.712 395.02 170.924 398.251 167.777C405.41 160.803 415.825 145.746 425.91 156.286C426.055 150.479 417.038 150.035 413.068 152.319C405.453 156.7 389.509 170.566 387.791 179.268C386.391 186.364 394.657 191.983 401.214 188.817C409.392 184.869 423.89 171.457 426.898 162.989Z"/><path fill="#fff" d="M416.032 152.138C407.451 154.488 392.843 169.478 389.451 177.353C386.817 183.468 392.513 190.085 399.238 188.424C406.99 186.51 422.484 171.176 425.822 163.909C428.793 157.441 423.569 150.073 416.032 152.138Z"/><path fill="#fff" d="M416.033 153.191C408.371 155.481 393.769 170.297 390.489 177.367C387.893 182.963 393.056 188.993 399.238 187.379C407.357 185.26 420.817 171.105 424.47 163.946C427.39 158.225 423.077 151.084 416.033 153.191Z"/><path fill="#88271A" d="M416.034 155.058C408.901 157.207 396.138 170.226 392.638 176.481C389.875 181.417 393.223 187.137 399.242 185.474C406.584 183.446 418.818 170.442 422.384 163.909C425.083 158.964 422.408 153.139 416.034 155.058Z"/><path fill="#fff" d="M208.58 198.42V197.462C199.664 192.466 188.037 182.08 182.642 173.522C177.551 165.447 187.242 162.054 193.762 162.031C185.737 158.768 177.216 164.947 180.929 173.485C184.282 181.192 200.391 196.191 208.58 198.42Z"/><path fill="#fff" d="M191.786 162.031V162.989C196.151 165.966 199.992 169.679 203.908 173.201C206.541 175.568 209.047 178.067 211.617 180.499C215.775 184.434 221.746 198.799 209.569 196.647C205.509 195.93 202.203 191.916 199.368 189.309C192.3 182.807 175.846 172.133 186.847 162.989C180.795 162.863 180.034 170.388 182.641 174.48C187.173 181.594 200.757 196.381 209.568 197.976C216.344 199.203 220.851 191.524 218.141 185.971C214.511 178.535 199.936 164.249 191.786 162.031Z"/><path fill="#fff" d="M186.891 162.868C181.954 164.774 181.094 170.155 183.69 174.207C187.48 180.121 205.01 200.568 213.476 196.463C228.136 189.353 202.497 170.842 196.722 165.952C193.951 163.605 190.698 161.397 186.891 162.868Z"/><path fill="#fff" d="M194.75 162.031L195.738 162.989L194.75 162.031Z"/><path fill="#88271A" d="M187.893 164.077C183.951 165.703 183.488 170.247 185.3 173.508C188.316 178.939 205.67 197.95 212.473 195.248C216.999 193.452 216.737 188.407 214.476 185.051C210.039 178.465 202.608 173.134 196.726 167.818C194.443 165.756 191.331 162.66 187.893 164.077Z"/><path fill="#fff" d="M195.738 162.989L196.726 163.946L195.738 162.989ZM196.726 163.946L197.714 164.904L196.726 163.946ZM197.714 164.904L198.701 165.862L197.714 164.904ZM288.597 165.862V166.819H315.269C308.444 162.856 296.148 164.503 288.597 165.862Z"/><path fill="#fff" d="M283.658 166.819V167.777H320.209C309.202 163.289 295.179 166.812 283.658 166.819Z"/><path fill="#fff" d="M199.689 166.819L200.677 167.777L199.689 166.819ZM277.73 166.819V167.777H283.658L277.73 166.819Z"/><path fill="#fff" d="M320.209 166.819V167.777H328.112L320.209 166.819ZM200.677 167.777L201.665 168.734L200.677 167.777ZM270.816 168.734V169.692L276.743 168.734H270.816Z"/><path fill="#fff" d="M274.767 168.734V169.692L282.67 168.734H274.767Z"/><path fill="#fff" d="M321.197 167.777V168.734L354.784 178.31C347.559 171.237 331.211 167.805 321.197 167.777Z"/><path fill="#fff" d="M329.099 167.777V168.734L334.039 169.692V168.734L329.099 167.777ZM201.665 168.734L202.653 169.692L201.665 168.734ZM202.653 169.692L203.641 170.65L202.653 169.692ZM263.9 171.607V172.565L269.828 170.65L263.9 171.607Z"/><path fill="#fff" d="M265.876 171.607V172.565L274.767 170.65L265.876 171.607Z"/><path fill="#fff" d="M336.015 169.692V170.65L340.954 171.607V170.65L336.015 169.692ZM203.97 171.288L204.3 171.926L203.97 171.288ZM341.613 171.926L342.271 172.246L341.613 171.926ZM205.616 172.565L206.604 173.522L205.616 172.565ZM256.985 174.48V175.438L261.925 173.522L256.985 174.48Z"/><path fill="#fff" d="M208.58 222.359H209.568C218.767 201.958 243.642 179.731 265.876 173.522C260.248 171.635 251.663 177.649 247.107 180.72C233.134 190.14 212.737 205.363 208.58 222.359Z"/><path fill="#fff" d="M344.905 172.565V173.522H347.869L344.905 172.565ZM206.604 173.522L207.592 174.48L206.604 173.522ZM348.528 173.841L349.186 174.161L348.528 173.841ZM207.592 174.48L208.58 175.437L207.592 174.48ZM350.504 174.799L351.162 175.118L350.504 174.799ZM208.58 175.437L209.568 176.395L208.58 175.437ZM255.01 175.437L255.998 176.395L255.01 175.437ZM352.479 175.757L353.137 176.076L352.479 175.757ZM253.693 176.714L254.351 177.033L253.693 176.714ZM353.796 176.395L354.784 177.353L353.796 176.395ZM210.556 177.353L211.544 178.31L210.556 177.353ZM251.717 177.672L252.375 177.991L251.717 177.672ZM355.443 177.672L356.101 177.991L355.443 177.672ZM211.544 178.31L212.532 179.268L211.544 178.31ZM249.083 178.31L250.071 179.268L249.083 178.31Z"/><path fill="#fff" d="M355.772 178.31V179.268C381.612 192.602 408.856 221.932 409.117 252.045H410.104C410.09 229.652 394.605 207.646 378.493 192.711C372.344 187.013 364.222 180.19 355.772 178.31Z"/><path fill="#fff" d="M358.735 178.31L359.723 179.268L358.735 178.31ZM212.531 179.268L213.519 180.225L212.531 179.268ZM248.095 179.268L249.082 180.225L248.095 179.268ZM359.723 179.268L360.711 180.225L359.723 179.268ZM213.519 180.225L214.507 181.183L213.519 180.225ZM246.119 180.225L247.107 181.183L246.119 180.225ZM361.699 180.225L362.687 181.183L361.699 180.225ZM214.507 181.183L215.495 182.141L214.507 181.183ZM245.131 181.183L246.119 182.141L245.131 181.183ZM363.675 181.183L364.663 182.141L363.675 181.183ZM215.495 182.141L216.483 183.098L215.495 182.141ZM244.143 182.141L245.131 183.098L244.143 182.141ZM364.663 182.141L365.65 183.098L364.663 182.141ZM216.483 183.098L217.471 184.056L216.483 183.098ZM242.826 183.417L243.484 183.737L242.826 183.417Z"/><path fill="#fff" stroke="#fff" d="M408.271 248.879C398.91 196.365 340.412 158.842 286.532 168.602C256.887 173.971 232.879 190.914 215.474 214.401C206.883 225.993 201.739 241.707 200.347 255.826C198.401 275.575 201.646 296.325 209.828 314.493C213.93 323.602 219.324 332.185 224.694 340.731C225.102 341.379 225.51 342.028 225.917 342.677C231.691 351.88 237.325 361.087 241.241 370.97C242.927 375.224 243.934 379.568 244.759 383.908C245.045 385.409 245.309 386.915 245.573 388.417C246.068 391.239 246.561 394.048 247.186 396.785C249.112 405.216 252.329 413.162 260.918 419.645L261.219 419.246L260.918 419.645C263.447 421.553 266.784 422.19 270.197 422.341C270.019 422.339 269.842 422.336 269.665 422.332C265.854 422.247 262.281 421.656 259.682 419.724C251.203 413.42 248.296 405.477 246.531 396.924C246.09 394.782 245.72 392.606 245.352 390.407L245.274 389.939C244.932 387.895 244.587 385.831 244.183 383.77C243.314 379.331 242.168 374.879 240.173 370.575L239.719 370.786L240.173 370.575C235.66 360.842 230.139 351.617 224.633 342.417C224.072 341.479 223.51 340.54 222.949 339.601C216.891 329.453 210.974 319.27 206.524 308.354C197.186 285.448 196.555 257.248 204.623 234.015C224.033 178.121 295.101 151.276 349.636 176.24C372.95 186.911 393.772 205.536 403.036 229.244C403.441 230.283 403.912 231.39 404.403 232.547C405.407 234.91 406.498 237.478 407.304 240.09C408.254 243.171 408.767 246.203 408.271 248.879ZM350.484 419.935C348.371 421.216 345.852 421.842 343.155 422.115C345.202 421.832 347.138 421.3 348.806 420.357L348.582 419.96L348.806 420.357C356.187 416.183 359.378 408.964 361.266 401.226C362.082 397.882 362.66 394.418 363.223 391.044C363.311 390.515 363.399 389.988 363.487 389.464C364.141 385.588 364.822 381.879 365.876 378.599C370.438 364.398 377.963 351.432 385.514 338.422C386.743 336.304 387.972 334.186 389.19 332.061C397.806 317.022 405.809 301.666 408.557 284.145H408.603C408.254 295.057 404.423 305.849 399.349 316.284C395.887 323.403 391.865 330.319 387.989 336.984C386.089 340.253 384.223 343.461 382.476 346.603C381.537 348.293 380.574 349.994 379.604 351.707C374.117 361.398 368.406 371.485 365.454 382.143L365.936 382.277L365.454 382.143C364.572 385.327 364.007 388.811 363.449 392.344L363.369 392.853C362.837 396.23 362.298 399.646 361.488 402.929C359.787 409.821 356.91 416.037 350.484 419.935Z"/><path fill="#fff" stroke="#fff" d="M264.866 396.588C265.453 398.374 266.296 399.77 267.352 400.849C268.731 402.258 270.439 403.094 272.321 403.575C275.496 404.386 279.252 404.202 282.884 404.025C283.513 403.994 284.138 403.963 284.755 403.938C292.683 403.614 300.949 403.894 309.155 404.172C313.533 404.321 317.894 404.468 322.178 404.524C323.35 404.539 324.729 404.655 326.232 404.782C326.42 404.797 326.609 404.813 326.8 404.829C328.514 404.972 330.359 405.113 332.169 405.114C335.755 405.116 339.371 404.575 341.586 402.238C344.034 399.654 345.066 395.679 345.7 391.682C345.938 390.18 346.122 388.652 346.301 387.176C346.361 386.68 346.42 386.19 346.48 385.709C346.721 383.785 346.979 382.001 347.369 380.486C350.697 367.559 356.163 355.778 363.115 344.231L363.398 343.762L362.905 343.523L355.284 339.83V339.5C356.977 338.703 358.222 338.389 359.246 338.593C360.291 338.8 361.243 339.58 362.253 341.348L362.397 341.6H362.687H364.663H365.025L365.138 341.257C366.978 335.658 369.94 330.291 373.084 324.932C373.621 324.017 374.163 323.102 374.706 322.185C377.333 317.753 379.971 313.303 382.048 308.75L381.64 308.564L382.048 308.75C394.275 281.941 396.536 254.249 381.583 227.858C365.016 198.616 332.35 184.273 300.513 185.239C268.67 186.205 237.557 202.489 224.129 234.615C214.441 257.792 215.485 285.084 226.215 307.798C229.569 314.9 233.573 321.807 237.685 328.67C238.562 330.133 239.443 331.595 240.325 333.056C243.579 338.451 246.83 343.84 249.825 349.314C257.357 363.077 263.232 377.303 263.397 393.268H263.306C262.488 389.858 261.969 386.462 261.448 383.059C261.251 381.773 261.054 380.487 260.841 379.198C260.046 374.388 259.028 369.583 256.939 364.839C252.665 355.128 247.13 346.017 241.571 336.955C241.377 336.638 241.182 336.322 240.988 336.005C235.617 327.253 230.263 318.528 225.997 309.29L225.543 309.5L225.997 309.29C214.672 284.772 212.696 253.533 225.76 229.3C244.218 195.059 281.793 181.187 316.673 185.57C351.55 189.951 383.615 212.566 391.102 251.182C392.829 260.089 393.985 269.795 392.36 278.768L392.802 278.848L392.36 278.768C389.303 295.657 382.099 310.71 374.063 325.504C372.212 328.911 370.316 332.307 368.416 335.708C362.081 347.053 355.71 358.461 350.858 370.6C350.01 372.722 349.446 375.646 348.945 378.867C348.751 380.116 348.566 381.408 348.378 382.722C348.078 384.827 347.768 386.99 347.399 389.125C346.799 392.583 346.05 395.904 344.946 398.653C343.84 401.409 342.404 403.524 340.476 404.656C339.497 405.231 338.17 405.588 336.613 405.788C335.063 405.987 333.322 406.026 331.541 405.989C329.881 405.954 328.199 405.854 326.615 405.759L326.273 405.739C324.596 405.639 323.032 405.551 321.759 405.568C305.774 405.781 289.735 405.684 273.809 404.718C271.012 404.548 268.298 403.448 266.593 401.717C265.264 400.368 264.538 398.629 264.866 396.588Z"/><path fill="#fff" d="M366.309 183.417L366.967 183.737L366.309 183.417ZM217.471 184.056L218.459 185.013L217.471 184.056ZM241.18 184.056L242.168 185.013L241.18 184.056ZM368.285 184.375L368.943 184.694L368.285 184.375ZM240.192 185.013L241.18 185.971L240.192 185.013Z"/><path fill="#fff" d="M286.621 185.971V186.929C302.264 186.919 316.719 185.927 332.063 190.395C365.679 200.182 391.327 233.157 391.327 267.366C391.327 286.715 380.791 302.196 375.529 320.033C407.468 282.668 391.778 220.374 350.833 196.75C330.89 185.243 308.909 185.043 286.621 185.971Z"/><path fill="#fff" d="M369.602 185.013L370.59 185.971L369.602 185.013ZM218.459 185.971V193.632H219.447L218.459 185.971ZM238.216 185.971L239.204 186.929L238.216 185.971ZM295.512 185.971V186.929H308.354L295.512 185.971ZM370.59 185.971L371.578 186.929L370.59 185.971ZM236.899 187.248L237.557 187.567L236.899 187.248Z"/><path fill="#fff" d="M274.767 188.844V189.801L285.634 187.886L274.767 188.844Z"/><path fill="#fff" d="M285.634 186.929V187.886H289.585L285.634 186.929Z"/><path fill="#fff" d="M312.306 186.929V187.886H319.221L312.306 186.929ZM371.578 186.929L374.541 188.844L371.578 186.929ZM235.252 187.886L236.24 188.844L235.252 187.886ZM283.329 188.205L283.987 188.525L283.329 188.205ZM320.209 187.886V188.844L327.124 189.801V188.844L320.209 187.886ZM234.264 188.844L235.252 189.801L234.264 188.844ZM279.706 188.844V189.801H282.67L279.706 188.844ZM374.541 188.844L375.529 189.801L374.541 188.844ZM233.277 189.801L234.264 190.759L233.277 189.801Z"/><path fill="#fff" d="M220.435 247.257H221.422C228.695 220.896 248.869 202.243 273.779 190.759C267.877 189.806 259.686 195.937 255.01 199.11C239.287 209.78 222.438 227.879 220.435 247.257Z"/><path fill="#fff" d="M273.779 189.801V190.759H276.743L273.779 189.801ZM330.087 189.801V190.759H333.051L330.087 189.801ZM375.529 189.801L376.517 190.759L375.529 189.801ZM232.289 190.759L233.277 191.717L232.289 190.759ZM272.462 191.078L273.12 191.398L272.462 191.078ZM334.039 190.759L335.027 191.717L334.039 190.759ZM376.517 190.759L377.505 191.717L376.517 190.759ZM231.301 191.717L232.289 192.674L231.301 191.717ZM270.815 191.717L271.803 192.674L270.815 191.717ZM335.686 192.035L336.343 192.355L335.686 192.035ZM377.505 191.717L378.493 192.674L377.505 191.717ZM230.313 192.674L231.301 193.632L230.313 192.674ZM268.511 192.993L269.169 193.313L268.511 192.993ZM338.649 192.993L339.307 193.313L338.649 192.993ZM378.493 192.674L379.481 193.632L378.493 192.674ZM217.8 194.27L218.13 194.908L217.8 194.27ZM266.535 193.951L267.193 194.27L266.535 193.951ZM340.625 193.951L341.283 194.27L340.625 193.951ZM379.481 193.632L380.468 194.589L379.481 193.632ZM228.337 194.589L229.325 195.547L228.337 194.589ZM264.559 194.908L265.217 195.228L264.559 194.908ZM342.601 194.908L343.259 195.228L342.601 194.908ZM380.468 194.589L382.444 196.505V194.589H380.468ZM216.483 195.547L217.471 196.505L216.483 195.547ZM227.349 195.547L228.337 196.505L227.349 195.547ZM261.925 195.547L262.913 196.505L261.925 195.547ZM346.881 195.547L347.869 196.505L346.881 195.547ZM215.495 196.505L216.483 197.462L215.495 196.505ZM226.362 196.505L227.349 197.462L226.362 196.505ZM260.937 196.505L261.925 197.462L260.937 196.505ZM347.869 196.505L348.857 197.462L347.869 196.505ZM382.444 196.505L383.432 197.462L382.444 196.505ZM213.519 197.462L214.507 198.42L213.519 197.462ZM225.374 197.462L226.362 198.42L225.374 197.462ZM259.62 197.781L260.278 198.101L259.62 197.781ZM348.857 197.462L349.845 198.42L348.857 197.462ZM383.432 197.462L384.42 198.42L383.432 197.462ZM224.386 198.42L225.374 199.377L224.386 198.42ZM257.973 198.42L256.985 200.335H258.961L257.973 198.42ZM350.832 198.42L351.82 199.377L350.832 198.42ZM384.42 198.42L385.408 199.377L384.42 198.42ZM223.398 199.377L224.386 200.335L223.398 199.377ZM351.82 199.377L352.808 200.335L351.82 199.377ZM385.408 199.377L386.396 200.335L385.408 199.377ZM222.41 200.335L223.398 201.292L222.41 200.335ZM255.669 200.654L256.326 200.974L255.669 200.654ZM353.796 200.335L354.784 201.292L353.796 200.335ZM386.396 200.335L387.383 201.292L386.396 200.335ZM221.422 201.292L222.41 202.25L221.422 201.292ZM253.034 201.292L252.046 203.208H254.022L253.034 201.292ZM355.772 201.292L356.76 202.25L355.772 201.292ZM220.763 202.889L221.093 203.527L220.763 202.889ZM356.76 202.25L357.748 203.208L356.76 202.25ZM387.383 202.25L388.371 203.208L387.383 202.25ZM251.058 203.208L252.046 204.165L251.058 203.208ZM357.748 203.208L358.735 204.165L357.748 203.208ZM219.447 204.165L220.434 205.123L219.447 204.165ZM250.07 204.165L251.058 205.123L250.07 204.165ZM358.735 204.165L359.723 205.123L358.735 204.165ZM389.03 204.484L389.688 204.804L389.03 204.484ZM218.459 205.123L219.447 206.08L218.459 205.123ZM249.082 205.123L250.07 206.08L249.082 205.123ZM359.723 205.123L360.711 206.08L359.723 205.123ZM390.347 205.123L391.335 206.08L390.347 205.123ZM217.471 206.08L218.459 207.038L217.471 206.08ZM248.095 206.08L249.082 207.038L248.095 206.08ZM361.699 206.08L362.687 207.038L361.699 206.08ZM391.335 206.08L392.323 207.038L391.335 206.08ZM216.483 207.038L217.471 207.996L216.483 207.038ZM246.778 207.357L247.436 207.677L246.778 207.357ZM362.687 207.038L363.675 207.996L362.687 207.038ZM392.652 207.677L392.982 208.314L392.652 207.677ZM245.131 207.996L246.119 208.953L245.131 207.996ZM363.675 207.996L364.663 208.953L363.675 207.996ZM215.495 208.953L216.483 209.911L215.495 208.953ZM244.143 208.953L245.131 209.911L244.143 208.953ZM364.663 208.953V210.868H366.638L364.663 208.953ZM393.311 208.953L394.298 209.911L393.311 208.953ZM214.507 209.911L215.495 210.868L214.507 209.911ZM243.155 209.911L244.143 210.868L243.155 209.911ZM287.609 232.893H288.597C293.74 221.925 300.114 222.46 311.318 223.317L315.269 238.638H317.245C319.341 232.62 322.195 224.924 319.361 218.615C314.598 208.009 296.061 206.904 289.163 215.698C285.217 220.729 286.859 227.144 287.609 232.893ZM213.848 211.507L214.178 212.145L213.848 211.507ZM242.167 210.868L243.155 211.826L242.167 210.868ZM366.638 210.868L367.626 211.826L366.638 210.868ZM394.298 210.868L396.274 212.784V210.868H394.298ZM241.18 211.826L242.167 212.784L241.18 211.826ZM367.626 211.826L368.614 212.784L367.626 211.826ZM240.192 212.784L241.18 213.741L240.192 212.784ZM368.614 212.784L369.602 213.741L368.614 212.784ZM396.603 213.422L396.933 214.06L396.603 213.422ZM212.531 213.741L213.519 214.699L212.531 213.741ZM239.204 213.741L240.192 214.699L239.204 213.741Z"/><path fill="#fff" d="M292.549 218.529L316.257 221.402C311.324 213.085 299.08 210.742 292.549 218.529Z"/><path fill="#fff" d="M369.931 214.38L370.261 215.018L369.931 214.38ZM211.544 214.699L212.532 215.656L211.544 214.699ZM397.262 214.699L398.25 215.656L397.262 214.699ZM210.556 215.656L211.544 216.614L210.556 215.656ZM238.216 215.656L239.204 216.614L238.216 215.656ZM370.59 215.656L371.578 216.614L370.59 215.656ZM398.579 216.295L398.909 216.933L398.579 216.295ZM237.228 216.614L238.216 217.571L237.228 216.614ZM371.578 216.614L372.565 217.571L371.578 216.614ZM209.568 217.571L210.556 218.529L209.568 217.571ZM236.24 217.571L237.228 218.529L236.24 217.571ZM372.565 217.571L373.553 218.529L372.565 217.571ZM208.58 218.529L209.568 219.487L208.58 218.529ZM235.252 218.529L236.24 219.487L235.252 218.529ZM373.553 218.529L374.541 219.487L373.553 218.529ZM399.238 218.529L401.214 221.402L399.238 218.529ZM234.265 219.487L232.289 222.359L234.265 219.487ZM374.541 219.487L375.529 220.444L374.541 219.487ZM207.921 222.04L208.251 222.678L207.921 222.04ZM375.529 221.402L376.517 222.359L375.529 221.402ZM401.214 221.402L402.201 222.359L401.214 221.402Z"/><path fill="#fff" d="M207.592 223.317C194.007 251.038 193.971 286.493 207.592 314.288H208.58C203.124 295.787 196.696 277.497 198.873 257.79C199.72 250.12 201.613 242.116 204.15 234.808C205.425 231.139 208.259 227.181 207.592 223.317Z"/><path fill="#fff" d="M231.63 223.956L231.96 224.593L231.63 223.956ZM376.517 223.317L377.505 224.275L376.517 223.317ZM402.201 223.317L404.177 226.19L402.201 223.317ZM206.604 224.275L207.592 225.232L206.604 224.275ZM377.505 224.275L378.493 225.232L377.505 224.275ZM205.617 225.232L206.604 226.19L205.617 225.232ZM230.642 225.871L230.972 226.509L230.642 225.871ZM378.493 226.19L379.481 227.147L378.493 226.19ZM204.958 227.786L205.288 228.424L204.958 227.786ZM229.325 227.147L230.313 228.105L229.325 227.147ZM379.481 227.147L380.468 228.105L379.481 227.147ZM404.177 227.147V230.02H405.165L404.177 227.147ZM228.666 228.744L228.996 229.381L228.666 228.744ZM203.97 229.701L204.3 230.339L203.97 229.701ZM380.797 229.701L381.127 230.339L380.797 229.701ZM227.35 230.02L228.337 230.978L227.35 230.02ZM202.653 230.978V233.85H203.641L202.653 230.978ZM226.362 230.978L227.35 231.935L226.362 230.978ZM381.456 231.935L382.444 232.893L381.456 231.935ZM405.165 231.935L406.153 232.893L405.165 231.935ZM382.773 233.532L383.103 234.169L382.773 233.532ZM406.482 233.532L406.812 234.169L406.482 233.532ZM225.374 233.85V236.723H226.362L225.374 233.85ZM383.432 235.766L384.42 236.723L383.432 235.766ZM407.47 236.404L407.8 237.042L407.47 236.404ZM201.665 236.723L202.653 237.681L201.665 236.723ZM224.715 237.362L225.045 238L224.715 237.362ZM201.006 238.32L201.336 238.957L201.006 238.32ZM384.42 237.681L385.408 238.638L384.42 237.681ZM223.398 238.638V241.511H224.386L223.398 238.638ZM385.408 238.638L386.396 239.596L385.408 238.638ZM408.458 239.277L408.788 239.915L408.458 239.277ZM199.689 240.554V244.384H200.677L199.689 240.554ZM409.117 240.554V243.426H410.104L409.117 240.554ZM222.739 243.108L223.069 243.745L222.739 243.108ZM386.396 242.469V246.299H387.384L386.396 242.469ZM221.751 245.023L222.081 245.66L221.751 245.023ZM220.434 247.257V250.13H221.422L220.434 247.257ZM387.712 247.895L388.042 248.533L387.712 247.895ZM198.701 248.214L197.714 253.002H198.701V248.214Z"/><path fill="#fff" d="M219.447 248.214V288.433H220.434L219.461 262.578L219.447 248.214Z"/><path fill="#fff" d="M388.7 249.811L389.03 250.448L388.7 249.811ZM410.104 251.087V254.917H411.092L410.104 251.087ZM300.451 264.493C299.431 261.157 297.39 255.654 293.404 254.68C290.33 253.928 287.852 257.503 285.595 258.926C279.704 262.638 270.987 262.887 266.344 268.528C263.291 272.237 266.522 276.565 266.016 280.772C264.876 290.254 261.584 309.111 271.986 315.253C275.022 317.045 279.266 316.567 282.67 317.161L284.391 297.093L295.781 289.933L301.439 264.493C305.111 272.928 300.721 283.105 304.911 291.178C309.47 299.961 319.767 290.231 324.463 294.013C328.956 297.631 323.204 310.323 329.414 313.795C338.655 318.961 345.783 309.311 347.36 301.839C351.343 282.976 343.014 260.919 324.16 255.278C321.001 254.333 317.737 251.895 314.286 252.856C309.082 254.305 304.624 261.191 300.451 264.493Z"/><path fill="#fff" d="M409.116 252.045V282.688H410.104C410.111 272.885 413.183 261.416 409.116 252.045Z"/><path fill="#fff" d="M196.726 254.917V276.942H197.714L196.726 254.917Z"/><path fill="#fff" d="M410.104 254.917V279.815H411.092C411.744 271.811 413.852 262.478 410.104 254.917Z"/><path fill="#fff" d="M389.359 255.875V259.705H390.347L389.359 255.875ZM411.092 255.875V278.857H412.08C413.376 272.091 414.883 262.008 411.092 255.875ZM219.447 256.833V277.9H220.434L219.447 256.833ZM390.347 260.663V266.408H391.335L390.347 260.663ZM458.51 262.578C449.445 265.175 430.98 258.959 425.91 268.324H426.898C434.199 260.304 449.731 266.334 459.498 263.536L458.51 262.578ZM463.449 262.578V263.536L471.352 264.493V263.536L463.449 262.578ZM141.405 263.536V264.493H170.053L141.405 263.536Z"/><path fill="#fff" d="M170.053 263.536L171.041 264.493L170.053 263.536Z"/><path fill="#fff" d="M171.041 263.536V264.493H180.92L171.041 263.536Z"/><path fill="#fff" d="M458.51 263.536V264.493H464.437L458.51 263.536Z"/><path fill="#fff" d="M138.442 264.493L135.478 270.239H136.466L138.442 264.493Z"/><path fill="#fff" d="M136.466 269.281H137.454L143.381 265.451C139.805 264.361 138.031 266.27 136.466 269.281Z"/><path fill="#fff" d="M185.859 274.069C175.436 280.425 160.358 278.114 148.32 277.895C144.499 277.826 136.553 275.841 138.765 270.416C140.791 265.447 147.795 265.459 152.272 265.451C163.238 265.433 180.044 262.344 185.859 273.112C186.727 268.784 183.2 265.674 178.943 264.823C169.261 262.886 156.194 263.795 146.345 264.582C142.818 264.865 138.69 265.889 137.203 269.385C134.977 274.618 139.303 278.831 144.37 279.61C154.051 281.098 181.044 283.53 185.859 274.069Z"/><path fill="#fff" d="M179.932 264.493V265.451L185.859 271.196H186.847C185.964 267.058 184.202 265.349 179.932 264.493Z"/><path fill="#fff" d="M183.554 264.812L184.213 265.132L183.554 264.812Z"/><path fill="#fff" d="M469.376 264.493V265.451C476.543 268.8 476.618 276.91 468.387 279.323C460.243 281.709 443.052 281.416 434.802 279.413C426.391 277.373 425.025 269.095 432.825 265.451C423.335 263.014 424.566 279.559 434.801 280.668C444.115 281.677 461.616 283.362 470.359 280.062C478.614 276.947 477.815 266.184 469.376 264.493Z"/><path fill="#fff" d="M432.83 265.042C425.082 267.237 425.547 276.673 432.84 279.142C440.628 281.778 462.74 282.113 470.345 278.993C477.27 276.152 476.413 267.037 469.371 265.042C460.629 262.564 441.573 262.564 432.83 265.042Z"/><path fill="#fff" d="M472.999 264.812L473.657 265.132L472.999 264.812Z"/><path fill="#88271A" d="M143.396 266.124C137.601 268.085 135.85 274.869 142.412 277.322C150.145 280.212 162.787 277.9 171.041 277.9C174.411 277.9 178.781 278.554 181.849 276.915C187.767 273.755 184.323 267.206 178.94 265.88C170.619 263.83 151.546 263.365 143.396 266.124Z"/><path fill="#fff" d="M184.871 265.451L185.859 266.409L184.871 265.451Z"/><path fill="#88271A" d="M432.879 266.161C427.505 268.314 427.36 275.218 432.869 277.322C440.28 280.152 452.557 277.9 460.485 277.9C463.512 277.9 467.493 278.479 470.218 276.915C475.187 274.062 473.369 267.452 468.369 266C460.646 263.755 440.345 263.172 432.879 266.161Z"/><path fill="#fff" d="M474.316 265.451L475.303 266.409L474.316 265.451ZM186.188 267.047L186.518 267.685L186.188 267.047ZM475.303 266.409L476.291 275.984H477.279L475.303 266.409ZM93 267.366V268.324C97.5359 269.602 98.1929 271.761 96.9515 275.984C101.118 271.893 98.2251 268.167 93 267.366Z"/><path fill="#fff" d="M93 268.324V269.281L98.9272 272.154L93 268.324ZM267.852 268.324C266.772 271.379 266.911 272.428 269.828 274.069V268.324H267.852Z"/><path fill="#fff" d="M93 269.281L96.9515 271.196V272.154L93 275.027C97.5928 273.661 97.5928 270.647 93 269.281Z"/><path fill="#fff" d="M424.922 269.281V273.112H425.91L424.922 269.281Z"/><path fill="#fff" d="M135.478 270.239V274.069H136.466L135.478 270.239Z"/><path fill="#fff" d="M186.847 270.239V275.027H187.835L186.847 270.239ZM358.736 270.239L359.723 275.027L364.663 273.112V271.196L361.699 270.239V271.196L363.675 272.154L360.711 274.069V270.239H358.736Z"/><path fill="#fff" d="M360.711 270.239V274.069L363.675 271.196L360.711 270.239Z"/><path fill="#fff" d="M390.347 270.239V274.069H391.335L390.347 270.239Z"/><path fill="#88271A" d="M93 273.112L96.9515 272.154L93 273.112Z"/><path fill="#fff" d="M360.711 271.196L361.699 272.154L360.711 271.196Z"/><path fill="#fff" d="M96.9515 273.112L93 275.027V275.984L96.9515 273.112ZM185.859 273.112C180.628 283.722 144.928 283.449 137.454 275.027H136.466C141.554 285.024 165.955 281.047 175.981 280.758C180.652 280.623 187.211 278.741 185.859 273.112Z"/><path fill="#fff" d="M135.478 274.069V276.942H136.466L135.478 274.069ZM389.359 274.069V278.857H390.347L389.359 274.069ZM93 275.984V276.942H95.9636L93 275.984ZM185.859 275.984L184.871 278.857L185.859 275.984ZM425.91 275.984L426.898 276.942L425.91 275.984ZM475.303 275.984L476.291 276.942L475.303 275.984ZM136.466 276.942L139.43 279.815L136.466 276.942ZM426.898 276.942V278.857H428.874L426.898 276.942ZM474.316 276.942L475.303 277.9L474.316 276.942ZM473.328 277.9L472.34 279.815H474.316L473.328 277.9ZM183.554 279.176L184.213 279.496L183.554 279.176ZM428.874 278.857L429.862 279.815L428.874 278.857ZM140.088 280.134L140.747 280.453L140.088 280.134ZM141.405 280.772V281.73L182.896 280.772H141.405ZM197.714 279.815V284.603H198.701L197.714 279.815ZM410.104 279.815V282.688H411.092L410.104 279.815ZM430.521 280.134L431.178 280.453L430.521 280.134ZM431.837 280.772V281.73L472.34 280.772H431.837ZM388.371 282.688V285.56H389.359L388.371 282.688Z"/><path fill="#fff" d="M409.116 282.688C408.29 320.309 371.991 347.536 365.65 383.234H366.638C376.495 358.599 391.343 336.551 402.27 312.373C405.677 304.834 412.609 290.772 409.116 282.688Z"/><path fill="#fff" d="M198.701 284.603V287.475H199.689L198.701 284.603ZM387.712 286.199L388.042 286.837L387.712 286.199ZM220.434 286.518V289.391H221.422L220.434 286.518ZM386.396 288.433V292.263H387.383L386.396 288.433Z"/><path fill="#fff" d="M220.435 289.391C223.26 316.866 247.333 340.266 257.973 365.04H258.961C254.992 348.226 240.555 331.402 232.232 316.203C227.601 307.746 225.783 297.234 220.435 289.391Z"/><path fill="#fff" d="M221.751 290.987L222.081 291.625L221.751 290.987ZM409.116 290.348V293.221H410.104L409.116 290.348ZM199.689 292.263V295.136H200.677L199.689 292.263ZM222.739 292.902L223.069 293.54L222.739 292.902ZM408.129 293.221V296.094H409.116L408.129 293.221ZM200.677 295.136V298.009H201.665L200.677 295.136ZM385.408 296.094L386.396 297.051L385.408 296.094ZM223.398 297.051L224.386 298.009L223.398 297.051ZM384.42 297.051L385.408 298.009L384.42 297.051ZM407.47 297.69L407.8 298.328L407.47 297.69ZM201.994 298.648L202.324 299.285L201.994 298.648ZM224.715 298.648L225.045 299.285L224.715 298.648ZM383.761 299.605L384.091 300.243L383.761 299.605ZM225.374 300.882V303.755H226.362L225.374 300.882ZM406.482 301.52L406.812 302.158L406.482 301.52ZM382.444 301.839L381.456 304.712L382.444 301.839ZM405.165 302.797L406.153 303.755L405.165 302.797ZM202.653 303.755V306.627H203.641L202.653 303.755ZM226.362 305.67L227.349 306.627L226.362 305.67ZM404.177 305.67V308.542H405.165L404.177 305.67ZM203.97 307.266L204.3 307.904L203.97 307.266ZM227.678 307.266L228.008 307.904L227.678 307.266ZM380.797 307.266L381.127 307.904L380.797 307.266ZM204.957 309.181L205.287 309.819L204.957 309.181ZM228.666 309.181L228.996 309.819L228.666 309.181ZM379.48 309.5L380.468 310.458L379.48 309.5ZM403.189 309.5L402.201 312.373L403.189 309.5ZM378.493 310.458L379.48 311.415L378.493 310.458ZM205.616 311.415L206.604 312.373L205.616 311.415ZM229.325 311.415L230.313 312.373L229.325 311.415ZM206.604 312.373L207.592 313.33L206.604 312.373ZM230.313 312.373L231.301 313.33L230.313 312.373ZM377.505 313.33L378.493 314.288L377.505 313.33ZM401.542 313.969L401.872 314.607L401.542 313.969ZM207.921 314.927L208.251 315.564L207.921 314.927ZM231.63 314.927L231.96 315.564L231.63 314.927Z"/><path fill="#fff" d="M208.58 315.245L212.532 324.821H213.519L208.58 315.245Z"/><path fill="#fff" d="M376.517 315.245L377.505 316.203L376.517 315.245ZM400.555 315.884L400.885 316.522L400.555 315.884ZM375.858 316.842L376.188 317.48L375.858 316.842ZM208.909 317.799L209.239 318.437L208.909 317.799ZM232.289 317.161L233.277 318.118L232.289 317.161ZM399.238 317.161L400.226 318.118L399.238 317.161ZM233.277 318.118L234.265 319.076L233.277 318.118ZM209.568 319.076L210.556 320.033L209.568 319.076ZM234.594 319.715L234.924 320.352L234.594 319.715ZM374.541 319.076L372.566 322.906L374.541 319.076ZM398.579 320.672L398.909 321.31L398.579 320.672ZM210.885 321.63L211.215 322.267L210.885 321.63ZM235.253 320.991L237.228 323.864L235.253 320.991Z"/><path fill="#fff" d="M374.541 320.991L362.687 339.185C360.321 335.661 357.351 336.581 353.796 338.228C355.132 341.914 356.709 343.36 360.711 343.973L358.735 350.676H359.723L362.687 343.973L354.784 340.143V339.185C358.52 337.916 360.091 338.179 362.687 341.1H364.663L374.541 320.991Z"/><path fill="#fff" d="M397.591 322.587L397.921 323.225L397.591 322.587ZM211.544 323.864L212.532 324.821L211.544 323.864ZM371.578 323.864L372.566 324.821L371.578 323.864ZM396.274 323.864L397.262 324.821L396.274 323.864Z"/><path fill="#fff" d="M213.52 324.821L241.18 377.489H242.168C240.167 366.229 231.986 355.658 226.236 345.888C222.142 338.931 218.84 330.982 213.52 324.821Z"/><path fill="#fff" d="M370.59 324.821L371.578 325.779L370.59 324.821ZM237.228 325.779L238.216 326.737L237.228 325.779ZM395.615 326.418L395.945 327.055L395.615 326.418ZM213.52 326.737V329.609H214.507L213.52 326.737ZM238.545 327.375L238.875 328.013L238.545 327.375ZM369.931 327.375L370.261 328.013L369.931 327.375ZM394.299 327.694L395.287 328.652L394.299 327.694ZM239.204 328.652L240.192 329.609L239.204 328.652ZM393.64 329.29L393.97 329.928L393.64 329.29ZM214.507 329.609L215.495 330.567L214.507 329.609ZM240.521 330.248L240.851 330.886L240.521 330.248ZM368.943 330.248L369.273 330.886L368.943 330.248ZM215.495 330.567L216.483 331.525L215.495 330.567ZM241.18 331.525L242.168 332.482L241.18 331.525ZM367.626 331.525L368.614 332.482L367.626 331.525ZM392.652 332.163L392.982 332.801L392.652 332.163ZM216.483 332.482L217.471 333.44L216.483 332.482ZM366.967 333.121L367.297 333.759L366.967 333.121ZM217.8 334.078L218.13 334.716L217.8 334.078ZM242.168 333.44L243.155 334.397L242.168 333.44ZM391.335 333.44L392.323 334.397L391.335 333.44ZM263.901 336.312L266.864 335.355L263.901 336.312Z"/><path fill="#fff" d="M276.743 338.228H275.755C273.157 354.156 257.241 334.706 270.795 335.819C272.501 335.959 274.167 336.714 275.755 337.27C271.562 333.463 260.878 334.257 263.689 342.002C266.633 350.11 276.249 344.56 276.743 338.228Z"/><path fill="#fff" d="M273.45 334.716L274.108 335.036L273.45 334.716ZM365.65 334.397L366.638 335.355L365.65 334.397ZM390.676 335.036L391.006 335.674L390.676 335.036ZM447.314 334.716L447.972 335.036L447.314 334.716ZM218.459 335.355L219.447 336.313L218.459 335.355Z"/><path fill="#fff" d="M267.089 336.069C260.506 338.949 266.716 346.727 272.645 344.216C279.348 341.378 273.046 333.465 267.089 336.069Z"/><path fill="#fff" d="M274.767 335.355L275.755 336.312L274.767 335.355ZM354.784 336.312V337.27L361.699 336.312H354.784ZM364.992 335.994L365.322 336.631L364.992 335.994ZM442.704 338.228H443.692L445.668 336.312L442.704 338.228Z"/><path fill="#fff" d="M445.893 336.085C439.919 338.495 445.085 345.572 450.46 343.391C456.146 341.083 450.821 334.096 445.893 336.085Z"/><path fill="#fff" d="M450.607 335.355L452.582 337.27V335.355H450.607ZM178.944 336.312V337.27H182.896L178.944 336.312ZM243.155 336.312L244.143 337.27L243.155 336.312Z"/><path fill="#88271A" d="M268.08 337.042C262.563 339.301 267.988 344.54 272.473 342.304C276.936 340.079 271.694 335.562 268.08 337.042Z"/><path fill="#fff" d="M276.084 336.951L276.414 337.589L276.084 336.951ZM361.699 336.312L362.687 337.27L361.699 336.312ZM389.359 336.312L390.347 337.27L389.359 336.312Z"/><path fill="#fff" d="M446.798 337.08C441.643 338.867 445.813 344.532 450.174 342.433C454.143 340.524 450.398 335.83 446.798 337.08Z"/><path fill="#fff" d="M176.968 337.27C174.308 344.852 186.501 345.641 184.871 337.27H183.883C183.592 343.665 178.837 342.013 176.968 337.27Z"/><path fill="#fff" d="M178.61 338.254C175.8 340.599 180.812 343.856 183.23 341.481C186.02 338.738 180.901 336.343 178.61 338.254Z"/><path fill="#fff" d="M219.776 337.909L220.106 338.547L219.776 337.909ZM244.143 337.27L245.131 338.228L244.143 337.27ZM262.913 337.27L263.901 338.228L262.913 337.27ZM353.796 337.27L354.784 338.228L353.796 337.27ZM362.687 337.27V339.185L364.663 337.27H362.687ZM388.371 337.27L389.359 338.228L388.371 337.27ZM452.583 337.27L453.57 342.058H454.558L452.583 337.27Z"/><path fill="#fff" d="M177.956 339.185V340.143H183.883L177.956 339.185Z"/><path fill="#fff" d="M245.46 338.866L245.79 339.504L245.46 338.866ZM261.925 338.228V342.058H262.913L261.925 338.228Z"/><path fill="#88271A" d="M356.76 339.185V340.143H360.711L356.76 339.185ZM445.668 339.185V341.1C448.766 341.573 449.619 341.135 450.607 338.228L445.668 339.185Z"/><path fill="#fff" d="M220.763 339.824L221.093 340.462L220.763 339.824ZM352.808 339.185L353.796 340.143L352.808 339.185ZM387.384 339.185V342.058H388.371L387.384 339.185ZM442.045 339.824L442.375 340.462L442.045 339.824ZM193.762 345.888C200.111 343.033 203.031 341.75 209.568 344.931C204.525 339.339 198.439 340.458 193.762 345.888ZM246.119 340.143L248.095 343.016L246.119 340.143ZM354.125 340.782L354.455 341.419L354.125 340.782ZM221.422 341.1L222.41 342.058L221.422 341.1Z"/><path fill="#fff" d="M169.066 365.998C174.281 362.654 178.892 358.516 183.883 354.865L193.193 347.879C198.777 343.788 214.521 342.112 208.399 353.463C204.334 361.002 186.973 372.81 178.944 376.117C172.231 378.882 168.257 372.758 169.066 366.955C164.279 373.21 172.076 380.003 178.944 377.906C186.87 375.486 206.728 361.124 209.822 353.512C212.751 346.304 205.788 340.328 198.701 343.088C189.995 346.478 173.392 357.852 169.066 365.998Z"/><path fill="#fff" d="M263.242 342.697L263.572 343.334L263.242 342.697ZM354.784 342.058V343.973H356.76L354.784 342.058ZM386.725 342.697L387.055 343.334L386.725 342.697ZM442.704 342.058V343.973H444.68L442.704 342.058ZM452.583 342.058L451.595 343.973H453.571L452.583 342.058Z"/><path fill="#fff" d="M199.69 343.689C190.534 346.473 176.276 357.876 170.483 365.126C166.459 370.161 169.814 378.202 176.969 377.069C185.544 375.714 202.866 361.986 207.847 355.188C212.277 349.139 207.198 341.406 199.69 343.689Z"/><path fill="#fff" d="M222.41 343.016L223.398 343.973L222.41 343.016ZM275.755 343.016L276.743 343.973L275.755 343.016Z"/><path fill="#88271A" d="M200.677 344.747C192.253 346.694 177.82 358.813 172.343 365.204C168.642 369.523 170.435 376.157 176.972 375.34C185.145 374.319 202.255 360.756 206.997 354.33C210.429 349.677 206.694 343.356 200.677 344.747Z"/><path fill="#fff" d="M223.398 343.973L224.386 344.931L223.398 343.973ZM263.9 343.973L264.888 344.931L263.9 343.973ZM274.767 343.973L273.779 345.888H275.755L274.767 343.973ZM357.747 343.973L358.735 347.804H359.723L360.711 343.973H357.747ZM385.408 343.973L386.396 344.931L385.408 343.973ZM404.177 343.973V344.931L412.08 345.888L404.177 343.973ZM444.68 343.973V344.931H450.607L444.68 343.973ZM248.095 344.931L249.082 345.888L248.095 344.931ZM264.888 344.931L265.876 345.888L264.888 344.931ZM398.25 348.761H399.238L403.189 345.888L398.25 348.761Z"/><path fill="#fff" d="M403.189 344.931V345.888H409.117L403.189 344.931Z"/><path fill="#fff" d="M191.786 345.888L192.774 346.846L191.786 345.888ZM209.568 345.888L210.556 346.846L209.568 345.888ZM224.386 345.888L225.374 346.846L224.386 345.888ZM249.082 345.888L250.07 346.846L249.082 345.888ZM265.876 345.888V346.846H273.779L265.876 345.888ZM384.42 345.888L385.408 346.846L384.42 345.888Z"/><path fill="#fff" d="M400.226 345.888C393.482 359.471 411.235 366.797 420.971 373.062C425.142 375.745 429.461 379.541 434.797 379.258C446.506 378.638 442.354 365.99 435.863 361.775L424.922 354.542C420.13 351.377 415.798 347.32 410.104 345.888V346.846C415.292 349.635 420.077 352.926 424.922 356.229C427.891 358.253 430.874 360.249 433.812 362.315C439.034 365.986 446.023 377.87 433.812 378.013C428.973 378.069 423.698 373.097 419.983 370.525C410.838 364.196 395.007 358.568 402.201 345.888H400.226Z"/><path fill="#fff" d="M402.348 346.873C397.611 349.583 399.14 355.93 402.348 359.095C408.034 364.704 429.407 381.771 437.657 377.317C442.659 374.616 442.029 368.815 438.527 365.24C432.774 359.369 411.171 341.825 402.348 346.873Z"/><path fill="#fff" d="M413.068 345.888L414.056 346.846L413.068 345.888ZM190.799 346.846L191.786 347.804L190.799 346.846ZM210.556 346.846V353.549H211.544L210.556 346.846ZM250.07 346.846L251.058 347.804L250.07 346.846ZM383.432 346.846L384.42 347.804L383.432 346.846Z"/><path fill="#88271A" d="M404.364 347.572C399.443 349.516 400.317 354.729 403.415 357.747C409.776 363.945 419.183 369.659 426.898 374.171C429.718 375.821 433.35 377.902 436.631 376.186C441.167 373.811 439.715 368.35 436.631 365.533C431.171 360.548 412.322 344.427 404.364 347.572Z"/><path fill="#fff" d="M414.056 346.846L415.044 347.804L414.056 346.846ZM189.811 347.804L190.798 348.761L189.811 347.804ZM225.703 348.442L226.033 349.08L225.703 348.442ZM382.444 347.804L383.432 348.761L382.444 347.804ZM415.044 347.804L416.031 348.761L415.044 347.804ZM188.823 348.761L189.811 349.719L188.823 348.761ZM251.387 349.4L251.717 350.038L251.387 349.4ZM417.019 348.761L418.007 349.719L417.019 348.761ZM187.835 349.719L188.823 350.676L187.835 349.719ZM226.362 349.719L227.349 350.676L226.362 349.719ZM397.262 349.719V356.422H398.25L397.262 349.719ZM418.007 349.719L418.995 350.676L418.007 349.719ZM185.859 350.676L186.847 351.634L185.859 350.676ZM227.678 351.315L228.008 351.953L227.678 351.315ZM252.046 350.676L253.034 351.634L252.046 350.676ZM357.418 350.995L358.076 351.315L357.418 350.995ZM381.785 351.315L382.115 351.953L381.785 351.315ZM419.983 350.676L420.971 351.634L419.983 350.676ZM182.896 353.549L185.859 351.634L182.896 353.549ZM253.363 352.273L253.693 352.91L253.363 352.273Z"/><path fill="#fff" d="M356.76 351.634L352.808 362.167H353.796L358.736 351.634H356.76Z"/><path fill="#fff" d="M420.971 351.634L423.935 353.549L420.971 351.634ZM228.337 352.592L229.325 353.549L228.337 352.592ZM355.772 352.592L356.76 353.549L355.772 352.592ZM380.797 353.23L381.127 353.868L380.797 353.23ZM181.908 353.549L182.896 354.507L181.908 353.549ZM209.568 353.549L210.556 354.507L209.568 353.549ZM229.325 353.549L230.313 354.507L229.325 353.549ZM423.935 353.549L426.898 356.422L423.935 353.549ZM180.92 354.507L181.908 355.464L180.92 354.507ZM254.022 354.507L255.01 355.464L254.022 354.507ZM354.784 354.507L355.772 355.464L354.784 354.507ZM379.481 354.507L380.469 355.464L379.481 354.507ZM179.932 355.464L180.92 356.422L179.932 355.464ZM208.58 355.464L209.568 356.422L208.58 355.464ZM354.125 356.103L354.455 356.741L354.125 356.103ZM177.956 356.422L178.944 357.379L177.956 356.422ZM207.592 356.422L208.58 357.379L207.592 356.422ZM230.642 357.061L230.972 357.698L230.642 357.061ZM255.01 356.422L255.998 357.379L255.01 356.422ZM378.493 356.422L379.481 357.379L378.493 356.422ZM398.25 356.422L400.226 359.295L398.25 356.422ZM428.874 356.422L429.862 357.379L428.874 356.422ZM176.639 357.698L177.298 358.018L176.639 357.698ZM206.275 357.698L206.933 358.018L206.275 357.698ZM256.327 358.018L256.657 358.656L256.327 358.018ZM377.505 357.379L378.493 358.337L377.505 357.379ZM430.521 357.698L431.179 358.018L430.521 357.698ZM174.993 358.337L175.981 359.295L174.993 358.337ZM204.629 358.337L205.617 359.295L204.629 358.337ZM231.301 358.337L232.289 359.295L231.301 358.337ZM353.137 358.976L353.467 359.614L353.137 358.976ZM431.837 358.337L432.825 359.295L431.837 358.337ZM174.334 359.933L174.664 360.571L174.334 359.933ZM203.641 359.295L204.629 360.252L203.641 359.295ZM232.289 359.295L233.277 360.252L232.289 359.295ZM257.314 359.933L257.644 360.571L257.314 359.933ZM376.517 359.295L377.505 360.252L376.517 359.295ZM400.226 359.295L401.214 360.252L400.226 359.295ZM202.653 360.252L203.641 361.21L202.653 360.252ZM401.214 360.252L404.177 362.167L401.214 360.252ZM433.484 360.571L434.142 360.891L433.484 360.571ZM172.029 361.21L173.017 362.167L172.029 361.21ZM201.665 361.21L202.653 362.167L201.665 361.21ZM233.606 361.849L233.936 362.486L233.606 361.849ZM257.973 361.21L258.961 362.167L257.973 361.21ZM375.858 361.849L376.188 362.486L375.858 361.849ZM435.46 361.529L436.118 361.849L435.46 361.529ZM170.053 362.167L171.041 363.125L170.053 362.167ZM200.348 362.486L201.006 362.806L200.348 362.486ZM350.833 362.167L351.82 363.125L350.833 362.167Z"/><path fill="#fff" d="M351.82 362.167L347.869 374.616H348.857L351.82 362.167Z"/><path fill="#fff" d="M404.177 362.167L405.165 363.125L404.177 362.167ZM437.765 362.167L438.752 363.125L437.765 362.167ZM169.066 363.125L170.053 364.083L169.066 363.125ZM198.043 363.764L198.373 364.402L198.043 363.764ZM258.961 363.125V365.998H259.949L258.961 363.125ZM374.541 363.125L375.529 364.083L374.541 363.125ZM406.153 363.125L409.117 365.04L406.153 363.125ZM438.752 363.125L439.74 364.083L438.752 363.125ZM235.252 364.083L236.24 365.04L235.252 364.083ZM350.174 364.721L350.504 365.359L350.174 364.721ZM439.74 364.083L440.728 365.04L439.74 364.083ZM168.407 365.679L168.736 366.317L168.407 365.679ZM196.726 365.04L197.714 365.998L196.726 365.04ZM373.882 365.679L374.212 366.317L373.882 365.679ZM409.117 365.04L410.104 365.998L409.117 365.04ZM441.057 365.679L441.387 366.317L441.057 365.679ZM194.75 365.998L193.762 367.913H195.738L194.75 365.998Z"/><path fill="#fff" d="M258.961 365.998V368.871H259.949L258.961 365.998Z"/><path fill="#fff" d="M349.186 366.637L349.516 367.274L349.186 366.637ZM411.092 365.998V367.913H413.068L411.092 365.998ZM167.09 366.955L168.078 367.913L167.09 366.955ZM236.569 367.594L236.899 368.232L236.569 367.594ZM372.566 366.955L373.554 367.913L372.566 366.955ZM441.716 366.955L442.704 367.913L441.716 366.955ZM166.102 367.913V372.701H167.09L166.102 367.913ZM192.774 367.913L193.762 368.871L192.774 367.913ZM259.949 367.913L261.925 370.786L259.949 367.913ZM348.198 368.552L348.528 369.189L348.198 368.552ZM371.578 367.913L372.566 368.871L371.578 367.913ZM413.727 368.232L414.385 368.552L413.727 368.232ZM442.704 367.913V374.616H443.692L442.704 367.913ZM190.799 368.871L191.787 369.828L190.799 368.871ZM237.228 368.871L238.216 369.828L237.228 368.871ZM415.044 368.871L416.032 369.828L415.044 368.871ZM189.811 369.828L190.799 370.786L189.811 369.828Z"/><path fill="#fff" d="M259.949 369.828L260.937 374.616H261.925L259.949 369.828Z"/><path fill="#fff" d="M416.032 369.828L417.019 370.786L416.032 369.828ZM188.823 370.786L189.811 371.743L188.823 370.786ZM238.545 371.424L238.875 372.062L238.545 371.424ZM370.59 370.786V373.658H371.578L370.59 370.786ZM417.678 371.105L418.336 371.424L417.678 371.105ZM187.835 371.743L188.823 372.701L187.835 371.743ZM261.925 371.743V375.574H262.913L261.925 371.743ZM418.995 371.743L419.983 372.701L418.995 371.743ZM167.09 372.701L168.078 373.658L167.09 372.701ZM186.847 372.701L187.835 373.658L186.847 372.701ZM239.533 373.34L239.863 373.977L239.533 373.34ZM419.983 372.701L420.971 373.658L419.983 372.701ZM168.407 374.297L168.736 374.935L168.407 374.297ZM184.871 373.658L185.859 374.616L184.871 373.658ZM346.881 373.658V376.531H347.869L346.881 373.658ZM422.947 373.658L423.935 374.616L422.947 373.658ZM183.884 374.616L184.871 375.574L183.884 374.616ZM240.192 374.616L241.18 375.574L240.192 374.616ZM369.931 375.255L370.261 375.893L369.931 375.255ZM423.935 374.616L424.922 375.574L423.935 374.616ZM441.716 374.616L442.704 375.574L441.716 374.616ZM169.395 376.212L169.724 376.85L169.395 376.212ZM182.566 375.893L183.225 376.212L182.566 375.893Z"/><path fill="#fff" d="M424.922 375.574L425.91 376.531L424.922 375.574ZM440.728 375.574L441.716 376.531L440.728 375.574ZM180.92 376.531L181.908 377.489L180.92 376.531ZM262.913 376.531V379.404H263.901L262.913 376.531Z"/><path fill="#fff" d="M346.881 376.531L341.942 401.429H342.93L346.881 376.531Z"/><path fill="#fff" d="M368.614 376.531L369.602 377.489L368.614 376.531ZM425.91 376.531L426.898 377.489L425.91 376.531ZM170.712 377.808L171.37 378.128L170.712 377.808ZM179.932 377.489L180.92 378.446L179.932 377.489ZM241.18 377.489V382.277H242.167L241.18 377.489ZM345.893 377.489L346.881 378.446L345.893 377.489ZM427.557 377.808L428.215 378.128L427.557 377.808ZM439.74 377.489L440.728 378.446L439.74 377.489ZM172.029 378.446V379.404H178.944L172.029 378.446Z"/><path fill="#fff" d="M242.167 378.446L244.143 397.598H245.131L242.167 378.446Z"/><path fill="#fff" d="M364.663 385.15L362.687 401.429H363.675L364.663 385.15Z"/><path fill="#fff" d="M242.496 388.661L242.826 389.299L242.496 388.661ZM342.93 388.98V391.853H343.917L342.93 388.98ZM243.155 389.937V393.768H244.143L243.155 389.937ZM264.888 389.937V396.641H265.876L264.888 389.937ZM341.942 391.853V397.598H342.93L341.942 391.853ZM364.663 392.81V398.556H365.65L364.663 392.81Z"/><path fill="#fff" d="M264.888 396.641C268.276 406.067 277.529 403.785 285.672 403.52C304.159 402.919 323.545 406.654 341.942 403.344V402.386C325.16 402.589 308.33 402.606 291.546 402.397C280.667 402.26 273.384 404.134 264.888 396.641Z"/><path fill="#fff" d="M244.143 397.598V402.386H245.131L244.143 397.598ZM265.876 397.598L266.864 398.556L265.876 397.598ZM266.864 398.556L267.852 399.513L266.864 398.556Z"/><path fill="#fff" d="M245.131 399.513C246.28 408.441 253.662 419.979 262.913 422.496V421.538C253.535 417.017 250.502 407.353 245.131 399.513Z"/><path fill="#fff" d="M267.852 399.513L268.84 400.471L267.852 399.513ZM364.004 400.152L364.334 400.79L364.004 400.152ZM268.84 400.471L269.828 401.429L268.84 400.471ZM269.828 401.429L270.816 402.386L269.828 401.429ZM340.625 401.747L341.283 402.067L340.625 401.747ZM362.687 401.429V404.301H363.675L362.687 401.429ZM272.791 402.386V403.344H276.743L272.791 402.386ZM296.5 402.386L297.488 403.344L296.5 402.386ZM324.819 402.705L325.477 403.025L324.819 402.705ZM335.027 402.386L336.015 403.344L335.027 402.386Z"/><path fill="#fff" d="M361.699 402.386C359.463 410.313 355.15 418.407 346.881 421.538V422.496C354.329 421.035 364.35 410.209 361.699 402.386Z"/><path fill="#fff" d="M245.131 403.344L246.119 404.301L245.131 403.344ZM246.448 404.94L246.778 405.578L246.448 404.94ZM443.363 404.62L444.021 404.94L443.363 404.62Z"/><path fill="#fff" d="M444.68 404.301V405.259H447.643L444.68 404.301Z"/><path fill="#fff" d="M447.643 404.301V405.259C450.553 406.824 451.544 408.19 449.619 411.004V411.962C453.899 409.26 451.941 405.566 447.643 404.301ZM174.993 408.132H175.981L180.92 406.216C179.858 409.588 178.609 410.353 174.993 410.047C183.643 416.043 180.751 399.55 174.993 408.132ZM440.728 405.259C439.856 408.423 439.783 410.123 442.704 411.962L440.728 405.259Z"/><path fill="#fff" d="M441.716 405.259C439.145 416.445 456.871 410.431 448.631 405.259V406.217C451.391 410.956 441.562 412.672 443.692 405.259H441.716Z"/><path fill="#fff" d="M444.024 406.254C439.733 408.929 445.979 412.345 449.003 410.034C452.501 407.364 446.721 404.571 444.024 406.254Z"/><path fill="#fff" d="M174.993 410.047C178.836 410.895 180.269 410.001 180.92 406.217L174.993 410.047Z"/><path fill="#fff" d="M361.699 406.217L362.687 407.174L361.699 406.217Z"/><path fill="#88271A" d="M443.692 406.217V410.047H448.631L443.692 406.217Z"/><path fill="#fff" d="M176.969 407.174V410.047H179.932V407.174H176.969Z"/><path fill="#fff" d="M247.436 407.813L247.766 408.451L247.436 407.813ZM361.04 407.813L361.37 408.451L361.04 407.813ZM248.424 409.728L248.754 410.366L248.424 409.728ZM360.052 410.686L360.382 411.323L360.052 410.686ZM249.083 411.004L250.07 411.962L249.083 411.004ZM250.07 411.962L251.058 412.92L250.07 411.962ZM443.692 411.962V412.92H448.631L443.692 411.962ZM251.387 413.558L251.717 414.196L251.387 413.558ZM358.735 412.92L359.723 413.877L358.735 412.92ZM357.748 413.877L358.735 414.835L357.748 413.877ZM252.046 414.835L253.034 415.792L252.046 414.835ZM253.034 415.792L254.022 416.75L253.034 415.792ZM356.76 415.792L357.748 416.75L356.76 415.792ZM254.022 416.75L255.01 417.708L254.022 416.75ZM354.784 416.75L355.772 417.708L354.784 416.75ZM255.01 417.708L255.998 418.665L255.01 417.708ZM255.998 418.665L256.985 419.623L255.998 418.665ZM353.796 418.665L354.784 419.623L353.796 418.665ZM352.808 419.623L353.796 420.58L352.808 419.623ZM257.973 420.58L258.961 421.538L257.973 420.58ZM351.82 420.58L352.808 421.538L351.82 420.58ZM258.961 421.538L259.949 422.495L258.961 421.538ZM350.504 421.857L351.162 422.177L350.504 421.857ZM260.937 422.495V423.453H264.888L260.937 422.495Z"/><path fill="#fff" d="M264.888 422.496V423.453H275.755L264.888 422.496Z"/><path fill="#fff" d="M275.755 422.496V423.453H347.869L325.148 422.496H275.755ZM265.876 423.453V424.411H274.767L265.876 423.453ZM265.876 428.241V429.199H346.881L322.184 428.241H265.876ZM260.937 429.199L258.961 433.987H259.949L262.913 429.199H260.937Z"/><path fill="#fff" stroke="#fff" stroke-width="2" d="M265.725 439.763L266.876 439.94V438.775V437.817V437.071L266.161 436.858C264.709 436.427 263.931 435.853 263.565 435.348C263.228 434.883 263.184 434.407 263.367 433.916C263.771 432.825 265.398 431.537 267.965 431.255L267.965 431.255C281.727 429.743 296.126 430.221 310.412 430.696C317.355 430.926 324.272 431.156 331.075 431.156C332.838 431.156 339.766 431.414 344.697 432.478C345.925 432.743 346.991 433.05 347.807 433.399C348.662 433.764 349.078 434.107 349.223 434.344C349.277 434.434 349.283 434.49 349.278 434.542C349.271 434.61 349.233 434.755 349.06 434.986C348.697 435.471 347.897 436.129 346.405 436.938L343.988 438.248L346.681 438.797C348.188 439.104 349.501 438.832 350.503 438.108C351.489 437.395 352.074 436.315 352.287 435.178C352.708 432.924 351.699 430.201 349.044 428.998L349.044 428.998C346.365 427.785 342.853 427.621 339.486 427.722C337.935 427.768 336.375 427.872 334.902 427.971C334.758 427.981 334.615 427.99 334.473 428C332.863 428.107 331.378 428.199 330.087 428.199H286.621C285.011 428.199 283.187 428.089 281.233 427.958C280.952 427.939 280.669 427.92 280.384 427.901C278.693 427.786 276.924 427.666 275.165 427.6C271.082 427.448 266.881 427.579 263.587 428.842C261.824 429.518 260.576 430.457 259.876 431.599C259.162 432.767 259.082 434.047 259.481 435.224C260.256 437.507 262.758 439.308 265.725 439.763ZM267.856 430.261L267.856 430.261L267.856 430.261Z"/><path fill="#fff" d="M349.516 429.518L350.174 429.837L349.516 429.518Z"/><path fill="#fff" d="M264.126 430.867C259.334 433.04 261.884 437.424 265.895 438.312C284.777 442.491 308.732 438.775 328.112 438.775C333.397 438.775 345.131 440.856 349.244 436.995C356.94 429.772 336.716 430.156 334.039 430.156H284.646C278.826 430.156 269.476 428.441 264.126 430.867Z"/><path fill="#fff" d="M351.162 430.795L351.492 431.433L351.162 430.795Z"/><path fill="#88271A" d="M265.129 431.824C256.316 435.904 273.598 437.817 275.755 437.817H328.112C332.471 437.817 345.012 439.877 347.977 436.153C352.72 430.195 333.339 431.114 331.075 431.114H284.646C279.12 431.114 270.198 429.478 265.129 431.824Z"/><path fill="#fff" stroke="#fff" d="M263.253 442.545C261.921 443.768 260.967 445.481 260.517 447.85H260.435C260.407 445.74 260.847 444.184 261.591 443.026C262.39 441.783 263.571 440.947 265.028 440.386C267.912 439.273 271.749 439.274 275.491 439.274C275.579 439.274 275.667 439.274 275.755 439.274H282.094C281.611 439.312 281.13 439.353 280.649 439.397C279.134 439.534 277.531 439.56 275.896 439.587C275.433 439.594 274.968 439.602 274.502 439.612C272.404 439.657 270.29 439.755 268.363 440.153C266.434 440.551 264.656 441.257 263.253 442.545ZM347.664 441.56C342.407 439.505 336.976 439.127 331.487 439.121C331.801 439.099 332.121 439.076 332.445 439.053C332.807 439.027 333.174 439.001 333.545 438.975C335.562 438.837 337.697 438.72 339.721 438.799C341.75 438.878 343.631 439.154 345.153 439.779C346.182 440.202 347.035 440.78 347.664 441.56Z"/><path fill="#fff" stroke="#fff" stroke-width="3" d="M266.559 440.645L266.559 440.645C276.786 438.382 288.341 438.275 299.824 438.715C304.166 438.882 308.481 439.125 312.719 439.364C319.781 439.761 326.632 440.147 333.051 440.147C334.491 440.147 340.465 440.379 345.017 441.483C346.164 441.761 347.271 442.106 348.214 442.541C349.127 442.962 350.045 443.538 350.632 444.363C351.294 445.295 351.446 446.426 350.964 447.57C350.532 448.592 349.638 449.529 348.451 450.421C345.523 452.622 341.252 453.13 337.284 453.162C335.256 453.178 333.21 453.067 331.325 452.944C330.878 452.915 330.442 452.886 330.018 452.857C328.631 452.763 327.37 452.678 326.261 452.646L326.261 452.646C317.326 452.39 308.379 452.498 299.406 452.606C294.494 452.665 289.575 452.724 284.646 452.723L266.559 440.645ZM266.559 440.645C263.647 441.29 261.479 443.194 261.092 445.647C260.686 448.223 262.349 450.561 265.384 451.759L265.384 451.76M266.559 440.645L265.384 451.76M265.384 451.76C268.213 452.877 271.781 453.081 275.163 453.045M265.384 451.76L275.163 453.045M275.163 453.045C276.852 453.027 278.547 452.947 280.135 452.872M275.163 453.045L280.135 452.872M280.135 452.872L280.204 452.869M280.135 452.872L280.204 452.869M280.204 452.869C281.826 452.793 283.323 452.723 284.646 452.723L280.204 452.869Z"/><path fill="#fff" d="M349.845 442.605L350.833 443.563L349.845 442.605Z"/><path fill="#88271A" d="M262.913 444.52C265.316 451.712 277.38 449.308 283.658 449.308C303.123 449.308 330.567 454.032 348.857 447.393C345.366 441.256 334.44 443.563 328.112 443.563C307.616 443.563 282.853 439.918 262.913 444.52Z"/><path fill="#fff" d="M350.833 443.562V449.308H351.821L350.833 443.562ZM260.937 449.308L261.925 450.266L260.937 449.308ZM349.845 449.308L350.833 450.266L349.845 449.308ZM261.925 450.266L262.913 451.223L261.925 450.266ZM345.893 451.223V452.181L349.845 451.223H345.893ZM263.572 451.542L264.23 451.862L263.572 451.542ZM265.876 452.181V453.138H345.893L321.197 452.181H265.876ZM263.901 453.138L264.888 454.096L263.901 453.138Z"/><path fill="#fff" d="M269.828 463.672V464.629C261.148 464.902 259.355 472.602 261.631 479.965C263.629 486.424 273.623 494.479 278.807 498.891C287.385 506.192 304.605 502.934 315.269 502.933C319.774 502.933 324.832 503.32 329.011 501.35C333.052 499.445 335.769 494.955 338.978 491.993C346.869 484.711 355.528 473.584 346.881 463.672C357.797 457.181 344.343 453.14 337.99 453.138H274.767C271.244 453.138 266.342 452.437 263.227 454.4C255.945 458.987 265.479 463.475 269.828 463.672Z"/><path fill="#fff" d="M347.54 453.457L348.198 453.777L347.54 453.457ZM260.937 454.096L261.925 455.054L260.937 454.096Z"/><path fill="#fff" d="M265.035 454.807C260.973 456.591 262.045 461.169 265.935 462.299C271.752 463.989 279.592 462.714 285.634 462.714H328.112C333.085 462.714 344.452 464.735 348.256 461.046C355.794 453.738 335.833 454.096 333.051 454.096H285.634C279.734 454.096 270.487 452.413 265.035 454.807Z"/><path fill="#fff" d="M349.845 454.096L350.833 455.054L349.845 454.096Z"/><path fill="#88271A" d="M265.261 456.033C259.222 460.291 273.839 461.747 275.755 461.756C292.876 461.836 310.001 461.757 327.124 461.757C332.074 461.757 342.563 463.642 346.459 460.092C352.7 454.406 334.215 455.053 332.063 455.053H283.658C278.987 455.053 269.185 453.266 265.261 456.033Z"/><path fill="#fff" d="M350.832 455.053V461.757H351.82L350.832 455.053ZM259.949 456.011V460.799H260.937L259.949 456.011ZM260.937 461.757L261.925 462.714L260.937 461.757ZM349.845 461.757L350.832 462.714L349.845 461.757ZM262.913 462.714V463.672L269.828 464.629V463.672L262.913 462.714ZM347.869 462.714L348.857 463.672L347.869 462.714ZM346.881 463.672L347.869 464.629L346.881 463.672ZM261.925 464.629V466.545L263.9 464.629H261.925ZM347.869 464.629L348.857 465.587L347.869 464.629Z"/><path fill="#fff" d="M264.888 474.205C259.809 481.78 274.55 496.115 281.771 499.889C284.986 501.569 289.041 500.893 292.548 501.177C301.969 501.938 319.256 503.629 328.108 500.307C332.169 498.783 334.28 494.857 337.209 491.993C341.489 487.809 355.712 473.944 347.55 467.255C343.149 463.649 332.53 465.587 327.124 465.587C308.105 465.587 286.621 462.845 267.857 465.729C262.512 466.55 261.304 470.746 264.888 474.205Z"/><path fill="#fff" d="M348.857 465.587L349.845 466.545L348.857 465.587ZM260.937 466.545L261.925 467.502L260.937 466.545ZM349.845 466.545L350.832 467.502L349.845 466.545ZM259.949 467.502V472.29H260.937L259.949 467.502Z"/><path fill="#88271A" d="M262.913 468.46C264.264 476.005 277.594 473.248 283.658 473.248H331.075C334.584 473.248 344.501 474.898 346.796 471.731C349.405 468.129 342.985 467.544 340.953 467.507C332.728 467.356 324.484 467.502 316.257 467.502H294.524C284.085 467.502 273.205 466.608 262.913 468.46Z"/><path fill="#fff" d="M350.832 468.46V473.248H351.82L350.832 468.46ZM260.937 473.248L261.925 474.205L260.937 473.248ZM349.845 473.248L350.832 474.205L349.845 473.248ZM261.925 474.205L262.913 475.163L261.925 474.205ZM348.857 474.205V478.993H349.845L348.857 474.205ZM172.029 476.12C176.243 483.509 181.343 473.716 172.029 476.12V476.12ZM261.266 475.802L261.596 476.439L261.266 475.802Z"/><path fill="#fff" d="M173.017 476.121L177.956 478.993V476.121H173.017Z"/><path fill="#fff" d="M175.651 477.397L176.31 477.717L175.651 477.397Z"/><path fill="#88271A" d="M263.9 480.908C270.83 485.735 275.569 495.258 282.995 499.017C287.912 501.506 296.037 500.06 301.439 500.06C309.056 500.06 318.776 501.609 326.121 499.512C332.953 497.562 343.768 485.061 346.881 478.993C325.856 478.98 304.729 477.023 283.657 478.118C277.921 478.417 267.099 475.572 263.9 480.908Z"/><path fill="#fff" d="M259.949 478.993L260.937 479.951L259.949 478.993ZM350.174 479.632L350.504 480.27L350.174 479.632ZM260.937 480.909L261.925 481.866L260.937 480.909ZM348.857 480.909L349.845 481.866L348.857 480.909ZM261.925 481.866L262.913 482.824L261.925 481.866ZM262.913 482.824L263.9 483.781L262.913 482.824ZM347.869 482.824L348.857 483.781L347.869 482.824ZM263.9 483.781L264.888 484.739L263.9 483.781ZM346.881 483.781L347.869 484.739L346.881 483.781ZM264.888 484.739L265.876 485.697L264.888 484.739ZM344.905 484.739L343.917 486.654H345.893L344.905 484.739ZM265.876 485.697L266.864 486.654L265.876 485.697ZM266.864 486.654L267.852 487.612L266.864 486.654ZM342.93 486.654L343.917 487.612L342.93 486.654ZM268.84 488.569L269.828 489.527L268.84 488.569ZM341.942 488.569L342.93 489.527L341.942 488.569ZM340.954 489.527L341.942 490.484L340.954 489.527ZM269.828 490.484L270.815 491.442L269.828 490.484ZM339.966 490.484L340.954 491.442L339.966 490.484ZM270.815 491.442L271.803 492.4L270.815 491.442ZM338.978 491.442L339.966 492.4L338.978 491.442ZM271.803 492.4L272.791 493.357L271.803 492.4ZM337.002 492.4L337.99 493.357L337.002 492.4ZM273.779 493.357L274.767 494.315L273.779 493.357ZM336.015 493.357L337.002 494.315L336.015 493.357ZM274.767 494.315L275.755 495.272L274.767 494.315ZM335.027 494.315L336.015 495.272L335.027 494.315ZM275.755 496.23L276.743 497.188L275.755 496.23ZM334.039 496.23L335.027 497.188L334.039 496.23ZM276.743 497.188L277.731 498.145L276.743 497.188ZM333.051 497.188L334.039 498.145L333.051 497.188ZM277.731 498.145L278.718 499.103L277.731 498.145ZM332.063 498.145L333.051 499.103L332.063 498.145ZM278.718 499.103V501.018H280.694L278.718 499.103ZM331.075 500.06L332.063 501.018L331.075 500.06ZM281.353 501.337L282.011 501.657L281.353 501.337ZM329.758 501.337L330.416 501.657L329.758 501.337ZM282.67 501.976V502.933H285.633L282.67 501.976ZM325.148 501.976V502.933H329.099L325.148 501.976ZM288.268 503.252L288.926 503.572L288.268 503.252Z"/><path stroke="#fff" stroke-linecap="round" stroke-width="15" d="M219.296 223.444C219.296 221.391 224.654 216.381 226.118 214.917C228.621 212.414 230.54 207.124 234.274 206.057C235.089 205.824 238.435 202.706 238.797 202.09C240.117 199.846 243.459 198.653 245.618 197.419C249.194 195.376 251.778 191.855 255.331 190.078"/><path stroke="#fff" stroke-linecap="round" stroke-width="15" d="M255.331 190.078C255.537 188.433 260.989 186.508 262.375 186.112C264.894 185.392 267.253 183.479 269.715 182.775C275.224 181.201 279.12 178.414 285.36 178.067C286.608 177.998 290.607 176.939 291.514 176.213C292.35 175.545 295.306 176.065 296.371 176.065C299.72 176.065 303.069 176.065 306.417 176.065C310.44 176.065 314.431 177.4 318.058 177.4C320.372 177.4 324.453 177.844 326.214 179.253C328.099 180.761 332.736 180.847 335.075 181.366C338.133 182.046 341.651 183.537 344.417 185.074C346.903 186.455 349.633 187.446 352.091 188.892C353.6 189.779 355.318 192.08 357.096 192.08C358.377 192.08 361.027 193.49 361.953 194.231C366.1 197.548 371.968 200.077 375.447 204.426C377.472 206.957 380.105 209.247 382.12 211.766C383.513 213.507 386.526 216.655 386.828 218.773C387.241 221.662 390.535 223.192 391.463 225.743C391.891 226.921 392.766 229.695 393.613 230.636C394.801 231.957 398.803 236.254 398.803 238.125C398.803 241.99 400.527 245.661 401.509 249.098C402.35 252.041 402.807 254.421 402.807 257.811C402.807 260.867 401.472 264.047 401.472 267.338C401.472 271.366 401.696 275.475 401.472 279.498C401.397 280.859 400.208 282.301 400.138 283.502C400.014 285.598 400.838 288.647 399.804 290.509C398.652 292.581 398.383 296.651 396.467 298.183C394.149 300.038 393.509 303.356 391.463 305.523C388.91 308.226 388.588 312.787 386.272 315.681C383.374 319.304 378.733 324.887 377.486 329.25C375.893 334.827 370.992 339.312 368.922 344.227C366.547 349.868 364.146 355.485 361.434 360.91"/><path stroke="#fff" stroke-linecap="round" stroke-width="15" d="M360.766 360.91C360.766 362.695 359.519 364.101 359.432 365.581C359.355 366.889 359.116 369.19 358.727 370.549C357.846 373.632 356.212 376.565 355.465 379.928C355.069 381.712 354.093 382.557 354.093 384.6C354.093 386.7 354.21 388.842 354.093 390.939C353.905 394.317 350.947 397.72 350.757 400.949C350.464 405.929 345.2 414.295 339.746 414.295C331.725 414.295 325.445 416.297 317.391 416.297C309.437 416.297 301.738 415.63 293.701 415.63C289.931 415.63 286.32 414.962 282.691 414.962C279.219 414.962 275.92 413.151 272.681 412.96C269.839 412.793 265.608 411.757 263.042 410.291C260.185 408.658 259.302 405.637 258.631 402.617C257.833 399.026 255.331 396.239 255.331 392.274C255.331 388.467 253.529 384.998 253.329 381.597C253.141 378.402 252.655 375.06 251.957 371.921C250.803 366.727 247.849 362.393 245.989 357.277C243.706 351.001 240.511 344.647 237.462 338.889C235.735 335.627 232.17 332.925 231.345 329.213C230.559 325.675 228.097 324.532 225.969 321.872C221.124 315.816 217.294 309.812 217.294 301.519C217.294 298.411 215.78 294.523 214.291 291.843C212.73 289.033 210.621 286.553 210.621 283.168C210.621 275.442 209.954 267.958 209.954 260.146C209.954 258.287 208.901 250.579 210.288 249.469C210.645 249.183 211.258 245.319 211.289 244.798C211.391 243.061 212.623 241.35 212.623 239.793C212.623 237.189 215.179 233.24 216.479 230.784C217.967 227.973 220.963 225.117 221.966 222.109"/><path stroke="#fff" stroke-linecap="round" stroke-width="12" d="M253.329 406.955C253.329 402.442 251.563 398.515 251.327 394.276C251.186 391.734 250.504 387.252 249.474 384.933C248.464 382.661 248.332 379.354 246.805 377.445C245.767 376.148 244.654 371.232 244.654 369.585"/><path stroke="#fff" stroke-linecap="round" stroke-width="12" d="M244.654 368.918C244.401 366.126 242.652 363.389 242.652 360.576C242.652 358.202 242.448 357.178 241.318 355.201C240.393 353.583 238.776 352.066 237.462 350.752C236.027 349.316 235.927 347.499 234.793 346.081C232.678 343.437 230.768 339.882 228.639 337.22C226.752 334.862 225.138 331.92 223.634 329.213C222.146 326.535 220.939 323.694 219.445 320.871C217.93 318.01 216.229 314.974 215.33 311.826C214.574 309.18 213.207 304.918 211.437 302.706C209.477 300.255 210.656 295.723 208.768 293.363C207.057 291.225 207.934 285.255 207.322 282.501C206.657 279.507 205.283 275.789 205.283 272.825C205.283 269.394 203.999 262.724 205.617 259.812C207.489 256.443 206.284 251.471 207.322 247.838C209.292 240.944 209.628 233.185 212.623 226.447C213.883 223.612 215.036 220.067 217.146 217.957C219.282 215.821 221.623 213.281 223.3 210.765"/><path stroke="#fff" stroke-linecap="round" stroke-width="12" d="M223.968 210.765C223.968 207.931 228.627 203.43 231.308 202.09"/><path stroke="#fff" stroke-linecap="round" stroke-width="12" d="M231.308 202.09C233.524 202.09 236.184 200.36 237.314 198.383C238.827 195.734 242.904 197.271 244.654 195.083C247.447 191.592 253.517 188.614 257.333 186.594C259.466 185.464 261.266 183.31 263.672 182.775C266.08 182.24 269.247 180.069 271.68 180.069C274.92 180.069 277.603 178.067 280.689 178.067C283.657 178.067 286.877 177.4 290.031 177.4"/><path stroke="#fff" stroke-linecap="round" stroke-width="12" d="M235.979 200.088C235.979 197.82 241.408 195.656 243.32 195.417C244.714 195.243 245.262 192.922 246.656 192.748C247.816 192.603 249.827 190.724 250.957 190.078C252.097 189.427 253.164 187.675 254.33 186.742C255.621 185.709 257.52 184.544 259.039 184.11C262.117 183.23 265.077 181.535 268.01 180.069"/><path stroke="#fff" stroke-linecap="round" stroke-width="12" d="M237.314 197.419C241.136 194.022 243.988 190.412 248.658 188.077"/><path stroke="#fff" stroke-linecap="round" stroke-width="12" d="M248.658 188.077C250.189 187.885 252.389 185.36 253.663 184.369C255.217 183.16 257.077 182.553 258.519 181.255C261.09 178.941 264.885 176.732 268.344 176.732C272.069 176.732 275.898 174.73 279.688 174.73C283.58 174.73 287.829 174.063 292.033 174.063"/><path stroke="#fff" stroke-linecap="round" stroke-width="12" d="M292.033 174.063C300.819 174.063 309.606 174.063 318.392 174.063C321.853 174.063 326.238 174.807 329.403 176.213C333.23 177.914 337.581 178.301 341.414 180.217C344.882 181.951 349.082 181.882 352.425 183.739C355.652 185.532 358.427 188.191 361.73 190.078C364.326 191.562 367.468 194.482 369.59 196.603C372.234 199.248 376.479 202.152 378.116 205.427"/><path stroke="#fff" stroke-linecap="round" stroke-width="12" d="M378.116 205.427C378.553 209.353 383.927 212.356 386.124 215.103C388.556 218.142 391.839 220.781 394.651 223.592C395.808 224.749 397.313 225.931 397.987 227.448C398.546 228.704 398.279 232.767 399.137 233.454C399.861 234.033 400.85 237.333 401.472 238.421C402.513 240.243 402.14 242.607 402.14 244.798"/><path stroke="#fff" stroke-linecap="round" stroke-width="12" d="M402.14 244.798C402.14 250.309 402.14 255.821 402.14 261.332C402.14 265.88 402.956 269.754 403.511 274.197C403.963 277.812 404.809 280.788 404.809 284.503C404.809 286.919 403.608 290.44 402.807 292.844"/><path stroke="#fff" stroke-linecap="round" stroke-width="12" d="M388.126 323.541C388.126 319.511 391.156 314.083 393.131 310.528C395.061 307.054 397.495 304.11 398.803 300.185"/><path stroke="#fff" stroke-linecap="round" stroke-width="12" d="M372.778 350.233C372.778 346.451 376.345 343.268 376.782 339.556C377.146 336.459 380.528 332.704 382.12 329.917C383.774 327.023 386.456 324.832 388.126 321.909C389.4 319.679 391.295 313.281 393.464 312.196"/><path stroke="#fff" stroke-linecap="round" stroke-width="12" d="M364.77 363.579C364.77 356.761 372.255 347.902 376.411 342.559C380.775 336.948 385.655 331.152 388.793 324.875"/><path stroke="#fff" stroke-linecap="round" stroke-width="12" d="M352.091 404.953C352.091 396.294 357.886 388.508 360.136 380.633C361.093 377.283 363.499 373.445 364.919 370.252C366.459 366.786 368.468 363.524 370.109 360.243"/><path stroke="#fff" stroke-linecap="round" stroke-width="12" d="M351.424 412.96C351.771 409.493 353.409 406.53 354.13 403.284C354.758 400.462 356.165 396.805 357.43 394.276"/><path stroke="#fff" stroke-linecap="round" stroke-width="12" d="M350.089 412.293C345.376 412.293 339.958 412.791 336.224 415.778C333.091 418.284 334.101 417.631 337.744 417.631C340.509 417.631 342.982 416.297 345.418 416.297"/><path stroke="#fff" stroke-linecap="round" stroke-width="12" d="M286.027 416.964C280.655 416.964 275.926 416.297 270.679 416.297C268.026 416.297 260.603 414.161 259.335 411.626"/><path stroke="#fff" stroke-linecap="round" stroke-width="12" d="M261.337 411.626C268.167 411.626 274.297 408.289 281.023 408.289C287.35 408.289 294.08 408.956 300.041 408.956C313.537 408.956 326.612 408.289 340.08 408.289"/><path stroke="#fff" stroke-linecap="round" stroke-width="12" d="M260.002 403.618C262.25 403.868 265.408 405.987 267.343 406.954"/><path stroke="#fff" stroke-linecap="round" stroke-width="6" d="M387.459 232.786C387.459 235.493 389.835 237.633 390.128 240.127C390.381 242.274 391.463 244.909 391.463 247.134C391.463 249.581 392.797 251.593 392.797 254.177C392.797 257.326 394.132 260.178 394.132 263.483C394.132 268.932 394.132 274.382 394.132 279.832C394.132 282.66 394.096 285.164 393.502 287.84C392.932 290.405 391.62 292.373 390.795 294.846"/><path stroke="#fff" stroke-linecap="round" stroke-width="6" d="M370.776 208.763C370.249 208.763 366.848 208.67 367.18 209.134C368.005 210.289 370.496 212.056 371.74 212.767C372.811 213.379 375.971 216.956 376.114 218.106C376.277 219.405 379.385 223.258 380.452 224.111C382.17 225.486 383.488 227.798 385.457 228.783"/><path stroke="#fff" stroke-linecap="round" stroke-width="6" d="M280.689 184.74C284.804 184.74 288.919 184.74 293.034 184.74C296.134 184.74 299.438 182.252 302.71 182.071C306.355 181.868 310.07 182.071 313.721 182.071C317.496 182.071 320.507 183.405 324.064 183.405"/><path stroke="#fff" stroke-linecap="round" stroke-width="6" d="M311.385 168.724C306.41 168.724 301.482 168.057 296.371 168.057C291.744 168.057 286.604 168.724 282.357 168.724C280.021 168.724 278.742 169.938 276.685 170.059C275.6 170.123 271.742 171.478 270.828 172.209C269.37 173.375 266.977 173.021 265.489 174.211C264.09 175.331 262.289 176.32 260.67 177.399"/><path stroke="#fff" stroke-linecap="round" stroke-width="6" d="M183.929 168.057C186.921 170.717 190.556 172.386 193.42 175.249C197.095 178.925 200.783 182.444 204.616 186.075C209.99 191.166 195.021 174.775 189.786 169.54C189.205 168.959 185.265 166.84 187.266 166.723C189.439 166.595 191.015 168.099 192.456 169.54C195.016 172.1 197.812 174.494 200.463 176.881C201.501 177.814 205.135 180.529 204.616 180.217C202.963 179.226 200.96 176.631 199.425 175.249C197.892 173.869 196.739 172.192 195.273 170.726C194.449 169.902 190.81 165.966 193.42 168.576C196.061 171.217 199.693 172.383 202.465 174.879C205.203 177.342 207.258 180.339 209.806 182.886C211.354 184.435 215.268 191.141 213.142 193.267C209.704 196.705 204.798 190.928 202.614 188.744C197.433 183.563 178.948 171.535 185.264 175.249C190.161 178.13 193.906 181.978 198.61 184.592C202.16 186.564 205.066 189.636 208.619 191.413"/><path stroke="#fff" stroke-linecap="round" stroke-width="6" d="M191.269 165.388C191.451 166.841 194.674 169.089 195.792 170.207C197.398 171.814 198.336 173.761 199.796 175.546C202.101 178.363 204.041 181.353 206.617 184.073C208.608 186.174 210.049 187.6 211.289 190.078"/><path stroke="#fff" stroke-linecap="round" stroke-width="6" d="M298.039 110.668C298.039 115.059 296.037 118.055 296.037 122.68C296.037 127.351 296.037 132.022 296.037 136.694C296.037 138.896 297.872 145.681 300.708 146.036C302.687 146.283 304.763 146.703 307.048 146.703C310.59 146.703 310.718 146.575 310.718 143.033C310.718 138.339 311.385 133.821 311.385 129.019C311.385 125.018 312.588 118.838 309.05 116.007C306.707 114.133 304.147 106.371 302.673 113.004C301.361 118.91 301.376 124.585 301.376 130.688C301.376 133.023 301.376 135.359 301.376 137.694C301.376 138.998 303.959 143.486 304.045 142.032C304.285 137.951 304.54 132.41 306.195 128.686C307.406 125.96 308.896 117.734 306.862 115.191C305.939 114.037 306.714 115.751 306.714 117.49C306.714 119.47 307.229 122.445 306.38 124.311C305.6 126.027 304.712 129.111 304.712 131.021C304.712 134.545 302.343 141.406 304.712 144.368C305.764 145.682 306.341 139.869 306.566 139.363C307.395 137.498 308.716 133.662 308.716 131.689C308.716 126.688 309.383 121.863 309.383 117.008C309.383 114.686 309.52 112.318 309.383 110.001C309.309 108.74 305.122 107.999 304.045 107.999"/><path stroke="#fff" stroke-linecap="round" stroke-width="6" d="M392.13 182.071C392.673 177.181 401.646 173.461 404.141 169.095C406.451 165.054 411.937 159.488 416.153 157.38"/><path stroke="#fff" stroke-linecap="round" stroke-width="9" d="M392.797 182.071C393.873 183.027 395.327 183.557 396.468 184.443C397.731 185.426 398.42 184.175 399.767 183.405C402.372 181.917 403.866 178.381 406.811 177.4"/><path stroke="#fff" stroke-linecap="round" stroke-width="9" d="M406.811 176.732C410.016 173.527 410.777 169.689 414.485 166.723C417.529 164.288 419.49 161.928 419.49 158.047"/><path stroke="#fff" stroke-linecap="round" stroke-width="9" d="M392.797 176.065C396.532 172.33 400.599 170.367 403.474 166.055"/><path stroke="#fff" stroke-linecap="round" stroke-width="9" d="M398.803 177.399C400.471 177.399 402.14 177.399 403.808 177.399C405.661 177.399 406.258 175.889 407.849 175.435C409.68 174.911 413.592 171.069 414.151 169.392"/><path stroke="#fff" stroke-linecap="round" stroke-width="9" d="M433.503 272.158H469.538"/><path stroke="#fff" stroke-linecap="round" stroke-width="9" d="M430.167 271.49C433.285 271.837 434.734 274.827 438.174 274.827C441.218 274.827 443.797 276.162 447.183 276.162C453.729 276.162 460.691 275.494 466.869 275.494"/><path stroke="#fff" stroke-linecap="round" stroke-width="9" d="M432.169 270.156C444.28 270.156 455.944 269.488 468.203 269.488"/><path stroke="#fff" stroke-linecap="round" stroke-width="9" d="M436.84 267.487C440.955 267.487 445.07 267.487 449.185 267.487C453.065 267.487 456.873 268.821 460.863 268.821"/><path stroke="#fff" stroke-linecap="round" stroke-width="9" d="M403.474 351.568C407.91 355.559 413.413 358.365 416.672 363.579C417.833 365.437 421.503 368.012 423.493 369.066C425.944 370.363 427.987 372.922 430.834 372.922"/><path stroke="#fff" stroke-linecap="round" stroke-width="9" d="M431.501 372.922C432.892 372.922 436.266 375.601 434.689 372.922C433.233 370.445 430.5 369.335 428.832 367.25C427.434 365.502 425.236 364.358 423.642 362.764C422.475 361.597 421.215 359.725 419.786 358.908C416.322 356.928 413.485 353.403 409.48 352.902C407.181 352.615 405.476 350.061 405.476 353.903C405.476 356.121 405.333 358.503 407.478 359.575"/><path stroke="#fff" stroke-linecap="round" stroke-width="9" d="M406.144 350.9C409.301 351.295 412.671 354.624 415.857 355.534C418.581 356.313 420.185 358.903 422.53 360.243C424.917 361.607 426.908 364.061 429.499 365.433C431.114 366.288 434.763 368.767 435.505 370.252"/><path stroke="#fff" stroke-linecap="round" stroke-width="9" d="M404.142 351.568C407.547 351.946 413.097 355.395 415.634 357.425C417.157 358.643 420.164 358.917 421.492 360.576C422.517 361.858 424.888 362.184 426.015 363.06C428.852 365.267 419.919 359.248 416.821 357.425C413.926 355.723 408.979 353.235 407.478 350.233"/><path stroke="#fff" stroke-linecap="round" stroke-width="9" d="M407.478 350.9C412.38 350.9 416.472 353.468 419.49 357.24C420.511 358.516 422.279 360.515 423.79 360.947C424.748 361.221 428.485 363.553 428.832 364.247"/><path stroke="#fff" stroke-linecap="round" stroke-width="9" d="M171.25 370.92C173.954 370.649 177.721 367.01 180.222 365.581C181.715 364.728 183.026 363.892 184.596 363.06C187.771 361.38 190.564 358.841 193.939 357.054C197.042 355.412 198.336 351.445 201.279 349.714C203.433 348.447 202.541 348.989 201.279 350.567C200.094 352.047 197.968 353.549 196.46 354.756C193.494 357.128 189.222 358.23 186.079 361.058C183.693 363.206 180.602 365.275 178.442 367.435C177.683 368.194 175.265 370.178 174.253 370.178C172.922 370.178 176.186 367.021 176.44 366.768C179.265 363.943 182.786 361.671 185.264 358.574C186.099 357.53 189.087 354.839 188.081 355.72C186.532 357.076 184.614 358.385 186.598 355.905C188.22 353.877 193.066 351.579 195.57 350.863C197.104 350.425 205.066 346.703 203.911 351.901C203.138 355.381 197.193 355.508 195.273 357.907C193.016 360.729 188.514 363.016 185.597 365.285C182.513 367.683 178.972 370.04 175.588 371.921C172.839 373.448 181.193 368.896 184.263 368.213C187.451 367.505 191.095 365.263 192.604 362.245"/><path stroke="#fff" stroke-linecap="round" stroke-width="9" d="M189.267 363.579C192.32 363.579 191.765 363.049 193.605 361.577C194.671 360.725 197.581 359.631 197.942 358.908"/><path stroke="#fff" stroke-linecap="round" stroke-width="9" d="M141.221 272.158C147.672 272.158 154.122 272.158 160.573 272.158C163.242 272.158 165.911 272.158 168.581 272.158C170.201 272.158 175.198 273.003 176.44 272.009C177.367 271.268 178.702 271.418 179.925 271.49C180.963 271.551 180.963 274.099 179.925 274.16C177.545 274.3 175.084 276.023 172.585 276.162C167.058 276.469 161.816 276.829 156.235 276.829C153.897 276.829 141.888 278.038 141.888 275.161C141.888 272.342 142.054 270.156 145.558 270.156C147.888 270.156 149.812 268.821 152.232 268.821C154.536 268.821 156.987 268.154 159.572 268.154C162.328 268.154 164.977 268.821 167.58 268.821C169.634 268.821 172.799 269.597 174.883 270.193C178.6 271.255 176.902 268.154 174.587 268.154"/><path stroke="#88271A" stroke-linecap="round" stroke-width="9" d="M446.182 414.295C446.182 411.745 446.012 409.692 445.478 407.288C445.308 406.525 444.893 405.302 444.514 404.619C443.734 403.215 444.755 403.233 444.032 404.137C442.552 405.987 441.511 411.963 441.511 414.295C441.511 414.78 441.204 416.358 441.659 415.63C442.955 413.557 446.476 412.425 448.481 411.292C451.189 409.761 456.993 406.087 460.196 406.287C460.883 406.33 457.829 408.674 457.193 408.956C456.045 409.467 452.426 412.531 451.521 411.626"/><path stroke="#88271A" stroke-linecap="round" stroke-width="9" d="M449.519 332.883C449.519 336.005 443.546 345.562 449.185 345.562C451.269 345.562 454.857 344.805 454.857 342.559C454.857 341.106 451.541 337.514 450.853 338.889"/><path stroke="#88271A" stroke-linecap="round" stroke-width="9" d="M450.853 136.693C452.123 136.835 456.411 139.134 456.859 140.03"/><path stroke="#88271A" stroke-linecap="round" stroke-width="9" d="M98.5132 134.024C98.5132 138.42 96.5112 142.78 96.5112 147.037C96.5112 147.845 96.5112 142.272 96.5112 140.697C96.5112 137.443 101.459 136.669 104.185 136.063C106.084 135.641 101.85 143.339 101.85 144.701"/><path stroke="#88271A" stroke-linecap="round" stroke-width="9" d="M176.588 412.96C176.588 410.578 177.039 407.801 176.069 405.62C175.028 403.278 175.921 404.803 175.921 406.955"/><path stroke="#88271A" stroke-linecap="round" stroke-width="9" d="M178.59 340.891C178.59 343.115 178.59 345.339 178.59 347.564C178.59 348.391 179.417 343.032 179.591 342.893C180.78 341.942 179.689 340.28 181.593 339.222C182.714 338.6 187.269 338.221 187.265 338.221"/><path stroke="#88271A" stroke-linecap="round" stroke-width="9" d="M169.915 489.034C169.915 486.142 169.915 483.25 169.915 480.359C169.915 478.014 170.738 478.498 172.066 477.171C173.8 475.436 174.29 477.483 175.105 479.024C176.077 480.859 177.841 481.611 179.258 483.028"/><path stroke="#88271A" stroke-linecap="round" stroke-width="9" d="M266.675 344.895C266.675 342.408 265.341 335.067 265.341 337.554C265.341 340.201 265.449 342.469 266.527 344.895C267.421 346.905 268.514 349.106 270.16 350.752C273.413 354.005 273.344 344.58 273.497 343.412C273.595 342.661 274.312 331.549 272.829 333.031C271.659 334.202 272.106 337.617 270.828 339.037C269.362 340.665 260.55 342.653 259.335 340.223"/><path stroke="#88271A" stroke-linecap="round" stroke-width="9" d="M352.759 338.889C354.526 337.122 357.43 333.865 357.43 337.888C357.43 339.697 356.331 342.108 354.76 342.893"/><path stroke="#88271A" stroke-linecap="round" stroke-width="9" d="M362.768 283.502C362.768 278.919 361.714 274.502 360.915 270.008C360.742 269.037 360.766 261.732 360.766 264.15"/><path stroke="#fff" stroke-linecap="round" d="M262.782 422.135C264.185 422.135 265.52 422.472 266.829 422.472C268.191 422.472 269.553 422.472 270.915 422.472C272.268 422.472 273.692 422.64 275.093 422.64C275.453 422.64 276.774 422.621 276.443 422.64C275.773 422.68 275.089 422.64 274.419 422.64C273.059 422.64 271.755 422.809 270.371 422.809C269.155 422.809 269.993 422.809 270.708 422.809C271.383 422.809 272.058 422.809 272.732 422.809C274.057 422.809 276.705 422.809 276.705 422.809C276.705 422.809 274.058 422.978 272.732 422.978"/><path stroke="#fff" stroke-linecap="round" d="M278.635 437.819C276.548 437.819 274.509 437.651 272.395 437.651C271.355 437.651 270.315 437.651 269.275 437.651C268.824 437.651 268.199 437.765 267.766 437.641C267.606 437.595 266.526 437.278 267.167 437.313C268.167 437.369 269.074 438.157 270.118 438.157C271.168 438.157 272.061 438.494 273.07 438.494C275.1 438.494 277.353 438.663 279.478 438.663"/><path stroke="#fff" stroke-linecap="round" d="M263.119 446.758C263.212 446.011 263.406 445.553 263.925 445.034C264.394 444.565 265.284 444.263 265.649 443.806C265.946 443.435 266.971 443.164 267.41 443.038C268.17 442.821 268.865 442.542 269.697 442.542"/><path stroke="#fff" stroke-linecap="round" d="M261.938 446.252C262.57 445.542 263.094 444.397 264.215 444.397C264.741 444.397 265.286 444.091 265.817 444.059C266.068 444.045 265.354 444.092 265.012 444.434C264.708 444.738 264.367 444.815 264.047 445.071C263.858 445.223 263.721 445.433 263.541 445.577C263.333 445.743 263.579 446.086 263.372 446.252C262.447 446.992 264.596 448.822 264.468 448.95"/><path stroke="#fff" stroke-linecap="round" d="M264.779 444.552C264.911 444.537 265.132 444.319 265.259 444.247C265.384 444.175 265.509 444.103 265.642 444.033C265.857 443.919 266.121 443.565 266.353 443.536C266.446 443.525 266.648 443.383 266.708 443.308C266.805 443.187 267.033 443.127 267.165 443.068C267.541 442.901 267.98 442.85 268.333 442.673"/><path stroke="#fff" stroke-linecap="round" d="M264.678 443.638C264.846 443.638 265.032 443.667 265.185 443.598C265.263 443.564 265.515 443.49 265.591 443.486C265.739 443.477 266.388 443.508 266.494 443.424C266.665 443.286 266.998 443.228 267.216 443.119C267.386 443.034 267.792 442.993 267.876 442.826"/><path stroke="#88271A" stroke-linecap="round" d="M350.667 456.72C350.667 458.048 351.391 458.647 351.483 456.992C351.552 455.76 349.634 456.721 350.456 457.748C351.296 458.799 351.559 461.466 350.939 462.705"/><path stroke="#88271A" stroke-linecap="round" d="M352.027 474.402C352.027 473.132 351.287 472.151 350.954 470.986C350.864 470.671 350.939 469.313 350.939 469.505C350.939 469.924 350.735 471.138 351.075 471.41C351.867 472.043 351.211 474.82 351.211 473.042C351.211 472.101 351.582 469.963 350.667 469.505"/><path stroke="#88271A" stroke-linecap="round" d="M426.206 278.444C427.221 278.444 428.41 280.37 427.153 278.799C426.801 278.359 426.189 278.46 425.851 277.852C425.426 277.087 427.084 278.167 427.272 278.313C428.902 279.581 425.616 276.237 427.337 277.786C428.143 278.511 428.791 279.412 429.521 280.101C430.379 280.911 431.639 281.907 432.73 282.219C433.057 282.312 434.262 282.961 433.414 282.719C432.857 282.56 432.344 282.143 431.783 281.982C430.812 281.705 431.826 281.859 432.257 281.982C432.856 282.154 433.468 282.232 434.111 282.232C434.681 282.232 433.015 281.928 432.467 281.772C432.278 281.718 430.889 281.285 431.533 281.285C432.06 281.285 432.523 281.759 433.072 281.759C433.417 281.759 434.55 281.948 434.782 282.18C434.892 282.289 433.531 281.785 433.309 281.759C432.922 281.713 432.123 281.388 431.836 281.101C431.37 280.635 432.693 281.313 432.888 281.469C433.196 281.716 434.316 281.971 434.73 281.995C434.973 282.01 436.136 282.469 435.913 282.469C435.347 282.469 434.392 282.151 433.967 281.811C433.899 281.757 432.591 281.285 432.48 281.285C431.754 281.285 431.12 280.812 430.35 280.812C429.204 280.812 428.234 279.712 427.259 279.154C424.926 277.821 424.312 275.416 424.312 272.88C424.312 272.211 424.075 271.788 424.075 271.105C424.075 269.834 424.075 271.362 424.075 271.815C424.075 272.05 423.947 273.72 424.549 273.42C425.012 273.188 424.844 271.829 424.602 271.525C424.342 271.2 424.549 270.009 424.549 269.592C424.549 269.086 424.036 270.789 424.431 271.105C424.798 271.398 425.496 275.17 425.496 272.407C425.496 271.161 424.633 269.807 425.549 268.79C426.368 267.88 427.302 267.273 428.153 266.422C430.032 264.543 432.787 264.327 435.256 263.476C438.126 262.486 441.074 261.871 444.2 261.871C445.976 261.871 447.751 261.871 449.527 261.871C451.456 261.871 448.369 261.161 447.633 261.161C443.782 261.161 439.917 260.723 436.387 262.292C435.793 262.556 434.814 262.467 434.309 262.871C433.963 263.147 433.266 263.474 432.836 263.528C432.313 263.594 431.995 264.106 431.599 264.423C431.373 264.603 429.641 264.534 430.231 264.239"/><path stroke="#88271A" stroke-linecap="round" d="M462.667 263.291C465.039 263.291 467.526 263.396 469.77 263.528C470.223 263.555 471.5 264.002 471.046 264.002C470.345 264.002 469.643 264.002 468.942 264.002C467.753 264.002 466.455 263.613 465.377 263.305C464.201 262.969 463.161 262.652 461.957 262.581C461.054 262.528 459.485 261.929 458.524 262.463C458.151 262.67 457.174 262.818 456.748 262.818C456.532 262.818 456.143 263.055 456.143 263.055C456.143 263.055 456.532 262.818 456.748 262.818C457.96 262.818 459.16 262.911 460.3 263.291"/><path stroke="#88271A" stroke-linecap="round" d="M476.399 276.787C476.399 275.668 476.39 274.867 476.623 274.051C476.951 272.905 476.91 271.685 476.649 270.513C476.423 269.494 475.216 268.617 475.216 267.553C475.216 266.544 473.985 265.802 473.558 264.949"/><path stroke="#88271A" stroke-linecap="round" d="M471.901 281.522C471.999 280.638 473.181 279.802 473.9 279.391C475.221 278.636 473.461 279.945 472.966 280.22C471.623 280.966 472.12 280.251 472.795 279.575C473.3 279.071 474.121 278.518 474.742 278.207"/><path stroke="#88271A" stroke-linecap="round" d="M397.104 349.416C397.104 351.148 397.104 352.879 397.104 354.611C397.104 355.351 397.104 357.571 397.104 356.831C397.104 355.638 397.104 354.445 397.104 353.252C397.104 352.68 397.609 351.129 397.139 350.659C397.048 350.568 397.104 351.064 397.104 351.174C397.104 351.661 397.132 352.104 397.264 352.577C397.52 353.495 397.995 354.503 398.063 355.455C398.08 355.692 398.437 356.511 398.187 356.733C397.88 357.007 397.908 355.894 397.903 355.81C397.815 354.221 397.423 356.739 397.423 355.49"/><path stroke="#88271A" stroke-linecap="round" d="M398.063 348.777C398.586 348.196 398.963 347.662 399.741 347.489C400.199 347.387 400.974 347.054 401.339 346.77C401.813 346.402 402.313 346.272 402.734 345.935C403.208 345.556 404.228 345.788 404.776 345.544C406.052 344.977 407.64 345.374 408.852 344.701C409.425 344.382 410.53 344.652 410.53 345.34C410.53 345.6 409.364 345.33 409.012 345.251C408.398 345.115 407.817 344.817 407.174 344.781C406.465 344.741 405.769 344.461 405.096 344.461C404.43 344.461 403.764 344.461 403.098 344.461C402.383 344.461 404.025 344.362 404.296 344.701C404.442 344.882 404.581 344.835 404.048 344.932C403.298 345.068 402.529 345.124 401.775 345.296C400.822 345.512 400.158 345.911 399.341 346.344C399.101 346.471 398.709 346.73 398.542 346.939C398.496 346.996 399.318 346.649 399.661 346.539C400.253 346.349 402.749 346.278 403.018 345.74"/><path stroke="#88271A" stroke-linecap="round" d="M442.338 368.757C442.338 369.228 442.169 370.184 442.463 370.551C442.804 370.977 442.636 371.883 442.898 372.353C443.132 372.775 443.111 373.706 443.138 374.191C443.173 374.825 443.73 373.179 443.768 372.913C443.912 371.906 444.281 370.307 443.582 369.432C443.109 368.84 442.978 368.83 442.978 369.716C442.978 370.355 442.978 370.995 442.978 371.634"/><path stroke="#88271A" stroke-linecap="round" d="M169.131 381.937H169.91"/><path stroke="#88271A" stroke-linecap="round" d="M171.195 378.982C172.851 378.982 174.508 378.982 176.165 378.982C176.584 378.982 177.489 378.82 177.808 379.075C178.116 379.322 179.187 379.159 179.338 379.461"/><path stroke="#88271A" stroke-linecap="round" d="M166.165 367.246C166.165 368.619 165.925 370.016 165.925 371.377C165.925 371.993 165.94 372.562 165.712 373.114C165.648 373.269 166.03 373.727 166.165 373.806C166.257 373.86 166.329 374.094 166.404 374.019C166.42 374.003 166.404 373.646 166.404 373.832"/><path stroke="#88271A" stroke-linecap="round" d="M167.842 375.15C167.842 374.411 167.842 373.673 167.842 372.934C167.842 372.33 167.482 371.695 167.482 371.078C167.482 370.378 167.424 369.634 167.609 368.989C167.693 368.694 167.756 368.353 167.848 368.031C167.914 367.799 168.187 367.483 168.201 367.246C168.237 366.626 168.732 366.053 169.039 365.516C169.355 364.963 169.836 364.274 170.263 363.799C170.667 363.351 170.955 362.845 171.315 362.395C171.588 362.054 172.204 361.232 172.632 361.018"/><path stroke="#88271A" stroke-linecap="round" d="M171.793 362.455C172.004 361.089 173.113 360.043 173.949 359.102C174.74 358.212 175.374 357.198 176.225 356.347"/><path stroke="#88271A" stroke-linecap="round" d="M166.404 370C166.404 371.361 166.095 373.1 166.737 374.311C167.013 374.832 166.647 373.746 166.577 373.586C166.318 372.993 166.095 372.389 165.832 371.797C165.733 371.573 165.745 370.902 165.812 370.665C165.891 370.391 166.041 370.549 166.045 370.772C166.057 371.377 166.062 371.946 166.191 372.542C166.306 373.068 166.541 374.376 167.056 374.671C167.54 374.947 167.357 373.452 167.303 373.18C167.259 372.962 166.804 370.013 166.584 370.013C166.229 370.013 167.079 371.941 167.123 372.036C167.45 372.749 167.471 373.593 167.895 374.258C168.177 374.701 168.284 374.918 168.68 375.27C168.918 375.481 169.385 376.234 169.385 375.915C169.385 375.666 168.703 375.006 168.533 374.817C168.316 374.576 168.103 374.235 167.961 373.952"/><path stroke="#88271A" stroke-linecap="round" d="M210.596 354.312C210.596 352.051 210.356 349.982 210.356 347.725C210.356 346.828 209.825 346.072 209.278 345.389C209.038 345.089 208.816 344.752 208.56 344.431C208.382 344.209 207.758 343.827 207.721 343.533C207.694 343.31 207.128 342.77 206.976 342.602C206.692 342.286 206.223 341.995 205.865 341.797C205.226 341.442 204.18 340.898 203.41 340.898C202.931 340.898 202.452 340.898 201.973 340.898C201.71 340.898 200.814 340.88 200.656 341.078C200.46 341.322 199.572 341.258 199.278 341.258C199.048 341.258 198.237 341.424 198.141 341.617"/><path stroke="#88271A" stroke-linecap="round" d="M211.674 353.593C211.674 352.343 210.716 351.215 210.716 350C210.716 349.738 210.716 349.215 210.716 349.215C210.716 349.215 210.716 350.87 210.716 351.697C210.716 352.895 211.314 353.997 211.314 355.15"/><path stroke="#88271A" stroke-linecap="round" d="M219.443 259.613C219.443 261.71 219.814 263.737 219.814 265.744C219.814 267.249 219.443 268.796 219.443 270.389C219.443 273.393 219.484 276.498 219.814 279.308C220.171 282.34 220.557 278.34 220.557 277.264C220.557 275.724 220.643 274.156 220.557 272.619C220.429 270.301 219.071 272.898 219.071 273.919C219.071 274.775 218.603 278.042 219.257 278.564C219.704 278.922 220.186 281.644 220.186 282.28C220.186 285.112 220.557 282.261 220.557 280.98C220.557 277.062 219.443 273.283 219.443 269.295C219.443 268.373 219.443 267.451 219.443 266.529C219.443 264.375 219.443 270.836 219.443 272.99C219.443 273.935 219.443 279.288 219.443 275.777C219.443 273.099 220.186 270.442 220.186 267.705C220.186 264.778 220.186 269.476 220.186 270.389"/><path stroke="#88271A" stroke-linecap="round" d="M241.367 385.957C241.367 387.214 242.029 390.351 243.039 391.159C243.352 391.41 243.47 393.468 243.576 393.946C243.849 395.173 244.142 396.607 244.319 397.848C244.778 401.061 244.711 395.494 244.711 394.504C244.711 392.175 244.509 391.093 243.411 389.115C243.067 388.496 243.143 387.248 242.771 386.783C242.185 386.05 242.553 389.155 242.771 389.673C243.453 391.292 243.597 393.042 243.597 394.875C243.597 398.55 245.083 402.151 245.083 405.652"/><path stroke="#88271A" stroke-linecap="round" d="M365.481 395.247C365.481 396.981 365.481 398.715 365.481 400.449C365.481 402.55 365.383 399.784 365.502 399.128C365.719 397.933 365.47 395.713 366.039 394.689C367.082 392.812 365.83 394.625 365.399 395.164C363.108 398.027 363.252 402.817 363.252 406.395"/><path stroke="#fff" stroke-linecap="round" d="M410.602 363.315C411.029 363.358 411.881 363.724 412.189 364.032C412.341 364.184 412.431 364.402 412.586 364.557C412.916 364.886 411.767 364.099 411.408 363.802C410.909 363.387 410.381 363.006 409.911 362.56C409.726 362.385 409.467 362.461 409.309 362.304C409.069 362.064 409.624 362.555 409.681 362.599C410.31 363.084 410.999 363.466 411.76 363.712C412.772 364.039 413.767 364.473 414.794 364.749C415.41 364.914 416.019 365.269 416.643 365.382C417.747 365.583 418.201 363.346 418.409 362.599C419.004 360.463 419.864 358.382 420.252 356.199C420.282 356.034 420.175 355.406 420.303 355.278C420.482 355.099 421.477 355.045 421.724 355.028C422.662 354.964 423.807 354.887 424.706 355.143C425.101 355.256 425.468 355.835 425.749 356.116C425.928 356.295 426.026 356.602 426.21 356.75C426.448 356.94 426.288 357.076 426.088 356.858C425.513 356.23 424.578 355.247 423.759 354.932C423.498 354.832 422.457 354.165 423.183 354.676C424.759 355.785 425.968 357.374 427.541 358.484C429.568 359.915 431.255 361.737 433 363.482C433.621 364.103 434.508 364.998 434.791 365.849"/><path stroke="#fff" stroke-linecap="round" d="M438.593 377.483C438.593 376.649 439.614 376.145 439.86 375.41"/><path stroke="#fff" stroke-linecap="round" d="M374.894 354.216C374.894 355.334 374.664 356.438 374.664 357.556C374.664 357.851 374.639 358.889 374.664 358.017C374.696 356.887 375.292 355.78 375.726 354.766C375.963 354.214 376.181 353.553 376.507 353.064"/></g><defs><clipPath id="clip0_3333_3988"><rect width="407" height="429" fill="#fff" transform="translate(93 95)"/></clipPath></defs></svg>