<svg xmlns="http://www.w3.org/2000/svg" width="1355" height="1001" fill="none" viewBox="0 0 1355 1001"><path fill="#FDA168" d="M491.404 73.0474C455.848 105.994 429.494 148.344 391.712 178.646C327.827 229.982 241.119 240.188 165.99 272.867C116.295 294.485 69.1761 328.737 47.1895 378.282C29.3694 418.323 31.6785 465.776 50.1345 505.449C58.9511 524.47 62.8686 545.395 61.5301 566.317C60.1916 587.239 53.6396 607.494 42.471 625.237C15.1133 668.574 -1.38494 718.086 1.27553 768.936C5.39173 847.144 64.7754 924.297 142.766 931.492C169.538 933.969 196.444 928.531 222.948 923.678C383.028 894.396 552.461 886.833 704.727 944.209C746.458 959.937 786.633 980.435 830.02 990.775C880.703 1002.86 933.544 1000.56 985.632 998.205C1066.92 994.523 1161.76 983.145 1203.27 913.137C1260.82 816.088 1169.15 694.928 1182.19 582.887C1189.4 520.977 1228.44 466.529 1236.67 404.803C1245.61 337.706 1213.8 266.776 1157.74 228.827C1079.9 176.136 972.263 188.92 891.897 140.145C828.313 101.543 784.608 26.1127 709.646 5.58193C636.124 -14.5305 544.915 23.4355 491.404 73.0474Z" opacity=".18"/><path fill="url(#paint0_linear)" d="M153.123 747.05C145.259 693.054 126.502 641.066 118.905 587.02C111.308 532.974 116.596 473.54 151.215 431.324C173.804 403.832 206.265 386.682 238.007 370.602C266.235 356.295 295.299 342.039 326.689 338.157C354.365 334.811 382.291 339.58 409.967 342.893C462.039 349.117 515.064 349.937 566.751 341.069C634.233 329.473 698.034 302.684 763.977 284.463C828.581 266.626 892.533 257.54 964.767 291.156C1014.7 314.414 1051.54 362.972 1063.49 416.65C1082.8 503.374 1039.19 599.486 1075.85 680.404C1086.19 703.194 1102.26 722.838 1115.38 744.155C1131.5 770.436 1143.14 799.219 1149.81 829.323C1152.1 839.681 1153.79 850.607 1150.87 860.797C1143.34 886.9 1111.08 895.584 1083.94 897.726C993.697 904.854 903.543 888.021 813.538 878.232C667.43 862.37 520 865.164 373.641 876.091C337.811 878.768 302.014 881.891 266.251 885.461C237.388 888.289 182.589 905.54 155.382 897.324C125.046 888.138 144.958 868.243 151.383 839.681C158.293 809.445 157.574 777.57 153.123 747.05Z"/><path fill="#FDA168" d="M643.502 229.63C643.502 229.63 629.664 285.885 608.983 301.58C587.632 317.777 565.479 286.655 565.479 286.655L553.163 308.942C553.163 308.942 575.97 345.754 598.96 346.607C621.951 347.461 642.13 326.88 642.13 326.88L643.502 229.63Z"/><path fill="#56473D" d="M525.338 190.995L528.466 189.606L592.251 205.82L611.41 334.995H609.017L525.338 190.995Z"/><path fill="#050200" d="M223.617 888.004C223.617 888.004 84.4864 897.324 64.4743 910.66C44.4622 923.996 201.179 926.924 451.246 919.411C701.314 911.898 893.855 919.411 1030.19 933.165C1166.53 946.919 1351.46 944.259 1354.02 910.576C1356.58 876.894 1016.44 876.492 1016.44 876.492L223.617 888.004Z" opacity=".05"/><path fill="#FDA168" d="M1088.57 619.883C1088.57 619.883 1083.9 658.735 1053.88 662.55H922.065L903.308 446.768H1042.19C1053.4 446.768 1076.37 458.849 1080.96 475.95C1081.57 479.115 1081.98 482.318 1082.18 485.537C1085.19 518.718 1088.57 619.883 1088.57 619.883Z"/><path fill="url(#paint1_linear)" d="M1082.21 485.571H955.045L917.297 448.525L915.556 446.768H1042.22C1053.43 446.768 1076.41 458.849 1080.99 475.95C1081.61 479.126 1082.02 482.34 1082.21 485.571V485.571Z"/><path fill="#FDA168" d="M240.634 466.847L228.218 461.442C226.603 460.74 225.278 459.502 224.468 457.937C223.659 456.372 223.413 454.576 223.772 452.851C224.132 451.126 225.075 449.578 226.442 448.467C227.81 447.356 229.518 446.75 231.28 446.751H903.308C911.609 446.673 919.821 448.468 927.333 452.003C934.845 455.537 941.463 460.72 946.695 467.165C951.056 472.457 953.942 478.806 955.062 485.571C958.09 505.767 956.233 593.73 955.396 626.76C954.945 644.697 941.726 660.141 923.923 662.366L922.015 662.55H271.12L240.634 466.847Z"/><path fill="#FDA168" d="M240.634 466.847L228.218 461.442C226.603 460.74 225.278 459.502 224.468 457.937C223.659 456.372 223.413 454.576 223.772 452.851C224.132 451.126 225.075 449.578 226.442 448.467C227.81 447.356 229.518 446.75 231.28 446.751H903.308C911.609 446.673 919.821 448.468 927.333 452.003C934.845 455.537 941.463 460.72 946.695 467.165C951.056 472.457 953.942 478.806 955.062 485.571C958.09 505.767 956.233 593.73 955.396 626.76C954.945 644.697 941.726 660.141 923.923 662.366L922.015 662.55H271.12L240.634 466.847Z"/><path fill="url(#paint2_linear)" d="M955.447 626.76C954.995 644.697 941.776 660.141 923.973 662.366L922.065 662.55H271.171L240.634 466.847L228.218 461.442C226.603 460.74 225.278 459.502 224.468 457.937C223.659 456.372 223.413 454.576 223.772 452.851C224.132 451.126 225.075 449.578 226.442 448.467C227.81 447.356 229.518 446.75 231.28 446.751H903.308C911.609 446.673 919.821 448.468 927.333 452.003C934.845 455.537 941.463 460.72 946.695 467.165C951.056 472.457 953.942 478.806 955.062 485.571C958.141 505.767 956.283 593.73 955.447 626.76Z"/><path fill="url(#paint3_linear)" d="M206.935 662.617H924.425C926.907 662.617 929.288 661.632 931.045 659.879C932.802 658.125 933.791 655.746 933.795 653.264V653.264C933.795 650.779 932.808 648.395 931.051 646.638C929.294 644.881 926.91 643.894 924.425 643.894H206.935C204.45 643.894 202.067 644.881 200.309 646.638C198.552 648.395 197.565 650.779 197.565 653.264C197.569 655.746 198.559 658.125 200.315 659.879C202.072 661.632 204.453 662.617 206.935 662.617V662.617Z" opacity=".61"/><path fill="#FDA168" d="M206.935 662.617H924.425C926.907 662.617 929.288 661.632 931.045 659.879C932.802 658.125 933.791 655.746 933.795 653.264V653.264C933.795 650.779 932.808 648.395 931.051 646.638C929.294 644.881 926.91 643.894 924.425 643.894H206.935C204.45 643.894 202.067 644.881 200.309 646.638C198.552 648.395 197.565 650.779 197.565 653.264C197.569 655.746 198.559 658.125 200.315 659.879C202.072 661.632 204.453 662.617 206.935 662.617V662.617ZM1071.65 724.093V841.137C1071.66 848.699 1070.17 856.188 1067.28 863.175C1064.38 870.163 1060.14 876.512 1054.8 881.86C1049.45 887.208 1043.1 891.451 1036.12 894.345C1029.13 897.24 1021.64 898.73 1014.08 898.73H257.099C249.534 898.741 242.04 897.259 235.049 894.368C228.057 891.477 221.705 887.235 216.356 881.885C211.007 876.534 206.767 870.181 203.878 863.188C200.99 856.196 199.509 848.702 199.523 841.137V724.093C199.511 713.455 202.466 703.025 208.056 693.974C209.277 691.968 210.63 690.045 212.105 688.218C217.491 681.454 224.335 675.992 232.125 672.24C239.916 668.488 248.452 666.543 257.099 666.55H1014.08C1021.64 666.55 1029.13 668.04 1036.12 670.935C1043.11 673.831 1049.46 678.075 1054.8 683.425C1060.15 688.775 1064.39 695.126 1067.28 702.116C1070.17 709.105 1071.66 716.596 1071.65 724.16V724.093Z"/><path fill="url(#paint4_linear)" d="M776.878 898.73H257.099C246.06 898.734 235.252 895.564 225.963 889.598C216.675 883.632 209.297 875.122 204.709 865.081H743.814C743.814 865.081 751.578 893.526 776.878 898.73Z" opacity=".61"/><path fill="url(#paint5_linear)" d="M776.877 666.483C752.983 670.431 746.307 693.907 746.307 693.907H208.056L212.105 688.151C217.491 681.387 224.334 675.925 232.125 672.173C239.915 668.421 248.452 666.476 257.099 666.483H776.877Z"/><path fill="url(#paint6_linear)" d="M1071.65 724.093V841.137C1071.66 851.438 1068.9 861.552 1063.67 870.424C1058.43 879.295 1050.91 886.597 1041.89 891.568H804.135C799.387 891.571 794.686 890.637 790.299 888.822C785.912 887.007 781.925 884.345 778.568 880.988C775.21 877.632 772.546 873.647 770.729 869.261C768.911 864.875 767.976 860.174 767.976 855.426V713.417C767.974 708.668 768.907 703.965 770.724 699.577C772.54 695.189 775.204 691.202 778.562 687.844C781.92 684.486 785.907 681.823 790.295 680.006C794.683 678.19 799.386 677.256 804.135 677.258H1047.61C1055.05 682.59 1061.12 689.62 1065.3 697.765C1069.48 705.911 1071.66 714.936 1071.65 724.093V724.093Z" opacity=".61"/><path fill="url(#paint7_linear)" d="M1071.65 724.093V841.137C1071.66 843.294 1071.54 845.45 1071.3 847.595C1071.2 848.532 1071.07 849.453 1070.92 850.373C1070.29 854.382 1069.23 858.31 1067.74 862.086C1067.39 863.039 1067 863.96 1066.57 864.88C1064.7 869.051 1062.34 872.983 1059.54 876.593C1058.8 877.53 1058.03 878.467 1057.21 879.37C1052.85 884.32 1047.66 888.48 1041.89 891.669H838.303C833.161 891.678 828.076 890.585 823.391 888.463C818.707 886.342 814.531 883.241 811.146 879.37C810.363 878.482 809.626 877.555 808.937 876.593C806.386 873.063 804.508 869.092 803.399 864.88C803.148 863.976 802.947 863.039 802.78 862.086C802.361 859.908 802.154 857.694 802.161 855.476V713.417C802.155 710.886 802.424 708.361 802.964 705.888C803.133 704.948 803.362 704.02 803.65 703.11C804.885 698.868 806.906 694.895 809.607 691.397C810.338 690.426 811.126 689.498 811.966 688.62C815.337 685.011 819.415 682.135 823.947 680.172C828.478 678.209 833.365 677.2 838.303 677.208H1047.61C1052.09 680.421 1056.09 684.264 1059.47 688.62C1060.18 689.523 1060.86 690.444 1061.51 691.397C1064.03 695.043 1066.11 698.974 1067.71 703.11C1068.07 704.03 1068.43 704.967 1068.71 705.888C1070 709.685 1070.86 713.613 1071.29 717.6C1071.4 718.521 1071.49 719.458 1071.54 720.395C1071.62 721.566 1071.65 722.854 1071.65 724.093Z"/><path fill="#fff" d="M1061.51 691.447H809.606C810.337 690.476 811.125 689.549 811.966 688.67H1059.46C1060.18 689.573 1060.86 690.494 1061.51 691.447ZM1068.71 705.888H802.963C803.133 704.948 803.362 704.02 803.649 703.11H1067.71C1068.07 704.03 1068.42 704.967 1068.71 705.888ZM1071.54 720.345H802.144V717.55H1071.29C1071.4 718.47 1071.49 719.408 1071.54 720.345Z"/><path fill="#fff" d="M1071.67 732.007H802.161V734.785H1071.67V732.007Z"/><path fill="#fff" d="M1071.67 746.447H802.161V749.225H1071.67V746.447Z"/><path fill="#fff" d="M1071.67 760.904H802.161V763.682H1071.67V760.904Z"/><path fill="#fff" d="M1071.67 775.361H802.161V778.122H1071.67V775.361Z"/><path fill="#fff" d="M1071.67 789.801H802.161V792.562H1071.67V789.801Z"/><path fill="#fff" d="M1071.67 804.258H802.161V807.019H1071.67V804.258Z"/><path fill="#fff" d="M1071.67 818.698H802.161V821.459H1071.67V818.698Z"/><path fill="#fff" d="M1071.67 833.155H802.161V835.933H1071.67V833.155Z"/><path fill="#fff" d="M1071.3 847.595C1071.2 848.532 1071.07 849.453 1070.92 850.373H802.161V847.595H1071.3ZM1067.82 862.036C1067.47 862.989 1067.09 863.91 1066.65 864.83H803.449C803.198 863.926 802.997 862.989 802.83 862.036H1067.82ZM1059.54 876.492C1058.8 877.429 1058.03 878.366 1057.21 879.27H811.146C810.363 878.382 809.626 877.455 808.937 876.492H1059.54Z"/><path fill="#FDA168" d="M737.657 639.493H909.165C901.892 643.127 893.87 645.006 885.74 644.981H248.03C237.474 645.053 227.154 641.862 218.481 635.845C216.026 634.151 213.744 632.217 211.671 630.073C211.001 629.387 210.349 628.667 209.73 627.948C207.395 625.218 205.405 622.212 203.806 618.996C203.455 618.293 203.12 617.573 202.819 616.871C201.575 614.003 200.676 610.998 200.142 607.919C200.025 607.216 199.908 606.513 199.824 605.777C199.622 604.139 199.522 602.491 199.523 600.841V511.054C199.523 510.084 199.523 509.13 199.623 508.193C199.724 507.256 199.74 506.771 199.824 506.068C200.196 503.011 200.92 500.007 201.982 497.116C202.25 496.397 202.535 495.694 202.836 494.974C204.201 491.792 205.955 488.791 208.056 486.039C208.608 485.32 209.177 484.6 209.73 483.897C210.965 482.455 212.289 481.092 213.695 479.815C223.127 471.368 235.37 466.744 248.03 466.847H885.74C895.762 466.835 905.57 469.743 913.967 475.213H737.657C734.972 475.208 732.297 475.534 729.692 476.184C724.345 477.46 719.435 480.14 715.47 483.948C714.759 484.616 714.093 485.332 713.478 486.089C711.24 488.713 709.535 491.748 708.459 495.025C708.223 495.727 708.027 496.442 707.873 497.166C707.42 499.057 707.195 500.995 707.204 502.939V611.817C707.211 613.504 707.385 615.185 707.723 616.837C707.858 617.556 708.036 618.265 708.258 618.962C709.213 622.22 710.793 625.26 712.91 627.914C713.488 628.657 714.108 629.367 714.767 630.039C717.64 633.014 721.098 635.361 724.924 636.933C728.953 638.634 733.283 639.505 737.657 639.493Z"/><path fill="url(#paint8_linear)" d="M934.23 511.707V601.008C934.23 601.527 934.23 602.046 934.23 602.548C934.23 603.05 934.23 603.585 934.13 604.087C934.029 604.589 934.046 605.108 933.996 605.61C933.946 606.112 933.862 606.547 933.812 606.999C933.761 607.45 933.695 607.718 933.628 608.069C933.609 608.25 933.575 608.429 933.527 608.605C933.444 609.09 933.343 609.592 933.226 610.077C933.109 610.563 933.075 610.713 932.975 611.031C932.875 611.349 932.824 611.65 932.724 611.968C932.624 612.286 932.54 612.637 932.44 612.972L932.088 613.993C932.088 614.277 931.921 614.545 931.82 614.813C931.72 615.08 931.553 615.532 931.402 615.884L930.95 616.971C930.878 617.174 930.789 617.37 930.683 617.557C930.577 617.837 930.454 618.111 930.315 618.377C930.214 618.611 930.08 618.845 929.963 619.079C929.846 619.314 929.612 619.799 929.411 620.134C929.21 620.468 928.842 621.221 928.524 621.807L928.005 622.643C927.537 623.413 927.052 624.149 926.533 624.869C926.265 625.254 925.998 625.605 925.73 625.956C925.194 626.676 924.626 627.362 924.057 628.048C923.488 628.734 922.785 629.487 922.099 630.173C920.727 631.574 919.269 632.888 917.732 634.105C917.701 634.147 917.661 634.182 917.615 634.206C917.113 634.607 916.611 634.975 916.092 635.36L914.419 636.515L912.745 637.586C912.21 637.92 911.675 638.221 911.072 638.539L909.148 639.56H737.656C733.286 639.575 728.957 638.716 724.923 637.033C721.103 635.467 717.646 633.132 714.766 630.173C714.107 629.5 713.487 628.791 712.909 628.048C710.79 625.414 709.209 622.39 708.257 619.146C708.036 618.455 707.857 617.751 707.722 617.038C707.383 615.386 707.209 613.705 707.203 612.018V503.558C707.196 501.625 707.421 499.698 707.873 497.819C708.027 497.1 708.222 496.39 708.458 495.694C709.535 492.433 711.241 489.414 713.478 486.809C714.093 486.051 714.758 485.336 715.469 484.667C719.446 480.882 724.352 478.215 729.692 476.937C732.299 476.301 734.973 475.98 737.656 475.983H913.967C914.737 476.485 915.506 477.004 916.242 477.556L917.096 478.192C918.26 479.057 919.377 479.984 920.442 480.969L921.363 481.839L922.032 482.509L922.935 483.446L923.839 484.45L924.023 484.667L924.157 484.834C924.692 485.47 925.228 486.14 925.73 486.809C925.998 487.144 926.249 487.495 926.5 487.83C926.525 487.88 926.559 487.925 926.6 487.963C927.046 488.61 927.481 489.263 927.905 489.921L928.625 491.092C929.06 491.829 929.478 492.598 929.863 493.351C930.047 493.753 930.248 494.121 930.432 494.506C930.616 494.891 930.8 495.309 930.95 495.694C931.101 496.079 931.268 496.397 931.402 496.765C931.536 497.133 931.687 497.468 931.804 497.819C931.921 498.17 932.055 498.522 932.172 498.873C932.68 500.321 933.088 501.803 933.393 503.307C933.447 503.499 933.486 503.695 933.51 503.893C933.51 504.244 933.644 504.596 933.711 504.947C933.778 505.298 933.895 506.135 933.979 506.721C934.063 507.306 934.146 508.126 934.18 508.846C934.18 509.214 934.18 509.599 934.18 509.983C934.18 510.368 934.23 511.121 934.23 511.707Z"/><path fill="#FDA168" d="M724.924 636.95C721.142 637.864 717.238 638.712 713.211 639.493H258.538C245.099 639.571 231.684 638.35 218.481 635.845C216.026 634.151 213.744 632.217 211.671 630.073C211.001 629.387 210.349 628.667 209.73 627.948C207.395 625.218 205.405 622.212 203.806 618.996C203.455 618.293 203.12 617.574 202.819 616.871C201.575 614.003 200.676 610.998 200.142 607.919C200.025 607.216 199.908 606.513 199.824 605.777C199.622 604.139 199.522 602.491 199.523 600.841V511.054C199.523 510.084 199.523 509.13 199.623 508.193C199.724 507.256 199.74 506.771 199.824 506.068C200.196 503.011 200.92 500.007 201.982 497.116C202.25 496.397 202.535 495.694 202.836 494.974C204.201 491.792 205.955 488.791 208.056 486.039C208.608 485.32 209.177 484.6 209.73 483.897C210.965 482.455 212.289 481.092 213.695 479.815C228.428 476.635 243.467 475.092 258.538 475.213H725.944L729.692 476.184C724.345 477.46 719.435 480.14 715.47 483.948C714.759 484.616 714.093 485.332 713.478 486.089C711.24 488.713 709.535 491.748 708.459 495.025C708.223 495.727 708.027 496.442 707.873 497.166C707.42 499.057 707.195 500.995 707.204 502.939V611.818C707.211 613.504 707.385 615.185 707.723 616.837C707.858 617.556 708.036 618.266 708.258 618.962C709.213 622.22 710.793 625.26 712.91 627.914C713.488 628.657 714.108 629.367 714.767 630.039C717.638 633.02 721.097 635.373 724.924 636.95V636.95Z"/><path fill="url(#paint9_linear)" d="M724.924 636.95C721.142 637.864 717.238 638.712 713.211 639.493H258.538C245.099 639.571 231.684 638.35 218.481 635.845C216.026 634.151 213.744 632.217 211.671 630.073C211.001 629.387 210.349 628.667 209.73 627.948C207.395 625.218 205.405 622.212 203.806 618.996C203.455 618.293 203.12 617.574 202.819 616.871C201.575 614.003 200.676 610.998 200.142 607.919C200.025 607.216 199.908 606.513 199.824 605.777C199.622 604.139 199.522 602.491 199.523 600.841V511.054C199.523 510.084 199.523 509.13 199.623 508.193C199.724 507.256 199.74 506.771 199.824 506.068C200.196 503.011 200.92 500.007 201.982 497.116C202.25 496.397 202.535 495.694 202.836 494.974C204.201 491.792 205.955 488.791 208.056 486.039C208.608 485.32 209.177 484.6 209.73 483.897C210.965 482.455 212.289 481.092 213.695 479.815C228.428 476.635 243.467 475.092 258.538 475.213H725.944L729.692 476.184C724.345 477.46 719.435 480.14 715.47 483.948C714.759 484.616 714.093 485.332 713.478 486.089C711.24 488.713 709.535 491.748 708.459 495.025C708.223 495.727 708.027 496.442 707.873 497.166C707.42 499.057 707.195 500.995 707.204 502.939V611.818C707.211 613.504 707.385 615.185 707.723 616.837C707.858 617.556 708.036 618.266 708.258 618.962C709.213 622.22 710.793 625.26 712.91 627.914C713.488 628.657 714.108 629.367 714.767 630.039C717.638 633.02 721.097 635.373 724.924 636.95V636.95Z"/><path fill="url(#paint10_linear)" d="M922.066 646.153C920.72 647.71 919.261 649.164 917.698 650.503C919.249 649.151 920.707 647.698 922.066 646.153Z"/><path fill="url(#paint11_linear)" d="M926.449 489.068C926.198 488.683 925.947 488.298 925.679 487.93C925.177 487.194 924.642 486.457 924.106 485.755C924.943 486.826 925.729 487.93 926.449 489.068Z"/><path fill="url(#paint12_linear)" d="M931.754 500.094C931.887 500.479 932.005 500.864 932.122 501.249C931.904 500.463 931.637 499.693 931.352 498.923C931.503 499.308 931.636 499.693 931.754 500.094Z"/><path fill="#FDA168" d="M934.23 511.707V601.008C934.23 601.862 934.23 602.682 934.23 603.552C934.23 604.422 934.146 604.84 934.063 605.493C933.762 608.248 933.168 610.963 932.289 613.591C932.088 614.244 931.871 614.88 931.62 615.499C927.401 625.997 919.426 634.55 909.248 639.493H708.86C693.399 639.493 680.632 629.052 678.741 615.532C678.623 614.891 678.556 614.242 678.541 613.591C678.479 613.036 678.451 612.477 678.457 611.918V503.558C678.457 488.315 692.077 475.983 708.91 475.983H913.967C926.249 483.948 934.23 496.966 934.23 511.707Z"/><path fill="#fff" d="M925.679 486.039H713.478C714.093 485.281 714.758 484.566 715.469 483.897H923.923C924.558 484.6 925.127 485.253 925.679 486.039ZM931.753 497.116H707.872C708.024 496.391 708.22 495.676 708.458 494.974H930.917C931.218 495.677 931.502 496.397 931.753 497.116ZM934.146 508.193H707.203V506.051H933.962C933.962 506.754 934.096 507.474 934.146 508.193Z"/><path fill="#fff" d="M934.247 517.128H707.203V519.27H934.247V517.128Z"/><path fill="#fff" d="M934.247 528.205H707.203V530.347H934.247V528.205Z"/><path fill="#fff" d="M934.247 539.282H707.203V541.424H934.247V539.282Z"/><path fill="#fff" d="M934.247 550.376H707.203V552.501H934.247V550.376Z"/><path fill="#fff" d="M934.247 561.453H707.203V563.578H934.247V561.453Z"/><path fill="#fff" d="M934.247 572.53H707.203V574.655H934.247V572.53Z"/><path fill="#fff" d="M934.247 583.606H707.203V585.731H934.247V583.606Z"/><path fill="#fff" d="M934.247 594.683H707.203V596.825H934.247V594.683Z"/><path fill="#fff" d="M934.264 605.727C934.225 606.44 934.225 607.155 934.264 607.869H707.203V605.727H934.264ZM930.934 616.837C930.934 617.557 930.014 618.26 929.947 618.979H708.258C708.034 618.277 707.855 617.562 707.722 616.837H930.934ZM721.627 486.039H208.056C208.608 485.32 209.177 484.6 209.729 483.897H717.544C718.95 484.6 720.305 485.253 721.627 486.039ZM717.009 497.116H201.982C202.25 496.397 202.534 495.694 202.835 494.974H714.984C715.698 495.65 716.374 496.365 717.009 497.116V497.116ZM722.698 508.193H199.623C199.623 507.474 199.74 506.771 199.824 506.068H722.196C722.404 506.766 722.572 507.476 722.698 508.193V508.193Z"/><path fill="#fff" d="M722.932 517.128H199.506V519.253H722.932V517.128Z"/><path fill="#fff" d="M722.932 528.205H199.506V530.33H722.932V528.205Z"/><path fill="#fff" d="M722.932 539.282H199.506V541.424H722.932V539.282Z"/><path fill="#fff" d="M722.932 550.376H199.506V552.501H722.932V550.376Z"/><path fill="#fff" d="M722.932 561.469H199.506V563.578H722.932V561.469Z"/><path fill="#fff" d="M722.932 572.53H199.506V574.638H722.932V572.53Z"/><path fill="#fff" d="M722.932 583.606H199.506V585.731H722.932V583.606Z"/><path fill="#fff" d="M722.932 594.683H199.506V596.825H722.932V594.683Z"/><path fill="#fff" d="M722.229 605.727C722.006 606.455 721.744 607.17 721.442 607.869H200.141C200.024 607.166 199.907 606.463 199.823 605.727H722.229ZM715.05 616.854C714.303 617.604 713.515 618.313 712.691 618.979H203.805C203.454 618.276 203.119 617.557 202.818 616.854H715.05Z"/><path fill="#56473D" d="M741.187 446.768C733.64 455.837 723.885 464.956 720.02 466.981C698.034 478.56 672.567 487.512 659.666 508.678C643.335 535.45 653.893 570.471 646.397 600.958C645.025 606.513 642.9 612.186 638.6 616.017C634.3 619.849 627.389 621.154 622.821 617.691C618.805 614.662 617.801 609.174 617.048 604.204C610.454 557.293 610.206 509.708 616.312 462.731C591.213 473.942 574.23 497.601 560.827 521.529C547.424 545.456 536.18 571.107 517.507 591.203C512.202 596.892 505.225 602.464 497.528 601.36C488.275 589.647 493.127 572.53 498.381 558.508C508.906 530.347 519.464 502.119 533.018 475.263C537.402 466.563 542.271 457.828 549.633 451.436C551.648 449.693 553.822 448.141 556.125 446.801L741.187 446.768Z" opacity=".2"/><path fill="#fff" d="M924.023 627.931C923.455 628.684 922.819 629.27 922.183 630.056H211.67C211.001 629.37 210.348 628.65 209.729 627.931H924.023Z"/><path fill="url(#paint13_linear)" d="M365.391 898.73H279.537C252.012 891.803 238.676 862.035 238.676 862.035C238.676 862.035 236.183 716.463 238.676 698.057C241.169 679.651 282.867 666.432 282.867 666.432H365.391C337.866 670.381 317.871 697.22 317.871 697.22C317.871 697.22 316.198 858.103 317.871 868.929C319.544 879.755 365.391 898.73 365.391 898.73Z"/><path fill="url(#paint14_linear)" d="M365.391 898.73H337.866C310.375 891.803 297.039 862.035 297.039 862.035C297.039 862.035 294.529 716.463 297.039 698.057C299.549 679.651 341.213 666.432 341.213 666.432H365.391C337.866 670.381 317.871 697.22 317.871 697.22C317.871 697.22 316.198 858.103 317.871 868.929C319.544 879.755 365.391 898.73 365.391 898.73Z"/><path fill="url(#paint15_linear)" d="M484.962 551.932L476.964 565.82L495.537 573.902L503.218 560.683L484.962 551.932Z"/><path fill="url(#paint16_linear)" d="M609.837 589.229L608.967 604.706L629.213 603.535L630.066 589.229H609.837Z"/><path fill="#56473D" d="M480.612 562.741C480.202 561.899 479.634 561.143 478.938 560.516C478.114 559.971 477.175 559.628 476.194 559.512L444.051 553.053C442.891 552.767 441.698 552.638 440.504 552.668C437.425 552.869 434.898 555.128 432.874 557.454C431.712 558.551 430.967 560.018 430.765 561.603C430.884 562.598 431.206 563.557 431.713 564.421C432.22 565.285 432.9 566.035 433.71 566.623C435.969 568.718 438.343 570.684 440.822 572.513C445.584 575.853 450.54 578.909 455.663 581.666C459.11 583.607 462.557 585.547 466.088 587.321C471.894 590.233 477.918 592.676 483.975 595.052C484.174 595.176 484.396 595.261 484.629 595.299C484.861 595.337 485.098 595.328 485.327 595.274C485.556 595.219 485.772 595.12 485.962 594.981C486.152 594.842 486.313 594.667 486.434 594.466C490.817 589.897 494.272 584.521 496.608 578.637C497.193 577.181 498.281 573.985 496.608 572.781C496.022 572.362 494.366 572.429 493.629 572.262C492.532 571.997 491.458 571.644 490.417 571.208C486.338 569.489 482.906 566.526 480.612 562.741V562.741ZM611.025 597.679C610.247 597.159 609.378 596.791 608.465 596.591C607.479 596.534 606.494 596.706 605.587 597.093L574.565 607.685C573.418 608.018 572.321 608.502 571.302 609.124C568.742 610.797 567.688 614.143 567.102 617.105C566.655 618.636 566.756 620.275 567.386 621.74C567.982 622.533 568.735 623.194 569.599 623.681C570.463 624.168 571.419 624.47 572.406 624.568C575.409 625.246 578.448 625.748 581.509 626.074C587.3 626.576 593.117 626.726 598.927 626.525C602.893 626.525 606.842 626.425 610.79 626.174C617.283 625.772 623.725 624.852 630.133 623.865C630.598 623.883 631.052 623.718 631.396 623.405C631.74 623.092 631.948 622.656 631.974 622.192C633.46 616.035 633.75 609.65 632.827 603.384C632.593 601.828 631.873 598.549 629.849 598.365C629.129 598.281 627.74 599.184 627.021 599.402C625.929 599.737 624.809 599.972 623.674 600.105C619.307 600.655 614.878 599.805 611.025 597.679Z"/><path fill="#56473D" d="M736.619 388.957C736.619 388.957 731.365 438.134 686.037 446.801C655.349 452.675 617.818 450.583 596.802 448.625C591.833 448.166 586.833 449.091 582.356 451.297C577.879 453.503 574.1 456.904 571.436 461.124L506.179 565.067L487.271 555.931H487.121L480.428 552.718L534.775 425.919C537.967 418.043 542.867 410.973 549.123 405.221C555.379 399.468 562.834 395.176 570.95 392.655L633.379 373.329L647.97 368.811C647.97 368.811 706.4 362.921 736.619 388.957Z"/><path fill="#fff" d="M633.43 373.262L637.53 381.946C637.53 381.946 565.58 403.029 556.745 413.286C544.949 427.007 487.288 555.931 487.288 555.931H487.138L480.445 552.718L534.792 425.919C537.984 418.043 542.884 410.973 549.14 405.22C555.396 399.468 562.851 395.176 570.968 392.655L633.43 373.262Z" opacity=".24"/><path fill="#56473D" d="M658.98 380.424C658.98 380.424 601.186 436.729 599.312 466.847C597.438 496.966 605.52 591.404 605.52 591.404H633.564C633.564 591.404 632.175 476.753 643.603 475.95C655.031 475.146 706.835 441.849 715.151 432.294C723.467 422.74 736.736 388.924 736.736 388.924L658.98 380.424Z"/><path fill="#FDA168" d="M736.619 388.957C736.619 388.957 690.286 412.6 642.18 384.942C637.983 382.532 633.953 379.843 630.116 376.893C630.116 376.893 650.396 340.667 634.249 288.044C627.339 265.538 627.188 222.569 661.406 216.445H661.573C695.607 210.405 693.683 218.804 693.683 218.804L709.077 233.763C738.677 257.841 741.923 294.603 736.619 388.957Z"/><path fill="#fff" d="M661.573 216.412C660.147 219.507 657.938 222.177 655.165 224.159C655.165 224.159 634.818 233.178 638.884 263.012C642.95 292.846 650.396 350.222 650.396 350.222L642.18 384.941C637.983 382.532 633.953 379.843 630.116 376.893C630.116 376.893 650.396 340.667 634.249 288.043C627.339 265.538 627.188 222.569 661.406 216.445L661.573 216.412Z" opacity=".24"/><path fill="#56473D" d="M692.178 214.504C690.329 216.711 688.052 218.52 685.484 219.823C682.916 221.125 680.111 221.893 677.238 222.081C674.365 222.268 671.484 221.871 668.769 220.914C666.053 219.957 663.56 218.46 661.44 216.512C661.44 216.512 636.341 241.611 661.708 244.639C675.094 246.313 691.575 230.116 696.344 220.963L692.178 214.504Z"/><path fill="url(#paint17_linear)" d="M699.707 190.995C699.607 191.33 694.888 205.77 691.341 216.094C688.709 224.141 683.124 230.891 675.713 234.985C671.363 237.609 666.523 239.317 661.49 240.004C660.287 240.114 659.077 239.89 657.994 239.356C656.91 238.822 655.995 237.999 655.35 236.977C654.704 235.956 654.353 234.777 654.335 233.569C654.318 232.361 654.634 231.172 655.249 230.132C656.42 228.074 657.692 225.698 658.863 223.172C661.306 217.918 663.347 212.078 663.013 207.46C663.013 207.292 663.013 207.108 663.013 206.958C662.712 204.548 664.284 202.423 666.928 200.566C670.66 197.972 676.533 195.931 682.272 194.392C688.016 192.936 693.837 191.802 699.707 190.995V190.995Z"/><path fill="url(#paint18_linear)" d="M662.51 222.971C661.36 223.203 660.185 223.287 659.013 223.222C661.456 217.968 663.498 212.128 663.163 207.51L667.045 200.616L669.94 195.496L682.389 194.442L694.971 193.388C686.672 213.015 672.734 221.147 662.51 222.971Z"/><path fill="url(#paint19_linear)" d="M685.886 124.968C681.333 124.014 676.631 124.012 672.077 124.962C667.523 125.912 663.215 127.793 659.423 130.488C655.631 133.183 652.438 136.633 650.044 140.622C647.649 144.61 646.106 149.051 645.51 153.665C642.937 167.188 642.829 181.065 645.192 194.626C650.931 215.625 681.769 208.012 688.027 201.637C694.285 195.262 719.434 165.879 715.318 154.451C712.691 146.687 703.488 128.951 685.886 124.968Z"/><path fill="#56473D" d="M661.038 104.488L665.79 108.771C662.524 107.809 659.077 107.636 655.731 108.267C652.385 108.898 649.238 110.316 646.548 112.402C640.13 116.076 635.417 122.129 633.429 129.252L643.988 127.361C643.988 127.361 640.139 138.723 657.641 144.395C675.143 150.067 693.717 155.873 693.717 155.873L689.968 145.834C689.968 145.834 699.79 153.23 700.61 157.848C700.58 164.852 700.021 171.844 698.937 178.763C698.937 178.763 706.433 168.557 707.571 171.535C708.709 174.513 702.183 183.833 699.205 185.49C696.226 187.146 694.821 194.023 694.453 194.525C694.085 195.027 707.839 188.769 709.194 185.691C710.549 182.612 730.478 153.313 725.04 144.545L729.541 145.399C727.399 142.936 724.735 140.981 721.744 139.676C721.744 139.676 703.053 93.7121 661.038 104.488Z"/><path fill="url(#paint20_linear)" d="M654.413 351.56C651.886 349.033 649.393 346.022 645.862 345.419C644.624 348.364 647.151 351.393 648.222 354.388C648.383 354.722 648.467 355.088 648.467 355.459C648.467 355.83 648.383 356.196 648.222 356.53C647.72 357.333 646.548 357.383 645.628 357.316C641.164 356.996 636.783 355.945 632.66 354.204C628.845 352.531 625.181 350.372 621.048 349.954C620.606 349.865 620.148 349.924 619.743 350.121C618.739 350.757 619.325 352.296 620.044 353.233C621.58 355.257 623.324 357.113 625.248 358.772C622.331 357.484 619.222 356.687 616.045 356.412C615.158 356.412 613.953 356.597 613.97 357.483C614.028 357.848 614.204 358.183 614.472 358.437C616.824 361.13 619.662 363.355 622.838 364.996C620.529 364.509 618.168 364.312 615.811 364.411C614.79 364.411 613.435 364.946 613.585 365.95C613.66 366.277 613.822 366.578 614.054 366.82C616.881 370.241 620.707 372.692 624.997 373.831L618.304 373.982C617.882 373.961 617.462 374.048 617.082 374.233C615.878 375.002 616.932 376.893 618.103 377.713C623.257 381.31 629.816 381.946 636.124 382.398C648.188 383.268 660.888 383.737 671.764 378.416C672.551 378.014 673.437 377.479 673.588 376.609C673.621 376.153 673.553 375.696 673.387 375.27C672.065 370.869 671.396 362.888 667.397 360.211C665.456 358.922 663.063 358.186 661.072 356.864C659.081 355.542 656.688 352.698 654.413 351.56Z"/><path fill="#FDA168" d="M746.441 342.223C742.659 379.386 675.227 383.937 675.227 383.937L668.283 360.06L667.062 355.86C667.062 355.86 703.137 351.309 710.031 340.015C716.925 328.72 688.546 290.854 705.697 269.738C722.848 248.622 726.747 255.114 726.747 255.114C726.747 255.114 750.189 305.06 746.441 342.223Z"/><path fill="url(#paint21_linear)" d="M565.529 286.671C565.529 286.671 565.529 288.06 565.245 290.152C564.676 295.356 563.053 304.876 558.736 308.34C552.662 313.209 551.825 306.115 551.959 303.32C552.093 301.786 552.344 300.264 552.712 298.769C554.117 292.712 561.563 288.562 564.425 287.19L565.529 286.671Z"/><path fill="url(#paint22_linear)" d="M565.245 290.152C564.676 295.356 563.053 304.876 558.736 308.34C556.862 306.985 554.453 305.178 551.959 303.32C548.613 300.81 545.049 298.167 542.522 296.326C540.274 294.818 538.228 293.03 536.432 291.005C534.865 288.944 533.561 286.695 532.55 284.312L527.363 273.034C525.689 269.337 524.016 264.451 526.994 261.589C527.747 260.853 534.608 259.515 535.06 258.544C536.314 255.766 528.367 249.893 528.868 246.831C529.117 245.997 529.65 245.277 530.374 244.794C531.098 244.311 531.969 244.097 532.834 244.188C534.507 244.271 539.259 248.638 540.749 249.525C543.693 251.199 541.217 253.575 544.095 255.315C547.83 257.232 551.222 259.754 554.135 262.777C557.381 266.576 559.02 271.445 560.577 276.163C561.714 279.627 563.237 283.375 564.408 287.106C564.726 288.177 565.011 289.165 565.245 290.152Z"/><path fill="#FDA168" d="M540.631 263.48L529.47 210.555L525.338 190.995L590.193 208.38L609.017 334.995L548.746 316.623L540.631 263.48Z"/><path fill="url(#paint23_linear)" d="M554.134 262.844L528.466 205.82L548.746 316.623L609.017 334.995L602.558 291.574L554.134 262.844Z"/><path fill="url(#paint24_linear)" d="M544.329 286.303C546.371 285.283 550.554 283.425 551.608 281.401C551.859 280.915 552.227 280.28 551.909 279.845C550.453 277.837 544.463 280.397 542.756 279.845C543.928 277.92 554.369 272.081 549.449 270.759C548.395 270.474 541.853 273.787 540.799 273.486C541.619 272.817 548.345 268.031 549.5 266.793C549.833 266.424 550.031 265.953 550.061 265.457C550.092 264.961 549.952 264.469 549.666 264.062C549.38 263.656 548.965 263.358 548.487 263.219C548.01 263.08 547.5 263.107 547.04 263.296C543.477 264.932 539.823 266.362 536.097 267.58C536.816 266.392 546.538 260.887 546.923 259.481C547.122 258.975 547.157 258.419 547.023 257.891C546.886 257.595 546.688 257.331 546.444 257.115C546.199 256.899 545.912 256.736 545.601 256.637C542.89 255.582 539.845 256.637 537.134 257.724L530.709 260.267C528.651 261.071 526.375 262.108 525.689 264.183C525.388 265.233 525.337 266.339 525.539 267.412C526.338 274.157 528.754 280.609 532.583 286.22C534.49 288.997 540.514 295.707 543.978 296.36C547.057 296.945 541.468 287.809 544.329 286.303Z"/><path fill="#fff" d="M611.426 457.828C611.426 457.828 633.547 407.145 659.114 392.722L650.396 389.191C650.396 389.191 605.503 436.929 600.199 461.493C594.894 486.056 605.536 591.454 605.536 591.454H612.899C612.899 591.454 600.734 468.169 611.426 457.828ZM711.989 348.046C697.749 353.903 673.504 359.006 668.283 360.077L667.279 360.278L667.062 355.877C667.062 355.877 703.137 351.326 710.031 340.031C716.925 328.737 688.546 290.871 705.697 269.755C705.697 269.755 703.522 288.428 709.161 302.233C714.8 316.037 727.985 341.454 711.989 348.046Z" opacity=".24"/><defs><linearGradient id="paint0_linear" x1="704.225" x2="433.192" y1="1186.43" y2="-315.548" gradientUnits="userSpaceOnUse"><stop offset=".02" stop-color="#FDA168"/><stop offset="1" stop-color="#fff" stop-opacity="0"/></linearGradient><linearGradient id="paint1_linear" x1="985.214" x2="1089.14" y1="440.226" y2="598.599" gradientUnits="userSpaceOnUse"><stop stop-color="#fff" stop-opacity="0"/><stop offset=".99" stop-color="#fff"/></linearGradient><linearGradient id="paint2_linear" x1="259102" x2="259215" y1="74056.7" y2="39472.8" gradientUnits="userSpaceOnUse"><stop stop-color="#fff" stop-opacity="0"/><stop offset=".99" stop-color="#fff"/></linearGradient><linearGradient id="paint3_linear" x1="690.789" x2="551.508" y1="352.229" y2="687.264" gradientUnits="userSpaceOnUse"><stop offset=".17" stop-color="#2E1200"/><stop offset="1" stop-color="#EB9B69" stop-opacity="0"/></linearGradient><linearGradient id="paint4_linear" x1="167015" x2="167023" y1="16076.1" y2="20168.7" gradientUnits="userSpaceOnUse"><stop offset=".17" stop-color="#2E1200"/><stop offset="1" stop-color="#EB9B69" stop-opacity="0"/></linearGradient><linearGradient id="paint5_linear" x1="169057" x2="169050" y1="11232.4" y2="13065" gradientUnits="userSpaceOnUse"><stop stop-color="#fff" stop-opacity="0"/><stop offset=".99" stop-color="#fff"/></linearGradient><linearGradient id="paint6_linear" x1="625.231" x2="907.642" y1="781.1" y2="784.213" gradientUnits="userSpaceOnUse"><stop offset=".18" stop-color="#2E1200"/><stop offset="1" stop-color="#EB9B69" stop-opacity="0"/></linearGradient><linearGradient id="paint7_linear" x1="1109.91" x2="690.873" y1="798.251" y2="763.698" gradientUnits="userSpaceOnUse"><stop stop-color="#FDA168"/><stop offset="1" stop-color="#fff"/></linearGradient><linearGradient id="paint8_linear" x1="128051" x2="96539.1" y1="55902.5" y2="52298.3" gradientUnits="userSpaceOnUse"><stop stop-color="#FDA168"/><stop offset="1" stop-color="#fff"/></linearGradient><linearGradient id="paint9_linear" x1="227261" x2="30429.8" y1="55195.3" y2="55195.3" gradientUnits="userSpaceOnUse"><stop stop-color="#fff" stop-opacity="0"/><stop offset=".99" stop-color="#fff"/></linearGradient><linearGradient id="paint10_linear" x1="917.698" x2="922.066" y1="648.328" y2="648.328" gradientUnits="userSpaceOnUse"><stop stop-color="#FDA168"/><stop offset="1" stop-color="#EB9B69"/></linearGradient><linearGradient id="paint11_linear" x1="2219.82" x2="2223.1" y1="1450.81" y2="1450.81" gradientUnits="userSpaceOnUse"><stop stop-color="#FDA168"/><stop offset="1" stop-color="#EB9B69"/></linearGradient><linearGradient id="paint12_linear" x1="1360.43" x2="1360.79" y1="1194.03" y2="1194.03" gradientUnits="userSpaceOnUse"><stop stop-color="#FDA168"/><stop offset="1" stop-color="#EB9B69"/></linearGradient><linearGradient id="paint13_linear" x1="21552.1" x2="35237.5" y1="132184" y2="86234" gradientUnits="userSpaceOnUse"><stop stop-color="#fff" stop-opacity="0"/><stop offset=".99" stop-color="#fff"/></linearGradient><linearGradient id="paint14_linear" x1="341.297" x2="315.462" y1="673.176" y2="993.252" gradientUnits="userSpaceOnUse"><stop offset=".02" stop-color="#FDA168"/><stop offset="1" stop-color="#fff"/></linearGradient><linearGradient id="paint15_linear" x1="506.112" x2="467.494" y1="564.23" y2="561.034" gradientUnits="userSpaceOnUse"><stop stop-color="#ECD3C4"/><stop offset=".42" stop-color="#EFDDD1"/><stop offset="1" stop-color="#F2D9C9"/></linearGradient><linearGradient id="paint16_linear" x1="14566.6" x2="14116.8" y1="-15949.4" y2="-15781.6" gradientUnits="userSpaceOnUse"><stop stop-color="#ECD3C4"/><stop offset=".42" stop-color="#EFDDD1"/><stop offset="1" stop-color="#F2D9C9"/></linearGradient><linearGradient id="paint17_linear" x1="2192.69" x2="3053.44" y1="39175.7" y2="39406.3" gradientUnits="userSpaceOnUse"><stop stop-color="#ECD3C4"/><stop offset=".42" stop-color="#EFDDD1"/><stop offset="1" stop-color="#F2D9C9"/></linearGradient><linearGradient id="paint18_linear" x1="4367.82" x2="2979.35" y1="23789" y2="25357.2" gradientUnits="userSpaceOnUse"><stop stop-color="#ECD3C4"/><stop offset=".42" stop-color="#EFDDD1"/><stop offset="1" stop-color="#F2D9C9"/></linearGradient><linearGradient id="paint19_linear" x1="937.924" x2="3841.38" y1="64826.8" y2="65604.8" gradientUnits="userSpaceOnUse"><stop stop-color="#ECD3C4"/><stop offset=".42" stop-color="#EFDDD1"/><stop offset="1" stop-color="#F2D9C9"/></linearGradient><linearGradient id="paint20_linear" x1="22670.6" x2="24822.4" y1="8511.05" y2="8511.05" gradientUnits="userSpaceOnUse"><stop stop-color="#ECD3C4"/><stop offset=".42" stop-color="#EFDDD1"/><stop offset="1" stop-color="#F2D9C9"/></linearGradient><linearGradient id="paint21_linear" x1="551.959" x2="565.529" y1="298.334" y2="298.334" gradientUnits="userSpaceOnUse"><stop stop-color="#663618"/><stop offset="1" stop-color="#C15A1A"/></linearGradient><linearGradient id="paint22_linear" x1="13082.2" x2="14033.5" y1="10840.4" y2="10840.4" gradientUnits="userSpaceOnUse"><stop stop-color="#ECD3C4"/><stop offset=".42" stop-color="#EFDDD1"/><stop offset="1" stop-color="#F2D9C9"/></linearGradient><linearGradient id="paint23_linear" x1="26875.7" x2="35003.1" y1="18566.7" y2="30822" gradientUnits="userSpaceOnUse"><stop stop-color="#fff" stop-opacity="0"/><stop offset=".99" stop-color="#fff"/></linearGradient><linearGradient id="paint24_linear" x1="8903.49" x2="9328.26" y1="6891.27" y2="6891.27" gradientUnits="userSpaceOnUse"><stop stop-color="#ECD3C4"/><stop offset=".42" stop-color="#EFDDD1"/><stop offset="1" stop-color="#F2D9C9"/></linearGradient></defs></svg>