<svg xmlns="http://www.w3.org/2000/svg" fill="none" viewBox="0 0 743 801"><path fill="#050200" d="M290.758 800.61C430.905 800.61 544.516 789.728 544.516 776.305C544.516 762.882 430.905 752 290.758 752C150.611 752 37 762.882 37 776.305C37 789.728 150.611 800.61 290.758 800.61Z" opacity=".05"/><path fill="#FDA168" d="M0.482117 0.268372H742.889V543.365H0.482117V0.268372Z"/><path fill="url(#paint0_linear)" d="M0.482117 2.04868L742.889 0.268372V543.365L0.482117 545.145V2.04868Z"/><path fill="#FDA168" d="M717.36 16.2576H19.6624V524.201H717.36V16.2576Z"/><path fill="url(#paint1_linear)" d="M29.1855 21.884H709.198V515.484H29.1855V21.884Z"/><path fill="#FDA168" d="M366.588 392.475L347.341 384.598L343.982 383.237L328.16 404.366L297.055 333.825L275.07 389.25L315.295 445.733C316.611 447.578 318.387 449.047 320.446 449.993C322.505 450.939 324.777 451.33 327.034 451.126C329.291 450.922 331.455 450.131 333.312 448.831C335.168 447.532 336.652 445.768 337.616 443.717L366.588 392.475Z"/><path fill="url(#paint2_linear)" d="M366.588 392.475L347.341 384.598L343.982 383.237L328.16 404.366L297.055 333.825L275.07 389.25L315.295 445.733C316.611 447.578 318.387 449.047 320.446 449.993C322.505 450.939 324.777 451.33 327.034 451.126C329.291 450.922 331.455 450.131 333.312 448.831C335.168 447.532 336.652 445.768 337.616 443.717L366.588 392.475Z" opacity=".61"/><path fill="#FDA168" d="M225.473 325.83C225.473 325.83 179.437 340.157 169.007 351.746C158.577 363.335 155.101 479.223 155.101 479.223L190.287 502.384L196.434 543.365L311.163 533.287L297.055 333.825L250.028 325.864L225.473 325.83Z"/><path fill="url(#paint3_linear)" d="M225.473 325.83C225.473 325.83 179.437 340.157 169.007 351.746C158.577 363.335 155.101 479.223 155.101 479.223L190.287 502.384L196.434 543.365L311.163 533.287L297.055 333.825L250.028 325.864L225.473 325.83Z" opacity=".61"/><path fill="#FFD1B5" d="M82.6788 216.761L84.9462 221.43L90.0856 222.186L86.4578 225.814L87.2136 230.785L82.6788 228.384L78.144 230.785L79.051 225.814L75.272 222.186L80.4114 221.43L82.6788 216.761Z"/><path fill="#FFD1B5" d="M110.341 171.044L108.376 175.881L111.399 180.248L106.108 179.946L102.934 184.027L101.725 179.039L96.7366 177.225L101.12 174.521L101.271 169.23L105.353 172.556L110.341 171.044Z"/><path fill="#FFD1B5" d="M649.205 101.797L651.472 106.331L656.611 107.087L652.832 110.698L653.739 115.838L649.205 113.419L644.519 115.838L645.426 110.698L641.798 107.087L646.786 106.331L649.205 101.797Z"/><path fill="#FFD1B5" d="M676.699 56.0963L674.901 60.9166L677.757 65.1491L672.634 64.8467L669.46 69.0624L668.099 63.9398L663.262 62.277L667.646 59.405L667.797 54.2824L671.727 57.6079L676.699 56.0963Z"/><path fill="#FFD1B5" d="M355.738 152.334L353.32 155.357L354.529 158.985L350.901 157.776L347.878 160.043L348.029 156.264L344.855 153.997L348.483 152.939L349.692 149.328L351.808 152.485L355.738 152.334Z"/><path fill="#FFD1B5" d="M394.889 155.508L391.11 155.962L389.145 159.287L387.633 155.659L384.005 155.055L386.726 152.485L386.273 148.723L389.598 150.688L393.075 149.025L392.319 152.787L394.889 155.508Z"/><path fill="#FFD1B5" d="M602.06 278.165L599.792 281.171L601.002 284.799L597.374 283.59L594.351 285.857V282.078L591.328 279.811L594.955 278.77L596.165 275.142L598.281 278.316L602.06 278.165Z"/><path fill="#FFD1B5" d="M641.193 281.323L637.414 281.776L635.6 285.102L634.089 281.625L630.31 280.869L633.182 278.316L632.728 274.537L636.054 276.502L639.53 274.84L638.623 278.619L641.193 281.323Z"/><path fill="#FFD1B5" d="M506.108 230.332L503.84 233.355L505.033 236.966L501.422 235.622L498.247 237.873L498.399 234.111L495.375 231.843L499.003 230.785L500.061 227.174L502.329 230.332H506.108Z"/><path fill="#FFD1B5" d="M545.241 233.506L541.462 233.808L539.648 237.117L538.137 233.657L534.358 232.902L537.23 230.332L536.776 226.57L539.95 228.518L543.427 227.023L542.671 230.634L545.241 233.506Z"/><path fill="#FFD1B5" d="M423.441 229.123L421.173 232.146L422.383 235.774L418.755 234.564L415.732 236.832V233.053L412.708 230.785L416.336 229.727L417.546 226.116L419.662 229.123H423.441Z"/><path fill="#FFD1B5" d="M324.465 297.312L320.686 297.765L318.721 301.091L317.21 297.463L313.582 296.858L316.454 294.305L316.001 290.526L319.175 292.492L322.651 290.829L321.896 294.608L324.465 297.312Z"/><path fill="#FFD1B5" d="M115.178 321.312L117.277 321.447L118.638 319.801L119.091 321.9L121.207 322.656L119.394 323.714L119.242 325.83L117.58 324.47L115.615 325.075L116.37 323.11L115.178 321.312Z"/><path fill="#FFD1B5" d="M104.748 301.998L106.108 303.661L108.225 303.509L107.015 305.306L107.771 307.272L105.806 306.667L104.143 308.027L103.992 305.911L102.329 304.702L104.294 303.963L104.748 301.998Z"/><path fill="#FFD1B5" d="M128.01 251.007L130.126 251.158L131.486 249.495L131.94 251.612L133.905 252.367L132.091 253.426V255.525L130.428 254.165L128.312 254.769L129.219 252.821L128.01 251.007Z"/><path fill="#FFD1B5" d="M60.7608 263.822L62.877 263.973L64.2374 262.327L64.6909 264.275L66.8071 265.031L64.9933 266.24L64.8421 268.357L63.1793 266.996L61.2143 267.45L61.9701 265.636L60.7608 263.822Z"/><path fill="#FFD1B5" d="M114.405 206.046L115.766 207.86L117.882 207.708L116.673 209.371L117.428 211.319L115.329 210.866L113.817 212.226L113.666 209.976L111.836 208.918L113.817 208.162L114.405 206.046Z"/><path fill="url(#paint4_linear)" d="M273.307 308.313C272.283 309.202 271.155 309.963 269.948 310.58V310.58C261.18 315.233 249.205 314.04 250.314 320.658C249.914 323.159 249.886 325.706 250.23 328.215C250.314 329.71 250.515 331.188 250.683 332.7C250.858 334.211 250.638 335.742 250.046 337.143C249.453 338.544 248.509 339.769 247.303 340.697C246.098 341.625 244.673 342.225 243.167 342.44C241.661 342.654 240.125 342.475 238.708 341.921L226.447 337.117L221.308 274.185C221.308 274.185 239.128 233.153 271.476 258.347C271.426 258.397 281.906 300.906 273.307 308.313Z"/><path fill="#FDA168" d="M289.682 755.02L303.152 766.626H267.512L252.816 590.728L245.124 766.626H208.409L219.427 759.102L202.648 542.777L228.816 540.308L303.152 533.271L289.682 755.02Z"/><path fill="url(#paint5_linear)" d="M289.682 755.02L303.152 766.626H267.512L252.816 590.728L245.124 766.626H208.409L219.427 759.102L202.648 542.777L228.816 540.308L303.152 533.271L289.682 755.02Z" opacity=".61"/><path fill="#452C1D" d="M271.426 258.397C273.202 256.705 274.405 254.5 274.866 252.091C275.327 249.682 275.022 247.188 273.995 244.961C270.972 235.773 258.879 239.082 258.879 239.082H239.531C231.716 242.997 225.751 249.825 222.92 258.095C221.056 263.157 220.586 268.627 221.56 273.933L222.92 299.428L229.874 289.351C229.874 289.351 223.156 278.938 226.246 275.914C229.336 272.891 231.688 277.728 231.688 277.728C231.688 277.728 231.688 263.687 234.845 262.613C238.003 261.538 271.426 258.397 271.426 258.397Z"/><path fill="url(#paint6_linear)" d="M252.833 590.744L260.693 583.052L268.402 669.935L266.437 766.643L252.833 590.744Z" opacity=".61"/><path fill="#A24911" d="M358.913 355.844L366.32 200.47H369.192L361.785 367.617C361.785 367.617 359.669 371.094 358.913 367.617C358.56 363.701 358.56 359.76 358.913 355.844Z"/><path fill="url(#paint7_linear)" d="M352.497 370.523L346.803 382.045C346.679 382.292 346.607 382.562 346.592 382.839C346.578 383.115 346.621 383.392 346.719 383.651C346.817 383.91 346.967 384.145 347.161 384.343C347.355 384.541 347.588 384.696 347.845 384.799L360.24 389.838C360.719 390.036 361.258 390.041 361.74 389.849C362.223 389.658 362.613 389.287 362.826 388.813L368.352 376.788C368.456 376.55 368.611 376.338 368.805 376.166L377.656 367.769C377.882 367.555 378.056 367.293 378.164 367.002C378.272 366.71 378.311 366.398 378.278 366.089L375.02 341.249C374.977 340.939 374.864 340.644 374.689 340.384C374.514 340.125 374.283 339.91 374.012 339.754L366.437 335.505C366.015 335.266 365.522 335.187 365.047 335.283C364.572 335.379 364.147 335.642 363.851 336.025L360.979 339.737C360.759 340.02 360.468 340.239 360.136 340.372C359.804 340.505 359.442 340.548 359.088 340.495C358.734 340.442 358.4 340.295 358.122 340.071C357.843 339.846 357.629 339.551 357.502 339.216L356.158 335.622C356.038 335.302 355.837 335.018 355.575 334.797C355.314 334.577 355 334.427 354.664 334.363V334.363C354.35 334.301 354.027 334.316 353.721 334.404C353.414 334.492 353.133 334.652 352.9 334.87C352.667 335.088 352.489 335.358 352.381 335.658C352.273 335.958 352.238 336.28 352.279 336.596L353.622 346.758C353.631 346.875 353.631 346.993 353.622 347.11L352.732 369.717C352.706 369.998 352.626 370.272 352.497 370.523V370.523Z"/><path fill="url(#paint8_linear)" d="M190.287 502.401L219.998 518.222L239.615 491.903L190.287 454.5L201.07 378.014L210.341 454.5L249.81 482.7L242.689 538.981L196.434 543.365L190.287 502.401Z" opacity=".61"/><path fill="url(#paint9_linear)" d="M225.457 325.83L216.471 328.82L222.316 371.061L235.063 375.31L227.522 380.332L264.808 448.706L225.457 325.83Z" opacity=".61"/><path fill="url(#paint10_linear)" d="M249.978 325.83C249.978 325.83 254.529 364.46 258.812 398.403C261.768 421.799 265.01 442.391 264.808 448.706L276.565 385.387L266.622 373.479L271.845 364.779L256.73 326.973L249.978 325.83Z" opacity=".61"/><path fill="#fff" d="M228.832 336.328C228.832 336.328 240.371 346.405 251.238 334.782L264.808 448.706L228.832 336.328Z"/><path fill="#452C1D" d="M241.11 340.308L238.103 349.294L245.342 353.056L247.811 344.944L241.11 340.308Z"/><path fill="#452C1D" d="M251.305 406.549L243.696 351.796L246.014 350.822L258.023 391.752L264.808 448.706L251.305 406.549Z"/><path fill="url(#paint11_linear)" d="M225.557 510.765C225.557 510.765 239.665 521.766 244.754 522.656C249.843 523.546 267.512 520.976 267.512 520.976L270.149 518.255L272.752 514.023C270.61 512.429 268.366 510.976 266.034 509.673C264.724 509.236 264.439 507.355 264.439 507.355L251.825 503.005C251.825 503.005 258.208 499.965 258.543 498.958C258.879 497.95 256.377 497.496 256.377 497.496C256.377 497.496 236.709 499.596 235.03 498.118L225.557 510.765Z"/><path fill="url(#paint12_linear)" d="M228.816 540.308L227.707 755.793L208.409 766.626L219.427 759.102L202.648 542.777L228.816 540.308Z" opacity=".61"/><path fill="url(#paint13_linear)" d="M250.28 320.708C249.88 323.209 249.852 325.756 250.196 328.266C249.659 328.4 249.256 328.484 249.004 328.568C247.643 328.938 243.965 328.77 240.606 324.319C237.247 319.868 236.575 307.742 245.46 311.571C251.54 314.191 263.145 312.142 269.864 310.58C261.13 315.233 249.155 314.04 250.28 320.708Z"/><defs><linearGradient id="paint0_linear" x1="336.676" x2="405.671" y1="-296.271" y2="824.872" gradientUnits="userSpaceOnUse"><stop offset=".02" stop-color="#fff" stop-opacity="0"/><stop offset="1" stop-color="#fff"/></linearGradient><linearGradient id="paint1_linear" x1="354.748" x2="402.027" y1="-84.448" y2="1071.18" gradientUnits="userSpaceOnUse"><stop offset=".01" stop-color="#FDA168" stop-opacity="0"/><stop offset=".03" stop-color="#F69D66" stop-opacity=".04"/><stop offset=".19" stop-color="#BC7E58" stop-opacity=".39"/><stop offset=".35" stop-color="#8F664D" stop-opacity=".66"/><stop offset=".53" stop-color="#6F5545" stop-opacity=".85"/><stop offset=".73" stop-color="#5C4B40" stop-opacity=".96"/><stop offset=".99" stop-color="#56473D"/></linearGradient><linearGradient id="paint2_linear" x1="238.355" x2="377.556" y1="476.116" y2="322.908" gradientUnits="userSpaceOnUse"><stop offset=".36" stop-color="#2E1200"/><stop offset=".75" stop-color="#A1653F" stop-opacity=".25"/><stop offset="1" stop-color="#EB9B69" stop-opacity="0"/></linearGradient><linearGradient id="paint3_linear" x1="28443.1" x2="75052.9" y1="88705.6" y2="71450.1" gradientUnits="userSpaceOnUse"><stop offset=".36" stop-color="#2E1200"/><stop offset=".75" stop-color="#A1653F" stop-opacity=".25"/><stop offset="1" stop-color="#EB9B69" stop-opacity="0"/></linearGradient><linearGradient id="paint4_linear" x1="221.258" x2="276.699" y1="296.405" y2="296.405" gradientUnits="userSpaceOnUse"><stop stop-color="#ECD3C4"/><stop offset=".42" stop-color="#EFDDD1"/><stop offset="1" stop-color="#F2D9C9"/></linearGradient><linearGradient id="paint5_linear" x1="35516.6" x2="15818.5" y1="106631" y2="106586" gradientUnits="userSpaceOnUse"><stop offset=".36" stop-color="#2E1200"/><stop offset=".75" stop-color="#A1653F" stop-opacity=".25"/><stop offset="1" stop-color="#EB9B69" stop-opacity="0"/></linearGradient><linearGradient id="paint6_linear" x1="4967.39" x2="2518.06" y1="81071" y2="81280" gradientUnits="userSpaceOnUse"><stop offset=".36" stop-color="#2E1200"/><stop offset=".75" stop-color="#A1653F" stop-opacity=".25"/><stop offset="1" stop-color="#EB9B69" stop-opacity="0"/></linearGradient><linearGradient id="paint7_linear" x1="12783.6" x2="13382.1" y1="16080.2" y2="16080.2" gradientUnits="userSpaceOnUse"><stop stop-color="#ECD3C4"/><stop offset=".42" stop-color="#EFDDD1"/><stop offset="1" stop-color="#F2D9C9"/></linearGradient><linearGradient id="paint8_linear" x1="10953.8" x2="23015.3" y1="66534.9" y2="62643" gradientUnits="userSpaceOnUse"><stop offset=".36" stop-color="#2E1200"/><stop offset=".75" stop-color="#A1653F" stop-opacity=".25"/><stop offset="1" stop-color="#EB9B69" stop-opacity="0"/></linearGradient><linearGradient id="paint9_linear" x1="189.783" x2="372.567" y1="381.591" y2="400.335" gradientUnits="userSpaceOnUse"><stop offset=".36" stop-color="#2E1200"/><stop offset=".75" stop-color="#A1653F" stop-opacity=".25"/><stop offset=".77" stop-color="#A66842" stop-opacity=".06"/><stop offset="1" stop-color="#EB9B69" stop-opacity="0"/></linearGradient><linearGradient id="paint10_linear" x1="8201.12" x2="11123.3" y1="36414.3" y2="36479.1" gradientUnits="userSpaceOnUse"><stop offset=".36" stop-color="#2E1200"/><stop offset=".75" stop-color="#A1653F" stop-opacity=".25"/><stop offset="1" stop-color="#EB9B69" stop-opacity="0"/></linearGradient><linearGradient id="paint11_linear" x1="15341.2" x2="16667.4" y1="9900.69" y2="9900.69" gradientUnits="userSpaceOnUse"><stop stop-color="#ECD3C4"/><stop offset=".42" stop-color="#EFDDD1"/><stop offset="1" stop-color="#F2D9C9"/></linearGradient><linearGradient id="paint12_linear" x1="5053.27" x2="12133.5" y1="115587" y2="114821" gradientUnits="userSpaceOnUse"><stop offset=".36" stop-color="#2E1200"/><stop offset=".75" stop-color="#A1653F" stop-opacity=".25"/><stop offset="1" stop-color="#EB9B69" stop-opacity="0"/></linearGradient><linearGradient id="paint13_linear" x1="10956.9" x2="11322.8" y1="4991.71" y2="5823.59" gradientUnits="userSpaceOnUse"><stop stop-color="#ECD3C4"/><stop offset=".42" stop-color="#EFDDD1"/><stop offset="1" stop-color="#F2D9C9"/></linearGradient></defs></svg>