<svg xmlns="http://www.w3.org/2000/svg" width="376" height="361" fill="none" viewBox="0 0 376 361"><path fill="#F2F2F2" d="M105.123 46.169C83.155 65.8921 68.778 93.4107 45.6967 132.964C22.5081 172.517 -9.46777 224.101 2.65866 254.854C14.7851 285.607 71.2287 295.519 124.524 315.686C177.818 335.853 227.994 366.157 274.151 360.25C320.309 354.342 362.449 312.233 373.047 265.659C383.753 218.974 363.015 167.834 348.077 121.261C333.246 74.6926 324.214 32.6707 298.238 13.6453C272.262 -5.38014 229.331 -1.29211 192.981 6.61564C156.636 14.621 127.091 26.4509 105.123 46.169Z"/><path fill="#E47F40" fill-rule="evenodd" d="M134.965 142.166C123.209 136.695 120.743 115.676 129.455 95.2183C138.168 74.7605 154.761 62.6111 166.517 68.0818C167.181 68.3907 167.815 68.7492 168.42 69.1545L168.49 68.9825L239.505 112.547C243.359 114.912 245.975 118.603 247.057 122.717L275.739 137.251C283.531 141.199 287.114 150.407 284.032 158.562L281.106 166.305C278.891 172.165 273.354 175.868 267.351 175.932L267.06 179.309L275.289 184.162C282.468 188.395 285.519 197.208 282.495 204.973L281.995 206.259C279.191 213.46 271.38 217.345 263.956 215.256L263.24 223.553L284.457 231.221C292.672 234.191 297.351 242.893 295.286 251.363L293.325 259.404C291.523 266.794 284.474 271.624 276.927 270.64L241.793 266.062C238.595 268.356 234.513 269.386 230.37 268.635L149.25 253.928C147.923 253.891 146.613 253.671 145.331 253.256C132.996 249.258 127.986 228.696 134.141 207.329C140.296 185.962 155.285 171.881 167.619 175.878C168.316 176.104 168.99 176.383 169.64 176.712L169.689 176.532L222.254 200.517C219.522 195.684 219.556 187.528 222.82 179.477C224.965 174.186 228.111 169.913 231.497 167.237L229.146 166.632C225.693 168.519 221.515 169.045 217.495 167.795L138.769 143.311C137.459 143.112 136.186 142.734 134.965 142.166ZM231.13 196.203C230.462 196.238 229.816 196.129 229.212 195.86C225.683 194.292 224.905 187.883 227.475 181.545C230.044 175.207 234.988 171.341 238.517 172.909C242.046 174.477 242.824 180.886 240.255 187.224C238.125 192.477 234.364 196.032 231.13 196.203ZM137.058 135.676C127.588 131.27 125.787 113.902 133.035 96.8839C140.283 79.8662 153.835 69.6431 163.304 74.0498C172.774 78.4566 174.575 95.8246 167.327 112.842C162.345 124.542 154.382 133.03 146.815 135.761C146.127 136.009 145.442 136.21 144.763 136.361C144.594 136.399 144.424 136.433 144.255 136.465C143.046 136.691 141.857 136.757 140.703 136.652C139.439 136.536 138.218 136.216 137.058 135.676ZM146.618 246.559C147.835 246.954 149.087 247.123 150.355 247.083L150.355 247.083C150.704 247.072 151.055 247.045 151.406 247.003C152.064 246.924 152.725 246.791 153.388 246.605C161.569 244.314 169.882 234.08 173.879 220.207C178.998 202.432 175.094 185.413 165.158 182.194C155.222 178.974 143.017 190.772 137.897 208.546C132.777 226.32 136.682 243.339 146.618 246.559ZM307.6 249.712C308.197 246.641 306.335 243.628 303.322 242.787L297.894 241.274C297.894 241.274 297.381 249.445 296.056 255.233C294.859 260.46 292.007 268.024 292.007 268.024L299.155 268.876C301.755 269.186 304.155 267.436 304.654 264.865L307.6 249.712ZM293.054 151.03C295.942 152.231 297.423 155.449 296.456 158.424L291.686 173.105C290.877 175.596 288.282 177.041 285.739 176.416L278.747 174.7C278.747 174.7 282.5 167.539 284.325 162.498C286.346 156.914 287.851 148.866 287.851 148.866L293.054 151.03Z" clip-rule="evenodd"/><path fill="#FCFCFC" d="M137.898 208.546C132.779 226.32 136.683 243.339 146.619 246.559C156.555 249.779 168.76 237.98 173.88 220.206C179 202.432 175.096 185.413 165.159 182.193C155.223 178.973 143.018 190.772 137.898 208.546Z"/><path fill="#FCFCFC" d="M133.037 96.8837C125.789 113.901 127.59 131.269 137.06 135.676C146.529 140.083 160.081 129.86 167.329 112.842C174.577 95.8244 172.776 78.4564 163.306 74.0496C153.836 69.6428 140.284 79.866 133.037 96.8837Z"/><path fill="#FCFCFC" d="M133.037 96.8837C125.789 113.901 127.59 131.269 137.06 135.676C146.529 140.083 160.081 129.86 167.329 112.842C174.577 95.8244 172.776 78.4564 163.306 74.0496C153.836 69.6428 140.284 79.866 133.037 96.8837Z"/></svg>