<svg xmlns="http://www.w3.org/2000/svg" width="376" height="361" fill="none" viewBox="0 0 376 361"><path fill="#F2F2F2" d="M270.877 46.169C292.845 65.8921 307.222 93.4107 330.303 132.964C353.492 172.517 385.468 224.101 373.341 254.854C361.215 285.607 304.771 295.519 251.476 315.686C198.182 335.853 148.006 366.157 101.849 360.25C55.691 354.342 13.5512 312.233 2.95273 265.659C-7.7531 218.974 12.9849 167.834 27.9232 121.261C42.7542 74.6926 51.7856 32.6707 77.7618 13.6453C103.738 -5.38014 146.669 -1.29211 183.019 6.61564C219.364 14.621 248.909 26.4509 270.877 46.169Z"/><path fill="#7C7C7C" fill-rule="evenodd" d="M185.385 121.788L179.012 131.974L173.162 121.788H173.225C172.332 120.518 171.805 118.956 171.805 117.268C171.805 113.013 175.149 109.565 179.274 109.565C183.4 109.565 186.744 113.013 186.744 117.268C186.744 118.956 186.217 120.518 185.324 121.788H185.385ZM179.391 112.281C177.264 112.281 175.539 114.005 175.539 116.132C175.539 118.26 177.264 119.984 179.391 119.984C181.518 119.984 183.242 118.26 183.242 116.132C183.242 114.005 181.518 112.281 179.391 112.281Z" clip-rule="evenodd"/><path stroke="#fff" stroke-width="10" d="M108.725 144.86L115.454 137.373L144.984 142.338M108.725 144.86L104.24 137.373L94.5208 132.506L65.3642 127.64M108.725 144.86L104.959 175.556M269.086 163.203L283.665 106.676M269.086 163.203L181.243 148.434M269.086 163.203L261.423 207.002M253.76 250.801L203.297 248.56M253.76 250.801L261.423 207.002M253.76 250.801L270.955 253.047L273.946 231.709H283.665L287.029 215.612M65.3642 127.64L62 163.203L89.6613 168.069L104.959 175.556M65.3642 127.64L70.2236 64M104.959 175.556L92.6518 275.882L94.5208 280L162.179 250.801L177.879 247.432L203.297 248.56M144.984 142.338L153.208 95.0711H171.524L173.767 77.851M144.984 142.338L181.243 148.434M181.243 148.434L171.524 227.965M203.297 248.56L209.652 203.633M261.423 207.002L287.029 215.612M287.029 215.612L291.141 171.813L296 144.86"/><path fill="#FFB283" d="M175 153.864L115.061 147.9L106.87 228.782L167.182 234L175 153.864Z"/><path fill="#FFB283" d="M128.835 83.0455L131.069 70L150.801 73.7273L148.567 87.1455L128.835 83.0455Z"/><path fill="#FFB283" d="M163.087 106.155H153.779L148.567 136.345L158.247 138.209L163.087 106.155Z"/></svg>