<svg xmlns="http://www.w3.org/2000/svg" width="376" height="361" fill="none" viewBox="0 0 376 361"><path fill="#F2F2F2" d="M270.877 46.169C292.845 65.8921 307.222 93.4107 330.303 132.964C353.492 172.517 385.468 224.101 373.341 254.854C361.215 285.607 304.771 295.519 251.476 315.686C198.182 335.853 148.006 366.157 101.849 360.25C55.691 354.342 13.5512 312.233 2.95273 265.659C-7.7531 218.974 12.9849 167.834 27.9232 121.261C42.7542 74.6926 51.7856 32.6707 77.7618 13.6453C103.738 -5.38014 146.669 -1.29211 183.019 6.61564C219.364 14.621 248.909 26.4509 270.877 46.169Z"/><mask id="mask0" width="223" height="167" x="122" y="78" mask-type="alpha" maskUnits="userSpaceOnUse"><path fill="#C4C4C4" d="M233.31 78.8208L344.576 244.345H122.045L233.31 78.8208Z"/></mask><g mask="url(#mask0)"><g filter="url(#filter0_d)"><path fill="#E47F40" d="M233.31 78.8208L344.576 244.345H122.045L233.31 78.8208Z"/></g><g filter="url(#filter1_d)"><path fill="#fff" d="M207 174.982L173.012 140.301L249.468 44.1396L291.638 132.025L258.139 174.982L229 148L207 174.982Z"/></g></g><g filter="url(#filter2_d)"><mask id="mask1" width="223" height="167" x="27" y="104" mask-type="alpha" maskUnits="userSpaceOnUse"><path fill="#C4C4C4" d="M138.725 104.832L249.991 270.356H27.4599L138.725 104.832Z"/></mask><g mask="url(#mask1)"><g filter="url(#filter3_d)"><path fill="url(#paint0_linear)" d="M138.725 104.832L249.991 270.356H27.4599L138.725 104.832Z"/></g><g filter="url(#filter4_d)"><path fill="#fff" d="M99.7088 206.511L78.4272 166.312L154.884 70.1508L197.053 158.036L163.554 200.994L139.513 177.741L99.7088 206.511Z"/></g></g></g><defs><filter id="filter0_d" width="266.531" height="209.524" x="100.045" y="35.821" color-interpolation-filters="sRGB" filterUnits="userSpaceOnUse"><feFlood flood-opacity="0" result="BackgroundImageFix"/><feColorMatrix in="SourceAlpha" type="matrix" values="0 0 0 0 0 0 0 0 0 0 0 0 0 0 0 0 0 0 127 0"/><feOffset dy="-21"/><feGaussianBlur stdDeviation="11"/><feColorMatrix type="matrix" values="0 0 0 0 0 0 0 0 0 0 0 0 0 0 0 0 0 0 0.25 0"/><feBlend in2="BackgroundImageFix" mode="normal" result="effect1_dropShadow"/><feBlend in="SourceGraphic" in2="effect1_dropShadow" mode="normal" result="shape"/></filter><filter id="filter1_d" width="126.626" height="146.843" x="169.012" y="28.14" color-interpolation-filters="sRGB" filterUnits="userSpaceOnUse"><feFlood flood-opacity="0" result="BackgroundImageFix"/><feColorMatrix in="SourceAlpha" type="matrix" values="0 0 0 0 0 0 0 0 0 0 0 0 0 0 0 0 0 0 127 0"/><feOffset dy="-12"/><feGaussianBlur stdDeviation="2"/><feColorMatrix type="matrix" values="0 0 0 0 0 0 0 0 0 0 0 0 0 0 0 0 0 0 0.25 0"/><feBlend in2="BackgroundImageFix" mode="normal" result="effect1_dropShadow"/><feBlend in="SourceGraphic" in2="effect1_dropShadow" mode="normal" result="shape"/></filter><filter id="filter2_d" width="225.531" height="166.524" x="27.46" y="104.832" color-interpolation-filters="sRGB" filterUnits="userSpaceOnUse"><feFlood flood-opacity="0" result="BackgroundImageFix"/><feColorMatrix in="SourceAlpha" type="matrix" values="0 0 0 0 0 0 0 0 0 0 0 0 0 0 0 0 0 0 127 0"/><feOffset dx="3" dy="1"/><feColorMatrix type="matrix" values="0 0 0 0 0 0 0 0 0 0 0 0 0 0 0 0 0 0 0.25 0"/><feBlend in2="BackgroundImageFix" mode="normal" result="effect1_dropShadow"/><feBlend in="SourceGraphic" in2="effect1_dropShadow" mode="normal" result="shape"/></filter><filter id="filter3_d" width="266.531" height="209.524" x="5.46" y="61.832" color-interpolation-filters="sRGB" filterUnits="userSpaceOnUse"><feFlood flood-opacity="0" result="BackgroundImageFix"/><feColorMatrix in="SourceAlpha" type="matrix" values="0 0 0 0 0 0 0 0 0 0 0 0 0 0 0 0 0 0 127 0"/><feOffset dy="-21"/><feGaussianBlur stdDeviation="11"/><feColorMatrix type="matrix" values="0 0 0 0 0 0 0 0 0 0 0 0 0 0 0 0 0 0 0.25 0"/><feBlend in2="BackgroundImageFix" mode="normal" result="effect1_dropShadow"/><feBlend in="SourceGraphic" in2="effect1_dropShadow" mode="normal" result="shape"/></filter><filter id="filter4_d" width="126.626" height="152.36" x="74.427" y="54.151" color-interpolation-filters="sRGB" filterUnits="userSpaceOnUse"><feFlood flood-opacity="0" result="BackgroundImageFix"/><feColorMatrix in="SourceAlpha" type="matrix" values="0 0 0 0 0 0 0 0 0 0 0 0 0 0 0 0 0 0 127 0"/><feOffset dy="-12"/><feGaussianBlur stdDeviation="2"/><feColorMatrix type="matrix" values="0 0 0 0 0 0 0 0 0 0 0 0 0 0 0 0 0 0 0.25 0"/><feBlend in2="BackgroundImageFix" mode="normal" result="effect1_dropShadow"/><feBlend in="SourceGraphic" in2="effect1_dropShadow" mode="normal" result="shape"/></filter><linearGradient id="paint0_linear" x1="138.725" x2="138.725" y1="104.832" y2="325.531" gradientUnits="userSpaceOnUse"><stop stop-color="#E47F40"/><stop offset="1" stop-color="#E47F40"/></linearGradient></defs></svg>