<svg xmlns="http://www.w3.org/2000/svg" width="376" height="361" fill="none" viewBox="0 0 376 361"><path fill="#F2F2F2" d="M270.877 46.169C292.845 65.8921 307.222 93.4107 330.303 132.964C353.492 172.517 385.468 224.101 373.341 254.854C361.215 285.607 304.771 295.519 251.476 315.686C198.182 335.853 148.006 366.157 101.849 360.25C55.691 354.342 13.5512 312.233 2.95273 265.659C-7.7531 218.974 12.9849 167.834 27.9232 121.261C42.7542 74.6926 51.7856 32.6707 77.7618 13.6453C103.738 -5.38014 146.669 -1.29211 183.019 6.61564C219.364 14.621 248.909 26.4509 270.877 46.169Z"/><path fill="#F08949" d="M185.076 287.037L57 201.217V195.918L134.54 155.774L262.177 227.14L261.54 231.601L185.076 287.037Z"/><path fill="#E47F40" d="M139.835 50L266 125.562V225.866L262.177 227.14L139.835 150.304L136.012 51.2744L139.835 50Z"/><path fill="#FF9350" d="M185.076 281.939L57 196.119L134.54 150.677L261.54 226.503L185.076 281.939Z"/><path fill="#E37B3A" d="M130.898 200.359L107.446 214.217C106.809 214.593 106.788 215.508 107.407 215.914L141.713 238.41C143.675 239.696 146.207 239.721 148.194 238.474L171.007 224.149C171.625 223.761 171.632 222.862 171.02 222.464L137.22 200.494C135.309 199.252 132.86 199.2 130.898 200.359Z"/><path fill="#E37B3A" d="M139.44 160.208L112.056 176.415C110.772 177.176 110.743 179.024 112.003 179.825L209.431 241.713C210.116 242.149 210.997 242.126 211.659 241.657L238.665 222.528C239.839 221.697 239.777 219.934 238.547 219.187L141.498 160.22C140.867 159.837 140.076 159.832 139.44 160.208Z"/><path fill="#FF9350" d="M136.012 51.2744L262.177 126.837V227.14L136.012 151.578V51.2744Z"/><path fill="#FFF8F3" d="M141.11 58.9207L258.354 127.912V219.494L141.11 150.502V58.9207Z"/><path fill="#F08949" d="M316 237C316 240.866 308.165 244 298.5 244C288.835 244 281 240.866 281 237C281 233.134 288.835 230 298.5 230C308.165 230 316 233.134 316 237Z"/><path fill="#F0F0F0" d="M316 247C316 250.866 308.165 254 298.5 254C288.835 254 281 250.866 281 247C281 243.134 288.835 240 298.5 240C308.165 240 316 243.134 316 247Z"/><path stroke="#FF9350" stroke-width="3" d="M322.5 255C322.5 257.796 321.776 260.258 320.684 261.973C319.581 263.706 318.242 264.5 317 264.5C315.758 264.5 314.419 263.706 313.316 261.973C312.224 260.258 311.5 257.796 311.5 255C311.5 252.204 312.224 249.742 313.316 248.027C314.419 246.294 315.758 245.5 317 245.5C318.242 245.5 319.581 246.294 320.684 248.027C321.776 249.742 322.5 252.204 322.5 255Z"/><rect width="34" height="5" x="214.093" y="290.637" fill="#F08949" transform="rotate(-35 214.093 290.637)"/><rect width="3" height="5" fill="#C56C35" transform="matrix(-0.819152 0.573576 0.573576 0.819152 216.55 288.916)"/><path fill="#C56C35" d="M247.474 270.315L241.944 271.135L244.812 275.231L247.474 270.315Z"/><rect width="34" height="5" x="214" y="302.369" fill="#F08949" transform="rotate(-35 214 302.369)"/><rect width="3" height="5" fill="#C56C35" transform="matrix(-0.819152 0.573576 0.573576 0.819152 216.457 300.648)"/><path fill="#C56C35" d="M247.381 282.048L241.851 282.868L244.719 286.963L247.381 282.048Z"/><path fill="#FF9350" fill-rule="evenodd" d="M281 236.999H281.001C281.077 240.808 288.883 243.886 298.5 243.886C308.117 243.886 315.921 240.808 315.999 237L316 237V268.999H315.999C316 269.018 316 269.037 316 269.056C316 272.89 308.165 275.999 298.5 275.999C288.835 275.999 281 272.89 281 269.056C281 269.037 281 269.018 281.001 268.999H281V236.999Z" clip-rule="evenodd"/></svg>