<svg xmlns="http://www.w3.org/2000/svg" width="56" height="82" fill="none" viewBox="0 0 56 82"><path fill="#E47F40" d="M56 27.1426C56 42.1331 43.464 61 28 61C12.536 61 0 42.1331 0 27.1426C0 12.1522 12.536 0 28 0C43.464 0 56 12.1522 56 27.1426Z"/><path fill="#E47F40" d="M17 59C17 55.6863 19.6863 53 23 53H33C36.3137 53 39 55.6863 39 59V66C39 69.3137 36.3137 72 33 72H23C19.6863 72 17 69.3137 17 66V59Z"/><path fill="#E47F40" d="M38.5686 65.2655C38.9233 61.988 39.966 59.3055 41.4077 57.0618C45.2526 51.078 46.254 42.7385 40.3788 38.7295C32.141 33.1083 22.2089 41.8748 27.1787 50.5212C33.3003 61.1716 38.2302 68.3923 38.5686 65.2655Z"/><path fill="#E47F40" d="M18.4062 68.3236C17.9603 64.2215 16.2757 60.0916 14.0493 56.4087C10.2182 50.0714 10.5674 39.9284 16.8643 36.0314C25.2662 30.8317 35.3329 39.9324 30.8803 48.753C24.277 61.8341 18.7762 71.7274 18.4062 68.3236Z"/><rect width="16" height="4" x="20" y="73" fill="#E47F40" rx="2"/><rect width="16" height="4" x="20" y="78" fill="#E47F40" rx="2"/><path stroke="#fff" stroke-width="2" d="M23.2611 61V29.8386C23.2611 28.6382 21.9134 27.9314 20.926 28.6139V28.6139C19.7249 29.444 20.3123 31.3273 21.7724 31.3273H34.994C36.4902 31.3273 37.0761 29.3857 35.8297 28.5581V28.5581C34.8256 27.8913 33.4833 28.6112 33.4833 29.8166V61"/></svg>