<svg xmlns="http://www.w3.org/2000/svg" width="98" height="98" fill="none" viewBox="0 0 98 98"><path fill="#E47F40" d="M91.1859 7.65625H90.3438V6.81406C90.3438 5.81909 89.9485 4.86486 89.2449 4.16131C88.5414 3.45775 87.5872 3.0625 86.5922 3.0625H63.4703C62.4753 3.0625 61.5211 3.45775 60.8176 4.16131C60.114 4.86486 59.7188 5.81909 59.7188 6.81406V7.73281L40.8538 14.1334C40.5417 14.2304 40.2688 14.4246 40.075 14.6877C39.8812 14.9508 39.7767 15.269 39.7767 15.5958C39.7767 15.9226 39.8812 16.2408 40.075 16.5039C40.2688 16.767 40.5417 16.9612 40.8538 17.0581L47.4688 18.9569V28.7109C47.469 29.0338 47.5713 29.3484 47.7611 29.6097C47.9508 29.8709 48.2183 30.0655 48.5253 30.1656L59.2441 33.6109C59.3979 33.6586 59.5577 33.6844 59.7188 33.6875V36.0609C59.7188 37.0559 60.114 38.0101 60.8176 38.7137C61.5211 39.4172 62.4753 39.8125 63.4703 39.8125H63.8225L63.3784 40.2719C62.4445 39.9649 61.4674 39.8098 60.4844 39.8125C59.2081 39.8004 57.9448 40.0684 56.7833 40.5975C55.6219 41.1267 54.5906 41.9041 53.7622 42.875H44.1C44.287 42.3853 44.3905 41.8677 44.4062 41.3438V24.5766C44.4025 23.3523 43.9197 22.1781 43.0612 21.3052C42.2026 20.4324 41.0366 19.9303 39.8125 19.9062H12.3266C11.1011 19.9061 9.92462 20.3876 9.05093 21.247C8.17724 22.1063 7.67634 23.2747 7.65625 24.5C6.43218 24.524 5.26613 25.0261 4.4076 25.899C3.54907 26.7718 3.06627 27.946 3.0625 29.1703V45.9375C3.0865 47.1616 3.58864 48.3276 4.46148 49.1862C5.33432 50.0447 6.50852 50.5275 7.73281 50.5312H18.4516V84.2188C15.0369 84.4178 12.3266 86.7913 12.3266 89.6853C12.3266 92.5794 15.0216 94.9375 18.8497 94.9375H82.2128C86.0409 94.9375 88.8125 92.7478 88.8125 89.7312C88.8125 86.7147 86.1022 84.4638 82.6875 84.2188V58.0497C84.3359 57.8155 85.8505 57.0122 86.969 55.779C88.0876 54.5458 88.7397 52.9602 88.8125 51.2969C88.6903 49.3504 87.8012 47.5319 86.3401 46.2402C84.879 44.9484 82.9652 44.2889 81.0184 44.4062H91.1859C92.1809 44.4062 93.1351 44.011 93.8387 43.3074C94.5423 42.6039 94.9375 41.6497 94.9375 40.6547V11.4078C94.9375 10.4128 94.5423 9.45861 93.8387 8.75506C93.1351 8.0515 92.1809 7.65625 91.1859 7.65625ZM63.4703 6.125H86.5922C86.7749 6.125 86.9502 6.1976 87.0794 6.32682C87.2087 6.45605 87.2812 6.63131 87.2812 6.81406V7.65625H68.0641C67.4593 7.66229 66.865 7.81443 66.3318 8.09972C65.7985 8.385 65.3422 8.79497 65.0016 9.29469L62.7812 8.49844V6.81406C62.7812 6.72357 62.7991 6.63397 62.8337 6.55037C62.8683 6.46677 62.9191 6.39081 62.9831 6.32682C63.0471 6.26284 63.123 6.21208 63.2066 6.17745C63.2902 6.14282 63.3798 6.125 63.4703 6.125ZM60.1934 10.8106L73.5 15.6494L60.2241 19.4622L46.4428 15.4656L60.1934 10.8106ZM50.5312 27.5625V19.9062L59.7188 22.5859C59.9987 22.6676 60.2963 22.6676 60.5763 22.5859L68.9062 20.1512V27.5625L59.7188 30.625L50.5312 27.5625ZM62.7812 36.0303V32.7841L64.3125 32.2941V36.75H63.4703C63.3798 36.75 63.2902 36.7322 63.2066 36.6975C63.123 36.6629 63.0471 36.6122 62.9831 36.5482C62.9191 36.4842 62.8683 36.4082 62.8337 36.3246C62.7991 36.241 62.7812 36.1514 62.7812 36.0609V36.0303ZM12.3266 22.9688H39.8125C40.0202 22.9685 40.2258 23.0105 40.4167 23.0922C40.6077 23.1739 40.78 23.2936 40.9233 23.444C41.0665 23.5944 41.1776 23.7723 41.2499 23.967C41.3222 24.1617 41.3541 24.3691 41.3438 24.5766V41.3438C41.3251 41.7439 41.1578 42.1226 40.8746 42.4058C40.5914 42.689 40.2126 42.8564 39.8125 42.875V29.1703C39.8087 27.946 39.3259 26.7718 38.4674 25.899C37.6089 25.0261 36.4428 24.524 35.2188 24.5H10.7188C10.7384 24.087 10.9165 23.6974 11.2159 23.4123C11.5153 23.1271 11.9131 22.9683 12.3266 22.9688ZM6.125 45.9375V29.1703C6.11462 28.9629 6.14654 28.7555 6.21883 28.5608C6.29112 28.3661 6.40226 28.1881 6.5455 28.0377C6.68874 27.8873 6.86107 27.7676 7.05203 27.6859C7.24298 27.6042 7.44856 27.5622 7.65625 27.5625H35.2188C35.4264 27.5622 35.632 27.6042 35.823 27.6859C36.0139 27.7676 36.1863 27.8873 36.3295 28.0377C36.4727 28.1881 36.5839 28.3661 36.6562 28.5608C36.7285 28.7555 36.7604 28.9629 36.75 29.1703V45.9375C36.75 46.3436 36.5887 46.7331 36.3015 47.0203C36.0143 47.3074 35.6249 47.4688 35.2188 47.4688H7.73281C7.52538 47.4791 7.318 47.4472 7.12329 47.3749C6.92858 47.3026 6.75061 47.1915 6.60021 47.0483C6.44982 46.905 6.33013 46.7327 6.24843 46.5417C6.16674 46.3508 6.12474 46.1452 6.125 45.9375ZM85.75 89.7312C85.75 91.1247 83.9278 91.875 82.2128 91.875H18.8497C17.1347 91.875 15.3125 91.1247 15.3125 89.7312C15.3125 88.3378 16.9356 87.2812 18.8497 87.2812H82.2128C84.1269 87.2812 85.75 88.3991 85.75 89.7312ZM81.1562 47.4688C82.2706 47.3789 83.3757 47.7295 84.2345 48.4451C85.0933 49.1608 85.6374 50.1846 85.75 51.2969C85.6374 52.4091 85.0933 53.4329 84.2345 54.1486C83.3757 54.8643 82.2706 55.2148 81.1562 55.125H73.5V58.1875H75.0312V79.625H41.3438V82.6875H76.5625C76.9686 82.6875 77.3581 82.5262 77.6453 82.239C77.9324 81.9518 78.0938 81.5624 78.0938 81.1562V58.1875H79.625V84.2188H21.4375V50.5312H22.9688V81.1562C22.9688 81.5624 23.1301 81.9518 23.4172 82.239C23.7044 82.5262 24.0939 82.6875 24.5 82.6875H38.2812V79.625H26.0312V50.5312H35.2188C36.4371 50.5312 37.6055 50.0473 38.467 49.1858C39.3285 48.3243 39.8125 47.1558 39.8125 45.9375H48.8162C47.9435 46.5362 47.2267 47.3352 46.7259 48.2675C46.2251 49.1999 45.9548 50.2386 45.9375 51.2969C46.0444 53.224 46.9096 55.0304 48.3442 56.3216C49.7788 57.6127 51.6661 58.2835 53.5938 58.1875H64.3125V64.6647C64.3123 65.0285 64.3853 65.3886 64.5272 65.7235C64.6692 66.0585 64.877 66.3615 65.1385 66.6144C65.4 66.8673 65.7097 67.065 66.0493 67.1957C66.3888 67.3263 66.7511 67.3873 67.1147 67.375H70.6978C71.0614 67.3873 71.4237 67.3263 71.7632 67.1957C72.1028 67.065 72.4125 66.8673 72.674 66.6144C72.9355 66.3615 73.1433 66.0585 73.2853 65.7235C73.4272 65.3886 73.5002 65.0285 73.5 64.6647V54.1144H73.9134C74.4284 54.1247 74.9353 53.9856 75.3729 53.7139C75.8104 53.4421 76.1598 53.0493 76.3788 52.5831C76.6022 52.1181 76.685 51.598 76.617 51.0866C76.549 50.5752 76.3331 50.0948 75.9959 49.7044L71.0653 43.8856C70.8013 43.5959 70.4797 43.3644 70.1211 43.2061C69.7625 43.0477 69.3748 42.9659 68.9828 42.9659C68.5908 42.9659 68.2031 43.0477 67.8445 43.2061C67.4859 43.3644 67.1644 43.5959 66.9003 43.8856L61.9697 49.7044C61.6325 50.0948 61.4167 50.5752 61.3486 51.0866C61.2806 51.598 61.3634 52.1181 61.5869 52.5831C61.8058 53.0493 62.1552 53.4421 62.5928 53.7139C63.0303 53.9856 63.5372 54.1247 64.0522 54.1144H64.4656V55.125H53.5938C52.4794 55.2148 51.3743 54.8643 50.5155 54.1486C49.6567 53.4329 49.1126 52.4091 49 51.2969C49.1126 50.1846 49.6567 49.1608 50.5155 48.4451C51.3743 47.7295 52.4794 47.3789 53.5938 47.4688C53.9701 47.5407 54.3597 47.4689 54.6857 47.2677C55.0117 47.0664 55.2504 46.7502 55.3547 46.3816C55.476 45.9793 55.6566 45.5974 55.8906 45.2484C56.4084 44.5131 57.0969 43.9143 57.8971 43.5036C58.6972 43.0928 59.585 42.8824 60.4844 42.8903C61.4268 42.8796 62.3575 43.1005 63.1947 43.5334C63.537 43.711 63.9338 43.7529 64.3056 43.6507C64.6775 43.5486 64.9971 43.3098 65.2006 42.9822C65.6046 42.3281 66.1233 41.7523 66.7319 41.2825C68.0182 40.3105 69.591 39.7934 71.2031 39.8125C72.5042 39.7762 73.7892 40.1075 74.9105 40.7684C76.0318 41.4292 76.944 42.3929 77.5425 43.5488C77.916 44.289 78.1052 45.1085 78.0938 45.9375C78.0612 46.174 78.0843 46.4149 78.1614 46.6409C78.2385 46.8669 78.3674 47.0718 78.5378 47.2391C78.7238 47.4228 78.9537 47.5558 79.2057 47.6255C79.4576 47.6952 79.7232 47.6992 79.9772 47.6372C80.3619 47.5332 80.7578 47.4766 81.1562 47.4688ZM64.7259 51.0519L68.9062 46.1213L73.0866 51.0519C72.3797 51.0717 71.7082 51.3655 71.2139 51.8713C70.7196 52.377 70.4412 53.055 70.4375 53.7622V64.3125H67.5281V53.7622C67.5262 53.399 67.4518 53.0399 67.3091 52.7059C67.1665 52.3719 66.9585 52.0698 66.6975 51.8173C66.4364 51.5648 66.1275 51.367 65.789 51.2356C65.4504 51.1041 65.089 51.0417 64.7259 51.0519ZM91.875 40.6547C91.875 40.8374 91.8024 41.0127 91.6732 41.1419C91.544 41.2712 91.3687 41.3438 91.1859 41.3438H79.7934C78.8678 39.9132 77.5939 38.7413 76.0914 37.9378C74.5888 37.1343 72.9068 36.7256 71.2031 36.75H70.4375C69.3892 36.8232 68.3573 37.0503 67.375 37.4238V31.2987L70.8969 30.1656C71.2067 30.0682 71.4776 29.8747 71.6703 29.6132C71.8629 29.3517 71.9675 29.0358 71.9688 28.7109V19.2631L75.0312 18.375V25.8781L73.5 33.3812L76.5625 33.9938L77.3128 30.2116L79.87 34.4684L82.5038 32.9372L78.0938 25.6025V17.5022L78.8594 17.2878C79.1693 17.1972 79.4426 17.0109 79.6403 16.7557C79.838 16.5004 79.9499 16.1891 79.9601 15.8664C79.9703 15.5437 79.8782 15.226 79.697 14.9588C79.5158 14.6916 79.2548 14.4884 78.9513 14.3784L68.9062 10.7188H91.1859C91.3687 10.7188 91.544 10.7913 91.6732 10.9206C91.8024 11.0498 91.875 11.2251 91.875 11.4078V40.6547Z"/><path fill="#E47F40" d="M71.9688 73.5H29.0938V76.5625H71.9688V73.5Z"/><path fill="#E47F40" d="M34.3459 65.4149L33.565 70.1924C33.5309 70.4716 33.5743 70.7547 33.6905 71.0108C33.8067 71.2669 33.9911 71.4861 34.2237 71.6442C34.4562 71.8024 34.7278 71.8935 35.0087 71.9075C35.2895 71.9215 35.5688 71.8579 35.8159 71.7237L39.8125 69.5646L43.8091 71.7849C44.0348 71.9068 44.2875 71.97 44.5441 71.9687C44.8615 71.9711 45.1719 71.8748 45.4322 71.6931C45.6725 71.5248 45.8595 71.291 45.9708 71.0196C46.0821 70.7481 46.113 70.4504 46.06 70.1618L45.2791 65.3843L48.5712 62.0156C48.7628 61.8159 48.8967 61.5682 48.9587 61.2985C49.0207 61.0289 49.0085 60.7475 48.9234 60.4843C48.8335 60.2171 48.6715 59.9799 48.4554 59.7989C48.2392 59.6179 47.9773 59.5 47.6984 59.4584L43.2119 58.7693L41.2059 54.4818C41.0841 54.2145 40.888 53.9878 40.6409 53.8289C40.3939 53.6699 40.1063 53.5854 39.8125 53.5854C39.5187 53.5854 39.2311 53.6699 38.9841 53.8289C38.737 53.9878 38.5409 54.2145 38.4191 54.4818L36.4131 58.7693L31.9266 59.4584C31.6477 59.5 31.3858 59.6179 31.1696 59.7989C30.9535 59.9799 30.7915 60.2171 30.7016 60.4843C30.6165 60.7475 30.6043 61.0289 30.6663 61.2985C30.7283 61.5682 30.8622 61.8159 31.0538 62.0156L34.3459 65.4149ZM37.6841 61.6787C37.9309 61.6403 38.1646 61.5421 38.3648 61.3926C38.565 61.2431 38.7255 61.047 38.8325 60.8212L39.8125 58.7234L40.7925 60.8212C40.8995 61.047 41.06 61.2431 41.2602 61.3926C41.4604 61.5421 41.6941 61.6403 41.9409 61.6787L44.2838 62.0309L42.5381 63.8224C42.3709 63.9942 42.2464 64.2029 42.1746 64.4316C42.1028 64.6604 42.0857 64.9028 42.1247 65.1393L42.5228 67.574L40.5475 66.4868C40.3147 66.3524 40.0507 66.2817 39.7819 66.2817C39.5131 66.2817 39.249 66.3524 39.0162 66.4868L37.0409 67.574L37.4391 65.1393C37.478 64.9028 37.4609 64.6604 37.3891 64.4316C37.3173 64.2029 37.1928 63.9942 37.0256 63.8224L35.28 62.0309L37.6841 61.6787ZM28.4047 36.4896L17.6859 29.354C17.46 29.2078 17.1994 29.1237 16.9306 29.1103C16.6618 29.0968 16.3941 29.1545 16.1547 29.2774C15.9045 29.4035 15.6936 29.5958 15.5451 29.8334C15.3966 30.071 15.3162 30.3448 15.3125 30.6249V44.4062C15.313 44.6775 15.3855 44.9438 15.5227 45.1779C15.66 45.412 15.8569 45.6054 16.0934 45.7384C16.3223 45.8681 16.5807 45.9366 16.8438 45.9374C17.1304 45.9384 17.4116 45.8588 17.6553 45.7077L28.3741 39.0774C28.5925 38.9409 28.773 38.7514 28.8988 38.5266C29.0246 38.3018 29.0917 38.0488 29.0938 37.7912C29.0976 37.5338 29.0364 37.2796 28.916 37.0521C28.7955 36.8246 28.6197 36.6312 28.4047 36.4896ZM18.375 41.6499V33.4884L24.7297 37.7146L18.375 41.6499ZM33.1362 8.95774L32.3553 6.00243C31.9613 6.09868 31.5728 6.21625 31.1916 6.35462C30.5033 6.59817 29.833 6.88983 29.1856 7.22743L30.625 9.93774C31.1149 9.64771 31.6269 9.39682 32.1562 9.18743C32.477 9.08769 32.8045 9.01094 33.1362 8.95774ZM21.4375 17.9002L24.5 18.3749C24.6368 17.4852 24.8837 16.6159 25.235 15.7871L22.4022 14.6081C21.9509 15.6632 21.6271 16.7684 21.4375 17.9002ZM28.3588 11.4537L26.3681 9.18743C25.5039 9.91047 24.7278 10.7328 24.0559 11.6374L26.5212 13.4443C27.0601 12.7164 27.6762 12.0489 28.3588 11.4537ZM42.3544 6.8293L41.0834 9.61618C41.9034 9.98461 42.6748 10.4526 43.3803 11.0096L45.2791 8.60555C44.377 7.90106 43.3954 7.30489 42.3544 6.8293ZM38.5109 8.7893L39.1081 5.7268C38.1545 5.54261 37.1853 5.45032 36.2141 5.45118H35.7241L35.8159 8.51368H36.2141C36.987 8.5278 37.7566 8.62015 38.5109 8.7893Z"/></svg>