<svg xmlns="http://www.w3.org/2000/svg" width="98" height="98" fill="none" viewBox="0 0 98 98"><path fill="#E47F40" d="M46.9583 8.16663C27.8075 8.16663 12.25 23.7241 12.25 42.875C12.25 62.0258 27.8075 77.5833 46.9583 77.5833H49V89.8333C68.845 80.2783 81.6667 61.25 81.6667 42.875C81.6667 23.7241 66.1092 8.16663 46.9583 8.16663ZM51.0417 67.375H42.875V59.2083H51.0417V67.375ZM52.675 47.8566C52.6342 47.8975 52.5933 47.9791 52.5525 48.0608C52.3483 48.3875 52.1442 48.7141 51.9808 49.0408C51.8992 49.1633 51.8583 49.3266 51.8175 49.49C51.695 49.7758 51.5725 50.0616 51.4908 50.3475C51.205 51.205 51.0825 52.1033 51.0825 53.1241H42.875C42.875 51.0416 43.2017 49.2858 43.6917 47.8158C43.6917 47.775 43.6917 47.7341 43.7325 47.6933C43.7733 47.53 43.8958 47.4483 43.9367 47.285C44.1817 46.6316 44.4675 46.06 44.835 45.4883C44.9575 45.2841 45.1208 45.08 45.2433 44.8758C45.3658 44.7125 45.4475 44.5083 45.57 44.3858L45.6108 44.4266C49.0408 39.935 54.635 38.5466 55.0842 33.4833C55.4517 29.4816 52.5933 25.6025 48.6733 24.7858C44.4267 23.8875 40.5883 26.3783 39.2817 30.0125C38.71 31.4825 37.3625 32.6666 35.6883 32.6666H34.8717C32.4217 32.6666 30.625 30.2575 31.3192 27.8891C33.565 20.4575 40.9967 15.2716 49.4083 16.4966C56.3092 17.5175 61.8217 23.1933 63.0058 30.0941C64.8025 40.0575 56.35 42.4666 52.675 47.8566Z"/></svg>