<svg xmlns="http://www.w3.org/2000/svg" width="80" height="81" fill="none" viewBox="0 0 80 81"><path stroke="#E47F40" stroke-width="6" d="M77 40.5C77 61.2459 60.3995 78 40 78C19.6005 78 3 61.2459 3 40.5C3 19.7541 19.6005 3 40 3C60.3995 3 77 19.7541 77 40.5Z"/><circle cx="40" cy="41" r="27" stroke="#E47F40" stroke-width="6"/><circle cx="40" cy="41" r="17" fill="#E47F40" stroke="#E47F40" stroke-width="6"/><g filter="url(#filter0_d)"><line x1="39.884" x2="63.749" y1="41.706" y2="17.842" stroke="#E47F40" stroke-width="5"/><path fill="#E47F40" d="M58.7269 16.5591C58.7867 16.1275 58.9857 15.7273 59.2938 15.4192L66.7564 7.95664C68.1124 6.60065 70.4147 7.74562 70.1517 9.64516L69.5421 14.0476C69.4824 14.4792 69.2833 14.8795 68.9752 15.1876L61.5127 22.6501C60.1567 24.0061 57.8544 22.8611 58.1174 20.9616L58.7269 16.5591Z"/><path fill="#E47F40" d="M61.0105 23.8556C59.111 24.1186 57.966 21.8163 59.322 20.4603L66.7845 12.9978C67.0926 12.6897 67.4929 12.4906 67.9244 12.4309L72.3269 11.8213C74.2265 11.5583 75.3714 13.8606 74.0154 15.2166L66.5529 22.6792C66.2448 22.9872 65.8446 23.1863 65.413 23.246L61.0105 23.8556Z"/></g><defs><filter id="filter0_d" width="45.316" height="44.935" x="34.117" y="6.54" color-interpolation-filters="sRGB" filterUnits="userSpaceOnUse"><feFlood flood-opacity="0" result="BackgroundImageFix"/><feColorMatrix in="SourceAlpha" type="matrix" values="0 0 0 0 0 0 0 0 0 0 0 0 0 0 0 0 0 0 127 0"/><feOffset dy="4"/><feGaussianBlur stdDeviation="2"/><feColorMatrix type="matrix" values="0 0 0 0 0 0 0 0 0 0 0 0 0 0 0 0 0 0 0.25 0"/><feBlend in2="BackgroundImageFix" mode="normal" result="effect1_dropShadow"/><feBlend in="SourceGraphic" in2="effect1_dropShadow" mode="normal" result="shape"/></filter></defs></svg>