<svg xmlns="http://www.w3.org/2000/svg" width="98" height="98" fill="none" viewBox="0 0 98 98"><path fill="#E47F40" d="M80.3257 31.7139L85.4575 23.8492L74.6079 12.9897L66.7349 18.1298C64.3184 16.768 61.7339 15.6962 59.0367 14.9374L57.103 5.74463H41.7515L39.8272 14.9355C37.1583 15.6801 34.5713 16.7524 32.1216 18.1303L24.2564 12.9892L13.4067 23.8491L18.5376 31.7124C17.1733 34.1333 16.1016 36.7183 15.3447 39.4111L6.15283 41.3447V56.6953L15.3447 58.6284C16.1015 61.3218 17.1733 63.9062 18.5376 66.3276L13.4067 74.1909L24.2563 85.0508L32.1215 79.9097C34.5712 81.2876 37.1581 82.3599 39.8271 83.1045L41.7514 92.2949H57.103L59.0366 83.1025C61.7353 82.3427 64.3193 81.271 66.7348 79.9101L74.6078 85.0502L85.458 74.1909L80.3252 66.3335C81.6997 63.8779 82.77 61.291 83.5122 58.6284L92.7031 56.6953V41.3447L83.5122 39.4116C82.769 36.7446 81.6992 34.1606 80.3257 31.7139ZM90.7031 55.0723L81.8935 56.9248L81.7377 57.5249C80.9877 60.4194 79.8275 63.2256 78.2895 65.8652L77.979 66.3989L82.8955 73.9253L74.3413 82.4878L66.7959 77.561L66.2617 77.875C63.6743 79.395 60.8711 80.5581 57.9297 81.3311L57.3325 81.4883L55.48 90.2949H43.3765L41.5318 81.4858L40.9312 81.3305C38.0293 80.5781 35.2242 79.4155 32.5933 77.8744L32.0591 77.5614L24.523 82.4872L15.9683 73.9252L20.8868 66.3881L20.5728 65.8539C19.0484 63.2592 17.8858 60.4564 17.1167 57.5224L16.96 56.9243L8.15293 55.0722V42.9678L16.96 41.1153L17.1167 40.5172C17.8857 37.5836 19.0483 34.7804 20.5728 32.1861L20.8868 31.6519L15.9683 24.1148L24.523 15.5528L32.0591 20.4786L32.5933 20.1656C35.2242 18.6246 38.0298 17.462 40.9312 16.7095L41.5318 16.5542L43.3765 7.74463H55.48L57.3325 16.5517L57.9302 16.7089C60.8697 17.4809 63.6729 18.644 66.2617 20.165L66.7959 20.479L74.3413 15.5522L82.896 24.1147L77.9785 31.6508L78.2905 32.184C79.8266 34.8129 80.9863 37.6156 81.7383 40.5146L81.8936 41.1147L90.7032 42.9677V55.0723H90.7031Z"/><path fill="#E47F40" d="M49.4277 21.0356C44.2202 21.0356 39.1381 22.476 34.7309 25.2016L35.7827 26.9028C39.874 24.373 44.5923 23.0356 49.4277 23.0356C63.7553 23.0356 75.4121 34.6923 75.4121 49.02C75.4121 63.3477 63.7554 75.0039 49.4277 75.0039C35.1 75.0039 23.4438 63.3476 23.4438 49.02C23.4438 41.5083 26.6943 34.3667 32.3613 29.4258L31.0468 27.918C24.9438 33.2393 21.4438 40.9302 21.4438 49.0201C21.4438 64.4503 33.9975 77.004 49.4277 77.004C64.8584 77.004 77.4121 64.4503 77.4121 49.0201C77.4121 33.5893 64.8584 21.0356 49.4277 21.0356Z"/><path fill="#E47F40" d="M30.1813 60.6958C32.8699 60.6958 70.0686 60.6958 68.6745 60.6958V58.6958H66.2165V39.0068H59.82V58.6958H57.2565V45.4238H50.86V58.6958H48.2964V37.3442H41.9V58.6958H39.3365V43.0601H32.9405V58.6958H30.1812L30.1813 60.6958ZM61.8199 41.0068H64.2164V58.6958H61.8199V41.0068ZM52.86 47.4238H55.2565V58.6958H52.86V47.4238ZM43.9 39.3442H46.2964V58.6958H43.9V39.3442ZM34.9405 45.0601H37.3365V58.6958H34.9405V45.0601Z"/></svg>