<svg xmlns="http://www.w3.org/2000/svg" width="357" height="351" fill="none" viewBox="0 0 357 351"><path fill="#F2F2F2" d="M256.497 44.8901C277.299 64.0668 290.912 90.8231 312.768 129.281C334.726 167.739 365.004 217.893 353.522 247.794C342.039 277.695 288.592 287.333 238.126 306.942C187.661 326.55 140.149 356.015 96.4418 350.271C52.7345 344.527 12.8318 303.583 2.79598 258.3C-7.34151 212.908 12.2955 163.185 26.4409 117.902C40.4845 72.6235 49.0364 31.7657 73.6336 13.2673C98.2307 -5.2311 138.882 -1.25632 173.303 6.43239C207.718 14.216 235.695 25.7182 256.497 44.8901Z"/><path fill="#FF9811" d="M277.64 111.812L166.047 48.6064L54.4739 111.812C53.3853 112.429 52.4776 113.334 51.8455 114.433C51.2134 115.533 50.8799 116.786 50.8799 118.063C50.8783 119.306 51.1932 120.529 51.7934 121.609C52.3935 122.689 53.2582 123.589 54.3015 124.22C55.3449 124.852 56.5308 125.192 57.7418 125.208C58.9527 125.224 60.1466 124.914 61.2052 124.31L166.047 64.9175L270.909 124.322C271.967 124.921 273.159 125.227 274.367 125.209C275.575 125.19 276.758 124.849 277.798 124.218C278.838 123.588 279.701 122.689 280.3 121.612C280.899 120.535 281.214 119.316 281.215 118.075C281.219 116.798 280.889 115.544 280.261 114.442C279.632 113.341 278.727 112.432 277.64 111.812Z"/><path fill="#FF9811" d="M118.392 150.55V134.239H70.7363V150.55H74.7076H114.42H118.392Z"/><path fill="#FF9811" d="M114.42 162.784V150.55H74.707V162.784H82.6496H106.477H114.42Z"/><path fill="#FF9811" d="M122.363 236.183H114.42H74.7072H66.7646V252.494H122.363V236.183Z"/><path fill="#FF9811" d="M114.42 223.95H106.477H82.6496H74.707V236.183H114.42V223.95Z"/><path fill="#FF9811" d="M106.478 162.784H82.6504V223.95H106.478V162.784Z"/><path fill="#FF9811" d="M273.272 252.494H265.329H209.731H122.363H66.7648H58.8223V268.805H273.272V252.494Z"/><path fill="#FF9811" d="M58.8225 268.805H50.8799V285.116H281.215V268.805H273.272H58.8225Z"/><path fill="#FF9811" d="M165.844 199.483C167.769 199.456 169.672 199.907 171.392 200.797C173.111 201.687 174.596 202.989 175.72 204.595C176.844 206.2 177.574 208.06 177.847 210.017C178.121 211.974 177.931 213.97 177.293 215.835C176.711 217.583 175.742 219.169 174.462 220.467C173.181 221.765 171.624 222.739 169.914 223.314C166.961 224.336 163.737 224.136 160.925 222.756C158.114 221.375 155.938 218.923 154.859 215.921C154.455 214.709 153.697 213.655 152.688 212.902C151.678 212.15 150.467 211.736 149.22 211.717C148.253 211.724 147.303 211.97 146.449 212.435C145.595 212.9 144.863 213.57 144.315 214.388C143.767 215.206 143.42 216.148 143.302 217.133C143.185 218.118 143.301 219.118 143.64 220.047C144.839 223.447 146.758 226.53 149.259 229.074C151.761 231.617 154.782 233.558 158.104 234.756V240.261C158.104 242.424 158.941 244.498 160.43 246.028C161.92 247.557 163.94 248.416 166.046 248.416C168.153 248.416 170.173 247.557 171.663 246.028C173.152 244.498 173.989 242.424 173.989 240.261V234.756C177.493 233.45 180.658 231.334 183.238 228.571C185.818 225.808 187.744 222.473 188.867 218.823C189.99 215.173 190.28 211.306 189.715 207.523C189.149 203.739 187.743 200.14 185.605 197.004C183.488 193.786 180.587 191.192 177.192 189.481C173.796 187.77 170.024 187.001 166.249 187.25C164.323 187.276 162.42 186.825 160.701 185.935C158.982 185.044 157.497 183.741 156.373 182.136C155.249 180.53 154.519 178.67 154.246 176.713C153.972 174.756 154.162 172.76 154.8 170.894C155.372 169.173 156.321 167.609 157.573 166.323C158.825 165.036 160.347 164.061 162.023 163.473C164.989 162.4 168.247 162.569 171.093 163.942C173.939 165.316 176.145 167.783 177.233 170.813C177.637 172.024 178.396 173.078 179.405 173.831C180.414 174.583 181.625 174.998 182.873 175.017C183.839 175.01 184.79 174.763 185.644 174.298C186.498 173.833 187.23 173.163 187.778 172.345C188.326 171.527 188.673 170.586 188.79 169.6C188.908 168.615 188.792 167.615 188.452 166.686C187.254 163.287 185.335 160.204 182.833 157.66C180.332 155.116 177.311 153.175 173.989 151.977V146.472C173.989 144.309 173.152 142.235 171.663 140.706C170.173 139.176 168.153 138.317 166.046 138.317C163.94 138.317 161.92 139.176 160.43 140.706C158.941 142.235 158.104 144.309 158.104 146.472V151.977C154.599 153.283 151.435 155.399 148.855 158.162C146.275 160.925 144.348 164.261 143.225 167.911C142.102 171.561 141.812 175.427 142.378 179.211C142.944 182.994 144.35 186.593 146.488 189.729C148.605 192.948 151.505 195.541 154.901 197.252C158.297 198.963 162.069 199.733 165.844 199.483Z"/><path fill="#FF9811" d="M217.673 150.55H257.386H261.358V134.239H213.702V150.55H217.673Z"/><path fill="#FF9811" d="M217.674 162.784H225.616H249.444H257.387V150.55H217.674V162.784Z"/><path fill="#FF9811" d="M209.731 236.183V252.494H265.329V236.183H257.387H217.674H209.731Z"/><path fill="#FF9811" d="M217.674 223.95V236.183H257.387V223.95H249.444H225.616H217.674Z"/><path fill="#FF9811" d="M225.616 223.95H249.444V162.784H225.616V223.95Z"/><path fill="#FF9811" d="M166.047 105.695C172.627 105.695 177.961 100.218 177.961 93.4618C177.961 86.7055 172.627 81.2285 166.047 81.2285C159.467 81.2285 154.133 86.7055 154.133 93.4618C154.133 100.218 159.467 105.695 166.047 105.695Z"/><path fill="#FF9811" d="M72.4759 117.928L62.7939 123.413V134.239H269.301V123.413L259.623 117.928H72.4759Z"/><path fill="#FF9811" d="M269.301 126.084V123.413L259.623 117.928H72.4759L62.7939 123.413V126.084H269.301Z"/><path fill="#FF9811" d="M273.272 252.494H58.8223V260.65H273.272V252.494Z"/><path fill="#FF9811" d="M281.215 268.805H50.8799V276.961H281.215V268.805Z"/><path fill="#FFFBFB" d="M281.214 264.727H277.243V252.494C277.243 251.413 276.824 250.375 276.08 249.611C275.335 248.846 274.325 248.416 273.272 248.416H269.3V236.183C269.3 235.102 268.882 234.064 268.137 233.3C267.392 232.535 266.382 232.105 265.329 232.105H261.358V223.95C261.358 222.868 260.939 221.831 260.195 221.066C259.45 220.302 258.44 219.872 257.386 219.872H253.415V166.861H257.386C258.44 166.861 259.45 166.432 260.195 165.667C260.939 164.902 261.358 163.865 261.358 162.783V154.628C262.411 154.628 263.421 154.198 264.166 153.434C264.911 152.669 265.329 151.632 265.329 150.55V138.317H269.3C270.354 138.317 271.364 137.887 272.108 137.122C272.853 136.358 273.272 135.321 273.272 134.239V129.162C274.782 129.327 276.31 129.163 277.754 128.679C279.198 128.195 280.526 127.403 281.652 126.354C282.777 125.306 283.673 124.026 284.282 122.597C284.891 121.168 285.199 119.622 285.185 118.063C285.185 116.057 284.661 114.088 283.668 112.361C282.675 110.634 281.249 109.212 279.538 108.243L167.945 45.038C167.358 44.7031 166.698 44.5273 166.027 44.5273C165.356 44.5273 164.696 44.7031 164.109 45.038L52.5554 108.243C50.4363 109.449 48.7666 111.342 47.8083 113.626C46.8499 115.911 46.657 118.457 47.2598 120.866C47.8626 123.275 49.227 125.411 51.1391 126.938C53.0512 128.465 55.4028 129.298 57.8253 129.305C58.1589 129.305 58.4885 129.203 58.8221 129.174V134.239C58.8221 135.321 59.2405 136.358 59.9852 137.122C60.73 137.887 61.7401 138.317 62.7934 138.317H66.7646V150.55C66.7646 151.632 67.183 152.669 67.9278 153.434C68.6726 154.198 69.6827 154.628 70.7359 154.628V162.783C70.7359 163.865 71.1543 164.902 71.8991 165.667C72.6439 166.432 73.654 166.861 74.7072 166.861H78.6785V219.872H74.7072C73.654 219.872 72.6439 220.302 71.8991 221.066C71.1543 221.831 70.7359 222.868 70.7359 223.95V232.105H66.7646C65.7114 232.105 64.7013 232.535 63.9565 233.3C63.2118 234.064 62.7934 235.102 62.7934 236.183V248.416H58.8221C57.7688 248.416 56.7587 248.846 56.0139 249.611C55.2692 250.375 54.8508 251.413 54.8508 252.494V264.727H50.8795C49.8262 264.727 48.8161 265.157 48.0714 265.922C47.3266 266.686 46.9082 267.724 46.9082 268.805V285.116C46.9082 286.198 47.3266 287.235 48.0714 288C48.8161 288.764 49.8262 289.194 50.8795 289.194H281.214C282.267 289.194 283.278 288.764 284.022 288C284.767 287.235 285.185 286.198 285.185 285.116V268.805C285.185 267.724 284.767 266.686 284.022 265.922C283.278 265.157 282.267 264.727 281.214 264.727ZM174.863 248.416C176.846 246.187 177.95 243.28 177.961 240.261V237.484C184.604 234.235 189.731 228.427 192.23 221.32C193.685 216.949 194.149 212.296 193.588 207.713C193.028 203.131 191.456 198.74 188.993 194.875C186.508 191.059 183.097 187.972 179.098 185.92C175.098 183.868 170.646 182.921 166.182 183.172C164.906 183.205 163.642 182.916 162.501 182.331C161.36 181.745 160.377 180.88 159.637 179.812C158.861 178.731 158.357 177.469 158.17 176.14C157.983 174.81 158.119 173.454 158.565 172.191C158.942 171.067 159.563 170.047 160.381 169.206C161.199 168.365 162.193 167.727 163.287 167.338C164.27 166.966 165.316 166.798 166.363 166.843C167.41 166.888 168.438 167.145 169.388 167.6C170.338 168.055 171.191 168.699 171.897 169.493C172.604 170.288 173.15 171.219 173.505 172.232C173.921 173.526 174.586 174.721 175.459 175.747C176.333 176.773 177.399 177.609 178.592 178.205C179.786 178.801 181.084 179.145 182.41 179.217C183.735 179.289 185.062 179.087 186.31 178.623C187.558 178.16 188.703 177.444 189.677 176.518C190.651 175.592 191.435 174.475 191.981 173.232C192.528 171.99 192.826 170.648 192.858 169.286C192.891 167.923 192.657 166.567 192.17 165.299C190.948 161.794 189.063 158.571 186.625 155.815C184.187 153.059 181.242 150.825 177.961 149.241V146.472C177.95 143.453 176.846 140.546 174.863 138.317H209.731V150.55C209.731 151.632 210.149 152.669 210.894 153.434C211.639 154.198 212.649 154.628 213.702 154.628V162.783C213.702 163.865 214.121 164.902 214.865 165.667C215.61 166.432 216.62 166.861 217.674 166.861H221.645V219.872H217.674C216.62 219.872 215.61 220.302 214.865 221.066C214.121 221.831 213.702 222.868 213.702 223.95V232.105H209.731C208.678 232.105 207.668 232.535 206.923 233.3C206.178 234.064 205.76 235.102 205.76 236.183V248.416H174.863ZM122.363 232.105H118.391V223.95C118.391 222.868 117.973 221.831 117.228 221.066C116.483 220.302 115.473 219.872 114.42 219.872H110.449V166.861H114.42C115.473 166.861 116.483 166.432 117.228 165.667C117.973 164.902 118.391 163.865 118.391 162.783V154.628C119.445 154.628 120.455 154.198 121.2 153.434C121.944 152.669 122.363 151.632 122.363 150.55V138.317H157.231C155.248 140.546 154.143 143.453 154.133 146.472V149.249C147.49 152.499 142.364 158.307 139.864 165.414C138.409 169.784 137.944 174.437 138.505 179.02C139.066 183.602 140.638 187.993 143.101 191.858C145.58 195.68 148.989 198.771 152.991 200.824C156.992 202.877 161.446 203.82 165.912 203.561C167.189 203.515 168.458 203.798 169.601 204.385C170.744 204.972 171.726 205.844 172.456 206.921C173.233 208.002 173.737 209.264 173.924 210.594C174.111 211.923 173.975 213.28 173.529 214.542C173.144 215.685 172.508 216.721 171.669 217.569C170.831 218.418 169.814 219.057 168.696 219.436C166.719 220.139 164.552 220.017 162.662 219.097C160.772 218.176 159.309 216.531 158.589 214.514C158.173 213.22 157.508 212.024 156.634 210.998C155.76 209.972 154.695 209.136 153.501 208.54C152.307 207.944 151.009 207.6 149.684 207.529C148.358 207.457 147.032 207.659 145.784 208.122C144.535 208.586 143.39 209.302 142.416 210.228C141.442 211.154 140.659 212.271 140.112 213.513C139.566 214.755 139.268 216.097 139.235 217.46C139.203 218.822 139.437 220.178 139.924 221.446C141.147 224.949 143.032 228.17 145.471 230.924C147.909 233.677 150.853 235.909 154.133 237.492V240.261C154.143 243.28 155.248 246.187 157.231 248.416H126.334V236.183C126.334 235.102 125.916 234.064 125.171 233.3C124.426 232.535 123.416 232.105 122.363 232.105ZM153.228 184.632C154.738 186.732 156.712 188.434 158.987 189.598C161.263 190.761 163.775 191.354 166.317 191.328C169.401 191.091 172.492 191.687 175.282 193.057C178.073 194.427 180.465 196.523 182.222 199.137C184.052 201.968 185.231 205.19 185.67 208.559C186.108 211.927 185.794 215.354 184.752 218.579C183.754 221.423 182.154 224.004 180.067 226.136C177.98 228.268 175.458 229.897 172.683 230.906C171.905 231.185 171.23 231.705 170.753 232.395C170.275 233.084 170.018 233.91 170.018 234.756V240.261C170.018 241.342 169.6 242.38 168.855 243.144C168.11 243.909 167.1 244.339 166.047 244.339C164.994 244.339 163.983 243.909 163.239 243.144C162.494 242.38 162.076 241.342 162.076 240.261V234.756C162.075 233.909 161.818 233.084 161.34 232.394C160.861 231.704 160.186 231.184 159.407 230.906C156.648 229.901 154.139 228.284 152.059 226.169C149.978 224.055 148.377 221.495 147.37 218.673C147.25 218.342 147.21 217.986 147.252 217.635C147.295 217.284 147.42 216.949 147.616 216.659C147.794 216.395 148.031 216.179 148.308 216.031C148.584 215.882 148.892 215.805 149.205 215.807C149.639 215.83 150.057 215.99 150.4 216.265C150.743 216.54 150.995 216.916 151.123 217.344C152.564 221.33 155.455 224.586 159.188 226.427C162.921 228.267 167.203 228.549 171.134 227.212C173.44 226.449 175.54 225.141 177.264 223.393C178.989 221.645 180.289 219.506 181.062 217.148C181.909 214.648 182.152 211.974 181.769 209.357C181.387 206.739 180.39 204.256 178.866 202.122C177.338 200.04 175.36 198.351 173.089 197.185C170.818 196.02 168.315 195.411 165.777 195.405C162.696 195.633 159.611 195.033 156.826 193.664C154.04 192.294 151.65 190.203 149.892 187.597C148.061 184.766 146.882 181.545 146.444 178.177C146.006 174.809 146.32 171.383 147.362 168.158C148.359 165.313 149.959 162.731 152.046 160.599C154.133 158.466 156.655 156.836 159.431 155.827C160.205 155.545 160.876 155.023 161.349 154.334C161.823 153.644 162.077 152.821 162.076 151.977V146.472C162.076 145.391 162.494 144.354 163.239 143.589C163.983 142.824 164.994 142.395 166.047 142.395C167.1 142.395 168.11 142.824 168.855 143.589C169.6 144.354 170.018 145.391 170.018 146.472V151.977C170.019 152.824 170.276 153.65 170.754 154.339C171.232 155.029 171.908 155.549 172.687 155.827C175.446 156.832 177.955 158.449 180.035 160.564C182.116 162.678 183.717 165.238 184.724 168.06C184.844 168.391 184.884 168.747 184.841 169.098C184.798 169.449 184.674 169.784 184.478 170.074C184.3 170.338 184.063 170.554 183.786 170.702C183.509 170.851 183.201 170.928 182.889 170.927C182.455 170.904 182.039 170.745 181.696 170.471C181.354 170.196 181.102 169.82 180.975 169.393C179.522 165.374 176.594 162.099 172.818 160.27C169.042 158.44 164.718 158.202 160.773 159.607C158.512 160.391 156.458 161.701 154.772 163.435C153.086 165.169 151.812 167.279 151.051 169.601C150.201 172.1 149.956 174.774 150.335 177.392C150.714 180.01 151.706 182.495 153.228 184.632ZM213.702 240.261H261.358V248.416H213.702V240.261ZM221.645 232.105V228.028H253.415V232.105H221.645ZM245.473 219.872H229.587V166.861H245.473V219.872ZM253.415 158.706H221.645V154.628H253.415V158.706ZM257.386 146.472H217.674V138.317H257.386V146.472ZM66.7646 130.161V125.818L73.492 122.006H258.598L265.349 125.818V130.161H66.7646ZM87.8879 113.85L166.047 69.5739L244.202 113.85H87.8879ZM56.3162 120.709C55.8657 120.441 55.4926 120.054 55.2352 119.589C54.9777 119.124 54.8451 118.597 54.8508 118.063C54.8503 117.515 54.993 116.978 55.2641 116.506C55.5351 116.035 55.9246 115.647 56.3916 115.383L166.047 53.2629L275.702 115.388C276.171 115.652 276.561 116.041 276.832 116.514C277.103 116.987 277.245 117.526 277.243 118.075C277.243 118.607 277.109 119.129 276.852 119.591C276.596 120.053 276.226 120.439 275.78 120.709C275.334 120.979 274.826 121.125 274.309 121.132C273.791 121.139 273.28 121.008 272.827 120.75L167.965 61.3491C167.378 61.0164 166.718 60.8419 166.047 60.8419C165.376 60.8419 164.716 61.0164 164.129 61.3491L59.2668 120.75C58.8152 121.011 58.3044 121.144 57.7862 121.137C57.268 121.13 56.7608 120.982 56.3162 120.709ZM114.42 138.317V146.472H74.7072V138.317H114.42ZM110.449 154.628V158.706H78.6785V154.628H110.449ZM86.6211 166.861H102.506V219.872H86.6211V166.861ZM78.6785 228.028H110.449V232.105H78.6785V228.028ZM70.7359 240.261H118.391V248.416H70.7359V240.261ZM62.7934 256.572H269.3V264.727H62.7934V256.572ZM277.243 281.038H54.8508V272.883H277.243V281.038Z"/></svg>