<svg xmlns="http://www.w3.org/2000/svg" width="345" height="340" fill="none" viewBox="0 0 345 340"><path fill="#F2F2F2" d="M248.458 43.4833C268.608 62.059 281.796 87.9768 302.967 125.229C324.236 162.482 353.566 211.064 342.443 240.028C331.32 268.992 279.548 278.329 230.664 297.322C181.78 316.316 135.757 344.857 93.4194 339.293C51.0819 333.729 12.4296 294.069 2.70836 250.205C-7.11144 206.236 11.9102 158.071 25.6123 114.207C39.2158 70.3476 47.4997 30.7702 71.326 12.8515C95.1523 -5.06717 134.53 -1.21695 167.872 6.2308C201.209 13.7704 228.308 24.9122 248.458 43.4833Z"/><path stroke="#FF9811" stroke-linecap="round" stroke-linejoin="round" stroke-width="6" d="M179.231 91.9384C201.102 98.4472 219.769 112.863 231.597 132.378C243.424 151.893 247.566 175.112 243.215 197.513C238.865 219.914 226.333 239.894 208.061 253.564C189.789 267.233 167.083 273.614 144.365 271.463C121.647 269.312 100.543 258.783 85.1605 241.927C69.7784 225.071 61.2197 203.094 61.1508 180.274C61.0819 157.455 69.5076 135.426 84.7876 118.478C100.068 101.529 121.108 90.8732 143.813 88.585"/><path fill="#FF9811" d="M210.146 147.844L95.8535 304.031L166.689 175.406H102.377L159.385 55.9688H200.729L145.834 147.844H210.146Z"/></svg>