<svg width="400" height="384" viewBox="0 0 400 384" fill="none" xmlns="http://www.w3.org/2000/svg">
<path d="M288.134 49.1106C311.502 70.0902 326.795 99.362 351.347 141.435C376.013 183.509 410.026 238.379 397.127 271.091C384.228 303.803 324.188 314.348 267.498 335.799C210.808 357.251 157.436 389.486 108.337 383.202C59.2391 376.918 14.4145 332.125 3.14085 282.585C-8.24706 232.925 13.8121 178.527 29.7022 128.987C45.4781 79.4514 55.0849 34.7523 82.716 14.5147C110.347 -5.72292 156.013 -1.37443 194.679 7.03714C233.34 15.5525 264.767 28.1361 288.134 49.1106Z" fill="#F2F2F2"/>
<rect x="158" y="97" width="51" height="189" fill="#FF9811"/>
<rect x="85" y="164" width="198" height="55" fill="#FF9811"/>
</svg>
