<svg xmlns="http://www.w3.org/2000/svg" width="410" height="404" fill="none" viewBox="0 0 410 404"><path fill="#F2F2F2" d="M295.226 51.6684C319.169 73.7407 334.839 104.537 359.995 148.802C385.268 193.067 420.118 250.794 406.902 285.21C393.685 319.626 332.168 330.72 274.082 353.289C215.997 375.858 161.311 409.772 111.004 403.16C60.6972 396.549 14.7693 349.424 3.21816 297.303C-8.45004 245.056 14.1521 187.826 30.4333 135.705C46.5975 83.5895 56.4407 36.5623 84.7519 15.2706C113.063 -6.02099 159.853 -1.44602 199.471 7.40366C239.083 16.3625 271.283 29.6015 295.226 51.6684Z"/><path fill="#FEA42D" fill-rule="evenodd" d="M185 349C185 349 59 301.323 59 198.535V103.181C59 103.181 141.5 103.181 185 55V349Z" clip-rule="evenodd"/><path fill="#FF9811" fill-rule="evenodd" d="M185 349C185 349 311 301.323 311 198.535V103.181C311 103.181 262 110 185 55V349Z" clip-rule="evenodd"/></svg>