<svg xmlns="http://www.w3.org/2000/svg" width="343" height="329" fill="none" viewBox="0 0 343 329"><path fill="#F2F2F2" d="M246.865 42.0765C266.886 60.0512 279.989 85.1305 301.024 121.178C322.157 157.225 351.298 204.236 340.247 232.263C329.195 260.29 277.755 269.324 229.185 287.703C180.614 306.082 134.886 333.7 92.8204 328.316C50.7544 322.932 12.3499 284.555 2.69099 242.11C-7.06584 199.563 11.8338 152.957 25.448 110.512C38.9643 68.0716 47.1951 29.7747 70.8687 12.4357C94.5422 -4.90323 133.667 -1.17757 166.795 6.02922C199.919 13.3249 226.844 24.1062 246.865 42.0765Z"/><path fill="#FF9811" d="M234.158 162.357C239.572 167.5 240.114 175.892 234.97 181.306C232.263 184.284 228.744 185.637 224.954 185.637C221.706 185.637 218.458 184.554 215.751 182.118C155.655 127.165 90.9571 179.411 88.2501 181.577C82.5653 186.449 73.9029 185.637 69.301 179.952C64.4283 174.268 65.2405 165.876 70.9252 161.003C100.432 136.369 171.897 105.238 234.158 162.357ZM153.489 237.612C146.722 237.612 139.954 240.319 135.352 245.192C130.48 250.064 127.773 256.561 127.773 263.329C127.773 270.097 130.48 276.593 135.352 281.466C140.225 286.339 146.722 289.046 153.489 289.046C160.257 289.046 167.024 286.339 171.626 281.466C176.499 276.593 179.206 270.097 179.206 263.329C179.206 256.561 176.499 250.064 171.626 245.192C166.754 240.319 160.257 237.612 153.489 237.612ZM272.598 125.541C208.442 69.5056 146.451 72.4833 105.575 84.9356C61.992 98.2001 33.5684 124.188 32.4856 125.541C27.0715 130.684 26.8008 139.076 31.9442 144.49C37.0875 149.904 45.7499 150.175 51.164 145.032C51.4347 144.761 76.0685 122.022 113.696 110.652C163.505 95.4931 210.878 107.404 255.002 145.844C257.439 148.009 260.687 149.092 263.935 149.092C267.725 149.092 271.515 147.468 274.222 144.49C278.824 139.076 278.283 130.414 272.598 125.541ZM108.011 199.443C102.056 204.045 101.244 212.437 105.846 218.392C110.448 224.348 119.11 225.16 124.795 220.558C125.878 219.746 154.572 197.548 178.935 220.287C181.642 222.723 184.891 223.806 188.139 223.806C191.658 223.806 195.448 222.453 198.155 219.475C203.298 214.061 203.028 205.399 197.343 200.526C164.588 170.207 124.524 186.72 108.011 199.443Z"/></svg>