<svg xmlns="http://www.w3.org/2000/svg" width="410" height="404" fill="none" viewBox="0 0 410 404"><path fill="#F2F2F2" d="M295.226 51.6684C319.169 73.7407 334.839 104.537 359.995 148.802C385.268 193.067 420.118 250.794 406.902 285.21C393.685 319.626 332.168 330.72 274.082 353.289C215.997 375.858 161.311 409.772 111.004 403.16C60.6972 396.549 14.7693 349.424 3.21816 297.303C-8.45004 245.056 14.1521 187.826 30.4333 135.705C46.5975 83.5895 56.4407 36.5623 84.7519 15.2706C113.063 -6.02099 159.853 -1.44602 199.471 7.40366C239.083 16.3625 271.283 29.6015 295.226 51.6684Z"/><path fill="#FF9811" d="M141.11 134.499L122.595 200.18C118.628 214.538 135.631 220.143 139.787 206.666L156.349 146.086H161.009L132.545 252.511H159.12V332.487C159.12 346.971 179.272 346.971 179.272 332.487V252.511H185.569V332.487C185.569 346.971 205.091 346.971 205.091 332.487V252.511H232.421L203.328 146.086H208.617L225.179 206.666C229.273 220.458 246.15 214.538 242.371 200.243L223.857 134.499C221.338 127.068 212.396 113.97 197.408 113.34H167.622C152.13 113.97 143.251 126.942 141.11 134.499Z"/><path fill="#FF9811" d="M205.476 84.4891C205.476 71.5166 195.149 61 182.428 61C169.708 61 159.38 71.5166 159.38 84.4891C159.38 97.4616 169.708 107.978 182.428 107.978C195.149 107.978 205.476 97.4616 205.476 84.4891Z"/><path fill="#FF9811" d="M246.048 165.884L231.469 217.606C228.345 228.913 241.734 233.326 245.007 222.714L258.049 175.008H261.719L239.304 258.816H260.231V321.796C260.231 333.201 276.1 333.201 276.1 321.796V258.816H281.059V321.796C281.059 333.201 296.432 333.201 296.432 321.796V258.816H317.955L295.044 175.008H299.209L312.252 222.714C315.475 233.574 328.765 228.913 325.79 217.656L311.21 165.884C309.227 160.032 302.185 149.717 290.382 149.221H266.926C254.727 149.717 247.735 159.933 246.048 165.884Z"/><path fill="#FF9811" d="M296.741 126.497C296.741 116.282 288.608 108 278.591 108C268.573 108 260.44 116.282 260.44 126.497C260.44 136.713 268.573 144.994 278.591 144.994C288.608 144.994 296.741 136.713 296.741 126.497Z"/><path fill="#FF9811" d="M54.0485 165.884L39.4689 217.606C36.3447 228.913 49.7341 233.326 53.0071 222.714L66.0494 175.008H69.7191L47.3042 258.816H68.2314V321.796C68.2314 333.201 84.1003 333.201 84.1003 321.796V258.816H89.0594V321.796C89.0594 333.201 104.432 333.201 104.432 321.796V258.816H125.955L103.044 175.008H107.209L120.252 222.714C123.475 233.574 136.765 228.913 133.79 217.656L119.21 165.884C117.227 160.032 110.185 149.717 98.3824 149.221H74.9261C62.7268 149.717 55.7346 159.933 54.0485 165.884Z"/><path fill="#FF9811" d="M104.741 126.497C104.741 116.282 96.6078 108 86.5905 108C76.5733 108 68.4404 116.282 68.4404 126.497C68.4404 136.713 76.5733 144.994 86.5905 144.994C96.6078 144.994 104.741 136.713 104.741 126.497Z"/></svg>