<svg xmlns="http://www.w3.org/2000/svg" width="366" height="351" fill="none" viewBox="0 0 366 351"><path fill="#F2F2F2" d="M263.371 44.8898C284.731 64.0664 298.709 90.8226 321.151 129.28C343.697 167.738 374.787 217.892 362.997 247.793C351.206 277.693 296.327 287.331 244.508 306.94C192.69 326.548 143.905 356.012 99.0266 350.268C54.1479 344.524 13.1757 303.582 2.87092 258.299C-7.53828 212.907 12.6251 163.184 27.1495 117.901C41.5696 72.6231 50.3507 31.7655 75.6071 13.2672C100.864 -5.23107 142.605 -1.25631 177.948 6.43235C213.286 14.2159 242.012 25.718 263.371 44.8898Z"/><g filter="url(#filter0_d)"><path fill="#E47F40" d="M159 176C159 178.571 159.762 181.085 161.191 183.222C162.619 185.36 164.65 187.026 167.025 188.01C169.401 188.994 172.014 189.252 174.536 188.75C177.058 188.249 179.374 187.01 181.192 185.192C183.01 183.374 184.249 181.058 184.75 178.536C185.252 176.014 184.994 173.401 184.01 171.025C183.026 168.65 181.36 166.619 179.222 165.191C177.085 163.762 174.571 163 172 163C170.293 163 168.602 163.336 167.025 163.99C165.448 164.643 164.015 165.6 162.808 166.808C160.37 169.246 159 172.552 159 176ZM170.7 169.5C170.7 169.155 170.837 168.825 171.081 168.581C171.325 168.337 171.655 168.2 172 168.2C172.345 168.2 172.675 168.337 172.919 168.581C173.163 168.825 173.3 169.155 173.3 169.5V175.249L176.027 176.824C176.325 176.996 176.543 177.28 176.632 177.613C176.722 177.946 176.675 178.301 176.502 178.6C176.33 178.898 176.046 179.116 175.713 179.205C175.38 179.295 175.026 179.248 174.727 179.076L171.35 177.126C171.153 177.011 170.989 176.847 170.875 176.65C170.761 176.452 170.701 176.228 170.7 176V169.5Z"/><path stroke="#E47F40" stroke-width="12" d="M191.06 162.413C215.242 180.681 234.294 199.106 245.601 214.025C251.28 221.518 254.805 227.867 256.2 232.71C257.673 237.824 256.4 239.763 255.616 240.355C254.831 240.947 252.265 241.909 245.496 240.797C239.085 239.743 230.68 237.079 220.762 232.79C201.013 224.248 176.622 209.855 152.44 191.587C128.258 173.319 109.207 154.894 97.8994 139.975C92.2206 132.482 88.6949 126.133 87.3001 121.29C85.8275 116.176 87.1007 114.238 87.8848 113.645C88.6689 113.053 91.2353 112.091 98.0046 113.204C104.416 114.257 112.82 116.921 122.738 121.211C142.487 129.753 166.878 144.145 191.06 162.413Z"/><path stroke="#E47F40" stroke-width="12" d="M191.061 191.587C166.879 209.855 142.488 224.248 122.739 232.79C112.821 237.079 104.417 239.743 98.0055 240.797C91.2362 241.909 88.6698 240.947 87.8857 240.355C87.1016 239.763 85.8284 237.824 87.301 232.71C88.6958 227.867 92.2216 221.518 97.9003 214.025C109.208 199.106 128.259 180.681 152.441 162.413C176.623 144.145 201.014 129.753 220.763 121.211C230.681 116.921 239.085 114.257 245.497 113.204C252.266 112.091 254.832 113.053 255.616 113.645C256.401 114.238 257.674 116.176 256.201 121.29C254.806 126.133 251.281 132.482 245.602 139.975C234.295 154.894 215.243 173.319 191.061 191.587Z"/><path stroke="#E47F40" stroke-width="12" d="M200.179 177C200.179 202.729 196.427 225.762 190.548 242.149C187.599 250.368 184.229 256.595 180.786 260.653C177.322 264.737 174.361 266 172.095 266C169.828 266 166.867 264.737 163.403 260.653C159.961 256.595 156.59 250.368 153.641 242.149C147.762 225.762 144.011 202.729 144.011 177C144.011 151.271 147.762 128.238 153.641 111.851C156.59 103.632 159.961 97.4051 163.403 93.3468C166.867 89.2629 169.828 88 172.095 88C174.361 88 177.322 89.2629 180.786 93.3468C184.229 97.4051 187.599 103.632 190.548 111.851C196.427 128.238 200.179 151.271 200.179 177Z"/></g><defs><filter id="filter0_d" width="187.786" height="194" x="79.857" y="82" color-interpolation-filters="sRGB" filterUnits="userSpaceOnUse"><feFlood flood-opacity="0" result="BackgroundImageFix"/><feColorMatrix in="SourceAlpha" type="matrix" values="0 0 0 0 0 0 0 0 0 0 0 0 0 0 0 0 0 0 127 0"/><feOffset dx="4" dy="4"/><feColorMatrix type="matrix" values="0 0 0 0 0 0 0 0 0 0 0 0 0 0 0 0 0 0 0.25 0"/><feBlend in2="BackgroundImageFix" mode="normal" result="effect1_dropShadow"/><feBlend in="SourceGraphic" in2="effect1_dropShadow" mode="normal" result="shape"/></filter></defs></svg>